%TF.GenerationSoftware,KiCad,Pcbnew,6.0.2+dfsg-1*%
%TF.CreationDate,2022-09-07T02:14:39-05:00*%
%TF.ProjectId,veritas,76657269-7461-4732-9e6b-696361645f70,rev?*%
%TF.SameCoordinates,Original*%
%TF.FileFunction,Paste,Top*%
%TF.FilePolarity,Positive*%
%FSLAX46Y46*%
G04 Gerber Fmt 4.6, Leading zero omitted, Abs format (unit mm)*
G04 Created by KiCad (PCBNEW 6.0.2+dfsg-1) date 2022-09-07 02:14:39*
%MOMM*%
%LPD*%
G01*
G04 APERTURE LIST*
G04 Aperture macros list*
%AMRoundRect*
0 Rectangle with rounded corners*
0 $1 Rounding radius*
0 $2 $3 $4 $5 $6 $7 $8 $9 X,Y pos of 4 corners*
0 Add a 4 corners polygon primitive as box body*
4,1,4,$2,$3,$4,$5,$6,$7,$8,$9,$2,$3,0*
0 Add four circle primitives for the rounded corners*
1,1,$1+$1,$2,$3*
1,1,$1+$1,$4,$5*
1,1,$1+$1,$6,$7*
1,1,$1+$1,$8,$9*
0 Add four rect primitives between the rounded corners*
20,1,$1+$1,$2,$3,$4,$5,0*
20,1,$1+$1,$4,$5,$6,$7,0*
20,1,$1+$1,$6,$7,$8,$9,0*
20,1,$1+$1,$8,$9,$2,$3,0*%
G04 Aperture macros list end*
%ADD10RoundRect,0.237500X-0.250000X-0.237500X0.250000X-0.237500X0.250000X0.237500X-0.250000X0.237500X0*%
%ADD11RoundRect,0.237500X0.300000X0.237500X-0.300000X0.237500X-0.300000X-0.237500X0.300000X-0.237500X0*%
%ADD12R,0.800000X1.900000*%
%ADD13RoundRect,0.237500X0.237500X-0.300000X0.237500X0.300000X-0.237500X0.300000X-0.237500X-0.300000X0*%
%ADD14RoundRect,0.237500X-0.237500X0.250000X-0.237500X-0.250000X0.237500X-0.250000X0.237500X0.250000X0*%
%ADD15RoundRect,0.237500X-0.237500X0.300000X-0.237500X-0.300000X0.237500X-0.300000X0.237500X0.300000X0*%
%ADD16RoundRect,0.237500X-0.300000X-0.237500X0.300000X-0.237500X0.300000X0.237500X-0.300000X0.237500X0*%
%ADD17R,1.550000X1.300000*%
%ADD18RoundRect,0.150000X-0.150000X0.650000X-0.150000X-0.650000X0.150000X-0.650000X0.150000X0.650000X0*%
%ADD19R,1.450000X0.600000*%
%ADD20R,1.450000X0.300000*%
%ADD21RoundRect,0.237500X0.250000X0.237500X-0.250000X0.237500X-0.250000X-0.237500X0.250000X-0.237500X0*%
%ADD22R,0.340000X0.700000*%
%ADD23R,1.900000X0.800000*%
%ADD24RoundRect,0.150000X-0.825000X-0.150000X0.825000X-0.150000X0.825000X0.150000X-0.825000X0.150000X0*%
%ADD25R,1.500000X2.000000*%
%ADD26R,3.800000X2.000000*%
%ADD27R,2.000000X4.500000*%
%ADD28R,1.500000X0.400000*%
%ADD29RoundRect,0.250000X-0.292217X0.292217X-0.292217X-0.292217X0.292217X-0.292217X0.292217X0.292217X0*%
%ADD30RoundRect,0.050000X-0.050000X0.387500X-0.050000X-0.387500X0.050000X-0.387500X0.050000X0.387500X0*%
%ADD31RoundRect,0.050000X-0.387500X0.050000X-0.387500X-0.050000X0.387500X-0.050000X0.387500X0.050000X0*%
G04 APERTURE END LIST*
D10*
%TO.C,R7*%
X66258000Y56364999D03*
X68083000Y56364999D03*
%TD*%
%TO.C,R25*%
X42648500Y26289000D03*
X44473500Y26289000D03*
%TD*%
D11*
%TO.C,C2*%
X19531500Y36576000D03*
X17806500Y36576000D03*
%TD*%
D12*
%TO.C,Q20*%
X10094000Y31067000D03*
X8194000Y31067000D03*
X9144000Y28067000D03*
%TD*%
D13*
%TO.C,C19*%
X14478000Y16917500D03*
X14478000Y18642500D03*
%TD*%
D11*
%TO.C,C20*%
X63373000Y41275000D03*
X61648000Y41275000D03*
%TD*%
D10*
%TO.C,R45*%
X8231500Y33147000D03*
X10056500Y33147000D03*
%TD*%
%TO.C,R14*%
X50268500Y26289000D03*
X52093500Y26289000D03*
%TD*%
D14*
%TO.C,R22*%
X12827000Y18669000D03*
X12827000Y16844000D03*
%TD*%
D10*
%TO.C,R43*%
X27408500Y19177000D03*
X29233500Y19177000D03*
%TD*%
D12*
%TO.C,Q4*%
X25461000Y9604000D03*
X23561000Y9604000D03*
X24511000Y6604000D03*
%TD*%
D10*
%TO.C,R9*%
X23598500Y26289000D03*
X25423500Y26289000D03*
%TD*%
D14*
%TO.C,R2*%
X38989000Y54149000D03*
X38989000Y52324000D03*
%TD*%
D12*
%TO.C,Q17*%
X33081000Y9604000D03*
X31181000Y9604000D03*
X32131000Y6604000D03*
%TD*%
D10*
%TO.C,R28*%
X42648500Y4572000D03*
X44473500Y4572000D03*
%TD*%
D15*
%TO.C,C10*%
X44831000Y45339000D03*
X44831000Y43614000D03*
%TD*%
D13*
%TO.C,C13*%
X10414000Y42852000D03*
X10414000Y44577000D03*
%TD*%
D16*
%TO.C,C4*%
X32538500Y35560000D03*
X34263500Y35560000D03*
%TD*%
D12*
%TO.C,Q5*%
X52131000Y24209000D03*
X50231000Y24209000D03*
X51181000Y21209000D03*
%TD*%
D10*
%TO.C,R32*%
X38838500Y4572000D03*
X40663500Y4572000D03*
%TD*%
D17*
%TO.C,SW1*%
X45466000Y51634000D03*
X53426000Y51634000D03*
X45466000Y56134000D03*
X53426000Y56134000D03*
%TD*%
D10*
%TO.C,R34*%
X35028500Y11684000D03*
X36853500Y11684000D03*
%TD*%
%TO.C,R39*%
X31218500Y19177000D03*
X33043500Y19177000D03*
%TD*%
%TO.C,R17*%
X50268500Y19177000D03*
X52093500Y19177000D03*
%TD*%
%TO.C,R40*%
X31218500Y4572000D03*
X33043500Y4572000D03*
%TD*%
%TO.C,R3*%
X18542000Y39751000D03*
X20367000Y39751000D03*
%TD*%
D18*
%TO.C,U1*%
X36830000Y54190000D03*
X35560000Y54190000D03*
X34290000Y54190000D03*
X33020000Y54190000D03*
X33020000Y46990000D03*
X34290000Y46990000D03*
X35560000Y46990000D03*
X36830000Y46990000D03*
%TD*%
D10*
%TO.C,R15*%
X50268500Y11684000D03*
X52093500Y11684000D03*
%TD*%
D11*
%TO.C,C15*%
X36396000Y41783000D03*
X34671000Y41783000D03*
%TD*%
D10*
%TO.C,R46*%
X9732000Y26035000D03*
X11557000Y26035000D03*
%TD*%
%TO.C,R23*%
X46458500Y19177000D03*
X48283500Y19177000D03*
%TD*%
D13*
%TO.C,C11*%
X38989000Y46990000D03*
X38989000Y48715000D03*
%TD*%
D10*
%TO.C,R35*%
X35028500Y19177000D03*
X36853500Y19177000D03*
%TD*%
%TO.C,R19*%
X19788500Y4572000D03*
X21613500Y4572000D03*
%TD*%
D12*
%TO.C,Q16*%
X33081000Y24209000D03*
X31181000Y24209000D03*
X32131000Y21209000D03*
%TD*%
%TO.C,Q7*%
X21651000Y9604000D03*
X19751000Y9604000D03*
X20701000Y6604000D03*
%TD*%
D10*
%TO.C,R38*%
X31218500Y11684000D03*
X33043500Y11684000D03*
%TD*%
D19*
%TO.C,J7*%
X64882000Y47044000D03*
X64882000Y47844000D03*
D20*
X64882000Y49044000D03*
X64882000Y50044000D03*
X64882000Y50544000D03*
X64882000Y51544000D03*
D19*
X64882000Y52744000D03*
X64882000Y53544000D03*
X64882000Y53544000D03*
X64882000Y52744000D03*
D20*
X64882000Y52044000D03*
X64882000Y51044000D03*
X64882000Y49544000D03*
X64882000Y48544000D03*
D19*
X64882000Y47844000D03*
X64882000Y47044000D03*
%TD*%
D12*
%TO.C,Q12*%
X40701000Y24209000D03*
X38801000Y24209000D03*
X39751000Y21209000D03*
%TD*%
D10*
%TO.C,R16*%
X19788500Y11684000D03*
X21613500Y11684000D03*
%TD*%
D12*
%TO.C,Q13*%
X40701000Y9604000D03*
X38801000Y9604000D03*
X39751000Y6604000D03*
%TD*%
D10*
%TO.C,R10*%
X23598500Y11684000D03*
X25423500Y11684000D03*
%TD*%
D16*
%TO.C,C17*%
X7673000Y18796000D03*
X9398000Y18796000D03*
%TD*%
D11*
%TO.C,C16*%
X36396000Y40259000D03*
X34671000Y40259000D03*
%TD*%
D15*
%TO.C,C3*%
X29591000Y34925000D03*
X29591000Y33200000D03*
%TD*%
D10*
%TO.C,R31*%
X38838500Y19177000D03*
X40663500Y19177000D03*
%TD*%
%TO.C,R26*%
X42648500Y11684000D03*
X44473500Y11684000D03*
%TD*%
D21*
%TO.C,R1*%
X40814000Y56134000D03*
X38989000Y56134000D03*
%TD*%
D10*
%TO.C,R5*%
X32512000Y38608000D03*
X34337000Y38608000D03*
%TD*%
D22*
%TO.C,U6*%
X49268000Y33135000D03*
X48768000Y33135000D03*
X48268000Y33135000D03*
X48268000Y31635000D03*
X48768000Y31635000D03*
X49268000Y31635000D03*
%TD*%
%TO.C,U5*%
X51808000Y33135000D03*
X51308000Y33135000D03*
X50808000Y33135000D03*
X50808000Y31635000D03*
X51308000Y31635000D03*
X51808000Y31635000D03*
%TD*%
D16*
%TO.C,C8*%
X32538500Y32512000D03*
X34263500Y32512000D03*
%TD*%
D12*
%TO.C,Q15*%
X36891000Y9604000D03*
X34991000Y9604000D03*
X35941000Y6604000D03*
%TD*%
D10*
%TO.C,R42*%
X27408500Y11684000D03*
X29233500Y11684000D03*
%TD*%
%TO.C,R12*%
X23598500Y19177000D03*
X25423500Y19177000D03*
%TD*%
%TO.C,R11*%
X42879000Y31496000D03*
X44704000Y31496000D03*
%TD*%
D12*
%TO.C,Q18*%
X29271000Y24209000D03*
X27371000Y24209000D03*
X28321000Y21209000D03*
%TD*%
D10*
%TO.C,R6*%
X66258000Y44172999D03*
X68083000Y44172999D03*
%TD*%
D12*
%TO.C,Q19*%
X29271000Y9604000D03*
X27371000Y9604000D03*
X28321000Y6604000D03*
%TD*%
D10*
%TO.C,R24*%
X46458500Y4572000D03*
X48283500Y4572000D03*
%TD*%
D16*
%TO.C,C6*%
X32538500Y34036000D03*
X34263500Y34036000D03*
%TD*%
D11*
%TO.C,C1*%
X19531500Y38100000D03*
X17806500Y38100000D03*
%TD*%
D23*
%TO.C,Q2*%
X39521000Y33970000D03*
X39521000Y32070000D03*
X42521000Y33020000D03*
%TD*%
D12*
%TO.C,Q8*%
X48321000Y24209000D03*
X46421000Y24209000D03*
X47371000Y21209000D03*
%TD*%
D24*
%TO.C,U4*%
X8636000Y24257000D03*
X8636000Y22987000D03*
X8636000Y21717000D03*
X8636000Y20447000D03*
X13586000Y20447000D03*
X13586000Y21717000D03*
X13586000Y22987000D03*
X13586000Y24257000D03*
%TD*%
D12*
%TO.C,Q10*%
X44511000Y24209000D03*
X42611000Y24209000D03*
X43561000Y21209000D03*
%TD*%
D10*
%TO.C,R13*%
X23598500Y4572000D03*
X25423500Y4572000D03*
%TD*%
D13*
%TO.C,C7*%
X53975000Y43614000D03*
X53975000Y45339000D03*
%TD*%
D12*
%TO.C,Q9*%
X48321000Y9604000D03*
X46421000Y9604000D03*
X47371000Y6604000D03*
%TD*%
D25*
%TO.C,U2*%
X51703000Y45339000D03*
X49403000Y45339000D03*
D26*
X49403000Y39039000D03*
D25*
X47103000Y45339000D03*
%TD*%
D10*
%TO.C,R21*%
X46458500Y11684000D03*
X48283500Y11684000D03*
%TD*%
%TO.C,R41*%
X27408500Y26289000D03*
X29233500Y26289000D03*
%TD*%
D21*
%TO.C,R8*%
X44704000Y34544000D03*
X42879000Y34544000D03*
%TD*%
D10*
%TO.C,R27*%
X42648500Y19177000D03*
X44473500Y19177000D03*
%TD*%
D12*
%TO.C,Q3*%
X25461000Y24209000D03*
X23561000Y24209000D03*
X24511000Y21209000D03*
%TD*%
%TO.C,Q6*%
X52131000Y9604000D03*
X50231000Y9604000D03*
X51181000Y6604000D03*
%TD*%
D15*
%TO.C,C14*%
X10414000Y37793000D03*
X10414000Y36068000D03*
%TD*%
D10*
%TO.C,R18*%
X50268500Y4572000D03*
X52093500Y4572000D03*
%TD*%
%TO.C,R4*%
X32512000Y37084000D03*
X34337000Y37084000D03*
%TD*%
D13*
%TO.C,C9*%
X29972000Y46482000D03*
X29972000Y48207000D03*
%TD*%
D27*
%TO.C,Y1*%
X14224000Y36077000D03*
X14224000Y44577000D03*
%TD*%
D10*
%TO.C,R20*%
X46458500Y26289000D03*
X48283500Y26289000D03*
%TD*%
%TO.C,R36*%
X35028500Y4572000D03*
X36853500Y4572000D03*
%TD*%
D13*
%TO.C,C12*%
X24638000Y46101000D03*
X24638000Y47826000D03*
%TD*%
D28*
%TO.C,Q1*%
X15621000Y48484000D03*
X15621000Y49134000D03*
X15621000Y49784000D03*
X12961000Y49784000D03*
X12961000Y49134000D03*
X12961000Y48484000D03*
%TD*%
D15*
%TO.C,C5*%
X24765000Y33221000D03*
X24765000Y31496000D03*
%TD*%
D10*
%TO.C,R29*%
X38838500Y26289000D03*
X40663500Y26289000D03*
%TD*%
D15*
%TO.C,C18*%
X13589000Y27760000D03*
X13589000Y26035000D03*
%TD*%
D10*
%TO.C,R30*%
X38838500Y11684000D03*
X40663500Y11684000D03*
%TD*%
D13*
%TO.C,C21*%
X54610000Y31623000D03*
X54610000Y33348000D03*
%TD*%
D10*
%TO.C,R37*%
X31218500Y26289000D03*
X33043500Y26289000D03*
%TD*%
D29*
%TO.C,U3*%
X26886500Y39271500D03*
X25611500Y40546500D03*
X25611500Y39271500D03*
X26886500Y40546500D03*
D30*
X28849000Y43346500D03*
X28449000Y43346500D03*
X28049000Y43346500D03*
X27649000Y43346500D03*
X27249000Y43346500D03*
X26849000Y43346500D03*
X26449000Y43346500D03*
X26049000Y43346500D03*
X25649000Y43346500D03*
X25249000Y43346500D03*
X24849000Y43346500D03*
X24449000Y43346500D03*
X24049000Y43346500D03*
X23649000Y43346500D03*
D31*
X22811500Y42509000D03*
X22811500Y42109000D03*
X22811500Y41709000D03*
X22811500Y41309000D03*
X22811500Y40909000D03*
X22811500Y40509000D03*
X22811500Y40109000D03*
X22811500Y39709000D03*
X22811500Y39309000D03*
X22811500Y38909000D03*
X22811500Y38509000D03*
X22811500Y38109000D03*
X22811500Y37709000D03*
X22811500Y37309000D03*
D30*
X23649000Y36471500D03*
X24049000Y36471500D03*
X24449000Y36471500D03*
X24849000Y36471500D03*
X25249000Y36471500D03*
X25649000Y36471500D03*
X26049000Y36471500D03*
X26449000Y36471500D03*
X26849000Y36471500D03*
X27249000Y36471500D03*
X27649000Y36471500D03*
X28049000Y36471500D03*
X28449000Y36471500D03*
X28849000Y36471500D03*
D31*
X29686500Y37309000D03*
X29686500Y37709000D03*
X29686500Y38109000D03*
X29686500Y38509000D03*
X29686500Y38909000D03*
X29686500Y39309000D03*
X29686500Y39709000D03*
X29686500Y40109000D03*
X29686500Y40509000D03*
X29686500Y40909000D03*
X29686500Y41309000D03*
X29686500Y41709000D03*
X29686500Y42109000D03*
X29686500Y42509000D03*
%TD*%
D12*
%TO.C,Q14*%
X36891000Y24209000D03*
X34991000Y24209000D03*
X35941000Y21209000D03*
%TD*%
D10*
%TO.C,R44*%
X27408500Y4572000D03*
X29233500Y4572000D03*
%TD*%
D12*
%TO.C,Q11*%
X44511000Y9604000D03*
X42611000Y9604000D03*
X43561000Y6604000D03*
%TD*%
D10*
%TO.C,R33*%
X35028500Y26289000D03*
X36853500Y26289000D03*
%TD*%
M02*
