M48
; DRILL file {KiCad 6.0.2+dfsg-1} date Mon Aug 22 16:06:49 2022
; FORMAT={-:-/ absolute / inch / decimal}
; #@! TF.CreationDate,2022-08-22T16:06:49-05:00
; #@! TF.GenerationSoftware,Kicad,Pcbnew,6.0.2+dfsg-1
; #@! TF.FileFunction,Plated,1,2,PTH
FMAT,2
INCH
; #@! TA.AperFunction,Plated,PTH,ViaDrill
T1C0.0118
; #@! TA.AperFunction,Plated,PTH,ComponentDrill
T2C0.0138
; #@! TA.AperFunction,Plated,PTH,ComponentDrill
T3C0.0256
; #@! TA.AperFunction,Plated,PTH,ComponentDrill
T4C0.0315
; #@! TA.AperFunction,Plated,PTH,ComponentDrill
T5C0.0394
; #@! TA.AperFunction,Plated,PTH,ComponentDrill
T6C0.0433
; #@! TA.AperFunction,Plated,PTH,ComponentDrill
T7C0.0512
; #@! TA.AperFunction,Plated,PTH,ComponentDrill
T8C0.1260
%
G90
G05
T1
X4.4Y-2.95
X4.545Y-4.005
X4.575Y-4.035
X4.5775Y-5.2175
X4.855Y-4.035
X4.86Y-3.605
X4.86Y-3.7
X4.8741Y-4.53
X4.875Y-4.445
X4.895Y-4.005
X4.9459Y-4.4691
X4.9459Y-4.53
X4.965Y-5.0
X4.965Y-5.1
X5.0138Y-3.3312
X5.065Y-3.2477
X5.125Y-3.28
X5.13Y-3.34
X5.13Y-3.595
X5.134Y-3.855
X5.205Y-3.585
X5.2053Y-4.5754
X5.225Y-3.5005
X5.235Y-4.1
X5.24Y-3.535
X5.25Y-3.585
X5.25Y-4.065
X5.265Y-3.77
X5.27Y-4.03
X5.285Y-3.99
X5.365Y-3.425
X5.395Y-3.415
X5.4014Y-3.6933
X5.425Y-4.0521
X5.445Y-3.315
X5.5379Y-4.3671
X5.5653Y-3.6942
X5.585Y-3.445
X5.6Y-3.48
X5.615Y-3.985
X5.63Y-3.29
X5.6553Y-4.5754
X5.75Y-3.175
X5.765Y-3.595
X5.845Y-3.525
X5.85Y-3.84
X5.85Y-3.9
X5.85Y-3.96
X5.87Y-3.495
X5.9053Y-4.7254
X5.935Y-3.595
X5.935Y-3.655
X5.985Y-3.265
X6.0429Y-3.1121
X6.075Y-3.96
X6.1053Y-4.5754
X6.11Y-3.99
X6.235Y-4.405
X6.285Y-4.405
X6.3175Y-4.2625
X6.3231Y-4.6435
X6.4071Y-4.2529
X6.616Y-4.73
X6.77Y-3.88
X6.77Y-3.99
X6.9029Y-4.2321
X6.9044Y-4.5506
X6.915Y-4.46
X6.9445Y-3.8726
X6.9445Y-4.0655
X6.955Y-4.625
X6.995Y-4.46
X7.16Y-3.39
T2
X5.4332Y-3.6186
X5.4332Y-3.6688
X5.4332Y-3.719
X5.4834Y-3.6186
X5.4834Y-3.6688
X5.4834Y-3.719
X5.5336Y-3.6186
X5.5336Y-3.6688
X5.5336Y-3.719
T4
X6.185Y-3.17
X6.185Y-3.27
X6.185Y-3.37
X6.185Y-3.47
X6.185Y-3.57
X6.185Y-3.67
X6.185Y-3.77
X6.485Y-3.17
X6.485Y-3.27
X6.485Y-3.37
X6.485Y-3.47
X6.485Y-3.57
X6.485Y-3.67
X6.485Y-3.77
T5
X4.445Y-2.76
X4.545Y-2.76
X4.645Y-2.76
X4.745Y-2.76
X4.745Y-3.235
X4.745Y-3.335
X4.745Y-3.435
X4.75Y-4.605
X4.75Y-4.705
X4.75Y-4.805
X4.845Y-2.76
X5.015Y-2.76
X5.115Y-2.76
X5.215Y-2.76
X5.315Y-2.76
X5.415Y-2.76
X5.585Y-2.76
X5.685Y-2.76
X5.785Y-2.76
X5.885Y-2.76
X5.985Y-2.76
X6.155Y-2.76
X6.255Y-2.76
X6.355Y-2.76
X6.455Y-2.76
X6.555Y-2.76
X6.865Y-4.76
X6.865Y-4.86
X6.865Y-4.96
X6.865Y-5.06
X6.865Y-5.16
X6.865Y-5.26
T6
X5.4341Y-4.8304
X5.4742Y-4.9304
X5.5242Y-4.8304
X5.5242Y-5.0304
X5.5644Y-4.9304
X5.6144Y-4.8304
X5.6144Y-5.0304
X5.6545Y-4.9304
X5.7045Y-4.8304
X5.7045Y-5.0304
X5.7447Y-4.9304
X5.7947Y-4.8304
X5.7947Y-5.0304
X5.8348Y-4.9304
X5.8848Y-4.8304
X5.8848Y-5.0304
X5.925Y-4.9304
X5.975Y-4.8304
X5.975Y-5.0304
X6.0152Y-4.9304
X6.0652Y-4.8304
X6.0652Y-5.0304
X6.1053Y-4.9304
X6.1553Y-4.8304
X6.1553Y-5.0304
X6.1955Y-4.9304
T8
X5.1589Y-4.9304
X6.4707Y-4.9304
T3
G00X7.0183Y-3.7989
M15
G01X7.0617Y-3.7989
M16
G05
G00X7.0183Y-4.1391
M15
G01X7.0617Y-4.1391
M16
G05
G00X7.1928Y-3.7989
M15
G01X7.2164Y-3.7989
M16
G05
G00X7.1928Y-4.1391
M15
G01X7.2164Y-4.1391
M16
G05
T5
G00X4.6495Y-3.6297
M15
G01X4.5905Y-3.6297
M16
G05
G00X4.6495Y-3.925
M15
G01X4.5905Y-3.925
M16
G05
G00X4.6495Y-4.115
M15
G01X4.5905Y-4.115
M16
G05
G00X4.6495Y-4.4103
M15
G01X4.5905Y-4.4103
M16
G05
G00X6.765Y-2.6944
M15
G01X6.765Y-2.6156
M16
G05
G00X6.9225Y-2.47
M15
G01X6.8437Y-2.47
M16
G05
G00X7.0012Y-2.6944
M15
G01X7.0012Y-2.6156
M16
G05
T7
G00X4.4743Y-3.7587
M15
G01X4.4743Y-3.7961
M16
G05
G00X4.4743Y-4.2439
M15
G01X4.4743Y-4.2813
M16
G05
T0
M30
