%TF.GenerationSoftware,KiCad,Pcbnew,6.0.2+dfsg-1*%
%TF.CreationDate,2022-09-07T02:14:39-05:00*%
%TF.ProjectId,veritas,76657269-7461-4732-9e6b-696361645f70,rev?*%
%TF.SameCoordinates,Original*%
%TF.FileFunction,Legend,Bot*%
%TF.FilePolarity,Positive*%
%FSLAX46Y46*%
G04 Gerber Fmt 4.6, Leading zero omitted, Abs format (unit mm)*
G04 Created by KiCad (PCBNEW 6.0.2+dfsg-1) date 2022-09-07 02:14:39*
%MOMM*%
%LPD*%
G01*
G04 APERTURE LIST*
G04 Aperture macros list*
%AMRoundRect*
0 Rectangle with rounded corners*
0 $1 Rounding radius*
0 $2 $3 $4 $5 $6 $7 $8 $9 X,Y pos of 4 corners*
0 Add a 4 corners polygon primitive as box body*
4,1,4,$2,$3,$4,$5,$6,$7,$8,$9,$2,$3,0*
0 Add four circle primitives for the rounded corners*
1,1,$1+$1,$2,$3*
1,1,$1+$1,$4,$5*
1,1,$1+$1,$6,$7*
1,1,$1+$1,$8,$9*
0 Add four rect primitives between the rounded corners*
20,1,$1+$1,$2,$3,$4,$5,0*
20,1,$1+$1,$4,$5,$6,$7,0*
20,1,$1+$1,$6,$7,$8,$9,0*
20,1,$1+$1,$8,$9,$2,$3,0*%
%AMFreePoly0*
4,1,6,1.000000,0.000000,0.500000,-0.750000,-0.500000,-0.750000,-0.500000,0.750000,0.500000,0.750000,1.000000,0.000000,1.000000,0.000000,$1*%
%AMFreePoly1*
4,1,6,0.500000,-0.750000,-0.650000,-0.750000,-0.150000,0.000000,-0.650000,0.750000,0.500000,0.750000,0.500000,-0.750000,0.500000,-0.750000,$1*%
G04 Aperture macros list end*
%ADD10C,0.120000*%
%ADD11R,1.700000X1.700000*%
%ADD12O,1.700000X1.700000*%
%ADD13O,3.600000X1.800000*%
%ADD14O,2.100000X4.200000*%
%ADD15C,4.800000*%
%ADD16R,1.650000X1.650000*%
%ADD17C,1.650000*%
%ADD18C,1.300000*%
%ADD19C,0.700000*%
%ADD20O,2.100000X1.050000*%
%ADD21R,3.500000X3.500000*%
%ADD22RoundRect,0.750000X0.750000X1.000000X-0.750000X1.000000X-0.750000X-1.000000X0.750000X-1.000000X0*%
%ADD23RoundRect,0.875000X0.875000X0.875000X-0.875000X0.875000X-0.875000X-0.875000X0.875000X-0.875000X0*%
%ADD24FreePoly0,180.000000*%
%ADD25FreePoly1,180.000000*%
%ADD26C,0.600000*%
G04 APERTURE END LIST*
D10*
%TO.C,JP1*%
X12824000Y5826000D02*
X12824000Y3826000D01*
X15624000Y3826000D02*
X15624000Y5826000D01*
X15624000Y5826000D02*
X12824000Y5826000D01*
X12824000Y3826000D02*
X15624000Y3826000D01*
%TD*%
%LPC*%
D11*
%TO.C,J5*%
X-127000Y62992000D03*
D12*
X2413000Y62992000D03*
X4953000Y62992000D03*
X7493000Y62992000D03*
X10033000Y62992000D03*
%TD*%
D11*
%TO.C,J10*%
X7620000Y11049000D03*
D12*
X7620000Y13589000D03*
X7620000Y16129000D03*
%TD*%
D13*
%TO.C,J9*%
X4318000Y28575000D03*
X4318000Y21075000D03*
D14*
X618000Y24825000D03*
%TD*%
D11*
%TO.C,J2*%
X43307000Y62992000D03*
D12*
X45847000Y62992000D03*
X48387000Y62992000D03*
X50927000Y62992000D03*
X53467000Y62992000D03*
%TD*%
D15*
%TO.C,J11*%
X61087000Y3048000D03*
X61087000Y36368000D03*
D16*
X58547000Y28358000D03*
D17*
X58547000Y26068000D03*
X58547000Y23778000D03*
X58547000Y21488000D03*
X58547000Y19198000D03*
X58547000Y16908000D03*
X58547000Y14618000D03*
X58547000Y12328000D03*
X58547000Y10038000D03*
X61087000Y29378000D03*
X61087000Y27088000D03*
X61087000Y24798000D03*
X61087000Y22508000D03*
X61087000Y20218000D03*
X61087000Y17928000D03*
X61087000Y15638000D03*
X61087000Y13348000D03*
X61087000Y11058000D03*
X63627000Y28358000D03*
X63627000Y26068000D03*
X63627000Y23778000D03*
X63627000Y21488000D03*
X63627000Y19198000D03*
X63627000Y16908000D03*
X63627000Y14618000D03*
X63627000Y12328000D03*
%TD*%
D18*
%TO.C,REF\u002A\u002A*%
X70104000Y71755000D03*
%TD*%
%TO.C,REF\u002A\u002A*%
X-1905000Y69850000D03*
%TD*%
%TO.C,REF\u002A\u002A*%
X0Y0D03*
%TD*%
D13*
%TO.C,J8*%
X4318000Y33401000D03*
X4318000Y40901000D03*
D14*
X618000Y37151000D03*
%TD*%
D19*
%TO.C,J7*%
X66327000Y53184000D03*
X66327000Y47404000D03*
D20*
X69977000Y45974000D03*
X65797000Y54614000D03*
X69977000Y54614000D03*
X65797000Y45974000D03*
%TD*%
D11*
%TO.C,J4*%
X14351000Y62992000D03*
D12*
X16891000Y62992000D03*
X19431000Y62992000D03*
X21971000Y62992000D03*
X24511000Y62992000D03*
%TD*%
D11*
%TO.C,J6*%
X7493000Y45847000D03*
D12*
X7493000Y48387000D03*
X7493000Y50927000D03*
%TD*%
D11*
%TO.C,J3*%
X28829000Y62992000D03*
D12*
X31369000Y62992000D03*
X33909000Y62992000D03*
X36449000Y62992000D03*
X38989000Y62992000D03*
%TD*%
D21*
%TO.C,J1*%
X58801000Y65659000D03*
D22*
X64801000Y65659000D03*
D23*
X61801000Y70359000D03*
%TD*%
D11*
%TO.C,J12*%
X13462000Y7493000D03*
D12*
X10922000Y7493000D03*
X8382000Y7493000D03*
X5842000Y7493000D03*
%TD*%
D24*
%TO.C,JP1*%
X14949000Y4826000D03*
D25*
X13499000Y4826000D03*
%TD*%
D26*
X40701000Y22794000D03*
X36891000Y22794000D03*
X40701000Y8189000D03*
X33081000Y8189000D03*
X33081000Y22794000D03*
X29271000Y8189000D03*
X16637000Y27051000D03*
X56896000Y24892000D03*
X48321000Y22794000D03*
X29271000Y22794000D03*
X37719000Y38989000D03*
X25461000Y22794000D03*
X48321000Y8189000D03*
X21651000Y8189000D03*
X44831000Y38989000D03*
X52131000Y8189000D03*
X44511000Y8189000D03*
X25461000Y8189000D03*
X52131000Y22794000D03*
X36891000Y8189000D03*
X44511000Y22794000D03*
X35560000Y35560000D03*
X33020000Y52451000D03*
X10160000Y20447000D03*
X49403000Y51634000D03*
X20574000Y35560000D03*
X43589000Y43614000D03*
X29591000Y31877000D03*
X48768000Y34417000D03*
X24638000Y49149000D03*
X53266000Y33348000D03*
X10414000Y39116000D03*
X14478000Y15621000D03*
X60351500Y41275000D03*
X24765000Y30173000D03*
X35560000Y34036000D03*
X35560000Y32512000D03*
X38989000Y50165000D03*
X55118000Y45339000D03*
X13589000Y29083000D03*
X17399000Y45847000D03*
X37719000Y40259000D03*
X37719000Y41783000D03*
X17145000Y49784000D03*
X29972000Y49530000D03*
X10414000Y41529000D03*
X51308000Y34417000D03*
X12827000Y15621000D03*
X24166234Y39285163D03*
X20701000Y37338000D03*
X33401000Y41783000D03*
X28328716Y39262600D03*
X63372001Y47844000D03*
X63372000Y52742616D03*
X17272000Y4826000D03*
X14321000Y48484000D03*
X17780000Y29083000D03*
X21971000Y45974000D03*
X22225000Y45085000D03*
X18161000Y29845000D03*
X18542000Y30607000D03*
X21971000Y44323000D03*
X20158738Y44923738D03*
X18923000Y31369000D03*
X19685000Y44182296D03*
X19304000Y32131000D03*
X19685000Y32893000D03*
X20066000Y43307000D03*
X20066000Y33655000D03*
X19652981Y42004981D03*
X20447000Y34417000D03*
X20574000Y42037000D03*
X10160000Y34798000D03*
X8231500Y34774500D03*
X39545000Y32972000D03*
X44450000Y33401000D03*
X16383000Y15875000D03*
X21717000Y15875000D03*
X22606000Y15621000D03*
X15748000Y16510000D03*
X45847000Y30734000D03*
X52578000Y30734000D03*
X41275000Y30988000D03*
X50038000Y30480000D03*
X52578000Y20447000D03*
X48768000Y5842000D03*
X52578000Y5842000D03*
X44958000Y5842000D03*
X33528000Y20447000D03*
X41148000Y20447000D03*
X41148000Y5842000D03*
X45212000Y33020000D03*
X44958000Y20447000D03*
X50026000Y31635000D03*
X29718000Y20447000D03*
X17526000Y23368000D03*
X25908000Y20447000D03*
X48768000Y20447000D03*
X29718000Y5842000D03*
X25908000Y5842000D03*
X53225000Y31635000D03*
X33528000Y5842000D03*
X57658000Y6604000D03*
X22098000Y5842000D03*
X37338000Y20447000D03*
X37338000Y5842000D03*
X-1270000Y58166000D03*
X56661499Y22625499D03*
M02*
