%TF.GenerationSoftware,KiCad,Pcbnew,6.0.2+dfsg-1*%
%TF.CreationDate,2022-08-22T16:06:49-05:00*%
%TF.ProjectId,veritas,76657269-7461-4732-9e6b-696361645f70,rev?*%
%TF.SameCoordinates,Original*%
%TF.FileFunction,Paste,Top*%
%TF.FilePolarity,Positive*%
%FSLAX46Y46*%
G04 Gerber Fmt 4.6, Leading zero omitted, Abs format (unit mm)*
G04 Created by KiCad (PCBNEW 6.0.2+dfsg-1) date 2022-08-22 16:06:49*
%MOMM*%
%LPD*%
G01*
G04 APERTURE LIST*
G04 Aperture macros list*
%AMRoundRect*
0 Rectangle with rounded corners*
0 $1 Rounding radius*
0 $2 $3 $4 $5 $6 $7 $8 $9 X,Y pos of 4 corners*
0 Add a 4 corners polygon primitive as box body*
4,1,4,$2,$3,$4,$5,$6,$7,$8,$9,$2,$3,0*
0 Add four circle primitives for the rounded corners*
1,1,$1+$1,$2,$3*
1,1,$1+$1,$4,$5*
1,1,$1+$1,$6,$7*
1,1,$1+$1,$8,$9*
0 Add four rect primitives between the rounded corners*
20,1,$1+$1,$2,$3,$4,$5,0*
20,1,$1+$1,$4,$5,$6,$7,0*
20,1,$1+$1,$6,$7,$8,$9,0*
20,1,$1+$1,$8,$9,$2,$3,0*%
G04 Aperture macros list end*
%ADD10RoundRect,0.237500X-0.250000X-0.237500X0.250000X-0.237500X0.250000X0.237500X-0.250000X0.237500X0*%
%ADD11RoundRect,0.237500X0.250000X0.237500X-0.250000X0.237500X-0.250000X-0.237500X0.250000X-0.237500X0*%
%ADD12RoundRect,0.237500X0.300000X0.237500X-0.300000X0.237500X-0.300000X-0.237500X0.300000X-0.237500X0*%
%ADD13R,0.800000X1.900000*%
%ADD14RoundRect,0.100000X-0.100000X0.637500X-0.100000X-0.637500X0.100000X-0.637500X0.100000X0.637500X0*%
%ADD15RoundRect,0.237500X-0.237500X0.250000X-0.237500X-0.250000X0.237500X-0.250000X0.237500X0.250000X0*%
%ADD16RoundRect,0.237500X-0.300000X-0.237500X0.300000X-0.237500X0.300000X0.237500X-0.300000X0.237500X0*%
%ADD17RoundRect,0.237500X0.237500X-0.300000X0.237500X0.300000X-0.237500X0.300000X-0.237500X-0.300000X0*%
%ADD18R,1.300000X1.550000*%
%ADD19RoundRect,0.150000X-0.150000X0.650000X-0.150000X-0.650000X0.150000X-0.650000X0.150000X0.650000X0*%
%ADD20R,1.450000X0.600000*%
%ADD21R,1.450000X0.300000*%
%ADD22RoundRect,0.237500X-0.237500X0.300000X-0.237500X-0.300000X0.237500X-0.300000X0.237500X0.300000X0*%
%ADD23RoundRect,0.150000X-0.825000X-0.150000X0.825000X-0.150000X0.825000X0.150000X-0.825000X0.150000X0*%
%ADD24R,2.000000X1.500000*%
%ADD25R,2.000000X3.800000*%
%ADD26R,2.000000X4.500000*%
%ADD27R,1.500000X0.400000*%
%ADD28RoundRect,0.050000X-0.387500X0.050000X-0.387500X-0.050000X0.387500X-0.050000X0.387500X0.050000X0*%
%ADD29RoundRect,0.050000X-0.050000X0.387500X-0.050000X-0.387500X0.050000X-0.387500X0.050000X0.387500X0*%
%ADD30RoundRect,0.250000X-0.292217X0.292217X-0.292217X-0.292217X0.292217X-0.292217X0.292217X0.292217X0*%
G04 APERTURE END LIST*
D10*
%TO.C,R9*%
X179310199Y-94693999D03*
X181135199Y-94693999D03*
%TD*%
D11*
%TO.C,R4*%
X128838500Y-79153000D03*
X127013500Y-79153000D03*
%TD*%
D12*
%TO.C,C2*%
X132561500Y-96520000D03*
X130836500Y-96520000D03*
%TD*%
D13*
%TO.C,Q2*%
X124714000Y-123015000D03*
X123764000Y-120015000D03*
X125664000Y-120015000D03*
%TD*%
D12*
%TO.C,C21*%
X124915000Y-129540000D03*
X123190000Y-129540000D03*
%TD*%
%TO.C,C22*%
X171069000Y-120142000D03*
X169344000Y-120142000D03*
%TD*%
D10*
%TO.C,R10*%
X123801500Y-117877299D03*
X125626500Y-117877299D03*
%TD*%
D11*
%TO.C,R11*%
X120650000Y-133096000D03*
X118825000Y-133096000D03*
%TD*%
D14*
%TO.C,U7*%
X150511000Y-116215000D03*
X149861000Y-116215000D03*
X149211000Y-116215000D03*
X148561000Y-116215000D03*
X147911000Y-116215000D03*
X147261000Y-116215000D03*
X146611000Y-116215000D03*
X145961000Y-116215000D03*
X145311000Y-116215000D03*
X144661000Y-116215000D03*
X144661000Y-110490000D03*
X145311000Y-110490000D03*
X145961000Y-110490000D03*
X146611000Y-110490000D03*
X147261000Y-110490000D03*
X147911000Y-110490000D03*
X148561000Y-110490000D03*
X149211000Y-110490000D03*
X149861000Y-110490000D03*
X150511000Y-110490000D03*
%TD*%
D15*
%TO.C,R2*%
X152019000Y-78947000D03*
X152019000Y-80772000D03*
%TD*%
D16*
%TO.C,C10*%
X173609000Y-108712000D03*
X175334000Y-108712000D03*
%TD*%
D17*
%TO.C,C13*%
X123444000Y-88519000D03*
X123444000Y-90244000D03*
%TD*%
D16*
%TO.C,C4*%
X145568500Y-97536000D03*
X147293500Y-97536000D03*
%TD*%
D18*
%TO.C,SW1*%
X177364000Y-82083000D03*
X177364000Y-90043000D03*
X181864000Y-82083000D03*
X181864000Y-90043000D03*
%TD*%
D14*
%TO.C,U6*%
X161911000Y-116215000D03*
X161261000Y-116215000D03*
X160611000Y-116215000D03*
X159961000Y-116215000D03*
X159311000Y-116215000D03*
X158661000Y-116215000D03*
X158011000Y-116215000D03*
X157361000Y-116215000D03*
X156711000Y-116215000D03*
X156061000Y-116215000D03*
X156061000Y-110490000D03*
X156711000Y-110490000D03*
X157361000Y-110490000D03*
X158011000Y-110490000D03*
X158661000Y-110490000D03*
X159311000Y-110490000D03*
X159961000Y-110490000D03*
X160611000Y-110490000D03*
X161261000Y-110490000D03*
X161911000Y-110490000D03*
%TD*%
D10*
%TO.C,R3*%
X131572000Y-93345000D03*
X133397000Y-93345000D03*
%TD*%
D19*
%TO.C,U1*%
X149860000Y-78906000D03*
X148590000Y-78906000D03*
X147320000Y-78906000D03*
X146050000Y-78906000D03*
X146050000Y-86106000D03*
X147320000Y-86106000D03*
X148590000Y-86106000D03*
X149860000Y-86106000D03*
%TD*%
D12*
%TO.C,C15*%
X147701000Y-91313000D03*
X149426000Y-91313000D03*
%TD*%
D11*
%TO.C,R12*%
X124714000Y-125095000D03*
X122889000Y-125095000D03*
%TD*%
D10*
%TO.C,R5*%
X123561000Y-79153000D03*
X125386000Y-79153000D03*
%TD*%
D17*
%TO.C,C11*%
X152019000Y-86106000D03*
X152019000Y-84381000D03*
%TD*%
D20*
%TO.C,J7*%
X177901000Y-104062999D03*
X177901000Y-103262999D03*
D21*
X177901000Y-102562999D03*
X177901000Y-101562999D03*
X177901000Y-100062999D03*
X177901000Y-99062999D03*
D20*
X177901000Y-98362999D03*
X177901000Y-97562999D03*
X177901000Y-97562999D03*
X177901000Y-98362999D03*
D21*
X177901000Y-99562999D03*
X177901000Y-100562999D03*
X177901000Y-101062999D03*
X177901000Y-102062999D03*
D20*
X177901000Y-103262999D03*
X177901000Y-104062999D03*
%TD*%
D17*
%TO.C,C18*%
X113030000Y-128270000D03*
X113030000Y-126545000D03*
%TD*%
D12*
%TO.C,C16*%
X147701000Y-92837000D03*
X149426000Y-92837000D03*
%TD*%
D22*
%TO.C,C3*%
X142621000Y-98171000D03*
X142621000Y-99896000D03*
%TD*%
D11*
%TO.C,R1*%
X153844000Y-76962000D03*
X152019000Y-76962000D03*
%TD*%
D10*
%TO.C,R7*%
X145542000Y-94488000D03*
X147367000Y-94488000D03*
%TD*%
D16*
%TO.C,C8*%
X145568500Y-100584000D03*
X147293500Y-100584000D03*
%TD*%
D10*
%TO.C,R8*%
X179310199Y-107012999D03*
X181135199Y-107012999D03*
%TD*%
D16*
%TO.C,C6*%
X145568500Y-99060000D03*
X147293500Y-99060000D03*
%TD*%
D12*
%TO.C,C1*%
X132561500Y-94996000D03*
X130836500Y-94996000D03*
%TD*%
D23*
%TO.C,U5*%
X120650000Y-127000000D03*
X120650000Y-128270000D03*
X120650000Y-129540000D03*
X120650000Y-130810000D03*
X115700000Y-130810000D03*
X115700000Y-129540000D03*
X115700000Y-128270000D03*
X115700000Y-127000000D03*
%TD*%
D22*
%TO.C,C19*%
X141859000Y-110924000D03*
X141859000Y-112649000D03*
%TD*%
D16*
%TO.C,C7*%
X171884000Y-117856000D03*
X173609000Y-117856000D03*
%TD*%
D22*
%TO.C,C17*%
X154686000Y-79047000D03*
X154686000Y-80772000D03*
%TD*%
D14*
%TO.C,U8*%
X139073000Y-116215000D03*
X138423000Y-116215000D03*
X137773000Y-116215000D03*
X137123000Y-116215000D03*
X136473000Y-116215000D03*
X135823000Y-116215000D03*
X135173000Y-116215000D03*
X134523000Y-116215000D03*
X133873000Y-116215000D03*
X133223000Y-116215000D03*
X133223000Y-110490000D03*
X133873000Y-110490000D03*
X134523000Y-110490000D03*
X135173000Y-110490000D03*
X135823000Y-110490000D03*
X136473000Y-110490000D03*
X137123000Y-110490000D03*
X137773000Y-110490000D03*
X138423000Y-110490000D03*
X139073000Y-110490000D03*
%TD*%
D24*
%TO.C,U2*%
X173609000Y-110984000D03*
D25*
X167309000Y-113284000D03*
D24*
X173609000Y-113284000D03*
X173609000Y-115584000D03*
%TD*%
D22*
%TO.C,C14*%
X123444000Y-97028000D03*
X123444000Y-95303000D03*
%TD*%
D10*
%TO.C,R6*%
X145542000Y-96012000D03*
X147367000Y-96012000D03*
%TD*%
D17*
%TO.C,C9*%
X143002000Y-86614000D03*
X143002000Y-84889000D03*
%TD*%
D26*
%TO.C,Y1*%
X127254000Y-88519000D03*
X127254000Y-97019000D03*
%TD*%
D17*
%TO.C,C12*%
X138303000Y-87249000D03*
X138303000Y-85524000D03*
%TD*%
D27*
%TO.C,Q1*%
X125991000Y-84612000D03*
X125991000Y-83962000D03*
X125991000Y-83312000D03*
X128651000Y-83312000D03*
X128651000Y-83962000D03*
X128651000Y-84612000D03*
%TD*%
D22*
%TO.C,C5*%
X137795000Y-99875000D03*
X137795000Y-101600000D03*
%TD*%
D12*
%TO.C,C20*%
X124915000Y-127000000D03*
X123190000Y-127000000D03*
%TD*%
D22*
%TO.C,C23*%
X153416000Y-114300000D03*
X153416000Y-116025000D03*
%TD*%
D28*
%TO.C,U3*%
X142716500Y-90587000D03*
X142716500Y-90987000D03*
X142716500Y-91387000D03*
X142716500Y-91787000D03*
X142716500Y-92187000D03*
X142716500Y-92587000D03*
X142716500Y-92987000D03*
X142716500Y-93387000D03*
X142716500Y-93787000D03*
X142716500Y-94187000D03*
X142716500Y-94587000D03*
X142716500Y-94987000D03*
X142716500Y-95387000D03*
X142716500Y-95787000D03*
D29*
X141879000Y-96624500D03*
X141479000Y-96624500D03*
X141079000Y-96624500D03*
X140679000Y-96624500D03*
X140279000Y-96624500D03*
X139879000Y-96624500D03*
X139479000Y-96624500D03*
X139079000Y-96624500D03*
X138679000Y-96624500D03*
X138279000Y-96624500D03*
X137879000Y-96624500D03*
X137479000Y-96624500D03*
X137079000Y-96624500D03*
X136679000Y-96624500D03*
D28*
X135841500Y-95787000D03*
X135841500Y-95387000D03*
X135841500Y-94987000D03*
X135841500Y-94587000D03*
X135841500Y-94187000D03*
X135841500Y-93787000D03*
X135841500Y-93387000D03*
X135841500Y-92987000D03*
X135841500Y-92587000D03*
X135841500Y-92187000D03*
X135841500Y-91787000D03*
X135841500Y-91387000D03*
X135841500Y-90987000D03*
X135841500Y-90587000D03*
D29*
X136679000Y-89749500D03*
X137079000Y-89749500D03*
X137479000Y-89749500D03*
X137879000Y-89749500D03*
X138279000Y-89749500D03*
X138679000Y-89749500D03*
X139079000Y-89749500D03*
X139479000Y-89749500D03*
X139879000Y-89749500D03*
X140279000Y-89749500D03*
X140679000Y-89749500D03*
X141079000Y-89749500D03*
X141479000Y-89749500D03*
X141879000Y-89749500D03*
D30*
X139916500Y-92549500D03*
X138641500Y-93824500D03*
X138641500Y-92549500D03*
X139916500Y-93824500D03*
%TD*%
M02*
