%TF.GenerationSoftware,KiCad,Pcbnew,6.0.2+dfsg-1*%
%TF.CreationDate,2022-08-22T16:06:49-05:00*%
%TF.ProjectId,veritas,76657269-7461-4732-9e6b-696361645f70,rev?*%
%TF.SameCoordinates,Original*%
%TF.FileFunction,Copper,L1,Top*%
%TF.FilePolarity,Positive*%
%FSLAX46Y46*%
G04 Gerber Fmt 4.6, Leading zero omitted, Abs format (unit mm)*
G04 Created by KiCad (PCBNEW 6.0.2+dfsg-1) date 2022-08-22 16:06:49*
%MOMM*%
%LPD*%
G01*
G04 APERTURE LIST*
G04 Aperture macros list*
%AMRoundRect*
0 Rectangle with rounded corners*
0 $1 Rounding radius*
0 $2 $3 $4 $5 $6 $7 $8 $9 X,Y pos of 4 corners*
0 Add a 4 corners polygon primitive as box body*
4,1,4,$2,$3,$4,$5,$6,$7,$8,$9,$2,$3,0*
0 Add four circle primitives for the rounded corners*
1,1,$1+$1,$2,$3*
1,1,$1+$1,$4,$5*
1,1,$1+$1,$6,$7*
1,1,$1+$1,$8,$9*
0 Add four rect primitives between the rounded corners*
20,1,$1+$1,$2,$3,$4,$5,0*
20,1,$1+$1,$4,$5,$6,$7,0*
20,1,$1+$1,$6,$7,$8,$9,0*
20,1,$1+$1,$8,$9,$2,$3,0*%
%AMFreePoly0*
4,1,22,0.550000,-0.750000,0.000000,-0.750000,0.000000,-0.745033,-0.079941,-0.743568,-0.215256,-0.701293,-0.333266,-0.622738,-0.424486,-0.514219,-0.481581,-0.384460,-0.499164,-0.250000,-0.500000,-0.250000,-0.500000,0.250000,-0.499164,0.250000,-0.499963,0.256109,-0.478152,0.396186,-0.417904,0.524511,-0.324060,0.630769,-0.204165,0.706417,-0.067858,0.745374,0.000000,0.744959,0.000000,0.750000,
0.550000,0.750000,0.550000,-0.750000,0.550000,-0.750000,$1*%
%AMFreePoly1*
4,1,20,0.000000,0.744959,0.073905,0.744508,0.209726,0.703889,0.328688,0.626782,0.421226,0.519385,0.479903,0.390333,0.500000,0.250000,0.500000,-0.250000,0.499851,-0.262216,0.476331,-0.402017,0.414519,-0.529596,0.319384,-0.634700,0.198574,-0.708877,0.061801,-0.746166,0.000000,-0.745033,0.000000,-0.750000,-0.550000,-0.750000,-0.550000,0.750000,0.000000,0.750000,0.000000,0.744959,
0.000000,0.744959,$1*%
%AMFreePoly2*
4,1,6,1.000000,0.000000,0.500000,-0.750000,-0.500000,-0.750000,-0.500000,0.750000,0.500000,0.750000,1.000000,0.000000,1.000000,0.000000,$1*%
%AMFreePoly3*
4,1,6,0.500000,-0.750000,-0.650000,-0.750000,-0.150000,0.000000,-0.650000,0.750000,0.500000,0.750000,0.500000,-0.750000,0.500000,-0.750000,$1*%
G04 Aperture macros list end*
%TA.AperFunction,ComponentPad*%
%ADD10O,1.700000X1.700000*%
%TD*%
%TA.AperFunction,ComponentPad*%
%ADD11R,1.700000X1.700000*%
%TD*%
%TA.AperFunction,SMDPad,CuDef*%
%ADD12RoundRect,0.237500X-0.250000X-0.237500X0.250000X-0.237500X0.250000X0.237500X-0.250000X0.237500X0*%
%TD*%
%TA.AperFunction,ComponentPad*%
%ADD13O,2.100000X4.200000*%
%TD*%
%TA.AperFunction,ComponentPad*%
%ADD14O,3.600000X1.800000*%
%TD*%
%TA.AperFunction,SMDPad,CuDef*%
%ADD15RoundRect,0.237500X0.250000X0.237500X-0.250000X0.237500X-0.250000X-0.237500X0.250000X-0.237500X0*%
%TD*%
%TA.AperFunction,SMDPad,CuDef*%
%ADD16RoundRect,0.237500X0.300000X0.237500X-0.300000X0.237500X-0.300000X-0.237500X0.300000X-0.237500X0*%
%TD*%
%TA.AperFunction,SMDPad,CuDef*%
%ADD17R,0.800000X1.900000*%
%TD*%
%TA.AperFunction,ComponentPad*%
%ADD18C,1.650000*%
%TD*%
%TA.AperFunction,ComponentPad*%
%ADD19R,1.650000X1.650000*%
%TD*%
%TA.AperFunction,ComponentPad*%
%ADD20C,4.800000*%
%TD*%
%TA.AperFunction,SMDPad,CuDef*%
%ADD21FreePoly0,270.000000*%
%TD*%
%TA.AperFunction,SMDPad,CuDef*%
%ADD22R,1.500000X1.000000*%
%TD*%
%TA.AperFunction,SMDPad,CuDef*%
%ADD23FreePoly1,270.000000*%
%TD*%
%TA.AperFunction,SMDPad,CuDef*%
%ADD24RoundRect,0.100000X-0.100000X0.637500X-0.100000X-0.637500X0.100000X-0.637500X0.100000X0.637500X0*%
%TD*%
%TA.AperFunction,SMDPad,CuDef*%
%ADD25RoundRect,0.237500X-0.237500X0.250000X-0.237500X-0.250000X0.237500X-0.250000X0.237500X0.250000X0*%
%TD*%
%TA.AperFunction,WasherPad*%
%ADD26C,1.300000*%
%TD*%
%TA.AperFunction,SMDPad,CuDef*%
%ADD27RoundRect,0.237500X-0.300000X-0.237500X0.300000X-0.237500X0.300000X0.237500X-0.300000X0.237500X0*%
%TD*%
%TA.AperFunction,SMDPad,CuDef*%
%ADD28RoundRect,0.237500X0.237500X-0.300000X0.237500X0.300000X-0.237500X0.300000X-0.237500X-0.300000X0*%
%TD*%
%TA.AperFunction,SMDPad,CuDef*%
%ADD29R,1.300000X1.550000*%
%TD*%
%TA.AperFunction,SMDPad,CuDef*%
%ADD30FreePoly2,0.000000*%
%TD*%
%TA.AperFunction,SMDPad,CuDef*%
%ADD31FreePoly3,0.000000*%
%TD*%
%TA.AperFunction,SMDPad,CuDef*%
%ADD32RoundRect,0.150000X-0.150000X0.650000X-0.150000X-0.650000X0.150000X-0.650000X0.150000X0.650000X0*%
%TD*%
%TA.AperFunction,ComponentPad*%
%ADD33O,2.100000X1.050000*%
%TD*%
%TA.AperFunction,SMDPad,CuDef*%
%ADD34R,1.450000X0.600000*%
%TD*%
%TA.AperFunction,SMDPad,CuDef*%
%ADD35R,1.450000X0.300000*%
%TD*%
%TA.AperFunction,ComponentPad*%
%ADD36O,1.600000X1.600000*%
%TD*%
%TA.AperFunction,ComponentPad*%
%ADD37R,1.600000X1.600000*%
%TD*%
%TA.AperFunction,SMDPad,CuDef*%
%ADD38RoundRect,0.237500X-0.237500X0.300000X-0.237500X-0.300000X0.237500X-0.300000X0.237500X0.300000X0*%
%TD*%
%TA.AperFunction,SMDPad,CuDef*%
%ADD39RoundRect,0.150000X-0.825000X-0.150000X0.825000X-0.150000X0.825000X0.150000X-0.825000X0.150000X0*%
%TD*%
%TA.AperFunction,SMDPad,CuDef*%
%ADD40R,2.000000X1.500000*%
%TD*%
%TA.AperFunction,SMDPad,CuDef*%
%ADD41R,2.000000X3.800000*%
%TD*%
%TA.AperFunction,SMDPad,CuDef*%
%ADD42FreePoly2,180.000000*%
%TD*%
%TA.AperFunction,SMDPad,CuDef*%
%ADD43FreePoly3,180.000000*%
%TD*%
%TA.AperFunction,ComponentPad*%
%ADD44RoundRect,0.875000X0.875000X0.875000X-0.875000X0.875000X-0.875000X-0.875000X0.875000X-0.875000X0*%
%TD*%
%TA.AperFunction,ComponentPad*%
%ADD45RoundRect,0.750000X0.750000X1.000000X-0.750000X1.000000X-0.750000X-1.000000X0.750000X-1.000000X0*%
%TD*%
%TA.AperFunction,ComponentPad*%
%ADD46R,3.500000X3.500000*%
%TD*%
%TA.AperFunction,SMDPad,CuDef*%
%ADD47R,2.000000X4.500000*%
%TD*%
%TA.AperFunction,SMDPad,CuDef*%
%ADD48R,1.500000X0.400000*%
%TD*%
%TA.AperFunction,ComponentPad*%
%ADD49C,0.600000*%
%TD*%
%TA.AperFunction,SMDPad,CuDef*%
%ADD50RoundRect,0.144000X-1.456000X1.456000X-1.456000X-1.456000X1.456000X-1.456000X1.456000X1.456000X0*%
%TD*%
%TA.AperFunction,SMDPad,CuDef*%
%ADD51RoundRect,0.050000X-0.387500X0.050000X-0.387500X-0.050000X0.387500X-0.050000X0.387500X0.050000X0*%
%TD*%
%TA.AperFunction,SMDPad,CuDef*%
%ADD52RoundRect,0.050000X-0.050000X0.387500X-0.050000X-0.387500X0.050000X-0.387500X0.050000X0.387500X0*%
%TD*%
%TA.AperFunction,ViaPad*%
%ADD53C,0.600000*%
%TD*%
%TA.AperFunction,Conductor*%
%ADD54C,0.400000*%
%TD*%
%TA.AperFunction,Conductor*%
%ADD55C,0.300000*%
%TD*%
%TA.AperFunction,Conductor*%
%ADD56C,0.200000*%
%TD*%
%TA.AperFunction,Conductor*%
%ADD57C,0.800000*%
%TD*%
%TA.AperFunction,Conductor*%
%ADD58C,0.250000*%
%TD*%
%TA.AperFunction,Conductor*%
%ADD59C,0.600000*%
%TD*%
G04 APERTURE END LIST*
D10*
%TO.P,J5,5,Pin_5*%
%TO.N,GND*%
X123063000Y-70104000D03*
%TO.P,J5,4,Pin_4*%
%TO.N,DISPLAY_SER*%
X120523000Y-70104000D03*
%TO.P,J5,3,Pin_3*%
%TO.N,DISPLAY_CLK*%
X117983000Y-70104000D03*
%TO.P,J5,2,Pin_2*%
%TO.N,DISPLAY_STROBE3*%
X115443000Y-70104000D03*
D11*
%TO.P,J5,1,Pin_1*%
%TO.N,/LED_5V*%
X112903000Y-70104000D03*
%TD*%
D12*
%TO.P,R9,1*%
%TO.N,GND*%
X179310199Y-94693999D03*
%TO.P,R9,2*%
%TO.N,Net-(J7-PadB5)*%
X181135199Y-94693999D03*
%TD*%
D10*
%TO.P,J10,3,Pin_3*%
%TO.N,/CVIN*%
X120650000Y-116967000D03*
%TO.P,J10,2,Pin_2*%
%TO.N,ALT_CLK_B*%
X120650000Y-119507000D03*
D11*
%TO.P,J10,1,Pin_1*%
%TO.N,OEOUT*%
X120650000Y-122047000D03*
%TD*%
D13*
%TO.P,J9,2,Ext*%
%TO.N,GND*%
X113648000Y-108271000D03*
D14*
%TO.P,J9,1,In*%
%TO.N,/CVIN*%
X117348000Y-112021000D03*
X117348000Y-104521000D03*
%TD*%
D15*
%TO.P,R4,1*%
%TO.N,Net-(JP1-Pad2)*%
X128838500Y-79153000D03*
%TO.P,R4,2*%
%TO.N,CON_RESET*%
X127013500Y-79153000D03*
%TD*%
D16*
%TO.P,C2,1*%
%TO.N,+1V1*%
X132561500Y-96520000D03*
%TO.P,C2,2*%
%TO.N,GND*%
X130836500Y-96520000D03*
%TD*%
D17*
%TO.P,Q2,3,D*%
%TO.N,ALT_CLK_B*%
X124714000Y-123015000D03*
%TO.P,Q2,2,S*%
%TO.N,ALT_CLK_A*%
X123764000Y-120015000D03*
%TO.P,Q2,1,G*%
%TO.N,+3V3*%
X125664000Y-120015000D03*
%TD*%
D16*
%TO.P,C21,1*%
%TO.N,GND*%
X124915000Y-129540000D03*
%TO.P,C21,2*%
%TO.N,Net-(C21-Pad2)*%
X123190000Y-129540000D03*
%TD*%
D10*
%TO.P,J2,5,Pin_5*%
%TO.N,GND*%
X166497000Y-70104000D03*
%TO.P,J2,4,Pin_4*%
%TO.N,DISPLAY_SER*%
X163957000Y-70104000D03*
%TO.P,J2,3,Pin_3*%
%TO.N,DISPLAY_CLK*%
X161417000Y-70104000D03*
%TO.P,J2,2,Pin_2*%
%TO.N,DISPLAY_STROBE0*%
X158877000Y-70104000D03*
D11*
%TO.P,J2,1,Pin_1*%
%TO.N,/LED_5V*%
X156337000Y-70104000D03*
%TD*%
D16*
%TO.P,C22,1*%
%TO.N,VBUS*%
X171069000Y-120142000D03*
%TO.P,C22,2*%
%TO.N,GND*%
X169344000Y-120142000D03*
%TD*%
D12*
%TO.P,R10,1*%
%TO.N,ALT_CLK_A*%
X123801500Y-117877299D03*
%TO.P,R10,2*%
%TO.N,+3V3*%
X125626500Y-117877299D03*
%TD*%
D18*
%TO.P,J12,26*%
%TO.N,GND*%
X140315000Y-127772000D03*
%TO.P,J12,25*%
%TO.N,CP_25*%
X142605000Y-127772000D03*
%TO.P,J12,24*%
%TO.N,CP_24*%
X144895000Y-127772000D03*
%TO.P,J12,23*%
%TO.N,CP_23*%
X147185000Y-127772000D03*
%TO.P,J12,22*%
%TO.N,CP_22*%
X149475000Y-127772000D03*
%TO.P,J12,21*%
%TO.N,CP_21*%
X151765000Y-127772000D03*
%TO.P,J12,20*%
%TO.N,CP_20*%
X154055000Y-127772000D03*
%TO.P,J12,19*%
%TO.N,VBUS*%
X156345000Y-127772000D03*
%TO.P,J12,18*%
%TO.N,CP_18*%
X139045000Y-125232000D03*
%TO.P,J12,17*%
%TO.N,CP_17*%
X141335000Y-125232000D03*
%TO.P,J12,16*%
%TO.N,CP_16*%
X143625000Y-125232000D03*
%TO.P,J12,15*%
%TO.N,CP_15*%
X145915000Y-125232000D03*
%TO.P,J12,14*%
%TO.N,CP_14*%
X148205000Y-125232000D03*
%TO.P,J12,13*%
%TO.N,CP_13*%
X150495000Y-125232000D03*
%TO.P,J12,12*%
%TO.N,CP_12*%
X152785000Y-125232000D03*
%TO.P,J12,11*%
%TO.N,CP_11*%
X155075000Y-125232000D03*
%TO.P,J12,10*%
%TO.N,+3V3*%
X157365000Y-125232000D03*
%TO.P,J12,9*%
%TO.N,GND*%
X138025000Y-122692000D03*
%TO.P,J12,8*%
%TO.N,CP_8*%
X140315000Y-122692000D03*
%TO.P,J12,7*%
%TO.N,CP_7*%
X142605000Y-122692000D03*
%TO.P,J12,6*%
%TO.N,CP_6*%
X144895000Y-122692000D03*
%TO.P,J12,5*%
%TO.N,CP_5*%
X147185000Y-122692000D03*
%TO.P,J12,4*%
%TO.N,CP_4*%
X149475000Y-122692000D03*
%TO.P,J12,3*%
%TO.N,CP_3*%
X151765000Y-122692000D03*
%TO.P,J12,2*%
%TO.N,CP_2*%
X154055000Y-122692000D03*
D19*
%TO.P,J12,1*%
%TO.N,CP_1*%
X156345000Y-122692000D03*
D20*
%TO.P,J12,0*%
%TO.N,GND*%
X164355000Y-125232000D03*
X131035000Y-125232000D03*
%TD*%
D15*
%TO.P,R11,1*%
%TO.N,Net-(C21-Pad2)*%
X120650000Y-133096000D03*
%TO.P,R11,2*%
%TO.N,GND*%
X118825000Y-133096000D03*
%TD*%
D21*
%TO.P,JP4,1,A*%
%TO.N,/BD+*%
X173863000Y-97103999D03*
D22*
%TO.P,JP4,2,C*%
%TO.N,/PORTD+*%
X173863000Y-98403999D03*
D23*
%TO.P,JP4,3,B*%
%TO.N,/D+*%
X173863000Y-99703999D03*
%TD*%
D24*
%TO.P,U7,20,B1*%
%TO.N,CP_21*%
X150511000Y-116215000D03*
%TO.P,U7,19,VCCB*%
%TO.N,CP_20*%
X149861000Y-116215000D03*
%TO.P,U7,18,B2*%
%TO.N,CP_13*%
X149211000Y-116215000D03*
%TO.P,U7,17,B3*%
%TO.N,CP_4*%
X148561000Y-116215000D03*
%TO.P,U7,16,B4*%
%TO.N,CP_14*%
X147911000Y-116215000D03*
%TO.P,U7,15,B5*%
%TO.N,CP_5*%
X147261000Y-116215000D03*
%TO.P,U7,14,B6*%
%TO.N,CP_15*%
X146611000Y-116215000D03*
%TO.P,U7,13,B7*%
%TO.N,CP_6*%
X145961000Y-116215000D03*
%TO.P,U7,12,B8*%
%TO.N,CP_22*%
X145311000Y-116215000D03*
%TO.P,U7,11,GND*%
%TO.N,GND*%
X144661000Y-116215000D03*
%TO.P,U7,10,OE*%
%TO.N,+3V3*%
X144661000Y-110490000D03*
%TO.P,U7,9,A8*%
%TO.N,CNT_8*%
X145311000Y-110490000D03*
%TO.P,U7,8,A7*%
%TO.N,CNT_9*%
X145961000Y-110490000D03*
%TO.P,U7,7,A6*%
%TO.N,CNT_10*%
X146611000Y-110490000D03*
%TO.P,U7,6,A5*%
%TO.N,CNT_11*%
X147261000Y-110490000D03*
%TO.P,U7,5,A4*%
%TO.N,CNT_12*%
X147911000Y-110490000D03*
%TO.P,U7,4,A3*%
%TO.N,CNT_13*%
X148561000Y-110490000D03*
%TO.P,U7,3,A2*%
%TO.N,CNT_14*%
X149211000Y-110490000D03*
%TO.P,U7,2,VCCA*%
%TO.N,+3V3*%
X149861000Y-110490000D03*
%TO.P,U7,1,A1*%
%TO.N,CNT_15*%
X150511000Y-110490000D03*
%TD*%
D25*
%TO.P,R2,1*%
%TO.N,~{QSPI_CS}*%
X152019000Y-78947000D03*
%TO.P,R2,2*%
%TO.N,+3V3*%
X152019000Y-80772000D03*
%TD*%
D26*
%TO.P,REF\u002A\u002A,*%
%TO.N,*%
X183134000Y-61341000D03*
%TD*%
D27*
%TO.P,C10,1*%
%TO.N,VBUS*%
X173609000Y-108712000D03*
%TO.P,C10,2*%
%TO.N,GND*%
X175334000Y-108712000D03*
%TD*%
D28*
%TO.P,C13,2*%
%TO.N,Net-(C13-Pad2)*%
X123444000Y-88519000D03*
%TO.P,C13,1*%
%TO.N,GND*%
X123444000Y-90244000D03*
%TD*%
D27*
%TO.P,C4,1*%
%TO.N,+1V1*%
X145568500Y-97536000D03*
%TO.P,C4,2*%
%TO.N,GND*%
X147293500Y-97536000D03*
%TD*%
D26*
%TO.P,REF\u002A\u002A,*%
%TO.N,*%
X111125000Y-63246000D03*
%TD*%
D29*
%TO.P,SW1,2,2*%
%TO.N,Net-(R1-Pad1)*%
X177364000Y-82083000D03*
X177364000Y-90043000D03*
%TO.P,SW1,1,1*%
%TO.N,GND*%
X181864000Y-82083000D03*
X181864000Y-90043000D03*
%TD*%
D30*
%TO.P,JP1,1,A*%
%TO.N,CON_RESET*%
X127201000Y-81153000D03*
D31*
%TO.P,JP1,2,B*%
%TO.N,Net-(JP1-Pad2)*%
X128651000Y-81153000D03*
%TD*%
D24*
%TO.P,U6,20,B1*%
%TO.N,unconnected-(U6-Pad20)*%
X161911000Y-116215000D03*
%TO.P,U6,19,VCCB*%
%TO.N,CP_20*%
X161261000Y-116215000D03*
%TO.P,U6,18,B2*%
%TO.N,unconnected-(U6-Pad18)*%
X160611000Y-116215000D03*
%TO.P,U6,17,B3*%
%TO.N,CP_20*%
X159961000Y-116215000D03*
%TO.P,U6,16,B4*%
%TO.N,CP_1*%
X159311000Y-116215000D03*
%TO.P,U6,15,B5*%
%TO.N,CP_11*%
X158661000Y-116215000D03*
%TO.P,U6,14,B6*%
%TO.N,CP_2*%
X158011000Y-116215000D03*
%TO.P,U6,13,B7*%
%TO.N,CP_12*%
X157361000Y-116215000D03*
%TO.P,U6,12,B8*%
%TO.N,CP_3*%
X156711000Y-116215000D03*
%TO.P,U6,11,GND*%
%TO.N,GND*%
X156061000Y-116215000D03*
%TO.P,U6,10,OE*%
%TO.N,+3V3*%
X156061000Y-110490000D03*
%TO.P,U6,9,A8*%
%TO.N,CNT_16*%
X156711000Y-110490000D03*
%TO.P,U6,8,A7*%
%TO.N,unconnected-(U6-Pad8)*%
X157361000Y-110490000D03*
%TO.P,U6,7,A6*%
%TO.N,unconnected-(U6-Pad7)*%
X158011000Y-110490000D03*
%TO.P,U6,6,A5*%
%TO.N,Net-(JP6-Pad2)*%
X158661000Y-110490000D03*
%TO.P,U6,5,A4*%
%TO.N,Net-(JP5-Pad2)*%
X159311000Y-110490000D03*
%TO.P,U6,4,A3*%
%TO.N,DETECT*%
X159961000Y-110490000D03*
%TO.P,U6,3,A2*%
%TO.N,unconnected-(U6-Pad3)*%
X160611000Y-110490000D03*
%TO.P,U6,2,VCCA*%
%TO.N,+3V3*%
X161261000Y-110490000D03*
%TO.P,U6,1,A1*%
%TO.N,unconnected-(U6-Pad1)*%
X161911000Y-110490000D03*
%TD*%
D12*
%TO.P,R3,1*%
%TO.N,Net-(C14-Pad2)*%
X131572000Y-93345000D03*
%TO.P,R3,2*%
%TO.N,Net-(R3-Pad2)*%
X133397000Y-93345000D03*
%TD*%
D32*
%TO.P,U1,1,~{CS}*%
%TO.N,~{QSPI_CS}*%
X149860000Y-78906000D03*
%TO.P,U1,2,DO(IO1)*%
%TO.N,QSPI_IO1*%
X148590000Y-78906000D03*
%TO.P,U1,3,IO2*%
%TO.N,QSPI_IO2*%
X147320000Y-78906000D03*
%TO.P,U1,4,GND*%
%TO.N,GND*%
X146050000Y-78906000D03*
%TO.P,U1,5,DI(IO0)*%
%TO.N,QSPI_IO0*%
X146050000Y-86106000D03*
%TO.P,U1,6,CLK*%
%TO.N,QSPI_CLK*%
X147320000Y-86106000D03*
%TO.P,U1,7,IO3*%
%TO.N,QSPI_IO3*%
X148590000Y-86106000D03*
%TO.P,U1,8,VCC*%
%TO.N,+3V3*%
X149860000Y-86106000D03*
%TD*%
D16*
%TO.P,C15,2*%
%TO.N,+1V1*%
X147701000Y-91313000D03*
%TO.P,C15,1*%
%TO.N,GND*%
X149426000Y-91313000D03*
%TD*%
D15*
%TO.P,R12,1*%
%TO.N,ALT_CLK_B*%
X124714000Y-125095000D03*
%TO.P,R12,2*%
%TO.N,VBUS*%
X122889000Y-125095000D03*
%TD*%
D26*
%TO.P,REF\u002A\u002A,*%
%TO.N,*%
X113030000Y-133096000D03*
%TD*%
D13*
%TO.P,J8,2,Ext*%
%TO.N,GND*%
X113648000Y-95945000D03*
D14*
%TO.P,J8,1,In*%
%TO.N,/CVIN*%
X117348000Y-92195000D03*
X117348000Y-99695000D03*
%TD*%
D12*
%TO.P,R5,1*%
%TO.N,Net-(JP2-Pad2)*%
X123561000Y-79153000D03*
%TO.P,R5,2*%
%TO.N,CON_RESET*%
X125386000Y-79153000D03*
%TD*%
D28*
%TO.P,C11,1*%
%TO.N,+3V3*%
X152019000Y-86106000D03*
%TO.P,C11,2*%
%TO.N,GND*%
X152019000Y-84381000D03*
%TD*%
D33*
%TO.P,J7,S1,SHIELD*%
%TO.N,GND*%
X178816000Y-105132999D03*
X182996000Y-96492999D03*
X178816000Y-96492999D03*
X182996000Y-105132999D03*
D34*
%TO.P,J7,B12,GND*%
X177901000Y-104062999D03*
%TO.P,J7,B9,VBUS*%
%TO.N,VBUS*%
X177901000Y-103262999D03*
D35*
%TO.P,J7,B8,SBU2*%
%TO.N,unconnected-(J7-PadB8)*%
X177901000Y-102562999D03*
%TO.P,J7,B7,D-*%
%TO.N,/PORTD-*%
X177901000Y-101562999D03*
%TO.P,J7,B6,D+*%
%TO.N,/PORTD+*%
X177901000Y-100062999D03*
%TO.P,J7,B5,CC2*%
%TO.N,Net-(J7-PadB5)*%
X177901000Y-99062999D03*
D34*
%TO.P,J7,B4,VBUS*%
%TO.N,VBUS*%
X177901000Y-98362999D03*
%TO.P,J7,B1,GND*%
%TO.N,GND*%
X177901000Y-97562999D03*
%TO.P,J7,A12,GND*%
X177901000Y-97562999D03*
%TO.P,J7,A9,VBUS*%
%TO.N,VBUS*%
X177901000Y-98362999D03*
D35*
%TO.P,J7,A8,SBU1*%
%TO.N,unconnected-(J7-PadA8)*%
X177901000Y-99562999D03*
%TO.P,J7,A7,D-*%
%TO.N,/PORTD-*%
X177901000Y-100562999D03*
%TO.P,J7,A6,D+*%
%TO.N,/PORTD+*%
X177901000Y-101062999D03*
%TO.P,J7,A5,CC1*%
%TO.N,Net-(J7-PadA5)*%
X177901000Y-102062999D03*
D34*
%TO.P,J7,A4,VBUS*%
%TO.N,VBUS*%
X177901000Y-103262999D03*
%TO.P,J7,A1,GND*%
%TO.N,GND*%
X177901000Y-104062999D03*
%TD*%
D36*
%TO.P,U4,14,VSS*%
%TO.N,GND*%
X164719000Y-80518000D03*
%TO.P,U4,13,D+*%
%TO.N,/BD+*%
X164719000Y-83058000D03*
%TO.P,U4,12,D-*%
%TO.N,/BD-*%
X164719000Y-85598000D03*
%TO.P,U4,11,VUSB*%
%TO.N,+3V3*%
X164719000Y-88138000D03*
%TO.P,U4,10,SCL*%
%TO.N,unconnected-(U4-Pad10)*%
X164719000Y-90678000D03*
%TO.P,U4,9,SDA*%
%TO.N,unconnected-(U4-Pad9)*%
X164719000Y-93218000D03*
%TO.P,U4,8,GP3*%
%TO.N,unconnected-(U4-Pad8)*%
X164719000Y-95758000D03*
%TO.P,U4,7,GP2*%
%TO.N,unconnected-(U4-Pad7)*%
X157099000Y-95758000D03*
%TO.P,U4,6,UTx*%
%TO.N,BRIDGE_TX*%
X157099000Y-93218000D03*
%TO.P,U4,5,URx*%
%TO.N,BRIDGE_RX*%
X157099000Y-90678000D03*
%TO.P,U4,4,~{RST}*%
%TO.N,unconnected-(U4-Pad4)*%
X157099000Y-88138000D03*
%TO.P,U4,3,GP1*%
%TO.N,unconnected-(U4-Pad3)*%
X157099000Y-85598000D03*
%TO.P,U4,2,GP0*%
%TO.N,unconnected-(U4-Pad2)*%
X157099000Y-83058000D03*
D37*
%TO.P,U4,1,VDD*%
%TO.N,+3V3*%
X157099000Y-80518000D03*
%TD*%
D28*
%TO.P,C18,1*%
%TO.N,Net-(C18-Pad1)*%
X113030000Y-128270000D03*
%TO.P,C18,2*%
%TO.N,/CVIN*%
X113030000Y-126545000D03*
%TD*%
D16*
%TO.P,C16,2*%
%TO.N,+3V3*%
X147701000Y-92837000D03*
%TO.P,C16,1*%
%TO.N,GND*%
X149426000Y-92837000D03*
%TD*%
D38*
%TO.P,C3,1*%
%TO.N,+3V3*%
X142621000Y-98171000D03*
%TO.P,C3,2*%
%TO.N,GND*%
X142621000Y-99896000D03*
%TD*%
D15*
%TO.P,R1,1*%
%TO.N,Net-(R1-Pad1)*%
X153844000Y-76962000D03*
%TO.P,R1,2*%
%TO.N,~{QSPI_CS}*%
X152019000Y-76962000D03*
%TD*%
D12*
%TO.P,R7,1*%
%TO.N,/RD+*%
X145542000Y-94488000D03*
%TO.P,R7,2*%
%TO.N,/D+*%
X147367000Y-94488000D03*
%TD*%
D10*
%TO.P,J4,5,Pin_5*%
%TO.N,GND*%
X137541000Y-70104000D03*
%TO.P,J4,4,Pin_4*%
%TO.N,DISPLAY_SER*%
X135001000Y-70104000D03*
%TO.P,J4,3,Pin_3*%
%TO.N,DISPLAY_CLK*%
X132461000Y-70104000D03*
%TO.P,J4,2,Pin_2*%
%TO.N,DISPLAY_STROBE2*%
X129921000Y-70104000D03*
D11*
%TO.P,J4,1,Pin_1*%
%TO.N,/LED_5V*%
X127381000Y-70104000D03*
%TD*%
D27*
%TO.P,C8,1*%
%TO.N,+3V3*%
X145568500Y-100584000D03*
%TO.P,C8,2*%
%TO.N,GND*%
X147293500Y-100584000D03*
%TD*%
D10*
%TO.P,J6,3,Pin_3*%
%TO.N,/RESET_HI*%
X120523000Y-82169000D03*
%TO.P,J6,2,Pin_2*%
%TO.N,/RESET_LO*%
X120523000Y-84709000D03*
D11*
%TO.P,J6,1,Pin_1*%
%TO.N,GND*%
X120523000Y-87249000D03*
%TD*%
D12*
%TO.P,R8,1*%
%TO.N,GND*%
X179310199Y-107012999D03*
%TO.P,R8,2*%
%TO.N,Net-(J7-PadA5)*%
X181135199Y-107012999D03*
%TD*%
D27*
%TO.P,C6,1*%
%TO.N,+3V3*%
X145568500Y-99060000D03*
%TO.P,C6,2*%
%TO.N,GND*%
X147293500Y-99060000D03*
%TD*%
D16*
%TO.P,C1,1*%
%TO.N,+3V3*%
X132561500Y-94996000D03*
%TO.P,C1,2*%
%TO.N,GND*%
X130836500Y-94996000D03*
%TD*%
D39*
%TO.P,U5,8,VCC*%
%TO.N,VBUS*%
X120650000Y-127000000D03*
%TO.P,U5,7,OEOUT*%
%TO.N,OEOUT*%
X120650000Y-128270000D03*
%TO.P,U5,6,RSET*%
%TO.N,Net-(C21-Pad2)*%
X120650000Y-129540000D03*
%TO.P,U5,5,BPOUT*%
%TO.N,unconnected-(U5-Pad5)*%
X120650000Y-130810000D03*
%TO.P,U5,4,GND*%
%TO.N,GND*%
X115700000Y-130810000D03*
%TO.P,U5,3,VSOUT*%
%TO.N,ALT_CLK_B*%
X115700000Y-129540000D03*
%TO.P,U5,2,CVIN*%
%TO.N,Net-(C18-Pad1)*%
X115700000Y-128270000D03*
%TO.P,U5,1,CSOUT*%
%TO.N,unconnected-(U5-Pad1)*%
X115700000Y-127000000D03*
%TD*%
D38*
%TO.P,C19,1*%
%TO.N,GND*%
X141859000Y-110924000D03*
%TO.P,C19,2*%
%TO.N,+3V3*%
X141859000Y-112649000D03*
%TD*%
D27*
%TO.P,C7,1*%
%TO.N,+3V3*%
X171884000Y-117856000D03*
%TO.P,C7,2*%
%TO.N,GND*%
X173609000Y-117856000D03*
%TD*%
D38*
%TO.P,C17,1*%
%TO.N,GND*%
X154686000Y-79047000D03*
%TO.P,C17,2*%
%TO.N,+3V3*%
X154686000Y-80772000D03*
%TD*%
D24*
%TO.P,U8,20,B1*%
%TO.N,CP_7*%
X139073000Y-116215000D03*
%TO.P,U8,19,VCCB*%
%TO.N,CP_20*%
X138423000Y-116215000D03*
%TO.P,U8,18,B2*%
%TO.N,CP_16*%
X137773000Y-116215000D03*
%TO.P,U8,17,B3*%
%TO.N,CP_8*%
X137123000Y-116215000D03*
%TO.P,U8,16,B4*%
%TO.N,CP_17*%
X136473000Y-116215000D03*
%TO.P,U8,15,B5*%
%TO.N,CP_18*%
X135823000Y-116215000D03*
%TO.P,U8,14,B6*%
%TO.N,CP_25*%
X135173000Y-116215000D03*
%TO.P,U8,13,B7*%
%TO.N,CP_24*%
X134523000Y-116215000D03*
%TO.P,U8,12,B8*%
%TO.N,CP_23*%
X133873000Y-116215000D03*
%TO.P,U8,11,GND*%
%TO.N,GND*%
X133223000Y-116215000D03*
%TO.P,U8,10,OE*%
%TO.N,+3V3*%
X133223000Y-110490000D03*
%TO.P,U8,9,A8*%
%TO.N,CNT_0*%
X133873000Y-110490000D03*
%TO.P,U8,8,A7*%
%TO.N,CNT_1*%
X134523000Y-110490000D03*
%TO.P,U8,7,A6*%
%TO.N,CNT_2*%
X135173000Y-110490000D03*
%TO.P,U8,6,A5*%
%TO.N,CNT_3*%
X135823000Y-110490000D03*
%TO.P,U8,5,A4*%
%TO.N,CNT_4*%
X136473000Y-110490000D03*
%TO.P,U8,4,A3*%
%TO.N,CNT_5*%
X137123000Y-110490000D03*
%TO.P,U8,3,A2*%
%TO.N,CNT_6*%
X137773000Y-110490000D03*
%TO.P,U8,2,VCCA*%
%TO.N,+3V3*%
X138423000Y-110490000D03*
%TO.P,U8,1,A1*%
%TO.N,CNT_7*%
X139073000Y-110490000D03*
%TD*%
D40*
%TO.P,U2,3,VI*%
%TO.N,VBUS*%
X173609000Y-110984000D03*
D41*
%TO.P,U2,2,VO*%
%TO.N,+3V3*%
X167309000Y-113284000D03*
D40*
X173609000Y-113284000D03*
%TO.P,U2,1,GND*%
%TO.N,GND*%
X173609000Y-115584000D03*
%TD*%
D42*
%TO.P,JP2,1,A*%
%TO.N,CON_RESET*%
X125198500Y-81153000D03*
D43*
%TO.P,JP2,2,B*%
%TO.N,Net-(JP2-Pad2)*%
X123748500Y-81153000D03*
%TD*%
D10*
%TO.P,J3,5,Pin_5*%
%TO.N,GND*%
X152019000Y-70104000D03*
%TO.P,J3,4,Pin_4*%
%TO.N,DISPLAY_SER*%
X149479000Y-70104000D03*
%TO.P,J3,3,Pin_3*%
%TO.N,DISPLAY_CLK*%
X146939000Y-70104000D03*
%TO.P,J3,2,Pin_2*%
%TO.N,DISPLAY_STROBE1*%
X144399000Y-70104000D03*
D11*
%TO.P,J3,1,Pin_1*%
%TO.N,/LED_5V*%
X141859000Y-70104000D03*
%TD*%
D44*
%TO.P,J1,3*%
%TO.N,GND*%
X174831000Y-62737000D03*
D45*
%TO.P,J1,2*%
X177831000Y-67437000D03*
D46*
%TO.P,J1,1*%
%TO.N,/LED_5V*%
X171831000Y-67437000D03*
%TD*%
D38*
%TO.P,C14,2*%
%TO.N,Net-(C14-Pad2)*%
X123444000Y-97028000D03*
%TO.P,C14,1*%
%TO.N,GND*%
X123444000Y-95303000D03*
%TD*%
D12*
%TO.P,R6,1*%
%TO.N,/RD-*%
X145542000Y-96012000D03*
%TO.P,R6,2*%
%TO.N,/D-*%
X147367000Y-96012000D03*
%TD*%
D28*
%TO.P,C9,1*%
%TO.N,+3V3*%
X143002000Y-86614000D03*
%TO.P,C9,2*%
%TO.N,GND*%
X143002000Y-84889000D03*
%TD*%
D47*
%TO.P,Y1,2,2*%
%TO.N,Net-(C13-Pad2)*%
X127254000Y-88519000D03*
%TO.P,Y1,1,1*%
%TO.N,Net-(C14-Pad2)*%
X127254000Y-97019000D03*
%TD*%
D28*
%TO.P,C12,1*%
%TO.N,+3V3*%
X138303000Y-87249000D03*
%TO.P,C12,2*%
%TO.N,GND*%
X138303000Y-85524000D03*
%TD*%
D48*
%TO.P,Q1,6,C1*%
%TO.N,CP_20*%
X125991000Y-84612000D03*
%TO.P,Q1,5,B2*%
%TO.N,Net-(JP2-Pad2)*%
X125991000Y-83962000D03*
%TO.P,Q1,4,E2*%
%TO.N,/RESET_LO*%
X125991000Y-83312000D03*
%TO.P,Q1,3,C2*%
%TO.N,GND*%
X128651000Y-83312000D03*
%TO.P,Q1,2,B1*%
%TO.N,Net-(JP1-Pad2)*%
X128651000Y-83962000D03*
%TO.P,Q1,1,E1*%
%TO.N,/RESET_HI*%
X128651000Y-84612000D03*
%TD*%
D21*
%TO.P,JP3,1,A*%
%TO.N,/BD-*%
X173863000Y-101929999D03*
D22*
%TO.P,JP3,2,C*%
%TO.N,/PORTD-*%
X173863000Y-103229999D03*
D23*
%TO.P,JP3,3,B*%
%TO.N,/D-*%
X173863000Y-104529999D03*
%TD*%
D38*
%TO.P,C5,1*%
%TO.N,+3V3*%
X137795000Y-99875000D03*
%TO.P,C5,2*%
%TO.N,GND*%
X137795000Y-101600000D03*
%TD*%
D10*
%TO.P,J11,6,Pin_6*%
%TO.N,GND*%
X174371000Y-133604000D03*
%TO.P,J11,5,Pin_5*%
%TO.N,SWD*%
X174371000Y-131064000D03*
%TO.P,J11,4,Pin_4*%
%TO.N,SWCLK*%
X174371000Y-128524000D03*
%TO.P,J11,3,Pin_3*%
%TO.N,CNT_17*%
X174371000Y-125984000D03*
%TO.P,J11,2,Pin_2*%
%TO.N,CNT_18*%
X174371000Y-123444000D03*
D11*
%TO.P,J11,1,Pin_1*%
%TO.N,Net-(J11-Pad1)*%
X174371000Y-120904000D03*
%TD*%
D16*
%TO.P,C20,1*%
%TO.N,GND*%
X124915000Y-127000000D03*
%TO.P,C20,2*%
%TO.N,VBUS*%
X123190000Y-127000000D03*
%TD*%
D38*
%TO.P,C23,1*%
%TO.N,CP_20*%
X153416000Y-114300000D03*
%TO.P,C23,2*%
%TO.N,GND*%
X153416000Y-116025000D03*
%TD*%
D49*
%TO.P,U3,57,GND*%
%TO.N,GND*%
X139279000Y-91912000D03*
X139279000Y-94462000D03*
X138004000Y-91912000D03*
X138004000Y-93187000D03*
X139279000Y-93187000D03*
X138004000Y-94462000D03*
D50*
X139279000Y-93187000D03*
D49*
X140554000Y-91912000D03*
X140554000Y-93187000D03*
X140554000Y-94462000D03*
D51*
%TO.P,U3,56,QSPI_SS*%
%TO.N,~{QSPI_CS}*%
X142716500Y-90587000D03*
%TO.P,U3,55,QSPI_SD1*%
%TO.N,QSPI_IO1*%
X142716500Y-90987000D03*
%TO.P,U3,54,QSPI_SD2*%
%TO.N,QSPI_IO2*%
X142716500Y-91387000D03*
%TO.P,U3,53,QSPI_SD0*%
%TO.N,QSPI_IO0*%
X142716500Y-91787000D03*
%TO.P,U3,52,QSPI_SCLK*%
%TO.N,QSPI_CLK*%
X142716500Y-92187000D03*
%TO.P,U3,51,QSPI_SD3*%
%TO.N,QSPI_IO3*%
X142716500Y-92587000D03*
%TO.P,U3,50,DVDD*%
%TO.N,+1V1*%
X142716500Y-92987000D03*
%TO.P,U3,49,IOVDD*%
%TO.N,+3V3*%
X142716500Y-93387000D03*
%TO.P,U3,48,USB_VDD*%
X142716500Y-93787000D03*
%TO.P,U3,47,USB_DP*%
%TO.N,/RD+*%
X142716500Y-94187000D03*
%TO.P,U3,46,USB_DM*%
%TO.N,/RD-*%
X142716500Y-94587000D03*
%TO.P,U3,45,VREG_VOUT*%
%TO.N,+1V1*%
X142716500Y-94987000D03*
%TO.P,U3,44,VREG_IN*%
%TO.N,+3V3*%
X142716500Y-95387000D03*
%TO.P,U3,43,ADC_AVDD*%
X142716500Y-95787000D03*
D52*
%TO.P,U3,42,IOVDD*%
X141879000Y-96624500D03*
%TO.P,U3,41,GPIO29_ADC3*%
%TO.N,DETECT*%
X141479000Y-96624500D03*
%TO.P,U3,40,GPIO28_ADC2*%
%TO.N,CNT_16*%
X141079000Y-96624500D03*
%TO.P,U3,39,GPIO27_ADC1*%
%TO.N,CNT_15*%
X140679000Y-96624500D03*
%TO.P,U3,38,GPIO26_ADC0*%
%TO.N,CNT_14*%
X140279000Y-96624500D03*
%TO.P,U3,37,GPIO25*%
%TO.N,CNT_13*%
X139879000Y-96624500D03*
%TO.P,U3,36,GPIO24*%
%TO.N,CNT_12*%
X139479000Y-96624500D03*
%TO.P,U3,35,GPIO23*%
%TO.N,CNT_11*%
X139079000Y-96624500D03*
%TO.P,U3,34,GPIO22*%
%TO.N,CNT_10*%
X138679000Y-96624500D03*
%TO.P,U3,33,IOVDD*%
%TO.N,+3V3*%
X138279000Y-96624500D03*
%TO.P,U3,32,GPIO21*%
%TO.N,CNT_9*%
X137879000Y-96624500D03*
%TO.P,U3,31,GPIO20*%
%TO.N,CNT_8*%
X137479000Y-96624500D03*
%TO.P,U3,30,GPIO19*%
%TO.N,CNT_7*%
X137079000Y-96624500D03*
%TO.P,U3,29,GPIO18*%
%TO.N,CNT_6*%
X136679000Y-96624500D03*
D51*
%TO.P,U3,28,GPIO17*%
%TO.N,CNT_5*%
X135841500Y-95787000D03*
%TO.P,U3,27,GPIO16*%
%TO.N,CNT_4*%
X135841500Y-95387000D03*
%TO.P,U3,26,RUN*%
%TO.N,+3V3*%
X135841500Y-94987000D03*
%TO.P,U3,25,SWD*%
%TO.N,SWD*%
X135841500Y-94587000D03*
%TO.P,U3,24,SWCLK*%
%TO.N,SWCLK*%
X135841500Y-94187000D03*
%TO.P,U3,23,DVDD*%
%TO.N,+1V1*%
X135841500Y-93787000D03*
%TO.P,U3,22,IOVDD*%
%TO.N,+3V3*%
X135841500Y-93387000D03*
%TO.P,U3,21,XOUT*%
%TO.N,Net-(R3-Pad2)*%
X135841500Y-92987000D03*
%TO.P,U3,20,XIN*%
%TO.N,Net-(C13-Pad2)*%
X135841500Y-92587000D03*
%TO.P,U3,19,TESTEN*%
%TO.N,GND*%
X135841500Y-92187000D03*
%TO.P,U3,18,GPIO15*%
%TO.N,CNT_3*%
X135841500Y-91787000D03*
%TO.P,U3,17,GPIO14*%
%TO.N,CNT_2*%
X135841500Y-91387000D03*
%TO.P,U3,16,GPIO13*%
%TO.N,CNT_1*%
X135841500Y-90987000D03*
%TO.P,U3,15,GPIO12*%
%TO.N,CNT_0*%
X135841500Y-90587000D03*
D52*
%TO.P,U3,14,GPIO11*%
%TO.N,ALT_CLK_A*%
X136679000Y-89749500D03*
%TO.P,U3,13,GPIO10*%
%TO.N,CON_RESET*%
X137079000Y-89749500D03*
%TO.P,U3,12,GPIO9*%
%TO.N,BRIDGE_TX*%
X137479000Y-89749500D03*
%TO.P,U3,11,GPIO8*%
%TO.N,BRIDGE_RX*%
X137879000Y-89749500D03*
%TO.P,U3,10,IOVDD*%
%TO.N,+3V3*%
X138279000Y-89749500D03*
%TO.P,U3,9,GPIO7*%
%TO.N,DISPLAY_CLK*%
X138679000Y-89749500D03*
%TO.P,U3,8,GPIO6*%
%TO.N,DISPLAY_SER*%
X139079000Y-89749500D03*
%TO.P,U3,7,GPIO5*%
%TO.N,DISPLAY_STROBE3*%
X139479000Y-89749500D03*
%TO.P,U3,6,GPIO4*%
%TO.N,DISPLAY_STROBE2*%
X139879000Y-89749500D03*
%TO.P,U3,5,GPIO3*%
%TO.N,DISPLAY_STROBE1*%
X140279000Y-89749500D03*
%TO.P,U3,4,GPIO2*%
%TO.N,DISPLAY_STROBE0*%
X140679000Y-89749500D03*
%TO.P,U3,3,GPIO1*%
%TO.N,CNT_18*%
X141079000Y-89749500D03*
%TO.P,U3,2,GPIO0*%
%TO.N,CNT_17*%
X141479000Y-89749500D03*
%TO.P,U3,1,IOVDD*%
%TO.N,+3V3*%
X141879000Y-89749500D03*
%TD*%
D53*
%TO.N,+3V3*%
X175641000Y-113284000D03*
X125626500Y-115062000D03*
X125626500Y-113514500D03*
X177673000Y-113284000D03*
%TO.N,GND*%
X148590000Y-97536000D03*
X175373000Y-115584000D03*
X146050000Y-80645000D03*
X181864000Y-86106000D03*
X142621000Y-101219000D03*
X143645000Y-116215000D03*
X130302000Y-91313000D03*
X153490000Y-79047000D03*
X138303000Y-84201000D03*
X123444000Y-93980000D03*
X132215000Y-116215000D03*
X168047500Y-120142000D03*
X137795000Y-102923000D03*
X126111000Y-127000000D03*
X148590000Y-99060000D03*
X148590000Y-100584000D03*
X140663000Y-110924000D03*
X152019000Y-82931000D03*
X175334000Y-107495000D03*
X150749000Y-92837000D03*
X155075000Y-116215000D03*
X126111000Y-129540000D03*
X130402500Y-97917000D03*
X150749000Y-91313000D03*
X130175000Y-83312000D03*
X143002000Y-83566000D03*
X116268500Y-132524500D03*
X123444000Y-91567000D03*
%TO.N,+1V1*%
X137196234Y-93810837D03*
X133731000Y-95758000D03*
X146431000Y-91313000D03*
X141358716Y-93833400D03*
%TO.N,VBUS*%
X176657000Y-117475000D03*
X176391001Y-103262999D03*
X176391000Y-98364383D03*
%TO.N,CP_20*%
X160606531Y-117943659D03*
%TO.N,/RESET_HI*%
X127351000Y-84612000D03*
%TO.N,CON_RESET*%
X128651555Y-82491253D03*
X130302000Y-84836000D03*
%TO.N,CNT_0*%
X132969000Y-104140000D03*
X132715000Y-88913704D03*
%TO.N,CNT_1*%
X133350000Y-103251000D03*
X133096000Y-89789000D03*
%TO.N,CNT_2*%
X133858000Y-102362000D03*
X132207000Y-91059000D03*
%TO.N,CNT_3*%
X133350000Y-91059000D03*
X134239000Y-101346000D03*
%TO.N,ALT_CLK_A*%
X123825000Y-112903000D03*
X123801500Y-115062000D03*
%TO.N,SWCLK*%
X123317000Y-102489000D03*
X116205000Y-102489000D03*
%TO.N,SWD*%
X115443000Y-101727000D03*
X124333000Y-101727000D03*
%TO.N,Net-(JP5-Pad2)*%
X159639000Y-111887000D03*
%TO.N,Net-(JP6-Pad2)*%
X158369000Y-111887000D03*
%TO.N,DISPLAY_SER*%
X111760000Y-74930000D03*
%TO.N,CP_21*%
X149995000Y-120025000D03*
%TO.N,/BD-*%
X171958000Y-98552000D03*
X171958000Y-101346000D03*
%TO.N,CNT_18*%
X162740000Y-108024000D03*
X141859000Y-87503000D03*
X155194000Y-101346000D03*
%TO.N,CNT_17*%
X142240000Y-88392000D03*
X154305000Y-100584000D03*
X160464500Y-108267500D03*
%TO.N,BRIDGE_RX*%
X149098000Y-88773000D03*
X137033000Y-86741000D03*
%TO.N,BRIDGE_TX*%
X148463000Y-89535000D03*
X136271000Y-86995000D03*
%TD*%
D54*
%TO.N,+3V3*%
X157099000Y-80518000D02*
X159639000Y-77978000D01*
X157365000Y-125232000D02*
X164973000Y-117624000D01*
D55*
X154569000Y-112659000D02*
X155394000Y-112659000D01*
X149861000Y-112031000D02*
X149861000Y-110490000D01*
X126492000Y-112649000D02*
X125626500Y-113514500D01*
D56*
X149860000Y-82931000D02*
X152019000Y-80772000D01*
D54*
X173609000Y-113284000D02*
X175641000Y-113284000D01*
D56*
X142716500Y-95787000D02*
X141888000Y-95787000D01*
X142660500Y-89749500D02*
X141879000Y-89749500D01*
X141879000Y-95796000D02*
X141888000Y-95787000D01*
X133350000Y-94996000D02*
X132561500Y-94996000D01*
X134959000Y-93387000D02*
X133350000Y-94996000D01*
D54*
X157099000Y-80518000D02*
X164719000Y-88138000D01*
X184912000Y-111633000D02*
X183261000Y-113284000D01*
X167894000Y-79883000D02*
X167894000Y-84455000D01*
D55*
X133223000Y-112014000D02*
X132588000Y-112649000D01*
D56*
X156845000Y-80772000D02*
X157099000Y-80518000D01*
D54*
X149098000Y-94234000D02*
X151257000Y-94234000D01*
D56*
X142716500Y-93387000D02*
X141944000Y-93387000D01*
X143002000Y-89408000D02*
X142660500Y-89749500D01*
D55*
X160663000Y-112659000D02*
X161261000Y-112061000D01*
D56*
X143764000Y-96139000D02*
X143764000Y-98779500D01*
X152019000Y-86106000D02*
X149860000Y-86106000D01*
D55*
X156728000Y-112659000D02*
X156061000Y-111992000D01*
X145298000Y-112659000D02*
X144661000Y-112022000D01*
D54*
X159639000Y-77978000D02*
X165989000Y-77978000D01*
D55*
X150503000Y-112659000D02*
X154569000Y-112659000D01*
X139073000Y-112659000D02*
X138423000Y-112009000D01*
D56*
X144145000Y-96012000D02*
X144145000Y-97636500D01*
X143520000Y-95387000D02*
X144145000Y-96012000D01*
D55*
X133223000Y-112014000D02*
X133858000Y-112649000D01*
D54*
X175895000Y-92456000D02*
X182499000Y-92456000D01*
D55*
X155394000Y-112659000D02*
X156061000Y-111992000D01*
X157363000Y-112659000D02*
X156728000Y-112659000D01*
D56*
X138279000Y-96624500D02*
X138279000Y-95782000D01*
D55*
X125664000Y-120015000D02*
X125664000Y-117914799D01*
X157363000Y-112659000D02*
X160663000Y-112659000D01*
D56*
X137795000Y-98933000D02*
X138279000Y-98449000D01*
D54*
X159893000Y-92964000D02*
X164719000Y-88138000D01*
D55*
X144661000Y-112022000D02*
X144661000Y-110490000D01*
X125664000Y-117914799D02*
X125626500Y-117877299D01*
D54*
X159893000Y-96901000D02*
X159893000Y-92964000D01*
D56*
X141879000Y-97429000D02*
X142621000Y-98171000D01*
X138279000Y-96624500D02*
X138279000Y-98449000D01*
X138279000Y-87273000D02*
X138303000Y-87249000D01*
D55*
X138423000Y-112009000D02*
X138423000Y-110490000D01*
D56*
X142716500Y-95387000D02*
X143520000Y-95387000D01*
X143412000Y-95787000D02*
X143764000Y-96139000D01*
D55*
X149861000Y-112031000D02*
X149233000Y-112659000D01*
X162484000Y-113284000D02*
X167309000Y-113284000D01*
D54*
X151257000Y-94234000D02*
X155194000Y-98171000D01*
D55*
X156061000Y-111992000D02*
X156061000Y-110490000D01*
D56*
X135841500Y-93387000D02*
X134959000Y-93387000D01*
X138279000Y-89749500D02*
X138279000Y-90527000D01*
D55*
X132588000Y-112649000D02*
X126492000Y-112649000D01*
X161261000Y-112061000D02*
X161261000Y-110490000D01*
D54*
X182499000Y-92456000D02*
X184912000Y-94869000D01*
D55*
X149875000Y-112031000D02*
X150503000Y-112659000D01*
X144661000Y-112022000D02*
X144661000Y-112026000D01*
D54*
X165989000Y-77978000D02*
X167894000Y-79883000D01*
D56*
X142716500Y-93787000D02*
X141920000Y-93787000D01*
X141879000Y-96624500D02*
X141879000Y-97429000D01*
X142716500Y-95787000D02*
X143412000Y-95787000D01*
D54*
X184912000Y-94869000D02*
X184912000Y-111633000D01*
X147701000Y-92837000D02*
X149098000Y-94234000D01*
D56*
X135841500Y-93387000D02*
X136483000Y-93387000D01*
D55*
X149233000Y-112659000D02*
X146294000Y-112659000D01*
X137783000Y-112649000D02*
X138423000Y-112009000D01*
D56*
X142716500Y-95387000D02*
X141976000Y-95387000D01*
D54*
X155194000Y-98171000D02*
X158623000Y-98171000D01*
D55*
X149861000Y-112031000D02*
X149875000Y-112031000D01*
D56*
X152019000Y-80772000D02*
X156845000Y-80772000D01*
D55*
X133858000Y-112649000D02*
X137783000Y-112649000D01*
X125626500Y-117877299D02*
X125626500Y-115062000D01*
D54*
X158623000Y-98171000D02*
X159893000Y-96901000D01*
D56*
X136483000Y-93387000D02*
X136652000Y-93218000D01*
X141888000Y-95787000D02*
X141732000Y-95631000D01*
X141879000Y-89749500D02*
X141879000Y-90658000D01*
D55*
X161261000Y-112061000D02*
X162484000Y-113284000D01*
X146294000Y-112659000D02*
X145298000Y-112659000D01*
D56*
X138279000Y-89749500D02*
X138279000Y-87273000D01*
D54*
X183261000Y-113284000D02*
X177673000Y-113284000D01*
D56*
X149860000Y-86106000D02*
X149860000Y-82931000D01*
X135841500Y-94987000D02*
X136770000Y-94987000D01*
X141976000Y-95387000D02*
X141732000Y-95631000D01*
D55*
X144661000Y-112026000D02*
X144028000Y-112659000D01*
D56*
X141879000Y-96624500D02*
X141879000Y-95796000D01*
D54*
X167894000Y-84455000D02*
X175895000Y-92456000D01*
D56*
X137795000Y-99875000D02*
X137795000Y-98933000D01*
X143764000Y-98779500D02*
X145568500Y-100584000D01*
X143002000Y-89408000D02*
X143002000Y-86614000D01*
D55*
X133223000Y-110490000D02*
X133223000Y-112014000D01*
D56*
X144145000Y-97636500D02*
X145568500Y-99060000D01*
D55*
X144028000Y-112659000D02*
X139073000Y-112659000D01*
D56*
%TO.N,GND*%
X153416000Y-116025000D02*
X154885000Y-116025000D01*
X141859000Y-110924000D02*
X140663000Y-110924000D01*
X149426000Y-92837000D02*
X150749000Y-92837000D01*
X173609000Y-115584000D02*
X173609000Y-117856000D01*
X147293500Y-100584000D02*
X148590000Y-100584000D01*
X149426000Y-91313000D02*
X150749000Y-91313000D01*
X178816000Y-106518800D02*
X178816000Y-105132999D01*
X124915000Y-129540000D02*
X126111000Y-129540000D01*
D57*
X177901000Y-104217999D02*
X178816000Y-105132999D01*
D56*
X130810000Y-91821000D02*
X130302000Y-91313000D01*
X147293500Y-99060000D02*
X148590000Y-99060000D01*
X175334000Y-108712000D02*
X175334000Y-107495000D01*
X147293500Y-97536000D02*
X148590000Y-97536000D01*
X135841500Y-92187000D02*
X134732000Y-92187000D01*
X123444000Y-95303000D02*
X123444000Y-93980000D01*
D57*
X177901000Y-97407999D02*
X178816000Y-96492999D01*
D56*
X156061000Y-116215000D02*
X155075000Y-116215000D01*
X154885000Y-116025000D02*
X155075000Y-116215000D01*
X138303000Y-85524000D02*
X138303000Y-84201000D01*
X154686000Y-79047000D02*
X153490000Y-79047000D01*
X169344000Y-120142000D02*
X168047500Y-120142000D01*
X130836500Y-97483000D02*
X130402500Y-97917000D01*
X123444000Y-90244000D02*
X123444000Y-91567000D01*
X133223000Y-116215000D02*
X132215000Y-116215000D01*
X137795000Y-101600000D02*
X137795000Y-102923000D01*
X179310199Y-94693999D02*
X178816000Y-95188198D01*
D58*
X115700000Y-131956000D02*
X115700000Y-130810000D01*
X116268500Y-132524500D02*
X115700000Y-131956000D01*
D56*
X142621000Y-99896000D02*
X142621000Y-101219000D01*
D58*
X118825000Y-133096000D02*
X116840000Y-133096000D01*
D56*
X128651000Y-83312000D02*
X130175000Y-83312000D01*
X134366000Y-91821000D02*
X130810000Y-91821000D01*
X173609000Y-115584000D02*
X175373000Y-115584000D01*
X124915000Y-127000000D02*
X126111000Y-127000000D01*
X130836500Y-94996000D02*
X130836500Y-96520000D01*
X144661000Y-116215000D02*
X143645000Y-116215000D01*
X181864000Y-82083000D02*
X181864000Y-86106000D01*
X179310199Y-107012999D02*
X178816000Y-106518800D01*
X181864000Y-86106000D02*
X181864000Y-90043000D01*
X146050000Y-78906000D02*
X146050000Y-80645000D01*
X152019000Y-84381000D02*
X152019000Y-82931000D01*
X130836500Y-96520000D02*
X130836500Y-97483000D01*
X178816000Y-95188198D02*
X178816000Y-96492999D01*
X134732000Y-92187000D02*
X134366000Y-91821000D01*
D58*
X116840000Y-133096000D02*
X116268500Y-132524500D01*
D56*
X143002000Y-84889000D02*
X143002000Y-83566000D01*
%TO.N,+1V1*%
X144526000Y-95758000D02*
X144526000Y-96493500D01*
X133731000Y-96266000D02*
X133477000Y-96520000D01*
X133477000Y-96520000D02*
X132561500Y-96520000D01*
X146431000Y-91313000D02*
X147701000Y-91313000D01*
X143755000Y-94987000D02*
X144526000Y-95758000D01*
X145796000Y-91313000D02*
X146431000Y-91313000D01*
X144526000Y-96493500D02*
X145568500Y-97536000D01*
X142716500Y-94987000D02*
X141868000Y-94987000D01*
X142716500Y-94987000D02*
X143755000Y-94987000D01*
X142716500Y-92987000D02*
X144122000Y-92987000D01*
X135841500Y-93787000D02*
X135053296Y-93787000D01*
X144122000Y-92987000D02*
X145796000Y-91313000D01*
X133731000Y-95109296D02*
X133731000Y-95758000D01*
X135053296Y-93787000D02*
X133731000Y-95109296D01*
X133731000Y-95758000D02*
X133731000Y-96266000D01*
D54*
%TO.N,VBUS*%
X176657000Y-112141000D02*
X176657000Y-117475000D01*
D59*
X176391001Y-103262999D02*
X176391001Y-104532999D01*
D56*
X122889000Y-125937000D02*
X123190000Y-126238000D01*
D54*
X159629000Y-131056000D02*
X156345000Y-127772000D01*
D58*
X123190000Y-127000000D02*
X124460000Y-128270000D01*
D54*
X176657000Y-117475000D02*
X175006000Y-119126000D01*
D59*
X177900999Y-98364383D02*
X176391000Y-98364383D01*
D58*
X124460000Y-128270000D02*
X127635000Y-128270000D01*
D54*
X171069000Y-126238000D02*
X166251000Y-131056000D01*
D56*
X122889000Y-125095000D02*
X122889000Y-125937000D01*
D54*
X173609000Y-110984000D02*
X175500000Y-110984000D01*
D58*
X132588000Y-133223000D02*
X149987000Y-133223000D01*
D54*
X175500000Y-110984000D02*
X176657000Y-112141000D01*
D59*
X173609000Y-107315000D02*
X173609000Y-108712000D01*
D58*
X127635000Y-128270000D02*
X132588000Y-133223000D01*
D54*
X175006000Y-119126000D02*
X172085000Y-119126000D01*
X172085000Y-119126000D02*
X171069000Y-120142000D01*
D58*
X156345000Y-127772000D02*
X150894000Y-133223000D01*
D59*
X173609000Y-110984000D02*
X173609000Y-108712000D01*
D54*
X166251000Y-131056000D02*
X159629000Y-131056000D01*
D58*
X123190000Y-127000000D02*
X120650000Y-127000000D01*
D54*
X171069000Y-120142000D02*
X171069000Y-126238000D01*
D59*
X177901000Y-103262999D02*
X176391001Y-103262999D01*
X176391001Y-104532999D02*
X173609000Y-107315000D01*
D58*
X150894000Y-133223000D02*
X149987000Y-133223000D01*
D56*
X123190000Y-126238000D02*
X123190000Y-127000000D01*
%TO.N,Net-(C13-Pad2)*%
X128020000Y-92587000D02*
X130433000Y-92587000D01*
X127254000Y-88519000D02*
X127254000Y-91821000D01*
X130818000Y-92202000D02*
X134239000Y-92202000D01*
X134239000Y-92202000D02*
X134624000Y-92587000D01*
X130433000Y-92587000D02*
X130818000Y-92202000D01*
X134624000Y-92587000D02*
X135841500Y-92587000D01*
X127254000Y-91821000D02*
X128020000Y-92587000D01*
X123444000Y-88519000D02*
X127254000Y-88519000D01*
%TO.N,Net-(C14-Pad2)*%
X127254000Y-97019000D02*
X127254000Y-93726000D01*
X123453000Y-97019000D02*
X127254000Y-97019000D01*
X130452000Y-92987000D02*
X130810000Y-93345000D01*
X127254000Y-93726000D02*
X127993000Y-92987000D01*
X123444000Y-97028000D02*
X123453000Y-97019000D01*
X130810000Y-93345000D02*
X131572000Y-93345000D01*
X127993000Y-92987000D02*
X130452000Y-92987000D01*
D54*
%TO.N,/CVIN*%
X117348000Y-104521000D02*
X117348000Y-99695000D01*
X117348000Y-112021000D02*
X117348000Y-113665000D01*
X113030000Y-124587000D02*
X113030000Y-126545000D01*
X117348000Y-113665000D02*
X120650000Y-116967000D01*
X117348000Y-112021000D02*
X117348000Y-104521000D01*
X117348000Y-99695000D02*
X117348000Y-92195000D01*
X113030000Y-124587000D02*
X120650000Y-116967000D01*
D55*
%TO.N,CP_20*%
X159961000Y-116215000D02*
X159961000Y-117298128D01*
D56*
X123795000Y-84612000D02*
X122174000Y-86233000D01*
D55*
X150630000Y-114310000D02*
X149861000Y-115079000D01*
X138423000Y-115087000D02*
X138423000Y-116215000D01*
X149861000Y-115065000D02*
X149106000Y-114310000D01*
D56*
X125991000Y-84612000D02*
X123795000Y-84612000D01*
X122174000Y-86233000D02*
X122174000Y-112522000D01*
D55*
X160663000Y-114310000D02*
X150630000Y-114310000D01*
D56*
X122174000Y-112522000D02*
X123952000Y-114300000D01*
D55*
X161261000Y-114908000D02*
X160663000Y-114310000D01*
D56*
X123952000Y-114300000D02*
X137636000Y-114300000D01*
D55*
X159961000Y-117298128D02*
X160606531Y-117943659D01*
D56*
X137636000Y-114300000D02*
X138423000Y-115087000D01*
D55*
X161261000Y-117289190D02*
X160606531Y-117943659D01*
X139200000Y-114310000D02*
X138423000Y-115087000D01*
X149861000Y-115079000D02*
X149861000Y-116215000D01*
X149106000Y-114310000D02*
X139200000Y-114310000D01*
X161261000Y-116215000D02*
X161261000Y-114908000D01*
X161261000Y-116215000D02*
X161261000Y-117289190D01*
X149861000Y-115079000D02*
X149861000Y-115065000D01*
D58*
%TO.N,OEOUT*%
X118618000Y-124079000D02*
X120650000Y-122047000D01*
X120650000Y-128270000D02*
X119126000Y-128270000D01*
X119126000Y-128270000D02*
X118618000Y-127762000D01*
X118618000Y-127762000D02*
X118618000Y-124079000D01*
D56*
%TO.N,/RESET_HI*%
X128651000Y-84612000D02*
X127351000Y-84612000D01*
%TO.N,/RESET_LO*%
X125991000Y-83312000D02*
X121920000Y-83312000D01*
X121920000Y-83312000D02*
X120523000Y-84709000D01*
%TO.N,CON_RESET*%
X127013500Y-79153000D02*
X127013500Y-80965500D01*
X137079000Y-88946000D02*
X133350000Y-85217000D01*
X130683000Y-85217000D02*
X130302000Y-84836000D01*
X127013500Y-79153000D02*
X125386000Y-79153000D01*
X127576253Y-82491253D02*
X128651555Y-82491253D01*
X125386000Y-80965500D02*
X125198500Y-81153000D01*
X137079000Y-89749500D02*
X137079000Y-88946000D01*
X127201000Y-82116000D02*
X127576253Y-82491253D01*
X127201000Y-81153000D02*
X127201000Y-82116000D01*
X133350000Y-85217000D02*
X130683000Y-85217000D01*
X127013500Y-80965500D02*
X127201000Y-81153000D01*
X125386000Y-79153000D02*
X125386000Y-80965500D01*
%TO.N,Net-(JP1-Pad2)*%
X128838500Y-80965500D02*
X128651000Y-81153000D01*
X130048000Y-81153000D02*
X128651000Y-81153000D01*
X130937000Y-82042000D02*
X130048000Y-81153000D01*
X128838500Y-79153000D02*
X128838500Y-80965500D01*
X130541000Y-83962000D02*
X130937000Y-83566000D01*
X128651000Y-83962000D02*
X130541000Y-83962000D01*
X130937000Y-83566000D02*
X130937000Y-82042000D01*
%TO.N,Net-(JP2-Pad2)*%
X123561000Y-80965500D02*
X123748500Y-81153000D01*
X127326952Y-82876952D02*
X126937775Y-82487775D01*
X127326952Y-83747048D02*
X127326952Y-82876952D01*
X123748500Y-82219500D02*
X123748500Y-81153000D01*
X126937775Y-82487775D02*
X124016775Y-82487775D01*
X124016775Y-82487775D02*
X123748500Y-82219500D01*
X125991000Y-83962000D02*
X127112000Y-83962000D01*
X127112000Y-83962000D02*
X127326952Y-83747048D01*
X123561000Y-79153000D02*
X123561000Y-80965500D01*
%TO.N,~{QSPI_CS}*%
X152019000Y-76962000D02*
X152019000Y-78947000D01*
X143953960Y-90021152D02*
X143953962Y-77561446D01*
X143953962Y-77561446D02*
X144871447Y-76643961D01*
X149860000Y-77216000D02*
X149860000Y-78906000D01*
X144871447Y-76643961D02*
X149287961Y-76643961D01*
X143388112Y-90587000D02*
X143953960Y-90021152D01*
X142716500Y-90587000D02*
X143388112Y-90587000D01*
X149287961Y-76643961D02*
X149860000Y-77216000D01*
X151978000Y-78906000D02*
X152019000Y-78947000D01*
X149860000Y-78906000D02*
X151978000Y-78906000D01*
%TO.N,QSPI_IO1*%
X143482408Y-90987000D02*
X144303480Y-90165928D01*
X144303481Y-77706223D02*
X145016225Y-76993480D01*
X148113480Y-76993480D02*
X148590000Y-77470000D01*
X148590000Y-77470000D02*
X148590000Y-78906000D01*
X142716500Y-90987000D02*
X143482408Y-90987000D01*
X145016225Y-76993480D02*
X148113480Y-76993480D01*
X144303480Y-90165928D02*
X144303481Y-77706223D01*
%TO.N,QSPI_IO2*%
X143576704Y-91387000D02*
X144653000Y-90310704D01*
X144653000Y-90310704D02*
X144653000Y-77851000D01*
X146939000Y-77343000D02*
X147320000Y-77724000D01*
X145161000Y-77343000D02*
X146939000Y-77343000D01*
X142716500Y-91387000D02*
X143576704Y-91387000D01*
X144653000Y-77851000D02*
X145161000Y-77343000D01*
X147320000Y-77724000D02*
X147320000Y-78906000D01*
%TO.N,QSPI_IO0*%
X143671000Y-91787000D02*
X146050000Y-89408000D01*
X146050000Y-89408000D02*
X146050000Y-86106000D01*
X142716500Y-91787000D02*
X143671000Y-91787000D01*
%TO.N,QSPI_CLK*%
X145796000Y-90156295D02*
X145809705Y-90156295D01*
X142716500Y-92187000D02*
X143765295Y-92187000D01*
X145809705Y-90156295D02*
X147320000Y-88646000D01*
X143765295Y-92187000D02*
X145796000Y-90156295D01*
X147320000Y-88646000D02*
X147320000Y-86106000D01*
%TO.N,QSPI_IO3*%
X143873295Y-92587000D02*
X148590000Y-87870295D01*
X148590000Y-87870295D02*
X148590000Y-86106000D01*
X142716500Y-92587000D02*
X143873295Y-92587000D01*
D58*
%TO.N,ALT_CLK_B*%
X117094000Y-129540000D02*
X117602000Y-129032000D01*
X115700000Y-129540000D02*
X117094000Y-129540000D01*
X124714000Y-123015000D02*
X124714000Y-125095000D01*
X117602000Y-122555000D02*
X120650000Y-119507000D01*
X120650000Y-119507000D02*
X124158000Y-123015000D01*
X117602000Y-122555000D02*
X117602000Y-129032000D01*
X124158000Y-123015000D02*
X124714000Y-123015000D01*
D56*
%TO.N,CNT_0*%
X133873000Y-110490000D02*
X133873000Y-106853071D01*
X132715000Y-88913704D02*
X133435885Y-88913704D01*
X133435885Y-88913704D02*
X135109181Y-90587000D01*
X133873000Y-106853071D02*
X133571441Y-106551511D01*
X133571441Y-106551511D02*
X133571441Y-104742441D01*
X135109181Y-90587000D02*
X135841500Y-90587000D01*
X133571441Y-104742441D02*
X132969000Y-104140000D01*
%TO.N,CNT_1*%
X135014885Y-90987000D02*
X135841500Y-90987000D01*
X134523000Y-110490000D02*
X134523000Y-107008775D01*
X134523000Y-107008775D02*
X133920961Y-106406736D01*
X133920961Y-103821961D02*
X133350000Y-103251000D01*
X133096000Y-89789000D02*
X133816885Y-89789000D01*
X133816885Y-89789000D02*
X135014885Y-90987000D01*
X133920961Y-106406736D02*
X133920961Y-103821961D01*
%TO.N,CNT_2*%
X132207000Y-91059000D02*
X132842000Y-90424000D01*
X134270480Y-106261958D02*
X134270480Y-102774480D01*
X132842000Y-90424000D02*
X133957590Y-90424000D01*
X133957590Y-90424000D02*
X134920590Y-91387000D01*
X134920590Y-91387000D02*
X135841500Y-91387000D01*
X134270480Y-102774480D02*
X133858000Y-102362000D01*
X135173000Y-107164479D02*
X134270480Y-106261958D01*
X135173000Y-110490000D02*
X135173000Y-107164479D01*
%TO.N,CNT_3*%
X135823000Y-110490000D02*
X135823000Y-107320183D01*
X135823000Y-107320183D02*
X134620000Y-106117183D01*
X134620000Y-106117183D02*
X134620000Y-101727000D01*
X133762480Y-91471480D02*
X133350000Y-91059000D01*
X134620000Y-101727000D02*
X134239000Y-101346000D01*
X134510775Y-91471480D02*
X133762480Y-91471480D01*
X135841500Y-91787000D02*
X134826296Y-91787000D01*
X134826296Y-91787000D02*
X134510775Y-91471480D01*
%TO.N,CNT_4*%
X136473000Y-107475887D02*
X136473000Y-110490000D01*
X135372000Y-95387000D02*
X135031401Y-95727599D01*
X135031401Y-95727599D02*
X135031401Y-106034288D01*
X135031401Y-106034288D02*
X136473000Y-107475887D01*
X135841500Y-95387000D02*
X135372000Y-95387000D01*
%TO.N,CNT_5*%
X135841500Y-95787000D02*
X135841500Y-98260613D01*
X137123000Y-107631591D02*
X137123000Y-110490000D01*
X135380920Y-98721195D02*
X135380920Y-105889511D01*
X135841500Y-98260613D02*
X135380920Y-98721195D01*
X135380920Y-105889511D02*
X137123000Y-107631591D01*
%TO.N,CNT_6*%
X137773000Y-107787296D02*
X137773000Y-110490000D01*
X136679000Y-96624500D02*
X136679000Y-97917408D01*
X135730440Y-98865970D02*
X135730441Y-105744737D01*
X136679000Y-97917408D02*
X135730440Y-98865970D01*
X135730441Y-105744737D02*
X137773000Y-107787296D01*
%TO.N,CNT_7*%
X137079000Y-98011704D02*
X136079960Y-99010745D01*
X139073000Y-108593000D02*
X139073000Y-110490000D01*
X136079960Y-105599960D02*
X139073000Y-108593000D01*
X136079960Y-99010745D02*
X136079960Y-105599960D01*
X137079000Y-96624500D02*
X137079000Y-98011704D01*
%TO.N,CNT_8*%
X145311000Y-109251816D02*
X146512920Y-108049896D01*
X136429481Y-103395777D02*
X136429480Y-99155520D01*
X144819197Y-105126677D02*
X138160382Y-105126677D01*
X145311000Y-110490000D02*
X145311000Y-109251816D01*
X138160382Y-105126677D02*
X136429481Y-103395777D01*
X146512920Y-108049896D02*
X146512920Y-106820400D01*
X146512920Y-106820400D02*
X144819197Y-105126677D01*
X136429480Y-99155520D02*
X137479000Y-98106000D01*
X137479000Y-98106000D02*
X137479000Y-96624500D01*
%TO.N,CNT_9*%
X146862440Y-108194672D02*
X146862440Y-106675625D01*
X137879000Y-98214000D02*
X137879000Y-96624500D01*
X145961000Y-109096112D02*
X146862440Y-108194672D01*
X136779000Y-103251000D02*
X136779000Y-99314000D01*
X138305157Y-104777157D02*
X136779000Y-103251000D01*
X144963973Y-104777157D02*
X138305157Y-104777157D01*
X145961000Y-110490000D02*
X145961000Y-109096112D01*
X136779000Y-99314000D02*
X137879000Y-98214000D01*
X146862440Y-106675625D02*
X144963973Y-104777157D01*
%TO.N,CNT_10*%
X147211960Y-106530850D02*
X145108749Y-104427637D01*
X146611000Y-110490000D02*
X146611000Y-108940408D01*
X147211960Y-108339448D02*
X147211960Y-106530850D01*
X141226566Y-104427637D02*
X138679000Y-101880071D01*
X146611000Y-108940408D02*
X147211960Y-108339448D01*
X138679000Y-101880071D02*
X138679000Y-96624500D01*
X145108749Y-104427637D02*
X141226566Y-104427637D01*
%TO.N,CNT_11*%
X147561480Y-108484224D02*
X147561480Y-106386072D01*
X147561480Y-106386072D02*
X145253525Y-104078117D01*
X141371341Y-104078117D02*
X139079000Y-101785776D01*
X139079000Y-101785776D02*
X139079000Y-96624500D01*
X147261000Y-110490000D02*
X147261000Y-108784704D01*
X145253525Y-104078117D02*
X141371341Y-104078117D01*
X147261000Y-108784704D02*
X147561480Y-108484224D01*
%TO.N,CNT_12*%
X145398302Y-103728598D02*
X141516118Y-103728598D01*
X141516118Y-103728598D02*
X139479000Y-101691480D01*
X139479000Y-101691480D02*
X139479000Y-96624500D01*
X147911000Y-110490000D02*
X147911000Y-106241296D01*
X147911000Y-106241296D02*
X145398302Y-103728598D01*
%TO.N,/D+*%
X150588199Y-95024999D02*
X147903999Y-95024999D01*
X170142002Y-101891998D02*
X167259000Y-101891999D01*
X172330001Y-99703999D02*
X170142002Y-101891998D01*
X167259000Y-101891999D02*
X157455199Y-101891999D01*
X157455199Y-101891999D02*
X150588199Y-95024999D01*
X147903999Y-95024999D02*
X147367000Y-94488000D01*
X173863000Y-99703999D02*
X172330001Y-99703999D01*
%TO.N,/D-*%
X170160000Y-102342000D02*
X167259000Y-102341999D01*
X147903999Y-95475001D02*
X147367000Y-96012000D01*
X167259000Y-102341999D02*
X157268799Y-102341999D01*
X173863000Y-104529999D02*
X172347999Y-104529999D01*
X157268799Y-102341999D02*
X150401801Y-95475001D01*
X150401801Y-95475001D02*
X147903999Y-95475001D01*
X172347999Y-104529999D02*
X170160000Y-102342000D01*
%TO.N,/RD-*%
X142716500Y-94587000D02*
X143990000Y-94587000D01*
X145415000Y-96012000D02*
X143990000Y-94587000D01*
X145542000Y-96012000D02*
X145415000Y-96012000D01*
%TO.N,/RD+*%
X144098000Y-94187000D02*
X144399000Y-94488000D01*
X142716500Y-94187000D02*
X144098000Y-94187000D01*
X144399000Y-94488000D02*
X145542000Y-94488000D01*
%TO.N,CNT_13*%
X148260519Y-106096519D02*
X148260519Y-108382519D01*
X148260519Y-108382519D02*
X148561000Y-108683000D01*
X148561000Y-108683000D02*
X148561000Y-110490000D01*
X141660898Y-103379079D02*
X145543079Y-103379079D01*
X139879000Y-96624500D02*
X139879000Y-101597184D01*
X145543079Y-103379079D02*
X148260519Y-106096519D01*
X139879000Y-101597184D02*
X141660898Y-103379079D01*
%TO.N,CNT_14*%
X144874441Y-103029559D02*
X145669000Y-103029559D01*
X149211000Y-108838704D02*
X149211000Y-110490000D01*
X141805673Y-103029559D02*
X144874441Y-103029559D01*
X148610038Y-105951742D02*
X148610038Y-108237742D01*
X145687856Y-103029560D02*
X148610038Y-105951742D01*
X140279000Y-96624500D02*
X140279000Y-101502888D01*
X140279000Y-101502888D02*
X141805673Y-103029559D01*
X148610038Y-108237742D02*
X149211000Y-108838704D01*
%TO.N,CNT_15*%
X145832631Y-102680039D02*
X148959557Y-105806965D01*
X141950448Y-102680039D02*
X145832631Y-102680039D01*
X150511000Y-109644408D02*
X150511000Y-110490000D01*
X140679000Y-96624500D02*
X140679000Y-101408592D01*
X148959557Y-108092965D02*
X150511000Y-109644408D01*
X140679000Y-101408592D02*
X141950448Y-102680039D01*
X148959557Y-105806965D02*
X148959557Y-108092965D01*
%TO.N,CNT_16*%
X156711000Y-109100000D02*
X156711000Y-110490000D01*
X153779224Y-102330520D02*
X158185352Y-106736648D01*
X141079000Y-96624500D02*
X141079000Y-101314296D01*
X158185352Y-106736648D02*
X158185352Y-107625648D01*
X158185352Y-107625648D02*
X156711000Y-109100000D01*
X142095223Y-102330519D02*
X153779224Y-102330520D01*
X141079000Y-101314296D02*
X142095223Y-102330519D01*
%TO.N,ALT_CLK_A*%
X123334776Y-85566520D02*
X122523520Y-86377776D01*
X122523520Y-86377776D02*
X122523520Y-112363520D01*
X123764000Y-120015000D02*
X123764000Y-117914799D01*
X123764000Y-117914799D02*
X123801500Y-117877299D01*
X133205224Y-85566520D02*
X123334776Y-85566520D01*
X136679000Y-89040296D02*
X133205224Y-85566520D01*
X123063000Y-112903000D02*
X123825000Y-112903000D01*
X136679000Y-89749500D02*
X136679000Y-89040296D01*
X122523520Y-112363520D02*
X123063000Y-112903000D01*
X123801500Y-117877299D02*
X123801500Y-115062000D01*
%TO.N,DETECT*%
X158534872Y-107607872D02*
X158534872Y-106591872D01*
X142240000Y-101981000D02*
X141479000Y-101220000D01*
X158534872Y-106591872D02*
X153924000Y-101981000D01*
X141479000Y-101220000D02*
X141479000Y-96624500D01*
X159961000Y-109034000D02*
X158534872Y-107607872D01*
X159961000Y-110490000D02*
X159961000Y-109034000D01*
X153924000Y-101981000D02*
X142240000Y-101981000D01*
%TO.N,SWCLK*%
X134280511Y-95054081D02*
X135147592Y-94187000D01*
X114808000Y-102489000D02*
X116205000Y-102489000D01*
X135147592Y-94187000D02*
X135841500Y-94187000D01*
X134280511Y-99667193D02*
X134280511Y-95054081D01*
X110458520Y-104030776D02*
X112412776Y-102076520D01*
X172466000Y-130429000D02*
X172466000Y-132474704D01*
X124841000Y-100838000D02*
X125380480Y-101377480D01*
X132570224Y-101377480D02*
X134280511Y-99667193D01*
X112490520Y-135540480D02*
X110458520Y-133508480D01*
X172466000Y-132474704D02*
X169400224Y-135540480D01*
X174371000Y-128524000D02*
X172466000Y-130429000D01*
X114395520Y-102076520D02*
X114808000Y-102489000D01*
X123825000Y-100838000D02*
X124841000Y-100838000D01*
X112412776Y-102076520D02*
X114395520Y-102076520D01*
X125380480Y-101377480D02*
X132570224Y-101377480D01*
X169400224Y-135540480D02*
X112490520Y-135540480D01*
X110458520Y-133508480D02*
X110458520Y-104030776D01*
X123317000Y-101346000D02*
X123825000Y-100838000D01*
X123317000Y-102489000D02*
X123317000Y-101346000D01*
%TO.N,SWD*%
X110109000Y-133653255D02*
X110109000Y-103886000D01*
X169545000Y-135890000D02*
X112345745Y-135890000D01*
X132715000Y-101727000D02*
X124333000Y-101727000D01*
X112345745Y-135890000D02*
X110109000Y-133653255D01*
X110109000Y-103886000D02*
X112268000Y-101727000D01*
X134630031Y-95198857D02*
X135241888Y-94587000D01*
X112268000Y-101727000D02*
X115443000Y-101727000D01*
X132715000Y-101727000D02*
X134630031Y-99811969D01*
X134630031Y-99811969D02*
X134630031Y-95198857D01*
X174371000Y-131064000D02*
X169545000Y-135890000D01*
X135241888Y-94587000D02*
X135841500Y-94587000D01*
D58*
%TO.N,Net-(C18-Pad1)*%
X115700000Y-128270000D02*
X113030000Y-128270000D01*
%TO.N,Net-(C21-Pad2)*%
X121920000Y-133096000D02*
X120650000Y-133096000D01*
X123190000Y-129540000D02*
X123190000Y-131826000D01*
X120650000Y-129540000D02*
X123190000Y-129540000D01*
X123190000Y-131826000D02*
X121920000Y-133096000D01*
D56*
%TO.N,Net-(J7-PadA5)*%
X181135199Y-102738827D02*
X180459371Y-102062999D01*
X180459371Y-102062999D02*
X177901000Y-102062999D01*
X181135199Y-107012999D02*
X181135199Y-102738827D01*
%TO.N,Net-(J7-PadB5)*%
X181135199Y-94693999D02*
X181135199Y-98376999D01*
X180449199Y-99062999D02*
X177901000Y-99062999D01*
X181135199Y-98376999D02*
X180449199Y-99062999D01*
%TO.N,Net-(JP5-Pad2)*%
X159311000Y-111559000D02*
X159639000Y-111887000D01*
X159311000Y-110490000D02*
X159311000Y-111559000D01*
%TO.N,Net-(JP6-Pad2)*%
X158661000Y-110490000D02*
X158661000Y-111595000D01*
X158661000Y-111595000D02*
X158369000Y-111887000D01*
%TO.N,Net-(R3-Pad2)*%
X134597000Y-92987000D02*
X135841500Y-92987000D01*
X134239000Y-93345000D02*
X134597000Y-92987000D01*
X133397000Y-93345000D02*
X134239000Y-93345000D01*
%TO.N,DISPLAY_STROBE0*%
X140679000Y-88995478D02*
X141066599Y-88607877D01*
X142607296Y-75311000D02*
X157607000Y-75311000D01*
X157607000Y-75311000D02*
X158877000Y-74041000D01*
X141066599Y-88607877D02*
X141066599Y-76851697D01*
X140679000Y-89749500D02*
X140679000Y-88995478D01*
X158877000Y-74041000D02*
X158877000Y-70104000D01*
X141066599Y-76851697D02*
X142607296Y-75311000D01*
D58*
%TO.N,DISPLAY_CLK*%
X132461000Y-70104000D02*
X132461000Y-68834000D01*
X160782000Y-68199000D02*
X154686000Y-68199000D01*
X146939000Y-70104000D02*
X146939000Y-68834000D01*
X131826000Y-68199000D02*
X125730000Y-68199000D01*
D56*
X116078000Y-68199000D02*
X117983000Y-70104000D01*
X112649000Y-77470000D02*
X110617000Y-75438000D01*
D58*
X124460000Y-72263000D02*
X118618000Y-72263000D01*
X132461000Y-68834000D02*
X131826000Y-68199000D01*
D56*
X110617000Y-75438000D02*
X110617000Y-69088000D01*
D58*
X125730000Y-68199000D02*
X125222000Y-68707000D01*
X161417000Y-70104000D02*
X161417000Y-68834000D01*
X117983000Y-71628000D02*
X117983000Y-70104000D01*
X125222000Y-68707000D02*
X125222000Y-71501000D01*
X161417000Y-68834000D02*
X160782000Y-68199000D01*
X139700000Y-68707000D02*
X139700000Y-71501000D01*
D56*
X138679000Y-88524000D02*
X139319000Y-87884000D01*
D58*
X133096000Y-72263000D02*
X132461000Y-71628000D01*
X154686000Y-68199000D02*
X154178000Y-68707000D01*
X153416000Y-72263000D02*
X147574000Y-72263000D01*
X146304000Y-68199000D02*
X140208000Y-68199000D01*
X118618000Y-72263000D02*
X117983000Y-71628000D01*
D56*
X110617000Y-69088000D02*
X111506000Y-68199000D01*
X139319000Y-87884000D02*
X139319000Y-83439000D01*
D58*
X132461000Y-71628000D02*
X132461000Y-70104000D01*
D56*
X139319000Y-83439000D02*
X133350000Y-77470000D01*
D58*
X147574000Y-72263000D02*
X146939000Y-71628000D01*
D56*
X133350000Y-77470000D02*
X112649000Y-77470000D01*
D58*
X139700000Y-71501000D02*
X138938000Y-72263000D01*
D56*
X111506000Y-68199000D02*
X116078000Y-68199000D01*
D58*
X154178000Y-71501000D02*
X153416000Y-72263000D01*
D56*
X138679000Y-89749500D02*
X138679000Y-88524000D01*
D58*
X140208000Y-68199000D02*
X139700000Y-68707000D01*
X146939000Y-71628000D02*
X146939000Y-70104000D01*
X146939000Y-68834000D02*
X146304000Y-68199000D01*
X125222000Y-71501000D02*
X124460000Y-72263000D01*
X138938000Y-72263000D02*
X133096000Y-72263000D01*
X154178000Y-68707000D02*
X154178000Y-71501000D01*
%TO.N,DISPLAY_SER*%
X135001000Y-67818000D02*
X135636000Y-67183000D01*
X149479000Y-67818000D02*
X148844000Y-67183000D01*
X149479000Y-70104000D02*
X149479000Y-67818000D01*
X120523000Y-67818000D02*
X120523000Y-70104000D01*
X163322000Y-67183000D02*
X150114000Y-67183000D01*
X163957000Y-67818000D02*
X163322000Y-67183000D01*
D56*
X133494777Y-77120481D02*
X112793777Y-77120481D01*
X111760000Y-76086704D02*
X111760000Y-74930000D01*
D58*
X135001000Y-70104000D02*
X135001000Y-67818000D01*
X121158000Y-67183000D02*
X120523000Y-67818000D01*
X148844000Y-67183000D02*
X135636000Y-67183000D01*
D56*
X139079000Y-88618296D02*
X139668519Y-88028777D01*
D58*
X163957000Y-70104000D02*
X163957000Y-67818000D01*
X149479000Y-67818000D02*
X150114000Y-67183000D01*
D56*
X139079000Y-89749500D02*
X139079000Y-88618296D01*
D58*
X134366000Y-67183000D02*
X121158000Y-67183000D01*
D56*
X112793777Y-77120481D02*
X111760000Y-76086704D01*
D58*
X135001000Y-67818000D02*
X134366000Y-67183000D01*
D56*
X139668519Y-88028777D02*
X139668519Y-83294223D01*
X139668519Y-83294223D02*
X133494777Y-77120481D01*
%TO.N,DISPLAY_STROBE1*%
X140279000Y-89749500D02*
X140279000Y-88901183D01*
X140717079Y-76706921D02*
X144399000Y-73025000D01*
X140717079Y-88463102D02*
X140717079Y-76706921D01*
X140279000Y-88901183D02*
X140717079Y-88463102D01*
X144399000Y-73025000D02*
X144399000Y-70104000D01*
%TO.N,DISPLAY_STROBE2*%
X130777442Y-76421442D02*
X129921000Y-75565000D01*
X140367559Y-88318327D02*
X140367559Y-83004672D01*
X129921000Y-75565000D02*
X129921000Y-70104000D01*
X133784329Y-76421442D02*
X130777442Y-76421442D01*
X140367559Y-83004672D02*
X133784329Y-76421442D01*
X139879000Y-88806888D02*
X140367559Y-88318327D01*
X139879000Y-89749500D02*
X139879000Y-88806888D01*
%TO.N,DISPLAY_STROBE3*%
X116648961Y-76770961D02*
X115443000Y-75565000D01*
X115443000Y-75565000D02*
X115443000Y-70104000D01*
X140018038Y-83149446D02*
X133639552Y-76770961D01*
X139479000Y-89749500D02*
X139479000Y-88712592D01*
X140018039Y-88173552D02*
X140018038Y-83149446D01*
X139479000Y-88712592D02*
X140018039Y-88173552D01*
X133639552Y-76770961D02*
X116648961Y-76770961D01*
%TO.N,CP_1*%
X159311000Y-117186000D02*
X156345000Y-120152000D01*
X159311000Y-116215000D02*
X159311000Y-117186000D01*
X156345000Y-120152000D02*
X156345000Y-122692000D01*
%TO.N,CP_2*%
X154055000Y-121453408D02*
X154055000Y-122692000D01*
X158011000Y-117497408D02*
X154055000Y-121453408D01*
X158011000Y-116215000D02*
X158011000Y-117497408D01*
%TO.N,CP_3*%
X151765000Y-122692000D02*
X151827817Y-122692000D01*
X151827817Y-122692000D02*
X156711000Y-117808816D01*
X156711000Y-116215000D02*
X156711000Y-117808816D01*
%TO.N,CP_4*%
X149475000Y-121525274D02*
X149475000Y-122692000D01*
X148561000Y-116215000D02*
X148561000Y-120611274D01*
X148561000Y-120611274D02*
X149475000Y-121525274D01*
%TO.N,CP_5*%
X147261000Y-122632000D02*
X147201000Y-122692000D01*
X147261000Y-116215000D02*
X147261000Y-122632000D01*
%TO.N,CP_6*%
X145961000Y-116215000D02*
X145961000Y-121626000D01*
X145961000Y-121626000D02*
X144895000Y-122692000D01*
%TO.N,CP_7*%
X139073000Y-119160000D02*
X142605000Y-122692000D01*
X139073000Y-116215000D02*
X139073000Y-119160000D01*
%TO.N,CP_8*%
X140315000Y-121390591D02*
X140315000Y-122692000D01*
X137123000Y-116215000D02*
X137123000Y-118198591D01*
X137123000Y-118198591D02*
X140315000Y-121390591D01*
%TO.N,CP_11*%
X158661000Y-116215000D02*
X158661000Y-117341704D01*
X155202000Y-120800704D02*
X155202000Y-125105000D01*
X155202000Y-125105000D02*
X155075000Y-125232000D01*
X158661000Y-117341704D02*
X155202000Y-120800704D01*
%TO.N,CP_12*%
X152916000Y-122098112D02*
X152916000Y-125101000D01*
X157361000Y-117653112D02*
X152916000Y-122098112D01*
X152916000Y-125101000D02*
X152785000Y-125232000D01*
X157361000Y-116215000D02*
X157361000Y-117653112D01*
%TO.N,CP_13*%
X149211000Y-120511000D02*
X150614351Y-121914351D01*
X150614351Y-125112649D02*
X150495000Y-125232000D01*
X150614351Y-121914351D02*
X150614351Y-125112649D01*
X149211000Y-116215000D02*
X149211000Y-120511000D01*
%TO.N,CP_14*%
X148333814Y-121792814D02*
X148333814Y-125103186D01*
X147911000Y-116215000D02*
X147911000Y-121370000D01*
X147911000Y-121370000D02*
X148333814Y-121792814D01*
X148333814Y-125103186D02*
X148205000Y-125232000D01*
%TO.N,CP_15*%
X146611000Y-121589682D02*
X146037341Y-122163341D01*
X146037341Y-122163341D02*
X146037341Y-125109659D01*
X146611000Y-116215000D02*
X146611000Y-121589682D01*
X146037341Y-125109659D02*
X145915000Y-125232000D01*
%TO.N,CP_16*%
X142121000Y-123962000D02*
X141464609Y-123305609D01*
X141464609Y-123305609D02*
X141464609Y-122045905D01*
X141464609Y-122045905D02*
X137773000Y-118354296D01*
X143391000Y-123962000D02*
X142121000Y-123962000D01*
X143625000Y-124196000D02*
X143391000Y-123962000D01*
X137773000Y-118354296D02*
X137773000Y-116215000D01*
X143625000Y-125232000D02*
X143625000Y-124196000D01*
%TO.N,CP_17*%
X136473000Y-116215000D02*
X136473000Y-118042887D01*
X139166997Y-123420997D02*
X139708000Y-123962000D01*
X139708000Y-123962000D02*
X141105000Y-123962000D01*
X141335000Y-124192000D02*
X141335000Y-125232000D01*
X139166997Y-120736884D02*
X139166997Y-123420997D01*
X136473000Y-118042887D02*
X139166997Y-120736884D01*
X141105000Y-123962000D02*
X141335000Y-124192000D01*
%TO.N,CP_18*%
X135823000Y-117887183D02*
X136533000Y-118597183D01*
X137422000Y-125232000D02*
X139045000Y-125232000D01*
X136533000Y-124343000D02*
X137422000Y-125232000D01*
X136533000Y-118597183D02*
X136533000Y-124343000D01*
X135823000Y-116215000D02*
X135823000Y-117887183D01*
%TO.N,CP_21*%
X150511000Y-116215000D02*
X150511000Y-117477000D01*
X150511000Y-117477000D02*
X149995000Y-117993000D01*
X149995000Y-117993000D02*
X149995000Y-120025000D01*
%TO.N,CP_22*%
X144775267Y-124584267D02*
X143744497Y-123553497D01*
X148205000Y-126502000D02*
X145296000Y-126502000D01*
X143744497Y-122114503D02*
X145311000Y-120548000D01*
X143744497Y-123553497D02*
X143744497Y-122114503D01*
X145311000Y-120548000D02*
X145311000Y-116215000D01*
X145296000Y-126502000D02*
X144775267Y-125981267D01*
X149475000Y-127772000D02*
X148205000Y-126502000D01*
X144775267Y-125981267D02*
X144775267Y-124584267D01*
%TO.N,CP_23*%
X138021450Y-129995040D02*
X144961960Y-129995040D01*
X135484440Y-127458030D02*
X138021450Y-129995040D01*
X133873000Y-116215000D02*
X133873000Y-117420070D01*
X135484440Y-119031510D02*
X135484440Y-127458030D01*
X133873000Y-117420070D02*
X135484440Y-119031510D01*
X144961960Y-129995040D02*
X147185000Y-127772000D01*
%TO.N,CP_24*%
X143021480Y-129645520D02*
X144895000Y-127772000D01*
X134523000Y-117575775D02*
X135833960Y-118886735D01*
X135833960Y-127313255D02*
X138166225Y-129645520D01*
X135833960Y-118886735D02*
X135833960Y-127313255D01*
X138166225Y-129645520D02*
X143021480Y-129645520D01*
X134523000Y-116215000D02*
X134523000Y-117575775D01*
%TO.N,CP_25*%
X138311000Y-129296000D02*
X141081000Y-129296000D01*
X135173000Y-117731479D02*
X136183480Y-118741959D01*
X136183480Y-118741959D02*
X136183481Y-127168481D01*
X135173000Y-116215000D02*
X135173000Y-117731479D01*
X141081000Y-129296000D02*
X142605000Y-127772000D01*
X136183481Y-127168481D02*
X138311000Y-129296000D01*
%TO.N,/BD-*%
X173863000Y-101929999D02*
X172541999Y-101929999D01*
X171958000Y-98552000D02*
X171958000Y-92837000D01*
X171958000Y-92837000D02*
X164719000Y-85598000D01*
X172541999Y-101929999D02*
X171958000Y-101346000D01*
%TO.N,/BD+*%
X173863000Y-94107000D02*
X173863000Y-97103999D01*
X172090583Y-92334583D02*
X172090584Y-92334584D01*
X172939111Y-92758847D02*
X172481787Y-93216170D01*
X170817793Y-90637527D02*
X170817792Y-90637528D01*
X166560500Y-86804500D02*
X169545000Y-89789000D01*
X171242055Y-91486055D02*
X171242056Y-91486056D01*
X172514848Y-92334584D02*
X172724685Y-92124748D01*
X171451893Y-90851956D02*
X171242055Y-91061791D01*
X170603365Y-90003428D02*
X170393527Y-90213263D01*
X166560500Y-84899500D02*
X166560500Y-86804500D01*
X164719000Y-83058000D02*
X166560500Y-84899500D01*
X169969265Y-89788999D02*
X169969264Y-89789000D01*
X173148949Y-92549012D02*
X172939111Y-92758847D01*
X170603364Y-90003429D02*
X170603365Y-90003428D01*
X171666320Y-91486056D02*
X171876157Y-91276220D01*
X171666321Y-91486055D02*
X171666320Y-91486056D01*
X172514849Y-92334583D02*
X172514848Y-92334584D01*
X170817792Y-90637528D02*
X171027629Y-90427692D01*
X173148948Y-92549013D02*
X173148949Y-92549012D01*
X169969264Y-89789000D02*
X170179101Y-89579164D01*
X172906052Y-93640433D02*
X172906051Y-93640434D01*
X173363374Y-93607374D02*
X173730521Y-93974521D01*
X171451892Y-90851957D02*
X171451893Y-90851956D01*
X173730521Y-93974521D02*
X173863000Y-94107000D01*
X172300420Y-91700485D02*
X172300421Y-91700484D01*
X172300421Y-91700484D02*
X172090583Y-91910319D01*
X170393527Y-90637527D02*
X170393528Y-90637528D01*
X172906051Y-93640434D02*
X172939110Y-93607374D01*
X169969265Y-89788999D02*
G75*
G02*
X169545000Y-89789000I-212133J212127D01*
G01*
X170817793Y-90637527D02*
G75*
G02*
X170393528Y-90637528I-212133J212127D01*
G01*
X171451892Y-90851957D02*
G75*
G03*
X171451893Y-90427692I-212134J212133D01*
G01*
X172300420Y-91700485D02*
G75*
G03*
X172300421Y-91276220I-212134J212133D01*
G01*
X173363373Y-93607375D02*
G75*
G03*
X172939111Y-93607375I-212131J-212131D01*
G01*
X172090584Y-92334582D02*
G75*
G02*
X172090584Y-91910320I212131J212131D01*
G01*
X173148948Y-92549013D02*
G75*
G03*
X173148949Y-92124748I-212134J212133D01*
G01*
X171666321Y-91486055D02*
G75*
G02*
X171242056Y-91486056I-212133J212127D01*
G01*
X170393528Y-90637526D02*
G75*
G02*
X170393528Y-90213264I212131J212131D01*
G01*
X172906051Y-93640432D02*
G75*
G02*
X172481788Y-93640433I-212132J212130D01*
G01*
X172481788Y-93640433D02*
G75*
G02*
X172481788Y-93216171I212131J212131D01*
G01*
X170603364Y-89579165D02*
G75*
G03*
X170179102Y-89579165I-212131J-212131D01*
G01*
X172300420Y-91276221D02*
G75*
G03*
X171876158Y-91276221I-212131J-212131D01*
G01*
X170603364Y-90003429D02*
G75*
G03*
X170603365Y-89579164I-212134J212133D01*
G01*
X172514849Y-92334583D02*
G75*
G02*
X172090584Y-92334584I-212133J212127D01*
G01*
X171242056Y-91486054D02*
G75*
G02*
X171242056Y-91061792I212131J212131D01*
G01*
X173148948Y-92124749D02*
G75*
G03*
X172724686Y-92124749I-212131J-212131D01*
G01*
X171451892Y-90427693D02*
G75*
G03*
X171027630Y-90427693I-212131J-212131D01*
G01*
%TO.N,CNT_18*%
X141416119Y-88752652D02*
X141416118Y-88518999D01*
X141416118Y-88518999D02*
X141416118Y-87945882D01*
X141079000Y-89749500D02*
X141079000Y-89089773D01*
X162740000Y-108024000D02*
X161491000Y-108024000D01*
X141416118Y-87945882D02*
X141859000Y-87503000D01*
X161491000Y-108024000D02*
X155194000Y-101727000D01*
X141079000Y-89089773D02*
X141416119Y-88752652D01*
X155194000Y-101727000D02*
X155194000Y-101346000D01*
%TO.N,CNT_17*%
X142240000Y-88423068D02*
X142240000Y-88392000D01*
X160464500Y-107505500D02*
X154305000Y-101346000D01*
X154305000Y-101346000D02*
X154305000Y-100584000D01*
X160464500Y-108267500D02*
X160464500Y-107505500D01*
X141479000Y-89184068D02*
X142240000Y-88423068D01*
X141479000Y-89749500D02*
X141479000Y-89184068D01*
%TO.N,BRIDGE_RX*%
X137033000Y-87911408D02*
X137879000Y-88757408D01*
X149510480Y-89185480D02*
X149098000Y-88773000D01*
X153560776Y-89185480D02*
X149510480Y-89185480D01*
X137879000Y-88757408D02*
X137879000Y-89749500D01*
X137033000Y-86741000D02*
X137033000Y-87911408D01*
X157099000Y-90678000D02*
X155053296Y-90678000D01*
X155053296Y-90678000D02*
X153560776Y-89185480D01*
%TO.N,BRIDGE_TX*%
X136271000Y-86995000D02*
X136271000Y-87643704D01*
X157099000Y-93218000D02*
X153416000Y-89535000D01*
X153416000Y-89535000D02*
X148463000Y-89535000D01*
X136271000Y-87643704D02*
X137479000Y-88851704D01*
X137479000Y-88851704D02*
X137479000Y-89749500D01*
%TO.N,/PORTD+*%
X176881999Y-101062999D02*
X176643999Y-100824999D01*
X174984999Y-98403999D02*
X173863000Y-98403999D01*
X176643999Y-100062999D02*
X174984999Y-98403999D01*
X177901000Y-101062999D02*
X176881999Y-101062999D01*
X176643999Y-100824999D02*
X176643999Y-100062999D01*
X177901000Y-100062999D02*
X176643999Y-100062999D01*
%TO.N,/PORTD-*%
X179324000Y-100781231D02*
X179105768Y-100562999D01*
X177901000Y-101562999D02*
X176651999Y-101562999D01*
X179105768Y-100562999D02*
X177901000Y-100562999D01*
X179324000Y-101346000D02*
X179324000Y-100781231D01*
X177901000Y-101562999D02*
X179107001Y-101562999D01*
X176651999Y-101562999D02*
X174984999Y-103229999D01*
X174984999Y-103229999D02*
X173863000Y-103229999D01*
X179107001Y-101562999D02*
X179324000Y-101346000D01*
%TO.N,Net-(R1-Pad1)*%
X153844000Y-76962000D02*
X174752000Y-76962000D01*
X177364000Y-79574000D02*
X177364000Y-82083000D01*
X177364000Y-90043000D02*
X177364000Y-82083000D01*
X174752000Y-76962000D02*
X177364000Y-79574000D01*
%TD*%
%TA.AperFunction,Conductor*%
%TO.N,+1V1*%
G36*
X141451566Y-90949313D02*
G01*
X141476876Y-90993150D01*
X141478000Y-91006000D01*
X141478000Y-93599000D01*
X141484617Y-93608366D01*
X141644021Y-93834000D01*
X141657581Y-93876263D01*
X141658940Y-94107212D01*
X141667949Y-94107208D01*
X142038966Y-94107035D01*
X142086540Y-94124326D01*
X142111870Y-94168151D01*
X142113000Y-94181035D01*
X142113000Y-95062500D01*
X142095687Y-95110066D01*
X142051850Y-95135376D01*
X142039000Y-95136500D01*
X142007962Y-95136500D01*
X141993525Y-95135078D01*
X141983149Y-95133014D01*
X141976000Y-95131592D01*
X141878259Y-95151034D01*
X141872195Y-95155086D01*
X141865466Y-95157873D01*
X141864613Y-95155814D01*
X141835392Y-95164678D01*
X141134018Y-95164678D01*
X141086452Y-95147365D01*
X141061142Y-95103528D01*
X141060018Y-95090678D01*
X141060018Y-91396818D01*
X137503303Y-91396818D01*
X137503303Y-94033000D01*
X137485990Y-94080566D01*
X137442153Y-94105876D01*
X137429303Y-94107000D01*
X137107000Y-94107000D01*
X137059434Y-94089687D01*
X137034124Y-94045850D01*
X137033000Y-94033000D01*
X137033000Y-91006000D01*
X137050313Y-90958434D01*
X137094150Y-90933124D01*
X137107000Y-90932000D01*
X141404000Y-90932000D01*
X141451566Y-90949313D01*
G37*
%TD.AperFunction*%
%TD*%
%TA.AperFunction,Conductor*%
%TO.N,+3V3*%
G36*
X147837793Y-92457551D02*
G01*
X147926029Y-92471526D01*
X147963514Y-92483706D01*
X148034168Y-92519707D01*
X148066057Y-92542876D01*
X148122124Y-92598943D01*
X148145293Y-92630832D01*
X148181294Y-92701486D01*
X148193475Y-92738975D01*
X148205878Y-92817291D01*
X148205878Y-92856709D01*
X148193475Y-92935025D01*
X148181294Y-92972514D01*
X148145293Y-93043168D01*
X148122124Y-93075057D01*
X148066057Y-93131124D01*
X148034168Y-93154293D01*
X147963514Y-93190294D01*
X147926029Y-93202474D01*
X147837793Y-93216449D01*
X147818083Y-93218000D01*
X146050000Y-93218000D01*
X145976155Y-93248769D01*
X145976154Y-93248769D01*
X145973294Y-93249960D01*
X145973293Y-93249961D01*
X144602089Y-93821296D01*
X144590902Y-93825348D01*
X144535922Y-93842375D01*
X144512658Y-93847234D01*
X144455450Y-93853635D01*
X144443576Y-93854398D01*
X142552036Y-93886482D01*
X142549899Y-93886500D01*
X142304326Y-93886500D01*
X142298260Y-93887707D01*
X142298256Y-93887707D01*
X142292444Y-93888863D01*
X142270002Y-93891266D01*
X142156029Y-93893199D01*
X142112999Y-93893929D01*
X142112999Y-93286742D01*
X142300456Y-93286730D01*
X142304326Y-93287500D01*
X144069634Y-93287500D01*
X144072307Y-93287696D01*
X144077342Y-93289425D01*
X144088964Y-93288989D01*
X144088966Y-93288989D01*
X144126255Y-93287589D01*
X144130981Y-93287500D01*
X144149948Y-93287500D01*
X144153141Y-93286906D01*
X144159611Y-93286607D01*
X144297090Y-93286598D01*
X144297092Y-93286598D01*
X144399000Y-93286591D01*
X144507267Y-93227585D01*
X145826594Y-92508542D01*
X145840829Y-92501899D01*
X145911450Y-92474162D01*
X145941834Y-92466420D01*
X146017117Y-92456979D01*
X146032795Y-92456000D01*
X147818083Y-92456000D01*
X147837793Y-92457551D01*
G37*
%TD.AperFunction*%
%TD*%
%TA.AperFunction,Conductor*%
%TO.N,+3V3*%
G36*
X171419029Y-107823792D02*
G01*
X171575913Y-107841469D01*
X171603420Y-107847748D01*
X171745706Y-107897536D01*
X171771127Y-107909778D01*
X171898773Y-107989983D01*
X171920832Y-108007575D01*
X172027425Y-108114168D01*
X172045017Y-108136227D01*
X172125222Y-108263873D01*
X172137464Y-108289294D01*
X172187252Y-108431580D01*
X172193531Y-108459087D01*
X172211208Y-108615971D01*
X172212000Y-108630079D01*
X172212000Y-109873781D01*
X172191998Y-109941902D01*
X172186826Y-109949346D01*
X172158385Y-109987295D01*
X172107255Y-110123684D01*
X172100500Y-110185866D01*
X172100500Y-111782134D01*
X172107255Y-111844316D01*
X172158385Y-111980705D01*
X172163771Y-111987891D01*
X172212000Y-112052243D01*
X172212000Y-112141000D01*
X172304100Y-112141000D01*
X172362295Y-112184615D01*
X172370704Y-112187767D01*
X172370705Y-112187768D01*
X172405343Y-112200753D01*
X172462108Y-112243394D01*
X172486808Y-112309955D01*
X172471601Y-112379304D01*
X172464086Y-112389325D01*
X172464808Y-112389808D01*
X172427499Y-112445645D01*
X172418183Y-112468136D01*
X172410207Y-112508234D01*
X172409000Y-112520489D01*
X172409000Y-112765885D01*
X172413475Y-112781124D01*
X172414865Y-112782329D01*
X172422548Y-112784000D01*
X173983000Y-112784000D01*
X174051121Y-112804002D01*
X174097614Y-112857658D01*
X174109000Y-112910000D01*
X174109000Y-113658000D01*
X174088998Y-113726121D01*
X174035342Y-113772614D01*
X173983000Y-113784000D01*
X172427115Y-113784000D01*
X172411876Y-113788475D01*
X172410671Y-113789865D01*
X172409000Y-113797548D01*
X172409000Y-114047511D01*
X172410207Y-114059766D01*
X172418183Y-114099864D01*
X172427499Y-114122355D01*
X172464808Y-114178192D01*
X172461322Y-114180521D01*
X172484235Y-114222482D01*
X172479170Y-114293297D01*
X172436623Y-114350133D01*
X172405343Y-114367247D01*
X172370705Y-114380232D01*
X172370704Y-114380233D01*
X172362295Y-114383385D01*
X172304100Y-114427000D01*
X172212000Y-114427000D01*
X172212000Y-114515757D01*
X172158385Y-114587295D01*
X172107255Y-114723684D01*
X172100500Y-114785866D01*
X172100500Y-116382134D01*
X172107255Y-116444316D01*
X172158385Y-116580705D01*
X172163771Y-116587891D01*
X172212000Y-116652243D01*
X172212000Y-116713000D01*
X172266734Y-116712996D01*
X172362295Y-116784615D01*
X172498684Y-116835745D01*
X172560866Y-116842500D01*
X172618630Y-116842500D01*
X172686751Y-116862502D01*
X172733244Y-116916158D01*
X172742195Y-116943847D01*
X172747331Y-116969589D01*
X172749766Y-116994158D01*
X172749817Y-117072229D01*
X172729861Y-117140361D01*
X172724048Y-117148512D01*
X172719571Y-117152997D01*
X172715733Y-117159223D01*
X172715730Y-117159227D01*
X172657137Y-117254283D01*
X172604364Y-117301777D01*
X172534293Y-117313200D01*
X172475018Y-117289518D01*
X172398610Y-117233082D01*
X172382143Y-117224363D01*
X172376094Y-117222239D01*
X172362010Y-117221504D01*
X172359000Y-117227278D01*
X172359000Y-118205000D01*
X172338998Y-118273121D01*
X172285342Y-118319614D01*
X172233000Y-118331000D01*
X171233604Y-118331000D01*
X171221117Y-118334667D01*
X171224768Y-118343563D01*
X171265554Y-118398783D01*
X171271361Y-118404590D01*
X171305387Y-118466902D01*
X171300322Y-118537717D01*
X171257775Y-118594553D01*
X171191255Y-118619364D01*
X171182238Y-118619685D01*
X164763941Y-118618189D01*
X164749848Y-118617394D01*
X164648853Y-118605993D01*
X164592988Y-118599686D01*
X164565486Y-118593403D01*
X164423225Y-118543595D01*
X164397810Y-118531350D01*
X164270200Y-118451141D01*
X164248147Y-118433549D01*
X164141579Y-118326957D01*
X164123991Y-118304899D01*
X164043809Y-118177267D01*
X164031571Y-118151850D01*
X163981796Y-118009581D01*
X163975519Y-117982077D01*
X163957848Y-117825222D01*
X163957056Y-117811117D01*
X163957054Y-117378652D01*
X171221782Y-117378652D01*
X171231108Y-117381000D01*
X171390885Y-117381000D01*
X171406124Y-117376525D01*
X171407329Y-117375135D01*
X171409000Y-117367452D01*
X171409000Y-117234351D01*
X171405027Y-117220820D01*
X171398584Y-117219894D01*
X171385857Y-117224363D01*
X171369390Y-117233082D01*
X171278724Y-117300049D01*
X171265550Y-117313222D01*
X171226252Y-117366428D01*
X171221782Y-117378652D01*
X163957054Y-117378652D01*
X163957041Y-115197511D01*
X166109000Y-115197511D01*
X166110207Y-115209766D01*
X166118183Y-115249864D01*
X166127499Y-115272355D01*
X166157915Y-115317876D01*
X166175124Y-115335085D01*
X166220645Y-115365501D01*
X166243136Y-115374817D01*
X166283234Y-115382793D01*
X166295489Y-115384000D01*
X166790885Y-115384000D01*
X166806124Y-115379525D01*
X166807329Y-115378135D01*
X166809000Y-115370452D01*
X166809000Y-115365885D01*
X167809000Y-115365885D01*
X167813475Y-115381124D01*
X167814865Y-115382329D01*
X167822548Y-115384000D01*
X168322511Y-115384000D01*
X168334766Y-115382793D01*
X168374864Y-115374817D01*
X168397355Y-115365501D01*
X168442876Y-115335085D01*
X168460085Y-115317876D01*
X168490501Y-115272355D01*
X168499817Y-115249864D01*
X168507793Y-115209766D01*
X168509000Y-115197511D01*
X168509000Y-113802115D01*
X168504525Y-113786876D01*
X168503135Y-113785671D01*
X168495452Y-113784000D01*
X167827115Y-113784000D01*
X167811876Y-113788475D01*
X167810671Y-113789865D01*
X167809000Y-113797548D01*
X167809000Y-115365885D01*
X166809000Y-115365885D01*
X166809000Y-113802115D01*
X166804525Y-113786876D01*
X166803135Y-113785671D01*
X166795452Y-113784000D01*
X166127115Y-113784000D01*
X166111876Y-113788475D01*
X166110671Y-113789865D01*
X166109000Y-113797548D01*
X166109000Y-115197511D01*
X163957041Y-115197511D01*
X163957027Y-112765885D01*
X166109000Y-112765885D01*
X166113475Y-112781124D01*
X166114865Y-112782329D01*
X166122548Y-112784000D01*
X166790885Y-112784000D01*
X166806124Y-112779525D01*
X166807329Y-112778135D01*
X166809000Y-112770452D01*
X166809000Y-112765885D01*
X167809000Y-112765885D01*
X167813475Y-112781124D01*
X167814865Y-112782329D01*
X167822548Y-112784000D01*
X168490885Y-112784000D01*
X168506124Y-112779525D01*
X168507329Y-112778135D01*
X168509000Y-112770452D01*
X168509000Y-111370489D01*
X168507793Y-111358234D01*
X168499817Y-111318136D01*
X168490501Y-111295645D01*
X168460085Y-111250124D01*
X168442876Y-111232915D01*
X168397355Y-111202499D01*
X168374864Y-111193183D01*
X168334766Y-111185207D01*
X168322511Y-111184000D01*
X167827115Y-111184000D01*
X167811876Y-111188475D01*
X167810671Y-111189865D01*
X167809000Y-111197548D01*
X167809000Y-112765885D01*
X166809000Y-112765885D01*
X166809000Y-111202115D01*
X166804525Y-111186876D01*
X166803135Y-111185671D01*
X166795452Y-111184000D01*
X166295489Y-111184000D01*
X166283234Y-111185207D01*
X166243136Y-111193183D01*
X166220645Y-111202499D01*
X166175124Y-111232915D01*
X166157915Y-111250124D01*
X166127499Y-111295645D01*
X166118183Y-111318136D01*
X166110207Y-111358234D01*
X166109000Y-111370489D01*
X166109000Y-112765885D01*
X163957027Y-112765885D01*
X163957004Y-108630083D01*
X163957796Y-108615975D01*
X163975472Y-108459093D01*
X163981751Y-108431585D01*
X164031539Y-108289297D01*
X164043778Y-108263881D01*
X164123988Y-108136226D01*
X164141572Y-108114177D01*
X164248173Y-108007576D01*
X164270231Y-107989985D01*
X164397877Y-107909778D01*
X164423299Y-107897536D01*
X164565584Y-107847749D01*
X164593091Y-107841470D01*
X164749975Y-107823793D01*
X164764083Y-107823001D01*
X171404921Y-107823000D01*
X171419029Y-107823792D01*
G37*
%TD.AperFunction*%
%TD*%
%TA.AperFunction,Conductor*%
%TO.N,+3V3*%
G36*
X142086566Y-90381881D02*
G01*
X142111876Y-90425718D01*
X142113000Y-90438568D01*
X142113000Y-93883047D01*
X142095687Y-93930613D01*
X142051850Y-93955923D01*
X142038895Y-93956496D01*
X142038895Y-93957035D01*
X141882296Y-93957108D01*
X141834722Y-93939817D01*
X141809392Y-93895992D01*
X141809287Y-93870832D01*
X141813238Y-93847342D01*
X141813713Y-93844520D01*
X141813849Y-93833400D01*
X141810570Y-93810503D01*
X141796302Y-93710872D01*
X141796301Y-93710869D01*
X141795555Y-93705659D01*
X141743315Y-93590764D01*
X141743314Y-93590760D01*
X141742144Y-93588188D01*
X141742512Y-93588021D01*
X141732000Y-93552074D01*
X141732000Y-93472000D01*
X141702000Y-93472000D01*
X141654434Y-93454687D01*
X141629124Y-93410850D01*
X141628000Y-93398000D01*
X141628000Y-91006000D01*
X141627429Y-90992929D01*
X141626305Y-90980079D01*
X141608425Y-90923367D01*
X141605000Y-90901118D01*
X141605000Y-90805000D01*
X141506689Y-90805000D01*
X141481381Y-90800538D01*
X141459156Y-90792448D01*
X141458335Y-90792149D01*
X141458333Y-90792148D01*
X141455304Y-90791046D01*
X141404000Y-90782000D01*
X137107000Y-90782000D01*
X137098932Y-90782352D01*
X137094749Y-90782535D01*
X137094741Y-90782536D01*
X137093929Y-90782571D01*
X137081079Y-90783695D01*
X137024367Y-90801575D01*
X137002118Y-90805000D01*
X136906000Y-90805000D01*
X136906000Y-90903311D01*
X136901538Y-90928619D01*
X136892046Y-90954696D01*
X136883000Y-91006000D01*
X136883000Y-93271000D01*
X136865687Y-93318566D01*
X136821850Y-93343876D01*
X136809000Y-93345000D01*
X136779000Y-93345000D01*
X136779000Y-93622897D01*
X136771985Y-93654346D01*
X136760988Y-93677769D01*
X136741135Y-93805277D01*
X136741818Y-93810500D01*
X136741818Y-93810503D01*
X136751305Y-93883047D01*
X136757867Y-93933231D01*
X136759990Y-93938056D01*
X136772733Y-93967017D01*
X136779000Y-93996820D01*
X136779000Y-94234000D01*
X137004311Y-94234000D01*
X137029619Y-94238462D01*
X137046693Y-94244677D01*
X137052665Y-94246851D01*
X137052667Y-94246852D01*
X137055696Y-94247954D01*
X137092676Y-94254474D01*
X137103823Y-94256440D01*
X137103825Y-94256440D01*
X137107000Y-94257000D01*
X137108315Y-94257000D01*
X137113190Y-94257962D01*
X137113232Y-94257700D01*
X137118436Y-94258543D01*
X137123467Y-94260115D01*
X137128734Y-94260212D01*
X137128737Y-94260212D01*
X137184167Y-94261228D01*
X137252489Y-94262480D01*
X137263032Y-94259606D01*
X137282495Y-94257000D01*
X137340000Y-94257000D01*
X137387566Y-94274313D01*
X137412876Y-94318150D01*
X137414000Y-94331000D01*
X137414000Y-94996000D01*
X140805176Y-94996000D01*
X140852742Y-95013313D01*
X140878052Y-95057150D01*
X140879176Y-95070000D01*
X140879176Y-95317952D01*
X142039000Y-95317952D01*
X142086566Y-95335265D01*
X142111876Y-95379102D01*
X142113000Y-95391952D01*
X142113000Y-95938000D01*
X142095687Y-95985566D01*
X142051850Y-96010876D01*
X142039000Y-96012000D01*
X136524618Y-96012000D01*
X136477052Y-95994687D01*
X136451742Y-95950850D01*
X136450618Y-95938000D01*
X136450618Y-90438568D01*
X136467931Y-90391002D01*
X136511768Y-90365692D01*
X136524618Y-90364568D01*
X142039000Y-90364568D01*
X142086566Y-90381881D01*
G37*
%TD.AperFunction*%
%TD*%
M02*
