%TF.GenerationSoftware,KiCad,Pcbnew,6.0.2+dfsg-1*%
%TF.CreationDate,2022-08-22T16:06:49-05:00*%
%TF.ProjectId,veritas,76657269-7461-4732-9e6b-696361645f70,rev?*%
%TF.SameCoordinates,Original*%
%TF.FileFunction,Soldermask,Bot*%
%TF.FilePolarity,Negative*%
%FSLAX46Y46*%
G04 Gerber Fmt 4.6, Leading zero omitted, Abs format (unit mm)*
G04 Created by KiCad (PCBNEW 6.0.2+dfsg-1) date 2022-08-22 16:06:49*
%MOMM*%
%LPD*%
G01*
G04 APERTURE LIST*
G04 Aperture macros list*
%AMRoundRect*
0 Rectangle with rounded corners*
0 $1 Rounding radius*
0 $2 $3 $4 $5 $6 $7 $8 $9 X,Y pos of 4 corners*
0 Add a 4 corners polygon primitive as box body*
4,1,4,$2,$3,$4,$5,$6,$7,$8,$9,$2,$3,0*
0 Add four circle primitives for the rounded corners*
1,1,$1+$1,$2,$3*
1,1,$1+$1,$4,$5*
1,1,$1+$1,$6,$7*
1,1,$1+$1,$8,$9*
0 Add four rect primitives between the rounded corners*
20,1,$1+$1,$2,$3,$4,$5,0*
20,1,$1+$1,$4,$5,$6,$7,0*
20,1,$1+$1,$6,$7,$8,$9,0*
20,1,$1+$1,$8,$9,$2,$3,0*%
%AMFreePoly0*
4,1,6,1.000000,0.000000,0.500000,-0.750000,-0.500000,-0.750000,-0.500000,0.750000,0.500000,0.750000,1.000000,0.000000,1.000000,0.000000,$1*%
%AMFreePoly1*
4,1,6,0.500000,-0.750000,-0.650000,-0.750000,-0.150000,0.000000,-0.650000,0.750000,0.500000,0.750000,0.500000,-0.750000,0.500000,-0.750000,$1*%
G04 Aperture macros list end*
%ADD10O,1.700000X1.700000*%
%ADD11R,1.700000X1.700000*%
%ADD12O,2.100000X4.200000*%
%ADD13O,3.600000X1.800000*%
%ADD14C,1.650000*%
%ADD15R,1.650000X1.650000*%
%ADD16C,4.800000*%
%ADD17C,1.300000*%
%ADD18O,2.100000X1.050000*%
%ADD19C,0.700000*%
%ADD20O,1.600000X1.600000*%
%ADD21R,1.600000X1.600000*%
%ADD22RoundRect,0.875000X0.875000X0.875000X-0.875000X0.875000X-0.875000X-0.875000X0.875000X-0.875000X0*%
%ADD23RoundRect,0.750000X0.750000X1.000000X-0.750000X1.000000X-0.750000X-1.000000X0.750000X-1.000000X0*%
%ADD24R,3.500000X3.500000*%
%ADD25FreePoly0,180.000000*%
%ADD26FreePoly1,180.000000*%
%ADD27FreePoly0,270.000000*%
%ADD28FreePoly1,270.000000*%
%ADD29C,0.600000*%
G04 APERTURE END LIST*
D10*
%TO.C,J5*%
X123063000Y-70104000D03*
X120523000Y-70104000D03*
X117983000Y-70104000D03*
X115443000Y-70104000D03*
D11*
X112903000Y-70104000D03*
%TD*%
D10*
%TO.C,J10*%
X120650000Y-116967000D03*
X120650000Y-119507000D03*
D11*
X120650000Y-122047000D03*
%TD*%
D12*
%TO.C,J9*%
X113648000Y-108271000D03*
D13*
X117348000Y-112021000D03*
X117348000Y-104521000D03*
%TD*%
D10*
%TO.C,J2*%
X166497000Y-70104000D03*
X163957000Y-70104000D03*
X161417000Y-70104000D03*
X158877000Y-70104000D03*
D11*
X156337000Y-70104000D03*
%TD*%
D14*
%TO.C,J12*%
X140315000Y-127772000D03*
X142605000Y-127772000D03*
X144895000Y-127772000D03*
X147185000Y-127772000D03*
X149475000Y-127772000D03*
X151765000Y-127772000D03*
X154055000Y-127772000D03*
X156345000Y-127772000D03*
X139045000Y-125232000D03*
X141335000Y-125232000D03*
X143625000Y-125232000D03*
X145915000Y-125232000D03*
X148205000Y-125232000D03*
X150495000Y-125232000D03*
X152785000Y-125232000D03*
X155075000Y-125232000D03*
X157365000Y-125232000D03*
X138025000Y-122692000D03*
X140315000Y-122692000D03*
X142605000Y-122692000D03*
X144895000Y-122692000D03*
X147185000Y-122692000D03*
X149475000Y-122692000D03*
X151765000Y-122692000D03*
X154055000Y-122692000D03*
D15*
X156345000Y-122692000D03*
D16*
X164355000Y-125232000D03*
X131035000Y-125232000D03*
%TD*%
D17*
%TO.C,REF\u002A\u002A*%
X183134000Y-61341000D03*
%TD*%
%TO.C,REF\u002A\u002A*%
X111125000Y-63246000D03*
%TD*%
%TO.C,REF\u002A\u002A*%
X113030000Y-133096000D03*
%TD*%
D12*
%TO.C,J8*%
X113648000Y-95945000D03*
D13*
X117348000Y-92195000D03*
X117348000Y-99695000D03*
%TD*%
D18*
%TO.C,J7*%
X178816000Y-105132999D03*
X182996000Y-96492999D03*
X178816000Y-96492999D03*
X182996000Y-105132999D03*
D19*
X179346000Y-103702999D03*
X179346000Y-97922999D03*
%TD*%
D20*
%TO.C,U4*%
X164719000Y-80518000D03*
X164719000Y-83058000D03*
X164719000Y-85598000D03*
X164719000Y-88138000D03*
X164719000Y-90678000D03*
X164719000Y-93218000D03*
X164719000Y-95758000D03*
X157099000Y-95758000D03*
X157099000Y-93218000D03*
X157099000Y-90678000D03*
X157099000Y-88138000D03*
X157099000Y-85598000D03*
X157099000Y-83058000D03*
D21*
X157099000Y-80518000D03*
%TD*%
D10*
%TO.C,J4*%
X137541000Y-70104000D03*
X135001000Y-70104000D03*
X132461000Y-70104000D03*
X129921000Y-70104000D03*
D11*
X127381000Y-70104000D03*
%TD*%
D10*
%TO.C,J6*%
X120523000Y-82169000D03*
X120523000Y-84709000D03*
D11*
X120523000Y-87249000D03*
%TD*%
D10*
%TO.C,J3*%
X152019000Y-70104000D03*
X149479000Y-70104000D03*
X146939000Y-70104000D03*
X144399000Y-70104000D03*
D11*
X141859000Y-70104000D03*
%TD*%
D22*
%TO.C,J1*%
X174831000Y-62737000D03*
D23*
X177831000Y-67437000D03*
D24*
X171831000Y-67437000D03*
%TD*%
D10*
%TO.C,J11*%
X174371000Y-133604000D03*
X174371000Y-131064000D03*
X174371000Y-128524000D03*
X174371000Y-125984000D03*
X174371000Y-123444000D03*
D11*
X174371000Y-120904000D03*
%TD*%
D25*
%TO.C,JP5*%
X162740000Y-111887000D03*
D26*
X161290000Y-111887000D03*
%TD*%
D27*
%TO.C,JP7*%
X177165000Y-119454000D03*
D28*
X177165000Y-120904000D03*
%TD*%
D25*
%TO.C,JP6*%
X162740000Y-109728000D03*
D26*
X161290000Y-109728000D03*
%TD*%
D29*
X175641000Y-113284000D03*
X125626500Y-115062000D03*
X125626500Y-113514500D03*
X177673000Y-113284000D03*
X148590000Y-97536000D03*
X175373000Y-115584000D03*
X146050000Y-80645000D03*
X181864000Y-86106000D03*
X142621000Y-101219000D03*
X143645000Y-116215000D03*
X130302000Y-91313000D03*
X153490000Y-79047000D03*
X138303000Y-84201000D03*
X123444000Y-93980000D03*
X132215000Y-116215000D03*
X168047500Y-120142000D03*
X137795000Y-102923000D03*
X126111000Y-127000000D03*
X148590000Y-99060000D03*
X148590000Y-100584000D03*
X140663000Y-110924000D03*
X152019000Y-82931000D03*
X175334000Y-107495000D03*
X150749000Y-92837000D03*
X155075000Y-116215000D03*
X126111000Y-129540000D03*
X130402500Y-97917000D03*
X150749000Y-91313000D03*
X130175000Y-83312000D03*
X143002000Y-83566000D03*
X116268500Y-132524500D03*
X123444000Y-91567000D03*
X137196234Y-93810837D03*
X133731000Y-95758000D03*
X146431000Y-91313000D03*
X141358716Y-93833400D03*
X176657000Y-117475000D03*
X176391001Y-103262999D03*
X176391000Y-98364383D03*
X160606531Y-117943659D03*
X127351000Y-84612000D03*
X128651555Y-82491253D03*
X130302000Y-84836000D03*
X132969000Y-104140000D03*
X132715000Y-88913704D03*
X133350000Y-103251000D03*
X133096000Y-89789000D03*
X133858000Y-102362000D03*
X132207000Y-91059000D03*
X133350000Y-91059000D03*
X134239000Y-101346000D03*
X123825000Y-112903000D03*
X123801500Y-115062000D03*
X123317000Y-102489000D03*
X116205000Y-102489000D03*
X115443000Y-101727000D03*
X124333000Y-101727000D03*
X159639000Y-111887000D03*
X158369000Y-111887000D03*
X111760000Y-74930000D03*
X149995000Y-120025000D03*
X171958000Y-98552000D03*
X171958000Y-101346000D03*
X162740000Y-108024000D03*
X141859000Y-87503000D03*
X155194000Y-101346000D03*
X142240000Y-88392000D03*
X154305000Y-100584000D03*
X160464500Y-108267500D03*
X149098000Y-88773000D03*
X137033000Y-86741000D03*
X148463000Y-89535000D03*
X136271000Y-86995000D03*
M02*
