%TF.GenerationSoftware,KiCad,Pcbnew,6.0.2+dfsg-1*%
%TF.CreationDate,2022-09-07T02:14:39-05:00*%
%TF.ProjectId,veritas,76657269-7461-4732-9e6b-696361645f70,rev?*%
%TF.SameCoordinates,Original*%
%TF.FileFunction,Copper,L1,Top*%
%TF.FilePolarity,Positive*%
%FSLAX46Y46*%
G04 Gerber Fmt 4.6, Leading zero omitted, Abs format (unit mm)*
G04 Created by KiCad (PCBNEW 6.0.2+dfsg-1) date 2022-09-07 02:14:39*
%MOMM*%
%LPD*%
G01*
G04 APERTURE LIST*
G04 Aperture macros list*
%AMRoundRect*
0 Rectangle with rounded corners*
0 $1 Rounding radius*
0 $2 $3 $4 $5 $6 $7 $8 $9 X,Y pos of 4 corners*
0 Add a 4 corners polygon primitive as box body*
4,1,4,$2,$3,$4,$5,$6,$7,$8,$9,$2,$3,0*
0 Add four circle primitives for the rounded corners*
1,1,$1+$1,$2,$3*
1,1,$1+$1,$4,$5*
1,1,$1+$1,$6,$7*
1,1,$1+$1,$8,$9*
0 Add four rect primitives between the rounded corners*
20,1,$1+$1,$2,$3,$4,$5,0*
20,1,$1+$1,$4,$5,$6,$7,0*
20,1,$1+$1,$6,$7,$8,$9,0*
20,1,$1+$1,$8,$9,$2,$3,0*%
G04 Aperture macros list end*
%TA.AperFunction,ComponentPad*%
%ADD10R,1.700000X1.700000*%
%TD*%
%TA.AperFunction,ComponentPad*%
%ADD11O,1.700000X1.700000*%
%TD*%
%TA.AperFunction,SMDPad,CuDef*%
%ADD12RoundRect,0.237500X-0.250000X-0.237500X0.250000X-0.237500X0.250000X0.237500X-0.250000X0.237500X0*%
%TD*%
%TA.AperFunction,ComponentPad*%
%ADD13O,3.600000X1.800000*%
%TD*%
%TA.AperFunction,ComponentPad*%
%ADD14O,2.100000X4.200000*%
%TD*%
%TA.AperFunction,SMDPad,CuDef*%
%ADD15RoundRect,0.237500X0.300000X0.237500X-0.300000X0.237500X-0.300000X-0.237500X0.300000X-0.237500X0*%
%TD*%
%TA.AperFunction,SMDPad,CuDef*%
%ADD16R,0.800000X1.900000*%
%TD*%
%TA.AperFunction,SMDPad,CuDef*%
%ADD17RoundRect,0.237500X0.237500X-0.300000X0.237500X0.300000X-0.237500X0.300000X-0.237500X-0.300000X0*%
%TD*%
%TA.AperFunction,ComponentPad*%
%ADD18C,4.800000*%
%TD*%
%TA.AperFunction,ComponentPad*%
%ADD19R,1.650000X1.650000*%
%TD*%
%TA.AperFunction,ComponentPad*%
%ADD20C,1.650000*%
%TD*%
%TA.AperFunction,SMDPad,CuDef*%
%ADD21RoundRect,0.237500X-0.237500X0.250000X-0.237500X-0.250000X0.237500X-0.250000X0.237500X0.250000X0*%
%TD*%
%TA.AperFunction,WasherPad*%
%ADD22C,1.300000*%
%TD*%
%TA.AperFunction,SMDPad,CuDef*%
%ADD23RoundRect,0.237500X-0.237500X0.300000X-0.237500X-0.300000X0.237500X-0.300000X0.237500X0.300000X0*%
%TD*%
%TA.AperFunction,SMDPad,CuDef*%
%ADD24RoundRect,0.237500X-0.300000X-0.237500X0.300000X-0.237500X0.300000X0.237500X-0.300000X0.237500X0*%
%TD*%
%TA.AperFunction,SMDPad,CuDef*%
%ADD25R,1.550000X1.300000*%
%TD*%
%TA.AperFunction,SMDPad,CuDef*%
%ADD26RoundRect,0.150000X-0.150000X0.650000X-0.150000X-0.650000X0.150000X-0.650000X0.150000X0.650000X0*%
%TD*%
%TA.AperFunction,SMDPad,CuDef*%
%ADD27R,1.450000X0.600000*%
%TD*%
%TA.AperFunction,SMDPad,CuDef*%
%ADD28R,1.450000X0.300000*%
%TD*%
%TA.AperFunction,ComponentPad*%
%ADD29O,2.100000X1.050000*%
%TD*%
%TA.AperFunction,SMDPad,CuDef*%
%ADD30RoundRect,0.237500X0.250000X0.237500X-0.250000X0.237500X-0.250000X-0.237500X0.250000X-0.237500X0*%
%TD*%
%TA.AperFunction,SMDPad,CuDef*%
%ADD31R,0.340000X0.700000*%
%TD*%
%TA.AperFunction,SMDPad,CuDef*%
%ADD32R,1.900000X0.800000*%
%TD*%
%TA.AperFunction,SMDPad,CuDef*%
%ADD33RoundRect,0.150000X-0.825000X-0.150000X0.825000X-0.150000X0.825000X0.150000X-0.825000X0.150000X0*%
%TD*%
%TA.AperFunction,SMDPad,CuDef*%
%ADD34R,1.500000X2.000000*%
%TD*%
%TA.AperFunction,SMDPad,CuDef*%
%ADD35R,3.800000X2.000000*%
%TD*%
%TA.AperFunction,ComponentPad*%
%ADD36R,3.500000X3.500000*%
%TD*%
%TA.AperFunction,ComponentPad*%
%ADD37RoundRect,0.750000X0.750000X1.000000X-0.750000X1.000000X-0.750000X-1.000000X0.750000X-1.000000X0*%
%TD*%
%TA.AperFunction,ComponentPad*%
%ADD38RoundRect,0.875000X0.875000X0.875000X-0.875000X0.875000X-0.875000X-0.875000X0.875000X-0.875000X0*%
%TD*%
%TA.AperFunction,SMDPad,CuDef*%
%ADD39R,2.000000X4.500000*%
%TD*%
%TA.AperFunction,SMDPad,CuDef*%
%ADD40R,1.500000X0.400000*%
%TD*%
%TA.AperFunction,SMDPad,CuDef*%
%ADD41RoundRect,0.050000X-0.050000X0.387500X-0.050000X-0.387500X0.050000X-0.387500X0.050000X0.387500X0*%
%TD*%
%TA.AperFunction,SMDPad,CuDef*%
%ADD42RoundRect,0.050000X-0.387500X0.050000X-0.387500X-0.050000X0.387500X-0.050000X0.387500X0.050000X0*%
%TD*%
%TA.AperFunction,ComponentPad*%
%ADD43C,0.600000*%
%TD*%
%TA.AperFunction,SMDPad,CuDef*%
%ADD44RoundRect,0.144000X-1.456000X1.456000X-1.456000X-1.456000X1.456000X-1.456000X1.456000X1.456000X0*%
%TD*%
%TA.AperFunction,ViaPad*%
%ADD45C,0.600000*%
%TD*%
%TA.AperFunction,Conductor*%
%ADD46C,0.200000*%
%TD*%
%TA.AperFunction,Conductor*%
%ADD47C,0.600000*%
%TD*%
%TA.AperFunction,Conductor*%
%ADD48C,0.800000*%
%TD*%
%TA.AperFunction,Conductor*%
%ADD49C,0.250000*%
%TD*%
%TA.AperFunction,Conductor*%
%ADD50C,0.400000*%
%TD*%
%TA.AperFunction,Conductor*%
%ADD51C,0.300000*%
%TD*%
G04 APERTURE END LIST*
D10*
%TO.P,J5,1,Pin_1*%
%TO.N,/LED_5V*%
X-127000Y62992000D03*
D11*
%TO.P,J5,2,Pin_2*%
%TO.N,DISPLAY_STROBE3*%
X2413000Y62992000D03*
%TO.P,J5,3,Pin_3*%
%TO.N,DISPLAY_CLK*%
X4953000Y62992000D03*
%TO.P,J5,4,Pin_4*%
%TO.N,DISPLAY_SER*%
X7493000Y62992000D03*
%TO.P,J5,5,Pin_5*%
%TO.N,GND*%
X10033000Y62992000D03*
%TD*%
D12*
%TO.P,R7,1*%
%TO.N,GND*%
X66258000Y56364999D03*
%TO.P,R7,2*%
%TO.N,Net-(J7-PadB5)*%
X68083000Y56364999D03*
%TD*%
D10*
%TO.P,J10,1,Pin_1*%
%TO.N,OEOUT*%
X7620000Y11049000D03*
D11*
%TO.P,J10,2,Pin_2*%
%TO.N,ALT_CLK_B*%
X7620000Y13589000D03*
%TO.P,J10,3,Pin_3*%
%TO.N,/CVIN*%
X7620000Y16129000D03*
%TD*%
D13*
%TO.P,J9,1,In*%
%TO.N,/CVIN*%
X4318000Y28575000D03*
X4318000Y21075000D03*
D14*
%TO.P,J9,2,Ext*%
%TO.N,GND*%
X618000Y24825000D03*
%TD*%
D12*
%TO.P,R25,1*%
%TO.N,CNT_14*%
X42648500Y26289000D03*
%TO.P,R25,2*%
%TO.N,+3V3*%
X44473500Y26289000D03*
%TD*%
D15*
%TO.P,C2,1*%
%TO.N,+1V1*%
X19531500Y36576000D03*
%TO.P,C2,2*%
%TO.N,GND*%
X17806500Y36576000D03*
%TD*%
D16*
%TO.P,Q20,1,G*%
%TO.N,+3V3*%
X10094000Y31067000D03*
%TO.P,Q20,2,S*%
%TO.N,ALT_CLK_A*%
X8194000Y31067000D03*
%TO.P,Q20,3,D*%
%TO.N,ALT_CLK_B*%
X9144000Y28067000D03*
%TD*%
D17*
%TO.P,C19,1*%
%TO.N,GND*%
X14478000Y16917500D03*
%TO.P,C19,2*%
%TO.N,Net-(C19-Pad2)*%
X14478000Y18642500D03*
%TD*%
D10*
%TO.P,J2,1,Pin_1*%
%TO.N,/LED_5V*%
X43307000Y62992000D03*
D11*
%TO.P,J2,2,Pin_2*%
%TO.N,DISPLAY_STROBE0*%
X45847000Y62992000D03*
%TO.P,J2,3,Pin_3*%
%TO.N,DISPLAY_CLK*%
X48387000Y62992000D03*
%TO.P,J2,4,Pin_4*%
%TO.N,DISPLAY_SER*%
X50927000Y62992000D03*
%TO.P,J2,5,Pin_5*%
%TO.N,GND*%
X53467000Y62992000D03*
%TD*%
D15*
%TO.P,C20,1*%
%TO.N,VBUS*%
X63373000Y41275000D03*
%TO.P,C20,2*%
%TO.N,GND*%
X61648000Y41275000D03*
%TD*%
D12*
%TO.P,R45,1*%
%TO.N,ALT_CLK_A*%
X8231500Y33147000D03*
%TO.P,R45,2*%
%TO.N,+3V3*%
X10056500Y33147000D03*
%TD*%
%TO.P,R14,1*%
%TO.N,CNT_16*%
X50268500Y26289000D03*
%TO.P,R14,2*%
%TO.N,+3V3*%
X52093500Y26289000D03*
%TD*%
D18*
%TO.P,J11,0*%
%TO.N,GND*%
X61087000Y3048000D03*
X61087000Y36368000D03*
D19*
%TO.P,J11,1*%
%TO.N,CP_1*%
X58547000Y28358000D03*
D20*
%TO.P,J11,2*%
%TO.N,CP_2*%
X58547000Y26068000D03*
%TO.P,J11,3*%
%TO.N,CP_3*%
X58547000Y23778000D03*
%TO.P,J11,4*%
%TO.N,CP_4*%
X58547000Y21488000D03*
%TO.P,J11,5*%
%TO.N,CP_5*%
X58547000Y19198000D03*
%TO.P,J11,6*%
%TO.N,CP_6*%
X58547000Y16908000D03*
%TO.P,J11,7*%
%TO.N,CP_7*%
X58547000Y14618000D03*
%TO.P,J11,8*%
%TO.N,CP_8*%
X58547000Y12328000D03*
%TO.P,J11,9*%
%TO.N,GND*%
X58547000Y10038000D03*
%TO.P,J11,10*%
%TO.N,+3V3*%
X61087000Y29378000D03*
%TO.P,J11,11*%
%TO.N,CP_11*%
X61087000Y27088000D03*
%TO.P,J11,12*%
%TO.N,CP_12*%
X61087000Y24798000D03*
%TO.P,J11,13*%
%TO.N,CP_13*%
X61087000Y22508000D03*
%TO.P,J11,14*%
%TO.N,CP_14*%
X61087000Y20218000D03*
%TO.P,J11,15*%
%TO.N,CP_15*%
X61087000Y17928000D03*
%TO.P,J11,16*%
%TO.N,CP_16*%
X61087000Y15638000D03*
%TO.P,J11,17*%
%TO.N,CP_17*%
X61087000Y13348000D03*
%TO.P,J11,18*%
%TO.N,CP_18*%
X61087000Y11058000D03*
%TO.P,J11,19*%
%TO.N,VBUS*%
X63627000Y28358000D03*
%TO.P,J11,20*%
%TO.N,SYSTEM_PWR*%
X63627000Y26068000D03*
%TO.P,J11,21*%
%TO.N,CP_21*%
X63627000Y23778000D03*
%TO.P,J11,22*%
%TO.N,CP_22*%
X63627000Y21488000D03*
%TO.P,J11,23*%
%TO.N,CP_23*%
X63627000Y19198000D03*
%TO.P,J11,24*%
%TO.N,CP_24*%
X63627000Y16908000D03*
%TO.P,J11,25*%
%TO.N,CP_25*%
X63627000Y14618000D03*
%TO.P,J11,26*%
%TO.N,GND*%
X63627000Y12328000D03*
%TD*%
D21*
%TO.P,R22,1*%
%TO.N,Net-(C19-Pad2)*%
X12827000Y18669000D03*
%TO.P,R22,2*%
%TO.N,GND*%
X12827000Y16844000D03*
%TD*%
D12*
%TO.P,R43,1*%
%TO.N,CP_15*%
X27408500Y19177000D03*
%TO.P,R43,2*%
%TO.N,SYSTEM_PWR*%
X29233500Y19177000D03*
%TD*%
D16*
%TO.P,Q4,1,G*%
%TO.N,+3V3*%
X25461000Y9604000D03*
%TO.P,Q4,2,S*%
%TO.N,CNT_1*%
X23561000Y9604000D03*
%TO.P,Q4,3,D*%
%TO.N,CP_24*%
X24511000Y6604000D03*
%TD*%
D12*
%TO.P,R9,1*%
%TO.N,CNT_9*%
X23598500Y26289000D03*
%TO.P,R9,2*%
%TO.N,+3V3*%
X25423500Y26289000D03*
%TD*%
D21*
%TO.P,R2,1*%
%TO.N,~{QSPI_CS}*%
X38989000Y54149000D03*
%TO.P,R2,2*%
%TO.N,+3V3*%
X38989000Y52324000D03*
%TD*%
D22*
%TO.P,REF\u002A\u002A,*%
%TO.N,*%
X70104000Y71755000D03*
%TD*%
D16*
%TO.P,Q17,1,G*%
%TO.N,+3V3*%
X33081000Y9604000D03*
%TO.P,Q17,2,S*%
%TO.N,CNT_3*%
X31181000Y9604000D03*
%TO.P,Q17,3,D*%
%TO.N,CP_18*%
X32131000Y6604000D03*
%TD*%
D12*
%TO.P,R28,1*%
%TO.N,CP_16*%
X42648500Y4572000D03*
%TO.P,R28,2*%
%TO.N,SYSTEM_PWR*%
X44473500Y4572000D03*
%TD*%
D23*
%TO.P,C10,1*%
%TO.N,VBUS*%
X44831000Y45339000D03*
%TO.P,C10,2*%
%TO.N,GND*%
X44831000Y43614000D03*
%TD*%
D17*
%TO.P,C13,1*%
%TO.N,GND*%
X10414000Y42852000D03*
%TO.P,C13,2*%
%TO.N,Net-(C13-Pad2)*%
X10414000Y44577000D03*
%TD*%
D24*
%TO.P,C4,1*%
%TO.N,+1V1*%
X32538500Y35560000D03*
%TO.P,C4,2*%
%TO.N,GND*%
X34263500Y35560000D03*
%TD*%
D22*
%TO.P,REF\u002A\u002A,*%
%TO.N,*%
X-1905000Y69850000D03*
%TD*%
D16*
%TO.P,Q5,1,G*%
%TO.N,+3V3*%
X52131000Y24209000D03*
%TO.P,Q5,2,S*%
%TO.N,CNT_16*%
X50231000Y24209000D03*
%TO.P,Q5,3,D*%
%TO.N,CP_3*%
X51181000Y21209000D03*
%TD*%
D12*
%TO.P,R32,1*%
%TO.N,CP_8*%
X38838500Y4572000D03*
%TO.P,R32,2*%
%TO.N,SYSTEM_PWR*%
X40663500Y4572000D03*
%TD*%
D25*
%TO.P,SW1,1,1*%
%TO.N,GND*%
X45466000Y51634000D03*
X53426000Y51634000D03*
%TO.P,SW1,2,2*%
%TO.N,Net-(R1-Pad1)*%
X45466000Y56134000D03*
X53426000Y56134000D03*
%TD*%
D12*
%TO.P,R34,1*%
%TO.N,CNT_4*%
X35028500Y11684000D03*
%TO.P,R34,2*%
%TO.N,+3V3*%
X36853500Y11684000D03*
%TD*%
%TO.P,R39,1*%
%TO.N,CP_5*%
X31218500Y19177000D03*
%TO.P,R39,2*%
%TO.N,SYSTEM_PWR*%
X33043500Y19177000D03*
%TD*%
%TO.P,R17,1*%
%TO.N,CP_3*%
X50268500Y19177000D03*
%TO.P,R17,2*%
%TO.N,SYSTEM_PWR*%
X52093500Y19177000D03*
%TD*%
%TO.P,R40,1*%
%TO.N,CP_18*%
X31218500Y4572000D03*
%TO.P,R40,2*%
%TO.N,SYSTEM_PWR*%
X33043500Y4572000D03*
%TD*%
%TO.P,R3,1*%
%TO.N,Net-(C14-Pad2)*%
X18542000Y39751000D03*
%TO.P,R3,2*%
%TO.N,Net-(R3-Pad2)*%
X20367000Y39751000D03*
%TD*%
D26*
%TO.P,U1,1,~{CS}*%
%TO.N,~{QSPI_CS}*%
X36830000Y54190000D03*
%TO.P,U1,2,DO(IO1)*%
%TO.N,QSPI_IO1*%
X35560000Y54190000D03*
%TO.P,U1,3,IO2*%
%TO.N,QSPI_IO2*%
X34290000Y54190000D03*
%TO.P,U1,4,GND*%
%TO.N,GND*%
X33020000Y54190000D03*
%TO.P,U1,5,DI(IO0)*%
%TO.N,QSPI_IO0*%
X33020000Y46990000D03*
%TO.P,U1,6,CLK*%
%TO.N,QSPI_CLK*%
X34290000Y46990000D03*
%TO.P,U1,7,IO3*%
%TO.N,QSPI_IO3*%
X35560000Y46990000D03*
%TO.P,U1,8,VCC*%
%TO.N,+3V3*%
X36830000Y46990000D03*
%TD*%
D12*
%TO.P,R15,1*%
%TO.N,CNT_8*%
X50268500Y11684000D03*
%TO.P,R15,2*%
%TO.N,+3V3*%
X52093500Y11684000D03*
%TD*%
D15*
%TO.P,C15,1*%
%TO.N,GND*%
X36396000Y41783000D03*
%TO.P,C15,2*%
%TO.N,+1V1*%
X34671000Y41783000D03*
%TD*%
D12*
%TO.P,R46,1*%
%TO.N,ALT_CLK_B*%
X9732000Y26035000D03*
%TO.P,R46,2*%
%TO.N,VBUS*%
X11557000Y26035000D03*
%TD*%
D22*
%TO.P,REF\u002A\u002A,*%
%TO.N,*%
X0Y0D03*
%TD*%
D12*
%TO.P,R23,1*%
%TO.N,CP_21*%
X46458500Y19177000D03*
%TO.P,R23,2*%
%TO.N,SYSTEM_PWR*%
X48283500Y19177000D03*
%TD*%
D13*
%TO.P,J8,1,In*%
%TO.N,/CVIN*%
X4318000Y33401000D03*
X4318000Y40901000D03*
D14*
%TO.P,J8,2,Ext*%
%TO.N,GND*%
X618000Y37151000D03*
%TD*%
D17*
%TO.P,C11,1*%
%TO.N,+3V3*%
X38989000Y46990000D03*
%TO.P,C11,2*%
%TO.N,GND*%
X38989000Y48715000D03*
%TD*%
D12*
%TO.P,R35,1*%
%TO.N,CP_14*%
X35028500Y19177000D03*
%TO.P,R35,2*%
%TO.N,SYSTEM_PWR*%
X36853500Y19177000D03*
%TD*%
%TO.P,R19,1*%
%TO.N,CP_23*%
X19788500Y4572000D03*
%TO.P,R19,2*%
%TO.N,SYSTEM_PWR*%
X21613500Y4572000D03*
%TD*%
D16*
%TO.P,Q16,1,G*%
%TO.N,+3V3*%
X33081000Y24209000D03*
%TO.P,Q16,2,S*%
%TO.N,CNT_11*%
X31181000Y24209000D03*
%TO.P,Q16,3,D*%
%TO.N,CP_5*%
X32131000Y21209000D03*
%TD*%
%TO.P,Q7,1,G*%
%TO.N,+3V3*%
X21651000Y9604000D03*
%TO.P,Q7,2,S*%
%TO.N,CNT_0*%
X19751000Y9604000D03*
%TO.P,Q7,3,D*%
%TO.N,CP_23*%
X20701000Y6604000D03*
%TD*%
D12*
%TO.P,R38,1*%
%TO.N,CNT_3*%
X31218500Y11684000D03*
%TO.P,R38,2*%
%TO.N,+3V3*%
X33043500Y11684000D03*
%TD*%
D27*
%TO.P,J7,A1,GND*%
%TO.N,GND*%
X64882000Y47044000D03*
%TO.P,J7,A4,VBUS*%
%TO.N,VBUS*%
X64882000Y47844000D03*
D28*
%TO.P,J7,A5,CC1*%
%TO.N,Net-(J7-PadA5)*%
X64882000Y49044000D03*
%TO.P,J7,A6,D+*%
%TO.N,/D+*%
X64882000Y50044000D03*
%TO.P,J7,A7,D-*%
%TO.N,/D-*%
X64882000Y50544000D03*
%TO.P,J7,A8,SBU1*%
%TO.N,unconnected-(J7-PadA8)*%
X64882000Y51544000D03*
D27*
%TO.P,J7,A9,VBUS*%
%TO.N,VBUS*%
X64882000Y52744000D03*
%TO.P,J7,A12,GND*%
%TO.N,GND*%
X64882000Y53544000D03*
%TO.P,J7,B1,GND*%
X64882000Y53544000D03*
%TO.P,J7,B4,VBUS*%
%TO.N,VBUS*%
X64882000Y52744000D03*
D28*
%TO.P,J7,B5,CC2*%
%TO.N,Net-(J7-PadB5)*%
X64882000Y52044000D03*
%TO.P,J7,B6,D+*%
%TO.N,/D+*%
X64882000Y51044000D03*
%TO.P,J7,B7,D-*%
%TO.N,/D-*%
X64882000Y49544000D03*
%TO.P,J7,B8,SBU2*%
%TO.N,unconnected-(J7-PadB8)*%
X64882000Y48544000D03*
D27*
%TO.P,J7,B9,VBUS*%
%TO.N,VBUS*%
X64882000Y47844000D03*
%TO.P,J7,B12,GND*%
%TO.N,GND*%
X64882000Y47044000D03*
D29*
%TO.P,J7,S1,SHIELD*%
X69977000Y45974000D03*
X65797000Y54614000D03*
X69977000Y54614000D03*
X65797000Y45974000D03*
%TD*%
D16*
%TO.P,Q12,1,G*%
%TO.N,+3V3*%
X40701000Y24209000D03*
%TO.P,Q12,2,S*%
%TO.N,CNT_13*%
X38801000Y24209000D03*
%TO.P,Q12,3,D*%
%TO.N,CP_4*%
X39751000Y21209000D03*
%TD*%
D12*
%TO.P,R16,1*%
%TO.N,CNT_0*%
X19788500Y11684000D03*
%TO.P,R16,2*%
%TO.N,+3V3*%
X21613500Y11684000D03*
%TD*%
D16*
%TO.P,Q13,1,G*%
%TO.N,+3V3*%
X40701000Y9604000D03*
%TO.P,Q13,2,S*%
%TO.N,CNT_5*%
X38801000Y9604000D03*
%TO.P,Q13,3,D*%
%TO.N,CP_8*%
X39751000Y6604000D03*
%TD*%
D12*
%TO.P,R10,1*%
%TO.N,CNT_1*%
X23598500Y11684000D03*
%TO.P,R10,2*%
%TO.N,+3V3*%
X25423500Y11684000D03*
%TD*%
D24*
%TO.P,C17,1*%
%TO.N,Net-(C17-Pad1)*%
X7673000Y18796000D03*
%TO.P,C17,2*%
%TO.N,/CVIN*%
X9398000Y18796000D03*
%TD*%
D15*
%TO.P,C16,1*%
%TO.N,GND*%
X36396000Y40259000D03*
%TO.P,C16,2*%
%TO.N,+3V3*%
X34671000Y40259000D03*
%TD*%
D23*
%TO.P,C3,1*%
%TO.N,+3V3*%
X29591000Y34925000D03*
%TO.P,C3,2*%
%TO.N,GND*%
X29591000Y33200000D03*
%TD*%
D12*
%TO.P,R31,1*%
%TO.N,CP_4*%
X38838500Y19177000D03*
%TO.P,R31,2*%
%TO.N,SYSTEM_PWR*%
X40663500Y19177000D03*
%TD*%
%TO.P,R26,1*%
%TO.N,CNT_6*%
X42648500Y11684000D03*
%TO.P,R26,2*%
%TO.N,+3V3*%
X44473500Y11684000D03*
%TD*%
D30*
%TO.P,R1,1*%
%TO.N,Net-(R1-Pad1)*%
X40814000Y56134000D03*
%TO.P,R1,2*%
%TO.N,~{QSPI_CS}*%
X38989000Y56134000D03*
%TD*%
D12*
%TO.P,R5,1*%
%TO.N,/RD+*%
X32512000Y38608000D03*
%TO.P,R5,2*%
%TO.N,/D+*%
X34337000Y38608000D03*
%TD*%
D31*
%TO.P,U6,1,VCCA*%
%TO.N,+3V3*%
X49268000Y33135000D03*
%TO.P,U6,2,GND*%
%TO.N,GND*%
X48768000Y33135000D03*
%TO.P,U6,3,A*%
%TO.N,CNT_18*%
X48268000Y33135000D03*
%TO.P,U6,4,B*%
%TO.N,CP_11*%
X48268000Y31635000D03*
%TO.P,U6,5,DIR*%
%TO.N,CNT_18_DIR*%
X48768000Y31635000D03*
%TO.P,U6,6,VCCB*%
%TO.N,SYSTEM_PWR*%
X49268000Y31635000D03*
%TD*%
%TO.P,U5,1,VCCA*%
%TO.N,+3V3*%
X51808000Y33135000D03*
%TO.P,U5,2,GND*%
%TO.N,GND*%
X51308000Y33135000D03*
%TO.P,U5,3,A*%
%TO.N,CNT_17*%
X50808000Y33135000D03*
%TO.P,U5,4,B*%
%TO.N,CP_1*%
X50808000Y31635000D03*
%TO.P,U5,5,DIR*%
%TO.N,CNT_17_DIR*%
X51308000Y31635000D03*
%TO.P,U5,6,VCCB*%
%TO.N,SYSTEM_PWR*%
X51808000Y31635000D03*
%TD*%
D10*
%TO.P,J4,1,Pin_1*%
%TO.N,/LED_5V*%
X14351000Y62992000D03*
D11*
%TO.P,J4,2,Pin_2*%
%TO.N,DISPLAY_STROBE2*%
X16891000Y62992000D03*
%TO.P,J4,3,Pin_3*%
%TO.N,DISPLAY_CLK*%
X19431000Y62992000D03*
%TO.P,J4,4,Pin_4*%
%TO.N,DISPLAY_SER*%
X21971000Y62992000D03*
%TO.P,J4,5,Pin_5*%
%TO.N,GND*%
X24511000Y62992000D03*
%TD*%
D24*
%TO.P,C8,1*%
%TO.N,+3V3*%
X32538500Y32512000D03*
%TO.P,C8,2*%
%TO.N,GND*%
X34263500Y32512000D03*
%TD*%
D10*
%TO.P,J6,1,Pin_1*%
%TO.N,GND*%
X7493000Y45847000D03*
D11*
%TO.P,J6,2,Pin_2*%
%TO.N,/RESET_LO*%
X7493000Y48387000D03*
%TO.P,J6,3,Pin_3*%
%TO.N,/RESET_HI*%
X7493000Y50927000D03*
%TD*%
D16*
%TO.P,Q15,1,G*%
%TO.N,+3V3*%
X36891000Y9604000D03*
%TO.P,Q15,2,S*%
%TO.N,CNT_4*%
X34991000Y9604000D03*
%TO.P,Q15,3,D*%
%TO.N,CP_17*%
X35941000Y6604000D03*
%TD*%
D12*
%TO.P,R42,1*%
%TO.N,CNT_2*%
X27408500Y11684000D03*
%TO.P,R42,2*%
%TO.N,+3V3*%
X29233500Y11684000D03*
%TD*%
%TO.P,R12,1*%
%TO.N,CP_6*%
X23598500Y19177000D03*
%TO.P,R12,2*%
%TO.N,SYSTEM_PWR*%
X25423500Y19177000D03*
%TD*%
%TO.P,R11,1*%
%TO.N,Net-(Q2-Pad3)*%
X42879000Y31496000D03*
%TO.P,R11,2*%
%TO.N,SYSTEM_PWR*%
X44704000Y31496000D03*
%TD*%
D16*
%TO.P,Q18,1,G*%
%TO.N,+3V3*%
X29271000Y24209000D03*
%TO.P,Q18,2,S*%
%TO.N,CNT_10*%
X27371000Y24209000D03*
%TO.P,Q18,3,D*%
%TO.N,CP_15*%
X28321000Y21209000D03*
%TD*%
D12*
%TO.P,R6,1*%
%TO.N,GND*%
X66258000Y44172999D03*
%TO.P,R6,2*%
%TO.N,Net-(J7-PadA5)*%
X68083000Y44172999D03*
%TD*%
D16*
%TO.P,Q19,1,G*%
%TO.N,+3V3*%
X29271000Y9604000D03*
%TO.P,Q19,2,S*%
%TO.N,CNT_2*%
X27371000Y9604000D03*
%TO.P,Q19,3,D*%
%TO.N,CP_25*%
X28321000Y6604000D03*
%TD*%
D12*
%TO.P,R24,1*%
%TO.N,CP_7*%
X46458500Y4572000D03*
%TO.P,R24,2*%
%TO.N,SYSTEM_PWR*%
X48283500Y4572000D03*
%TD*%
D24*
%TO.P,C6,1*%
%TO.N,+3V3*%
X32538500Y34036000D03*
%TO.P,C6,2*%
%TO.N,GND*%
X34263500Y34036000D03*
%TD*%
D15*
%TO.P,C1,1*%
%TO.N,+3V3*%
X19531500Y38100000D03*
%TO.P,C1,2*%
%TO.N,GND*%
X17806500Y38100000D03*
%TD*%
D32*
%TO.P,Q2,1,G*%
%TO.N,+3V3*%
X39521000Y33970000D03*
%TO.P,Q2,2,S*%
%TO.N,DETECT*%
X39521000Y32070000D03*
%TO.P,Q2,3,D*%
%TO.N,Net-(Q2-Pad3)*%
X42521000Y33020000D03*
%TD*%
D16*
%TO.P,Q8,1,G*%
%TO.N,+3V3*%
X48321000Y24209000D03*
%TO.P,Q8,2,S*%
%TO.N,CNT_15*%
X46421000Y24209000D03*
%TO.P,Q8,3,D*%
%TO.N,CP_21*%
X47371000Y21209000D03*
%TD*%
D33*
%TO.P,U4,1,CSOUT*%
%TO.N,unconnected-(U4-Pad1)*%
X8636000Y24257000D03*
%TO.P,U4,2,CVIN*%
%TO.N,Net-(C17-Pad1)*%
X8636000Y22987000D03*
%TO.P,U4,3,VSOUT*%
%TO.N,ALT_CLK_B*%
X8636000Y21717000D03*
%TO.P,U4,4,GND*%
%TO.N,GND*%
X8636000Y20447000D03*
%TO.P,U4,5,BPOUT*%
%TO.N,unconnected-(U4-Pad5)*%
X13586000Y20447000D03*
%TO.P,U4,6,RSET*%
%TO.N,Net-(C19-Pad2)*%
X13586000Y21717000D03*
%TO.P,U4,7,OEOUT*%
%TO.N,OEOUT*%
X13586000Y22987000D03*
%TO.P,U4,8,VCC*%
%TO.N,VBUS*%
X13586000Y24257000D03*
%TD*%
D16*
%TO.P,Q10,1,G*%
%TO.N,+3V3*%
X44511000Y24209000D03*
%TO.P,Q10,2,S*%
%TO.N,CNT_14*%
X42611000Y24209000D03*
%TO.P,Q10,3,D*%
%TO.N,CP_13*%
X43561000Y21209000D03*
%TD*%
D12*
%TO.P,R13,1*%
%TO.N,CP_24*%
X23598500Y4572000D03*
%TO.P,R13,2*%
%TO.N,SYSTEM_PWR*%
X25423500Y4572000D03*
%TD*%
D17*
%TO.P,C7,1*%
%TO.N,+3V3*%
X53975000Y43614000D03*
%TO.P,C7,2*%
%TO.N,GND*%
X53975000Y45339000D03*
%TD*%
D16*
%TO.P,Q9,1,G*%
%TO.N,+3V3*%
X48321000Y9604000D03*
%TO.P,Q9,2,S*%
%TO.N,CNT_7*%
X46421000Y9604000D03*
%TO.P,Q9,3,D*%
%TO.N,CP_7*%
X47371000Y6604000D03*
%TD*%
D34*
%TO.P,U2,1,GND*%
%TO.N,GND*%
X51703000Y45339000D03*
%TO.P,U2,2,VO*%
%TO.N,+3V3*%
X49403000Y45339000D03*
D35*
X49403000Y39039000D03*
D34*
%TO.P,U2,3,VI*%
%TO.N,VBUS*%
X47103000Y45339000D03*
%TD*%
D12*
%TO.P,R21,1*%
%TO.N,CNT_7*%
X46458500Y11684000D03*
%TO.P,R21,2*%
%TO.N,+3V3*%
X48283500Y11684000D03*
%TD*%
D10*
%TO.P,J3,1,Pin_1*%
%TO.N,/LED_5V*%
X28829000Y62992000D03*
D11*
%TO.P,J3,2,Pin_2*%
%TO.N,DISPLAY_STROBE1*%
X31369000Y62992000D03*
%TO.P,J3,3,Pin_3*%
%TO.N,DISPLAY_CLK*%
X33909000Y62992000D03*
%TO.P,J3,4,Pin_4*%
%TO.N,DISPLAY_SER*%
X36449000Y62992000D03*
%TO.P,J3,5,Pin_5*%
%TO.N,GND*%
X38989000Y62992000D03*
%TD*%
D36*
%TO.P,J1,1*%
%TO.N,/LED_5V*%
X58801000Y65659000D03*
D37*
%TO.P,J1,2*%
%TO.N,GND*%
X64801000Y65659000D03*
D38*
%TO.P,J1,3*%
X61801000Y70359000D03*
%TD*%
D12*
%TO.P,R41,1*%
%TO.N,CNT_10*%
X27408500Y26289000D03*
%TO.P,R41,2*%
%TO.N,+3V3*%
X29233500Y26289000D03*
%TD*%
D30*
%TO.P,R8,1*%
%TO.N,DETECT*%
X44704000Y34544000D03*
%TO.P,R8,2*%
%TO.N,+3V3*%
X42879000Y34544000D03*
%TD*%
D12*
%TO.P,R27,1*%
%TO.N,CP_13*%
X42648500Y19177000D03*
%TO.P,R27,2*%
%TO.N,SYSTEM_PWR*%
X44473500Y19177000D03*
%TD*%
D16*
%TO.P,Q3,1,G*%
%TO.N,+3V3*%
X25461000Y24209000D03*
%TO.P,Q3,2,S*%
%TO.N,CNT_9*%
X23561000Y24209000D03*
%TO.P,Q3,3,D*%
%TO.N,CP_6*%
X24511000Y21209000D03*
%TD*%
%TO.P,Q6,1,G*%
%TO.N,+3V3*%
X52131000Y9604000D03*
%TO.P,Q6,2,S*%
%TO.N,CNT_8*%
X50231000Y9604000D03*
%TO.P,Q6,3,D*%
%TO.N,CP_22*%
X51181000Y6604000D03*
%TD*%
D23*
%TO.P,C14,1*%
%TO.N,GND*%
X10414000Y37793000D03*
%TO.P,C14,2*%
%TO.N,Net-(C14-Pad2)*%
X10414000Y36068000D03*
%TD*%
D12*
%TO.P,R18,1*%
%TO.N,CP_22*%
X50268500Y4572000D03*
%TO.P,R18,2*%
%TO.N,SYSTEM_PWR*%
X52093500Y4572000D03*
%TD*%
%TO.P,R4,1*%
%TO.N,/RD-*%
X32512000Y37084000D03*
%TO.P,R4,2*%
%TO.N,/D-*%
X34337000Y37084000D03*
%TD*%
D17*
%TO.P,C9,1*%
%TO.N,+3V3*%
X29972000Y46482000D03*
%TO.P,C9,2*%
%TO.N,GND*%
X29972000Y48207000D03*
%TD*%
D39*
%TO.P,Y1,1,1*%
%TO.N,Net-(C14-Pad2)*%
X14224000Y36077000D03*
%TO.P,Y1,2,2*%
%TO.N,Net-(C13-Pad2)*%
X14224000Y44577000D03*
%TD*%
D12*
%TO.P,R20,1*%
%TO.N,CNT_15*%
X46458500Y26289000D03*
%TO.P,R20,2*%
%TO.N,+3V3*%
X48283500Y26289000D03*
%TD*%
%TO.P,R36,1*%
%TO.N,CP_17*%
X35028500Y4572000D03*
%TO.P,R36,2*%
%TO.N,SYSTEM_PWR*%
X36853500Y4572000D03*
%TD*%
D17*
%TO.P,C12,1*%
%TO.N,+3V3*%
X24638000Y46101000D03*
%TO.P,C12,2*%
%TO.N,GND*%
X24638000Y47826000D03*
%TD*%
D40*
%TO.P,Q1,1,E1*%
%TO.N,/RESET_HI*%
X15621000Y48484000D03*
%TO.P,Q1,2,B1*%
%TO.N,CON_RESET*%
X15621000Y49134000D03*
%TO.P,Q1,3,C2*%
%TO.N,GND*%
X15621000Y49784000D03*
%TO.P,Q1,4,E2*%
%TO.N,/RESET_LO*%
X12961000Y49784000D03*
%TO.P,Q1,5,B2*%
%TO.N,CON_RESET*%
X12961000Y49134000D03*
%TO.P,Q1,6,C1*%
%TO.N,SYSTEM_PWR*%
X12961000Y48484000D03*
%TD*%
D23*
%TO.P,C5,1*%
%TO.N,+3V3*%
X24765000Y33221000D03*
%TO.P,C5,2*%
%TO.N,GND*%
X24765000Y31496000D03*
%TD*%
D10*
%TO.P,J12,1,Pin_1*%
%TO.N,Net-(J12-Pad1)*%
X13462000Y7493000D03*
D11*
%TO.P,J12,2,Pin_2*%
%TO.N,SWCLK*%
X10922000Y7493000D03*
%TO.P,J12,3,Pin_3*%
%TO.N,SWD*%
X8382000Y7493000D03*
%TO.P,J12,4,Pin_4*%
%TO.N,GND*%
X5842000Y7493000D03*
%TD*%
D12*
%TO.P,R29,1*%
%TO.N,CNT_13*%
X38838500Y26289000D03*
%TO.P,R29,2*%
%TO.N,+3V3*%
X40663500Y26289000D03*
%TD*%
D23*
%TO.P,C18,1*%
%TO.N,GND*%
X13589000Y27760000D03*
%TO.P,C18,2*%
%TO.N,VBUS*%
X13589000Y26035000D03*
%TD*%
D12*
%TO.P,R30,1*%
%TO.N,CNT_5*%
X38838500Y11684000D03*
%TO.P,R30,2*%
%TO.N,+3V3*%
X40663500Y11684000D03*
%TD*%
D17*
%TO.P,C21,1*%
%TO.N,SYSTEM_PWR*%
X54610000Y31623000D03*
%TO.P,C21,2*%
%TO.N,GND*%
X54610000Y33348000D03*
%TD*%
D12*
%TO.P,R37,1*%
%TO.N,CNT_11*%
X31218500Y26289000D03*
%TO.P,R37,2*%
%TO.N,+3V3*%
X33043500Y26289000D03*
%TD*%
D41*
%TO.P,U3,1,IOVDD*%
%TO.N,+3V3*%
X28849000Y43346500D03*
%TO.P,U3,2,GPIO0*%
%TO.N,DISPLAY_STROBE0*%
X28449000Y43346500D03*
%TO.P,U3,3,GPIO1*%
%TO.N,DISPLAY_STROBE1*%
X28049000Y43346500D03*
%TO.P,U3,4,GPIO2*%
%TO.N,DISPLAY_STROBE2*%
X27649000Y43346500D03*
%TO.P,U3,5,GPIO3*%
%TO.N,DISPLAY_STROBE3*%
X27249000Y43346500D03*
%TO.P,U3,6,GPIO4*%
%TO.N,DISPLAY_SER*%
X26849000Y43346500D03*
%TO.P,U3,7,GPIO5*%
%TO.N,DISPLAY_CLK*%
X26449000Y43346500D03*
%TO.P,U3,8,GPIO6*%
%TO.N,CON_RESET*%
X26049000Y43346500D03*
%TO.P,U3,9,GPIO7*%
%TO.N,ALT_CLK_A*%
X25649000Y43346500D03*
%TO.P,U3,10,IOVDD*%
%TO.N,+3V3*%
X25249000Y43346500D03*
%TO.P,U3,11,GPIO8*%
%TO.N,CNT_0*%
X24849000Y43346500D03*
%TO.P,U3,12,GPIO9*%
%TO.N,CNT_1*%
X24449000Y43346500D03*
%TO.P,U3,13,GPIO10*%
%TO.N,CNT_2*%
X24049000Y43346500D03*
%TO.P,U3,14,GPIO11*%
%TO.N,CNT_3*%
X23649000Y43346500D03*
D42*
%TO.P,U3,15,GPIO12*%
%TO.N,CNT_4*%
X22811500Y42509000D03*
%TO.P,U3,16,GPIO13*%
%TO.N,CNT_5*%
X22811500Y42109000D03*
%TO.P,U3,17,GPIO14*%
%TO.N,CNT_6*%
X22811500Y41709000D03*
%TO.P,U3,18,GPIO15*%
%TO.N,CNT_7*%
X22811500Y41309000D03*
%TO.P,U3,19,TESTEN*%
%TO.N,GND*%
X22811500Y40909000D03*
%TO.P,U3,20,XIN*%
%TO.N,Net-(C13-Pad2)*%
X22811500Y40509000D03*
%TO.P,U3,21,XOUT*%
%TO.N,Net-(R3-Pad2)*%
X22811500Y40109000D03*
%TO.P,U3,22,IOVDD*%
%TO.N,+3V3*%
X22811500Y39709000D03*
%TO.P,U3,23,DVDD*%
%TO.N,+1V1*%
X22811500Y39309000D03*
%TO.P,U3,24,SWCLK*%
%TO.N,SWCLK*%
X22811500Y38909000D03*
%TO.P,U3,25,SWD*%
%TO.N,SWD*%
X22811500Y38509000D03*
%TO.P,U3,26,RUN*%
%TO.N,+3V3*%
X22811500Y38109000D03*
%TO.P,U3,27,GPIO16*%
%TO.N,CNT_8*%
X22811500Y37709000D03*
%TO.P,U3,28,GPIO17*%
%TO.N,CNT_9*%
X22811500Y37309000D03*
D41*
%TO.P,U3,29,GPIO18*%
%TO.N,CNT_10*%
X23649000Y36471500D03*
%TO.P,U3,30,GPIO19*%
%TO.N,CNT_11*%
X24049000Y36471500D03*
%TO.P,U3,31,GPIO20*%
%TO.N,CNT_12*%
X24449000Y36471500D03*
%TO.P,U3,32,GPIO21*%
%TO.N,CNT_13*%
X24849000Y36471500D03*
%TO.P,U3,33,IOVDD*%
%TO.N,+3V3*%
X25249000Y36471500D03*
%TO.P,U3,34,GPIO22*%
%TO.N,CNT_14*%
X25649000Y36471500D03*
%TO.P,U3,35,GPIO23*%
%TO.N,CNT_15*%
X26049000Y36471500D03*
%TO.P,U3,36,GPIO24*%
%TO.N,CNT_16*%
X26449000Y36471500D03*
%TO.P,U3,37,GPIO25*%
%TO.N,CNT_17*%
X26849000Y36471500D03*
%TO.P,U3,38,GPIO26_ADC0*%
%TO.N,CNT_18*%
X27249000Y36471500D03*
%TO.P,U3,39,GPIO27_ADC1*%
%TO.N,CNT_17_DIR*%
X27649000Y36471500D03*
%TO.P,U3,40,GPIO28_ADC2*%
%TO.N,CNT_18_DIR*%
X28049000Y36471500D03*
%TO.P,U3,41,GPIO29_ADC3*%
%TO.N,DETECT*%
X28449000Y36471500D03*
%TO.P,U3,42,IOVDD*%
%TO.N,+3V3*%
X28849000Y36471500D03*
D42*
%TO.P,U3,43,ADC_AVDD*%
X29686500Y37309000D03*
%TO.P,U3,44,VREG_IN*%
X29686500Y37709000D03*
%TO.P,U3,45,VREG_VOUT*%
%TO.N,+1V1*%
X29686500Y38109000D03*
%TO.P,U3,46,USB_DM*%
%TO.N,/RD-*%
X29686500Y38509000D03*
%TO.P,U3,47,USB_DP*%
%TO.N,/RD+*%
X29686500Y38909000D03*
%TO.P,U3,48,USB_VDD*%
%TO.N,+3V3*%
X29686500Y39309000D03*
%TO.P,U3,49,IOVDD*%
X29686500Y39709000D03*
%TO.P,U3,50,DVDD*%
%TO.N,+1V1*%
X29686500Y40109000D03*
%TO.P,U3,51,QSPI_SD3*%
%TO.N,QSPI_IO3*%
X29686500Y40509000D03*
%TO.P,U3,52,QSPI_SCLK*%
%TO.N,QSPI_CLK*%
X29686500Y40909000D03*
%TO.P,U3,53,QSPI_SD0*%
%TO.N,QSPI_IO0*%
X29686500Y41309000D03*
%TO.P,U3,54,QSPI_SD2*%
%TO.N,QSPI_IO2*%
X29686500Y41709000D03*
%TO.P,U3,55,QSPI_SD1*%
%TO.N,QSPI_IO1*%
X29686500Y42109000D03*
%TO.P,U3,56,QSPI_SS*%
%TO.N,~{QSPI_CS}*%
X29686500Y42509000D03*
D43*
%TO.P,U3,57,GND*%
%TO.N,GND*%
X27524000Y38634000D03*
X27524000Y39909000D03*
X27524000Y41184000D03*
D44*
X26249000Y39909000D03*
D43*
X24974000Y38634000D03*
X26249000Y39909000D03*
X24974000Y39909000D03*
X24974000Y41184000D03*
X26249000Y38634000D03*
X26249000Y41184000D03*
%TD*%
D16*
%TO.P,Q14,1,G*%
%TO.N,+3V3*%
X36891000Y24209000D03*
%TO.P,Q14,2,S*%
%TO.N,CNT_12*%
X34991000Y24209000D03*
%TO.P,Q14,3,D*%
%TO.N,CP_14*%
X35941000Y21209000D03*
%TD*%
D12*
%TO.P,R44,1*%
%TO.N,CP_25*%
X27408500Y4572000D03*
%TO.P,R44,2*%
%TO.N,SYSTEM_PWR*%
X29233500Y4572000D03*
%TD*%
D16*
%TO.P,Q11,1,G*%
%TO.N,+3V3*%
X44511000Y9604000D03*
%TO.P,Q11,2,S*%
%TO.N,CNT_6*%
X42611000Y9604000D03*
%TO.P,Q11,3,D*%
%TO.N,CP_16*%
X43561000Y6604000D03*
%TD*%
D12*
%TO.P,R33,1*%
%TO.N,CNT_12*%
X35028500Y26289000D03*
%TO.P,R33,2*%
%TO.N,+3V3*%
X36853500Y26289000D03*
%TD*%
D45*
%TO.N,+3V3*%
X40701000Y22794000D03*
X36891000Y22794000D03*
X40701000Y8189000D03*
X33081000Y8189000D03*
X33081000Y22794000D03*
X29271000Y8189000D03*
X16637000Y27051000D03*
X56896000Y24892000D03*
X48321000Y22794000D03*
X29271000Y22794000D03*
X37719000Y38989000D03*
X25461000Y22794000D03*
X48321000Y8189000D03*
X21651000Y8189000D03*
X44831000Y38989000D03*
X52131000Y8189000D03*
X44511000Y8189000D03*
X25461000Y8189000D03*
X52131000Y22794000D03*
X36891000Y8189000D03*
X44511000Y22794000D03*
%TO.N,GND*%
X35560000Y35560000D03*
X33020000Y52451000D03*
X10160000Y20447000D03*
X49403000Y51634000D03*
X20574000Y35560000D03*
X43589000Y43614000D03*
X29591000Y31877000D03*
X48768000Y34417000D03*
X24638000Y49149000D03*
X53266000Y33348000D03*
X10414000Y39116000D03*
X14478000Y15621000D03*
X60351500Y41275000D03*
X24765000Y30173000D03*
X35560000Y34036000D03*
X35560000Y32512000D03*
X38989000Y50165000D03*
X55118000Y45339000D03*
X13589000Y29083000D03*
X17399000Y45847000D03*
X37719000Y40259000D03*
X37719000Y41783000D03*
X17145000Y49784000D03*
X29972000Y49530000D03*
X10414000Y41529000D03*
X51308000Y34417000D03*
X12827000Y15621000D03*
%TO.N,+1V1*%
X24166234Y39285163D03*
X20701000Y37338000D03*
X33401000Y41783000D03*
X28328716Y39262600D03*
%TO.N,VBUS*%
X63372001Y47844000D03*
X63372000Y52742616D03*
X17272000Y4826000D03*
%TO.N,/RESET_HI*%
X14321000Y48484000D03*
%TO.N,CNT_0*%
X17780000Y29083000D03*
X21971000Y45974000D03*
%TO.N,CNT_1*%
X22225000Y45085000D03*
X18161000Y29845000D03*
%TO.N,CNT_2*%
X18542000Y30607000D03*
X21971000Y44323000D03*
%TO.N,CNT_3*%
X20158738Y44923738D03*
X18923000Y31369000D03*
%TO.N,CNT_4*%
X19685000Y44182296D03*
X19304000Y32131000D03*
%TO.N,CNT_5*%
X19685000Y32893000D03*
X20066000Y43307000D03*
%TO.N,CNT_6*%
X20066000Y33655000D03*
X19652981Y42004981D03*
%TO.N,CNT_7*%
X20447000Y34417000D03*
X20574000Y42037000D03*
%TO.N,ALT_CLK_A*%
X10160000Y34798000D03*
X8231500Y34774500D03*
%TO.N,DETECT*%
X39545000Y32972000D03*
X44450000Y33401000D03*
%TO.N,SWCLK*%
X16383000Y15875000D03*
X21717000Y15875000D03*
%TO.N,SWD*%
X22606000Y15621000D03*
X15748000Y16510000D03*
%TO.N,CNT_17_DIR*%
X45847000Y30734000D03*
X52578000Y30734000D03*
%TO.N,CNT_18_DIR*%
X41275000Y30988000D03*
X50038000Y30480000D03*
%TO.N,SYSTEM_PWR*%
X52578000Y20447000D03*
X48768000Y5842000D03*
X52578000Y5842000D03*
X44958000Y5842000D03*
X33528000Y20447000D03*
X41148000Y20447000D03*
X41148000Y5842000D03*
X45212000Y33020000D03*
X44958000Y20447000D03*
X50026000Y31635000D03*
X29718000Y20447000D03*
X17526000Y23368000D03*
X25908000Y20447000D03*
X48768000Y20447000D03*
X29718000Y5842000D03*
X25908000Y5842000D03*
X53225000Y31635000D03*
X33528000Y5842000D03*
X57658000Y6604000D03*
X22098000Y5842000D03*
X37338000Y20447000D03*
X37338000Y5842000D03*
%TO.N,DISPLAY_SER*%
X-1270000Y58166000D03*
%TO.N,CP_21*%
X56661499Y22625499D03*
%TD*%
D46*
%TO.N,+3V3*%
X40701000Y11646500D02*
X40701000Y9604000D01*
X36830000Y50165000D02*
X38989000Y52324000D01*
X44511000Y26251500D02*
X44511000Y24209000D01*
X53909000Y22794000D02*
X56007000Y24892000D01*
X21651000Y11646500D02*
X21651000Y9604000D01*
X10094000Y33109500D02*
X10056500Y33147000D01*
X29686500Y37309000D02*
X28858000Y37309000D01*
X29630500Y43346500D02*
X28849000Y43346500D01*
X28849000Y37300000D02*
X28858000Y37309000D01*
X56007000Y24892000D02*
X56896000Y24892000D01*
X25461000Y11646500D02*
X25461000Y9604000D01*
X20320000Y38100000D02*
X19531500Y38100000D01*
X29271000Y11646500D02*
X29271000Y9604000D01*
X25461000Y9604000D02*
X25461000Y8189000D01*
D47*
X34671000Y40259000D02*
X35941000Y38989000D01*
D46*
X40701000Y26251500D02*
X40701000Y24209000D01*
X16637000Y27051000D02*
X16637000Y27940000D01*
X29271000Y26251500D02*
X29271000Y24209000D01*
X49268000Y33135000D02*
X49268000Y33901000D01*
X44511000Y24209000D02*
X44511000Y22794000D01*
X21929000Y39709000D02*
X20320000Y38100000D01*
X33081000Y24209000D02*
X33081000Y22794000D01*
X48321000Y11646500D02*
X48321000Y9604000D01*
X21651000Y8189000D02*
X19116000Y8189000D01*
X36891000Y9604000D02*
X36891000Y8189000D01*
D47*
X61087000Y29378000D02*
X51426000Y39039000D01*
D46*
X17907000Y21717000D02*
X16637000Y22987000D01*
X44473500Y26543000D02*
X44511000Y26505500D01*
X16637000Y27940000D02*
X11430000Y33147000D01*
X21651000Y9604000D02*
X21651000Y8189000D01*
X33043500Y26543000D02*
X33081000Y26505500D01*
X52131000Y22794000D02*
X53909000Y22794000D01*
X40701000Y24209000D02*
X40701000Y22794000D01*
X52093500Y26543000D02*
X52131000Y26505500D01*
X29271000Y9604000D02*
X29271000Y8189000D01*
X16637000Y22987000D02*
X16637000Y27051000D01*
X47374000Y39039000D02*
X49403000Y39039000D01*
X29686500Y39709000D02*
X28914000Y39709000D01*
X29972000Y43688000D02*
X29630500Y43346500D01*
X30734000Y36957000D02*
X30734000Y34316500D01*
X38989000Y46990000D02*
X36830000Y46990000D01*
X11430000Y33147000D02*
X10056500Y33147000D01*
X36891000Y24209000D02*
X36891000Y22794000D01*
X31115000Y37084000D02*
X31115000Y35459500D01*
X30490000Y37709000D02*
X31115000Y37084000D01*
X25423500Y26543000D02*
X25461000Y26505500D01*
X48321000Y26251500D02*
X48321000Y24209000D01*
X48283500Y26543000D02*
X48321000Y26505500D01*
D47*
X51426000Y39039000D02*
X49403000Y39039000D01*
D46*
X25249000Y36471500D02*
X25249000Y37314000D01*
X17907000Y9398000D02*
X17907000Y21717000D01*
X10094000Y31067000D02*
X10094000Y33109500D01*
X40701000Y9604000D02*
X40701000Y8189000D01*
X24765000Y34163000D02*
X25249000Y34647000D01*
X25249000Y45490000D02*
X24638000Y46101000D01*
X25249000Y43346500D02*
X25249000Y45490000D01*
X42879000Y34544000D02*
X40640000Y34544000D01*
X36891000Y11646500D02*
X36891000Y9604000D01*
X40640000Y34544000D02*
X40066000Y33970000D01*
X28849000Y35667000D02*
X29591000Y34925000D01*
X51808000Y33901000D02*
X52197000Y34290000D01*
X25249000Y36471500D02*
X25249000Y34647000D01*
X29271000Y24209000D02*
X29271000Y22794000D01*
X29686500Y37709000D02*
X30490000Y37709000D01*
X48321000Y9604000D02*
X48321000Y8189000D01*
X30382000Y37309000D02*
X30734000Y36957000D01*
X25461000Y24209000D02*
X25461000Y22794000D01*
X36891000Y26251500D02*
X36891000Y24209000D01*
X22811500Y39709000D02*
X21929000Y39709000D01*
X52131000Y11646500D02*
X52131000Y9604000D01*
X25249000Y43346500D02*
X25249000Y42569000D01*
X49268000Y33901000D02*
X49657000Y34290000D01*
X40663500Y26543000D02*
X40701000Y26505500D01*
X38989000Y40259000D02*
X37719000Y38989000D01*
D47*
X35941000Y38989000D02*
X37719000Y38989000D01*
D46*
X49657000Y34290000D02*
X49657000Y36195000D01*
X29686500Y39309000D02*
X28890000Y39309000D01*
X44511000Y9604000D02*
X44511000Y8189000D01*
X28849000Y36471500D02*
X28849000Y35667000D01*
X29686500Y37309000D02*
X30382000Y37309000D01*
X51808000Y33135000D02*
X51808000Y33901000D01*
X33081000Y26251500D02*
X33081000Y24209000D01*
X52131000Y26251500D02*
X52131000Y24209000D01*
X52131000Y9604000D02*
X52131000Y8189000D01*
X22811500Y39709000D02*
X23453000Y39709000D01*
X48321000Y24209000D02*
X48321000Y22794000D01*
X29686500Y37709000D02*
X28946000Y37709000D01*
X38989000Y46990000D02*
X38989000Y40259000D01*
X19116000Y8189000D02*
X17907000Y9398000D01*
X29233500Y26543000D02*
X29271000Y26505500D01*
X33081000Y11646500D02*
X33081000Y9604000D01*
X23453000Y39709000D02*
X23622000Y39878000D01*
X28858000Y37309000D02*
X28702000Y37465000D01*
X25461000Y26251500D02*
X25461000Y24209000D01*
X28849000Y43346500D02*
X28849000Y42438000D01*
X44511000Y11646500D02*
X44511000Y9604000D01*
X36830000Y46990000D02*
X36830000Y50165000D01*
X22811500Y38109000D02*
X23740000Y38109000D01*
X28946000Y37709000D02*
X28702000Y37465000D01*
X28849000Y36471500D02*
X28849000Y37300000D01*
X52197000Y34290000D02*
X52197000Y36195000D01*
X42879000Y34544000D02*
X47374000Y39039000D01*
X36853500Y26543000D02*
X36891000Y26505500D01*
X24765000Y33221000D02*
X24765000Y34163000D01*
X30734000Y34316500D02*
X32538500Y32512000D01*
X29972000Y43688000D02*
X29972000Y46482000D01*
X31115000Y35459500D02*
X32538500Y34036000D01*
X52131000Y24209000D02*
X52131000Y22794000D01*
X33081000Y9604000D02*
X33081000Y8189000D01*
%TO.N,GND*%
X14478000Y16917500D02*
X14478000Y15621000D01*
X36396000Y40259000D02*
X37719000Y40259000D01*
X48768000Y33135000D02*
X48768000Y34417000D01*
X51703000Y45339000D02*
X53975000Y45339000D01*
X51308000Y33135000D02*
X51308000Y34417000D01*
X13589000Y27760000D02*
X13589000Y29083000D01*
X34263500Y32512000D02*
X35560000Y32512000D01*
X36396000Y41783000D02*
X37719000Y41783000D01*
X53975000Y45339000D02*
X55118000Y45339000D01*
D48*
X64882000Y46889000D02*
X65797000Y45974000D01*
D46*
X65797000Y45974000D02*
X65797000Y44633999D01*
X34263500Y34036000D02*
X35560000Y34036000D01*
X34263500Y35560000D02*
X35560000Y35560000D01*
X22811500Y40909000D02*
X21702000Y40909000D01*
X65797000Y44633999D02*
X66258000Y44172999D01*
X10414000Y37793000D02*
X10414000Y39116000D01*
D48*
X64882000Y53699000D02*
X65797000Y54614000D01*
D46*
X65797000Y55903999D02*
X66258000Y56364999D01*
X18923000Y41275000D02*
X17399000Y42799000D01*
X24638000Y47826000D02*
X24638000Y49149000D01*
X21336000Y41275000D02*
X18923000Y41275000D01*
X61648000Y41275000D02*
X60351500Y41275000D01*
X8636000Y20447000D02*
X10160000Y20447000D01*
X10414000Y42852000D02*
X10414000Y41529000D01*
X12827000Y16844000D02*
X12827000Y15621000D01*
X17399000Y42799000D02*
X17399000Y45847000D01*
X24765000Y31496000D02*
X24765000Y30173000D01*
X44831000Y43614000D02*
X43589000Y43614000D01*
X18822500Y35560000D02*
X17806500Y36576000D01*
X54610000Y33348000D02*
X53266000Y33348000D01*
X29591000Y33200000D02*
X29591000Y31877000D01*
X15621000Y49784000D02*
X17145000Y49784000D01*
X65797000Y54614000D02*
X65797000Y55903999D01*
X17806500Y38100000D02*
X17806500Y36576000D01*
X53426000Y51634000D02*
X49403000Y51634000D01*
X49403000Y51634000D02*
X45466000Y51634000D01*
X20574000Y35560000D02*
X18822500Y35560000D01*
X33020000Y54190000D02*
X33020000Y52451000D01*
X38989000Y48715000D02*
X38989000Y50165000D01*
X21702000Y40909000D02*
X21336000Y41275000D01*
X29972000Y48207000D02*
X29972000Y49530000D01*
%TO.N,+1V1*%
X31496000Y37338000D02*
X31496000Y36602500D01*
X20701000Y36830000D02*
X20447000Y36576000D01*
X20447000Y36576000D02*
X19531500Y36576000D01*
X33401000Y41783000D02*
X34671000Y41783000D01*
X30725000Y38109000D02*
X31496000Y37338000D01*
X32766000Y41783000D02*
X33401000Y41783000D01*
X31496000Y36602500D02*
X32538500Y35560000D01*
X29686500Y38109000D02*
X28838000Y38109000D01*
X29686500Y38109000D02*
X30725000Y38109000D01*
X29686500Y40109000D02*
X31092000Y40109000D01*
X22811500Y39309000D02*
X22023296Y39309000D01*
X31092000Y40109000D02*
X32766000Y41783000D01*
X20701000Y37986704D02*
X20701000Y37338000D01*
X22023296Y39309000D02*
X20701000Y37986704D01*
X20701000Y37338000D02*
X20701000Y36830000D01*
D47*
%TO.N,VBUS*%
X63372001Y47844000D02*
X63372001Y41275999D01*
X66040000Y38608000D02*
X66040000Y30771000D01*
D49*
X69078000Y4601000D02*
X69078000Y22907000D01*
X69078000Y22907000D02*
X63627000Y28358000D01*
X13586000Y24257000D02*
X14224000Y24257000D01*
D47*
X63373000Y41275000D02*
X66040000Y38608000D01*
D49*
X13589000Y26035000D02*
X13589000Y24260000D01*
D47*
X64881999Y52742616D02*
X63372000Y52742616D01*
D49*
X62972500Y-1504500D02*
X69078000Y4601000D01*
X11557000Y26035000D02*
X13589000Y26035000D01*
D47*
X63372001Y47844000D02*
X47971000Y47844000D01*
X63372001Y41275999D02*
X63373000Y41275000D01*
X47971000Y47844000D02*
X47103000Y46976000D01*
D49*
X17272000Y2667000D02*
X21443500Y-1504500D01*
D47*
X47103000Y46976000D02*
X47103000Y45339000D01*
D49*
X17272000Y21209000D02*
X17272000Y4826000D01*
X21443500Y-1504500D02*
X62972500Y-1504500D01*
X17272000Y4826000D02*
X17272000Y2667000D01*
D47*
X66040000Y30771000D02*
X63627000Y28358000D01*
X47103000Y45339000D02*
X44831000Y45339000D01*
D49*
X14224000Y24257000D02*
X17272000Y21209000D01*
D46*
X13589000Y24260000D02*
X13586000Y24257000D01*
D47*
X64882000Y47844000D02*
X63372001Y47844000D01*
D46*
%TO.N,Net-(C13-Pad2)*%
X14990000Y40509000D02*
X17403000Y40509000D01*
X14224000Y44577000D02*
X14224000Y41275000D01*
X17788000Y40894000D02*
X21209000Y40894000D01*
X21209000Y40894000D02*
X21594000Y40509000D01*
X17403000Y40509000D02*
X17788000Y40894000D01*
X21594000Y40509000D02*
X22811500Y40509000D01*
X14224000Y41275000D02*
X14990000Y40509000D01*
X10414000Y44577000D02*
X14224000Y44577000D01*
%TO.N,Net-(C14-Pad2)*%
X14224000Y36077000D02*
X14224000Y39370000D01*
X10423000Y36077000D02*
X14224000Y36077000D01*
X17422000Y40109000D02*
X17780000Y39751000D01*
X14224000Y39370000D02*
X14963000Y40109000D01*
X10414000Y36068000D02*
X10423000Y36077000D01*
X17780000Y39751000D02*
X18542000Y39751000D01*
X14963000Y40109000D02*
X17422000Y40109000D01*
D50*
%TO.N,/CVIN*%
X4318000Y28575000D02*
X4318000Y33401000D01*
X4318000Y21075000D02*
X4318000Y19431000D01*
X4318000Y19431000D02*
X7620000Y16129000D01*
X4318000Y21075000D02*
X4318000Y28575000D01*
X4318000Y33401000D02*
X4318000Y40901000D01*
X9398000Y18796000D02*
X9398000Y17907000D01*
X9398000Y17907000D02*
X7620000Y16129000D01*
D46*
%TO.N,OEOUT*%
X7620000Y11049000D02*
X11811000Y15240000D01*
X11811000Y15240000D02*
X11811000Y22606000D01*
X13586000Y22987000D02*
X12192000Y22987000D01*
X11811000Y22606000D02*
X12192000Y22987000D01*
%TO.N,/RESET_HI*%
X15621000Y48484000D02*
X14321000Y48484000D01*
%TO.N,/RESET_LO*%
X12961000Y49784000D02*
X8890000Y49784000D01*
X8890000Y49784000D02*
X7493000Y48387000D01*
%TO.N,CON_RESET*%
X19604264Y50768519D02*
X17969745Y49134000D01*
X26049000Y43346500D02*
X26049000Y49402704D01*
X17969745Y49134000D02*
X15621000Y49134000D01*
X15621000Y49134000D02*
X12961000Y49134000D01*
X24683185Y50768519D02*
X19604264Y50768519D01*
X26049000Y49402704D02*
X24683185Y50768519D01*
%TO.N,~{QSPI_CS}*%
X38989000Y56134000D02*
X38989000Y54149000D01*
X30923960Y43074848D02*
X30923962Y55534554D01*
X30923962Y55534554D02*
X31841447Y56452039D01*
X36830000Y55880000D02*
X36830000Y54190000D01*
X31841447Y56452039D02*
X36257961Y56452039D01*
X30358112Y42509000D02*
X30923960Y43074848D01*
X29686500Y42509000D02*
X30358112Y42509000D01*
X36257961Y56452039D02*
X36830000Y55880000D01*
X38948000Y54190000D02*
X38989000Y54149000D01*
X36830000Y54190000D02*
X38948000Y54190000D01*
%TO.N,QSPI_IO1*%
X30452408Y42109000D02*
X31273480Y42930072D01*
X31273481Y55389777D02*
X31986225Y56102520D01*
X35083480Y56102520D02*
X35560000Y55626000D01*
X35560000Y55626000D02*
X35560000Y54190000D01*
X29686500Y42109000D02*
X30452408Y42109000D01*
X31986225Y56102520D02*
X35083480Y56102520D01*
X31273480Y42930072D02*
X31273481Y55389777D01*
%TO.N,QSPI_IO2*%
X30546704Y41709000D02*
X31623000Y42785296D01*
X31623000Y42785296D02*
X31623000Y55245000D01*
X33909000Y55753000D02*
X34290000Y55372000D01*
X32131000Y55753000D02*
X33909000Y55753000D01*
X29686500Y41709000D02*
X30546704Y41709000D01*
X31623000Y55245000D02*
X32131000Y55753000D01*
X34290000Y55372000D02*
X34290000Y54190000D01*
%TO.N,QSPI_IO0*%
X30641000Y41309000D02*
X33020000Y43688000D01*
X33020000Y43688000D02*
X33020000Y46990000D01*
X29686500Y41309000D02*
X30641000Y41309000D01*
%TO.N,QSPI_CLK*%
X32766000Y42939705D02*
X32779705Y42939705D01*
X29686500Y40909000D02*
X30735295Y40909000D01*
X32779705Y42939705D02*
X34290000Y44450000D01*
X30735295Y40909000D02*
X32766000Y42939705D01*
X34290000Y44450000D02*
X34290000Y46990000D01*
%TO.N,QSPI_IO3*%
X30843295Y40509000D02*
X35560000Y45225705D01*
X35560000Y45225705D02*
X35560000Y46990000D01*
X29686500Y40509000D02*
X30843295Y40509000D01*
%TO.N,ALT_CLK_B*%
X8636000Y21717000D02*
X10414000Y21717000D01*
X11049000Y22352000D02*
X11049000Y24718000D01*
X11049000Y21082000D02*
X11049000Y17018000D01*
X11049000Y24718000D02*
X9732000Y26035000D01*
X10414000Y21717000D02*
X11049000Y22352000D01*
X10414000Y21717000D02*
X11049000Y21082000D01*
X9144000Y26623000D02*
X9732000Y26035000D01*
X9144000Y28067000D02*
X9144000Y26623000D01*
X11049000Y17018000D02*
X7620000Y13589000D01*
%TO.N,CNT_0*%
X18454351Y28408649D02*
X17780000Y29083000D01*
X18454351Y14661579D02*
X18454351Y28408649D01*
X24038552Y45022039D02*
X23303961Y45022039D01*
X19751000Y9604000D02*
X19751000Y11646500D01*
X22352000Y45974000D02*
X21971000Y45974000D01*
X19788500Y11684000D02*
X19788500Y13327430D01*
X24849000Y43346500D02*
X24849000Y44211591D01*
X19788500Y13327430D02*
X18454351Y14661579D01*
X24849000Y44211591D02*
X24038552Y45022039D01*
X23303961Y45022039D02*
X22352000Y45974000D01*
%TO.N,CNT_1*%
X24449000Y44117295D02*
X23893775Y44672520D01*
X23893775Y44672520D02*
X22637480Y44672520D01*
X18803871Y14806354D02*
X20819022Y12791206D01*
X24449000Y43346500D02*
X24449000Y44117295D01*
X20819022Y12791206D02*
X22491294Y12791206D01*
X23561000Y9604000D02*
X23561000Y11646500D01*
X22637480Y44672520D02*
X22225000Y45085000D01*
X18803871Y29202129D02*
X18803871Y14806354D01*
X18161000Y29845000D02*
X18803871Y29202129D01*
X22491294Y12791206D02*
X23598500Y11684000D01*
%TO.N,CNT_2*%
X27371000Y9604000D02*
X27371000Y11646500D01*
X19153393Y14951127D02*
X20963797Y13140726D01*
X18542000Y30607000D02*
X19153391Y29995609D01*
X24049000Y43346500D02*
X24049000Y44023000D01*
X19153391Y21336000D02*
X19153393Y14951127D01*
X25951774Y13140726D02*
X27408500Y11684000D01*
X20963797Y13140726D02*
X25951774Y13140726D01*
X19153391Y29995609D02*
X19153391Y21336000D01*
X23749000Y44323000D02*
X21971000Y44323000D01*
X24049000Y44023000D02*
X23749000Y44323000D01*
%TO.N,CNT_3*%
X19502911Y30789089D02*
X19502912Y15095904D01*
X19502912Y15095904D02*
X21108572Y13490246D01*
X21108572Y13490246D02*
X29412254Y13490246D01*
X29412254Y13490246D02*
X31218500Y11684000D01*
X21735977Y43346500D02*
X20158738Y44923738D01*
X20158738Y44923738D02*
X20124477Y44958000D01*
X18923000Y31369000D02*
X19502911Y30789089D01*
X31181000Y9604000D02*
X31181000Y11646500D01*
X23649000Y43346500D02*
X21735977Y43346500D01*
%TO.N,CNT_4*%
X19852431Y31582569D02*
X19852431Y15240681D01*
X19685000Y44182296D02*
X20405885Y44182296D01*
X21253347Y13839766D02*
X32872734Y13839766D01*
X19304000Y32131000D02*
X19852431Y31582569D01*
X20405885Y44182296D02*
X22079181Y42509000D01*
X34991000Y9604000D02*
X34991000Y11646500D01*
X19852431Y15240681D02*
X21253347Y13839766D01*
X32872734Y13839766D02*
X35028500Y11684000D01*
X22079181Y42509000D02*
X22811500Y42509000D01*
%TO.N,CNT_5*%
X19685000Y32893000D02*
X20201951Y32376049D01*
X21984885Y42109000D02*
X22811500Y42109000D01*
X20201951Y32376049D02*
X20201951Y19812000D01*
X20066000Y43307000D02*
X20786885Y43307000D01*
X20201951Y19812000D02*
X20201953Y15385455D01*
X38801000Y9604000D02*
X38801000Y11646500D01*
X20201953Y15385455D02*
X21398122Y14189286D01*
X21398122Y14189286D02*
X36333214Y14189286D01*
X20786885Y43307000D02*
X21984885Y42109000D01*
X36333214Y14189286D02*
X38838500Y11684000D01*
%TO.N,CNT_6*%
X20066000Y33655000D02*
X20551471Y33169529D01*
X20927590Y42672000D02*
X20320000Y42672000D01*
X20551471Y33169529D02*
X20551472Y15530232D01*
X42611000Y9604000D02*
X42611000Y11646500D01*
X39793695Y14538805D02*
X42648500Y11684000D01*
X20927590Y42672000D02*
X21890590Y41709000D01*
X21890590Y41709000D02*
X22811500Y41709000D01*
X21542900Y14538805D02*
X39793695Y14538805D01*
X20551472Y15530232D02*
X21542900Y14538805D01*
X20320000Y42672000D02*
X19652981Y42004981D01*
%TO.N,CNT_7*%
X21796296Y41309000D02*
X22811500Y41309000D01*
X20447000Y34417000D02*
X20900991Y33963009D01*
X21068295Y42037000D02*
X21796296Y41309000D01*
X20701000Y42037000D02*
X21068295Y42037000D01*
X20900991Y33963009D02*
X20900991Y15675009D01*
X43254175Y14888325D02*
X46458500Y11684000D01*
X20574000Y42037000D02*
X20701000Y42037000D01*
X21687675Y14888325D02*
X43254175Y14888325D01*
X20900991Y15675009D02*
X21687675Y14888325D01*
X46421000Y9604000D02*
X46421000Y11646500D01*
%TO.N,CNT_8*%
X46714655Y15237845D02*
X50268500Y11684000D01*
X50231000Y9604000D02*
X50231000Y11646500D01*
X22342000Y37709000D02*
X22001401Y37368401D01*
X22001401Y37368401D02*
X22001401Y17110289D01*
X22001401Y17110289D02*
X23873845Y15237845D01*
X23873845Y15237845D02*
X46714655Y15237845D01*
X22811500Y37709000D02*
X22342000Y37709000D01*
%TO.N,CNT_9*%
X22811500Y37309000D02*
X22811500Y34835387D01*
X22811500Y34835387D02*
X22350920Y34374805D01*
X23598500Y26289000D02*
X23598500Y27891318D01*
X23561000Y24209000D02*
X23561000Y26251500D01*
X22350920Y34374805D02*
X22350920Y29211080D01*
X23598500Y27891318D02*
X22350920Y29138898D01*
X22350920Y29138898D02*
X22350920Y29211080D01*
X23561000Y26505500D02*
X23598500Y26543000D01*
%TO.N,CNT_10*%
X24713832Y27270282D02*
X26427218Y27270282D01*
X27408500Y26543000D02*
X27408500Y26566500D01*
X23649000Y36471500D02*
X23649000Y35178592D01*
X23649000Y35178592D02*
X22700440Y34230030D01*
X26427218Y27270282D02*
X27408500Y26289000D01*
X22700440Y29283674D02*
X24713832Y27270282D01*
X27371000Y26505500D02*
X27408500Y26543000D01*
X27371000Y24209000D02*
X27371000Y26251500D01*
X22700440Y34230030D02*
X22700440Y29283674D01*
%TO.N,CNT_11*%
X24049000Y36471500D02*
X24049000Y35084296D01*
X23049962Y29428446D02*
X24858607Y27619802D01*
X31181000Y24209000D02*
X31181000Y26251500D01*
X29887698Y27619802D02*
X31218500Y26289000D01*
X23049960Y34085255D02*
X23049960Y29907960D01*
X23049960Y29907960D02*
X23049962Y29428446D01*
X24858607Y27619802D02*
X29887698Y27619802D01*
X31181000Y26505500D02*
X31218500Y26543000D01*
X24049000Y35084296D02*
X23049960Y34085255D01*
%TO.N,CNT_12*%
X34991000Y24209000D02*
X34991000Y26251500D01*
X33348178Y27969322D02*
X35028500Y26289000D01*
X25003382Y27969322D02*
X33348178Y27969322D01*
X23399481Y29573223D02*
X25003382Y27969322D01*
X24449000Y36471500D02*
X24449000Y34990000D01*
X34991000Y26505500D02*
X35028500Y26543000D01*
X23399480Y33940480D02*
X23399481Y29573223D01*
X24449000Y34990000D02*
X23399480Y33940480D01*
%TO.N,/D+*%
X63626999Y50803999D02*
X63626999Y50044000D01*
X63867000Y51044000D02*
X63626999Y50803999D01*
X41304000Y40987200D02*
X41304000Y46702200D01*
X64882000Y51044000D02*
X63867000Y51044000D01*
X38387801Y38071001D02*
X41304000Y40987200D01*
X44645800Y50044000D02*
X63626999Y50044000D01*
X34337000Y38608000D02*
X34873999Y38071001D01*
X41304000Y46702200D02*
X44645800Y50044000D01*
X34873999Y38071001D02*
X38387801Y38071001D01*
X63626999Y50044000D02*
X64882000Y50044000D01*
%TO.N,/D-*%
X41754000Y40800800D02*
X38574199Y37620999D01*
X44782200Y49544000D02*
X41754000Y46515800D01*
X66305000Y50325768D02*
X66086768Y50544000D01*
X66086768Y50544000D02*
X64882000Y50544000D01*
X66305000Y49760999D02*
X66305000Y50325768D01*
X64882000Y49544000D02*
X66088001Y49544000D01*
X41754000Y46515800D02*
X41754000Y40800800D01*
X34873999Y37620999D02*
X34337000Y37084000D01*
X66088001Y49544000D02*
X66305000Y49760999D01*
X64882000Y49544000D02*
X44782200Y49544000D01*
X38574199Y37620999D02*
X34873999Y37620999D01*
%TO.N,/RD-*%
X29686500Y38509000D02*
X30960000Y38509000D01*
X32385000Y37084000D02*
X30960000Y38509000D01*
X32512000Y37084000D02*
X32385000Y37084000D01*
%TO.N,/RD+*%
X31068000Y38909000D02*
X31369000Y38608000D01*
X29686500Y38909000D02*
X31068000Y38909000D01*
X31369000Y38608000D02*
X32512000Y38608000D01*
%TO.N,CNT_13*%
X36808659Y28318841D02*
X38838500Y26289000D01*
X25148159Y28318841D02*
X36808659Y28318841D01*
X24849000Y36471500D02*
X24849000Y34882000D01*
X24849000Y34882000D02*
X23749000Y33782000D01*
X38801000Y24209000D02*
X38801000Y26251500D01*
X23749000Y33782000D02*
X23749000Y29718000D01*
X38801000Y26505500D02*
X38838500Y26543000D01*
X23749000Y29718000D02*
X25148159Y28318841D01*
%TO.N,CNT_14*%
X25649000Y31215929D02*
X28196570Y28668361D01*
X40269139Y28668361D02*
X42648500Y26289000D01*
X28196570Y28668361D02*
X40269139Y28668361D01*
X25649000Y36471500D02*
X25649000Y31215929D01*
X42611000Y26505500D02*
X42648500Y26543000D01*
X42611000Y24209000D02*
X42611000Y26251500D01*
%TO.N,CNT_15*%
X46421000Y26505500D02*
X46458500Y26543000D01*
X46421000Y24209000D02*
X46421000Y26251500D01*
X43729619Y29017881D02*
X46458500Y26289000D01*
X26049000Y31310224D02*
X28341345Y29017881D01*
X28341345Y29017881D02*
X43729619Y29017881D01*
X26049000Y36471500D02*
X26049000Y31310224D01*
%TO.N,CNT_16*%
X28486120Y29367401D02*
X47190099Y29367401D01*
X50231000Y26505500D02*
X50268500Y26543000D01*
X26449000Y36471500D02*
X26449000Y31404520D01*
X50231000Y24209000D02*
X50231000Y26251500D01*
X47190099Y29367401D02*
X50268500Y26289000D01*
X26449000Y31404520D02*
X28486120Y29367401D01*
%TO.N,ALT_CLK_A*%
X16859520Y47529480D02*
X10304776Y47529480D01*
X24538408Y50419000D02*
X19749040Y50419000D01*
X9493520Y35083480D02*
X9779000Y34798000D01*
X8194000Y33109500D02*
X8231500Y33147000D01*
X25649000Y43346500D02*
X25649000Y49308408D01*
X9779000Y34798000D02*
X10160000Y34798000D01*
X10304776Y47529480D02*
X9493520Y46718224D01*
X9493520Y46718224D02*
X9493520Y35083480D01*
X8194000Y31067000D02*
X8194000Y33109500D01*
X25649000Y49308408D02*
X24538408Y50419000D01*
X19749040Y50419000D02*
X16859520Y47529480D01*
X8231500Y33147000D02*
X8231500Y34774500D01*
%TO.N,DETECT*%
X39521000Y31393000D02*
X39521000Y32070000D01*
X29210000Y31115000D02*
X39243000Y31115000D01*
X39243000Y31115000D02*
X39521000Y31393000D01*
X29210000Y31115000D02*
X28449000Y31876000D01*
X28449000Y31876000D02*
X28449000Y36471500D01*
X44704000Y34544000D02*
X44704000Y33655000D01*
X39545000Y32070000D02*
X39545000Y32972000D01*
X44704000Y33655000D02*
X44450000Y33401000D01*
%TO.N,SWCLK*%
X16383000Y14986000D02*
X10922000Y9525000D01*
X21250511Y16341489D02*
X21717000Y15875000D01*
X22117592Y38909000D02*
X21250511Y38041919D01*
X22811500Y38909000D02*
X22117592Y38909000D01*
X10922000Y9525000D02*
X10922000Y7493000D01*
X21250511Y38041919D02*
X21250511Y16341489D01*
X16383000Y15875000D02*
X16383000Y14986000D01*
%TO.N,SWD*%
X22811500Y38509000D02*
X22211888Y38509000D01*
X22211888Y38509000D02*
X21600031Y37897143D01*
X15748000Y14859000D02*
X8382000Y7493000D01*
X21600031Y17007969D02*
X22606000Y16002000D01*
X15748000Y16510000D02*
X15748000Y14859000D01*
X22606000Y16002000D02*
X22606000Y15621000D01*
X21600031Y37897143D02*
X21600031Y17007969D01*
D50*
%TO.N,Net-(C17-Pad1)*%
X8636000Y22987000D02*
X7947481Y22987000D01*
X7112000Y22151519D02*
X7112000Y19357000D01*
X7947481Y22987000D02*
X7112000Y22151519D01*
X7112000Y19357000D02*
X7673000Y18796000D01*
D46*
%TO.N,Net-(C19-Pad2)*%
X15367000Y21336000D02*
X15367000Y19531500D01*
X15367000Y19531500D02*
X14478000Y18642500D01*
X13586000Y21717000D02*
X14986000Y21717000D01*
X14478000Y18642500D02*
X12853500Y18642500D01*
X14986000Y21717000D02*
X15367000Y21336000D01*
X13234500Y18642500D02*
X13208000Y18669000D01*
%TO.N,Net-(J7-PadA5)*%
X68083000Y44172999D02*
X68083000Y48401371D01*
X67440371Y49044000D02*
X64882000Y49044000D01*
X68083000Y48401371D02*
X67440371Y49044000D01*
%TO.N,Net-(J7-PadB5)*%
X67430199Y52044000D02*
X64882000Y52044000D01*
X68083000Y56364999D02*
X68083000Y52696801D01*
X68083000Y52696801D02*
X67430199Y52044000D01*
%TO.N,Net-(R3-Pad2)*%
X21567000Y40109000D02*
X22811500Y40109000D01*
X21209000Y39751000D02*
X21567000Y40109000D01*
X20367000Y39751000D02*
X21209000Y39751000D01*
%TO.N,CNT_17_DIR*%
X27904225Y31432184D02*
X28920448Y30415961D01*
X52578000Y30734000D02*
X51562000Y30734000D01*
X51308000Y30988000D02*
X51308000Y31635000D01*
X28920448Y30415961D02*
X45528960Y30415960D01*
X27649000Y31687408D02*
X27904225Y31432184D01*
X45528960Y30415960D02*
X45847000Y30734000D01*
X27649000Y36471500D02*
X27649000Y31687408D01*
X51562000Y30734000D02*
X51308000Y30988000D01*
%TO.N,CNT_18_DIR*%
X50038000Y30480000D02*
X49149000Y30480000D01*
X48768000Y30861000D02*
X48768000Y31635000D01*
X49149000Y30480000D02*
X48768000Y30861000D01*
X28049000Y31781704D02*
X29065223Y30765481D01*
X38957520Y30765480D02*
X41052480Y30765480D01*
X29065223Y30765481D02*
X38957520Y30765480D01*
X28049000Y36471500D02*
X28049000Y31781704D01*
X41052480Y30765480D02*
X41275000Y30988000D01*
%TO.N,SYSTEM_PWR*%
X41148000Y5056500D02*
X40663500Y4572000D01*
X41148000Y20447000D02*
X41148000Y19661500D01*
X17526000Y27813000D02*
X11176000Y34163000D01*
X33528000Y19661500D02*
X33043500Y19177000D01*
X44958000Y5842000D02*
X44958000Y5056500D01*
X44958000Y5056500D02*
X44473500Y4572000D01*
D51*
X67818000Y9652000D02*
X64770000Y6604000D01*
D46*
X44704000Y32512000D02*
X45212000Y33020000D01*
X25908000Y5056500D02*
X25423500Y4572000D01*
X10765000Y48484000D02*
X12961000Y48484000D01*
X22098000Y5842000D02*
X22098000Y5056500D01*
X11176000Y34163000D02*
X9652000Y34163000D01*
X25908000Y5842000D02*
X25908000Y5056500D01*
X49268000Y31635000D02*
X50026000Y31635000D01*
X22098000Y5056500D02*
X21613500Y4572000D01*
X29718000Y5842000D02*
X29718000Y5056500D01*
X37338000Y5842000D02*
X37338000Y5056500D01*
X44704000Y31496000D02*
X44704000Y32512000D01*
X33528000Y20447000D02*
X33528000Y19661500D01*
X52578000Y5842000D02*
X52578000Y5056500D01*
X29718000Y19661500D02*
X29233500Y19177000D01*
X25908000Y20447000D02*
X25908000Y19661500D01*
X37338000Y5056500D02*
X36853500Y4572000D01*
X52578000Y5056500D02*
X52093500Y4572000D01*
X52578000Y19661500D02*
X52093500Y19177000D01*
D51*
X64770000Y6604000D02*
X57658000Y6604000D01*
D46*
X29718000Y5056500D02*
X29233500Y4572000D01*
X37338000Y20447000D02*
X37338000Y19661500D01*
X52578000Y20447000D02*
X52578000Y19661500D01*
X33528000Y5056500D02*
X33043500Y4572000D01*
X33528000Y5842000D02*
X33528000Y5056500D01*
X54598000Y31635000D02*
X54610000Y31623000D01*
X44958000Y19661500D02*
X44473500Y19177000D01*
X9144000Y34671000D02*
X9144000Y46863000D01*
D51*
X67818000Y21877000D02*
X67818000Y9652000D01*
D46*
X51808000Y31635000D02*
X53225000Y31635000D01*
X17526000Y23368000D02*
X17526000Y27813000D01*
X48768000Y20447000D02*
X48768000Y19661500D01*
D51*
X63627000Y26068000D02*
X67818000Y21877000D01*
D46*
X41148000Y19661500D02*
X40663500Y19177000D01*
X9144000Y46863000D02*
X10765000Y48484000D01*
X37338000Y19661500D02*
X36853500Y19177000D01*
X53225000Y31635000D02*
X54598000Y31635000D01*
X41148000Y5842000D02*
X41148000Y5056500D01*
X48768000Y19661500D02*
X48283500Y19177000D01*
X44958000Y20447000D02*
X44958000Y19661500D01*
X48768000Y5842000D02*
X48768000Y5056500D01*
X29718000Y20447000D02*
X29718000Y19661500D01*
X25908000Y19661500D02*
X25423500Y19177000D01*
X9652000Y34163000D02*
X9144000Y34671000D01*
X48768000Y5056500D02*
X48283500Y4572000D01*
%TO.N,Net-(Q2-Pad3)*%
X42879000Y31496000D02*
X42879000Y32686000D01*
X42879000Y32686000D02*
X42545000Y33020000D01*
%TO.N,DISPLAY_STROBE0*%
X29577296Y57785000D02*
X44577000Y57785000D01*
X28449000Y43346500D02*
X28449000Y56656704D01*
X28449000Y56656704D02*
X28695148Y56902852D01*
X44577000Y57785000D02*
X45847000Y59055000D01*
X28695148Y56902852D02*
X29577296Y57785000D01*
X45847000Y59055000D02*
X45847000Y62992000D01*
%TO.N,DISPLAY_CLK*%
X-1524000Y64897000D02*
X3048000Y64897000D01*
D49*
X19431000Y62992000D02*
X19431000Y64262000D01*
X47752000Y64897000D02*
X41656000Y64897000D01*
X33909000Y62992000D02*
X33909000Y64262000D01*
X18796000Y64897000D02*
X12700000Y64897000D01*
D46*
X26449000Y43346500D02*
X26449000Y49497000D01*
X20320000Y55626000D02*
X-381000Y55626000D01*
D49*
X11430000Y60833000D02*
X5588000Y60833000D01*
X19431000Y64262000D02*
X18796000Y64897000D01*
X12700000Y64897000D02*
X12192000Y64389000D01*
X48387000Y62992000D02*
X48387000Y64262000D01*
X4953000Y61468000D02*
X4953000Y62992000D01*
X12192000Y64389000D02*
X12192000Y61595000D01*
X48387000Y64262000D02*
X47752000Y64897000D01*
X26670000Y64389000D02*
X26670000Y61595000D01*
D46*
X3048000Y64897000D02*
X4953000Y62992000D01*
D49*
X20066000Y60833000D02*
X19431000Y61468000D01*
D46*
X-381000Y55626000D02*
X-2413000Y57658000D01*
D49*
X41656000Y64897000D02*
X41148000Y64389000D01*
X40386000Y60833000D02*
X34544000Y60833000D01*
X33274000Y64897000D02*
X27178000Y64897000D01*
X5588000Y60833000D02*
X4953000Y61468000D01*
X19431000Y61468000D02*
X19431000Y62992000D01*
D46*
X-2413000Y64008000D02*
X-1524000Y64897000D01*
D49*
X34544000Y60833000D02*
X33909000Y61468000D01*
X26670000Y61595000D02*
X25908000Y60833000D01*
D46*
X26449000Y49497000D02*
X20320000Y55626000D01*
D49*
X41148000Y61595000D02*
X40386000Y60833000D01*
X27178000Y64897000D02*
X26670000Y64389000D01*
X33909000Y61468000D02*
X33909000Y62992000D01*
X33909000Y64262000D02*
X33274000Y64897000D01*
X12192000Y61595000D02*
X11430000Y60833000D01*
X25908000Y60833000D02*
X20066000Y60833000D01*
X41148000Y64389000D02*
X41148000Y61595000D01*
D46*
X-2413000Y57658000D02*
X-2413000Y64008000D01*
D49*
%TO.N,DISPLAY_SER*%
X21971000Y65278000D02*
X22606000Y65913000D01*
X36449000Y65278000D02*
X35814000Y65913000D01*
X36449000Y62992000D02*
X36449000Y65278000D01*
X7493000Y65278000D02*
X7493000Y62992000D01*
X50292000Y65913000D02*
X37084000Y65913000D01*
X50927000Y65278000D02*
X50292000Y65913000D01*
D46*
X20464777Y55975519D02*
X-236223Y55975519D01*
D49*
X21971000Y62992000D02*
X21971000Y65278000D01*
X8128000Y65913000D02*
X7493000Y65278000D01*
D46*
X-236223Y55975519D02*
X-1270000Y57009296D01*
X-1270000Y57009296D02*
X-1270000Y58166000D01*
D49*
X35814000Y65913000D02*
X22606000Y65913000D01*
D46*
X26849000Y43346500D02*
X26849000Y49591296D01*
D49*
X50927000Y62992000D02*
X50927000Y65278000D01*
X36449000Y65278000D02*
X37084000Y65913000D01*
X21336000Y65913000D02*
X8128000Y65913000D01*
D46*
X26849000Y49591296D02*
X20464777Y55975519D01*
D49*
X21971000Y65278000D02*
X21336000Y65913000D01*
D46*
%TO.N,DISPLAY_STROBE1*%
X28049000Y56751000D02*
X28321000Y57023000D01*
X28049000Y43346500D02*
X28049000Y56751000D01*
X28321000Y57023000D02*
X31369000Y60071000D01*
X31369000Y60071000D02*
X31369000Y62992000D01*
%TO.N,DISPLAY_STROBE2*%
X16891000Y57531000D02*
X17747442Y56674558D01*
X16891000Y62992000D02*
X16891000Y57531000D01*
X17747442Y56674558D02*
X20754329Y56674558D01*
X20754329Y56674558D02*
X27649000Y49779887D01*
X27649000Y49779887D02*
X27649000Y43346500D01*
%TO.N,DISPLAY_STROBE3*%
X3618961Y56325039D02*
X2413000Y57531000D01*
X2413000Y57531000D02*
X2413000Y62992000D01*
X27249000Y49685592D02*
X20609552Y56325039D01*
X27249000Y43346500D02*
X27249000Y49685592D01*
X20609552Y56325039D02*
X3618961Y56325039D01*
%TO.N,CP_1*%
X50808000Y31635000D02*
X50808000Y30726000D01*
X56806000Y30099000D02*
X58547000Y28358000D01*
X51435000Y30099000D02*
X56806000Y30099000D01*
X50808000Y30726000D02*
X51435000Y30099000D01*
%TO.N,CP_3*%
X58547000Y23778000D02*
X58547000Y23840817D01*
X56408112Y23778000D02*
X58547000Y23778000D01*
X50268500Y19177000D02*
X51411500Y18034000D01*
X55713588Y20915588D02*
X55713588Y23083476D01*
X51181000Y21209000D02*
X51181000Y20089500D01*
X55713588Y23083476D02*
X56408112Y23778000D01*
X51411500Y18034000D02*
X52832000Y18034000D01*
X52832000Y18034000D02*
X55713588Y20915588D01*
X51181000Y20089500D02*
X50268500Y19177000D01*
%TO.N,CP_4*%
X41030059Y16985441D02*
X38838500Y19177000D01*
X39751000Y20089500D02*
X38838500Y19177000D01*
X56762148Y21075148D02*
X56762148Y20453852D01*
X56762148Y20453852D02*
X53293738Y16985442D01*
X57175000Y21488000D02*
X56762148Y21075148D01*
X53293738Y16985442D02*
X41030059Y16985441D01*
X39751000Y21209000D02*
X39751000Y20089500D01*
X58547000Y21488000D02*
X57175000Y21488000D01*
%TO.N,CP_5*%
X31218500Y19177000D02*
X34109098Y16286402D01*
X56494887Y19198000D02*
X58547000Y19198000D01*
X58487000Y19274000D02*
X58547000Y19214000D01*
X34109098Y16286402D02*
X53583290Y16286403D01*
X32131000Y21209000D02*
X32131000Y20089500D01*
X53583290Y16286403D02*
X56494887Y19198000D01*
X32131000Y20089500D02*
X31218500Y19177000D01*
%TO.N,CP_6*%
X24511000Y21209000D02*
X24511000Y20089500D01*
X53872844Y15587365D02*
X55193479Y16908000D01*
X24511000Y20089500D02*
X23598500Y19177000D01*
X55193479Y16908000D02*
X58547000Y16908000D01*
X27188135Y15587365D02*
X53872844Y15587365D01*
X23598500Y19177000D02*
X27188135Y15587365D01*
%TO.N,CP_7*%
X46458500Y4572000D02*
X47951020Y3079480D01*
X56375000Y14618000D02*
X58547000Y14618000D01*
X47951020Y3079480D02*
X52976777Y3079481D01*
X53943520Y7529959D02*
X55593440Y9179879D01*
X47371000Y6604000D02*
X47371000Y5484500D01*
X53943520Y4046225D02*
X53943520Y7529959D01*
X47371000Y5484500D02*
X46458500Y4572000D01*
X55593440Y9179879D02*
X55593440Y13836440D01*
X52976777Y3079481D02*
X53943520Y4046225D01*
X55593440Y13836440D02*
X56375000Y14618000D01*
%TO.N,CP_8*%
X39751000Y5484500D02*
X38838500Y4572000D01*
X53266328Y2380441D02*
X54642559Y3756672D01*
X41030059Y2380441D02*
X53266328Y2380441D01*
X56292480Y8890328D02*
X56292480Y11842480D01*
X54642559Y3756672D02*
X54642560Y7240408D01*
X54642560Y7240408D02*
X56292480Y8890328D01*
X56778000Y12328000D02*
X58547000Y12328000D01*
X38838500Y4572000D02*
X41030059Y2380441D01*
X39751000Y6604000D02*
X39751000Y5484500D01*
X56292480Y11842480D02*
X56778000Y12328000D01*
%TO.N,CP_11*%
X60997000Y27178000D02*
X57404000Y27178000D01*
X49006520Y29749480D02*
X48268000Y30488000D01*
X57404000Y27178000D02*
X54832520Y29749480D01*
X61087000Y27088000D02*
X60997000Y27178000D01*
X48268000Y30488000D02*
X48268000Y31635000D01*
X54832520Y29749480D02*
X49006520Y29749480D01*
%TO.N,CP_13*%
X56412628Y21270628D02*
X57769351Y22627351D01*
X56412628Y20598628D02*
X56412628Y21270628D01*
X44490539Y17334961D02*
X53148961Y17334961D01*
X43561000Y20089500D02*
X42648500Y19177000D01*
X57769351Y22627351D02*
X60967649Y22627351D01*
X60967649Y22627351D02*
X61087000Y22508000D01*
X42648500Y19177000D02*
X44490539Y17334961D01*
X53148961Y17334961D02*
X56412628Y20598628D01*
X43561000Y21209000D02*
X43561000Y20089500D01*
%TO.N,CP_14*%
X35941000Y21209000D02*
X35941000Y20089500D01*
X61087000Y20218000D02*
X60958186Y20346814D01*
X57149404Y20346814D02*
X53438513Y16635922D01*
X53438513Y16635922D02*
X37569578Y16635922D01*
X60958186Y20346814D02*
X57149404Y20346814D01*
X35941000Y20089500D02*
X35028500Y19177000D01*
X37569578Y16635922D02*
X35028500Y19177000D01*
%TO.N,CP_15*%
X28321000Y20089500D02*
X27408500Y19177000D01*
X53728067Y15936884D02*
X30648616Y15936884D01*
X28321000Y21209000D02*
X28321000Y20089500D01*
X61087000Y17928000D02*
X60964659Y18050341D01*
X55841524Y18050341D02*
X53728067Y15936884D01*
X30648616Y15936884D02*
X27408500Y19177000D01*
X60964659Y18050341D02*
X55841524Y18050341D01*
%TO.N,CP_16*%
X59817000Y15404000D02*
X60051000Y15638000D01*
X42648500Y4572000D02*
X44490540Y2729960D01*
X54293039Y7385182D02*
X55942960Y9035103D01*
X54293039Y3901447D02*
X54293039Y7385182D01*
X53121554Y2729962D02*
X54293039Y3901447D01*
X43561000Y5484500D02*
X42648500Y4572000D01*
X59817000Y14134000D02*
X59817000Y15404000D01*
X43561000Y6604000D02*
X43561000Y5484500D01*
X55942960Y9035103D02*
X55942960Y12794178D01*
X55942960Y12794178D02*
X56626391Y13477609D01*
X59160609Y13477609D02*
X59817000Y14134000D01*
X44490540Y2729960D02*
X53121554Y2729962D01*
X56626391Y13477609D02*
X59160609Y13477609D01*
X60051000Y15638000D02*
X61087000Y15638000D01*
%TO.N,CP_17*%
X57153997Y11179997D02*
X59275997Y11179997D01*
X60047000Y13348000D02*
X61087000Y13348000D01*
X54992079Y3611897D02*
X54992079Y7095631D01*
X56642000Y8745552D02*
X56642000Y10668000D01*
X59817000Y11721000D02*
X59817000Y13118000D01*
X37569578Y2030922D02*
X53411105Y2030922D01*
X35941000Y6604000D02*
X35941000Y5484500D01*
X59817000Y13118000D02*
X60047000Y13348000D01*
X56642000Y10668000D02*
X57153997Y11179997D01*
X35941000Y5484500D02*
X35028500Y4572000D01*
X53411105Y2030922D02*
X54992079Y3611897D01*
X35028500Y4572000D02*
X37569578Y2030922D01*
X54992079Y7095631D02*
X56642000Y8745552D01*
X59275997Y11179997D02*
X59817000Y11721000D01*
%TO.N,CP_18*%
X32131000Y5484500D02*
X31218500Y4572000D01*
X32131000Y6604000D02*
X32131000Y5484500D01*
X53555882Y1681403D02*
X55341598Y3467119D01*
X55341598Y6950854D02*
X56936744Y8546000D01*
X60198000Y8546000D02*
X61087000Y9435000D01*
X34109098Y1681402D02*
X53555882Y1681403D01*
X56936744Y8546000D02*
X60198000Y8546000D01*
X31218500Y4572000D02*
X34109098Y1681402D01*
X55341598Y3467119D02*
X55341598Y6950854D01*
X61087000Y9435000D02*
X61087000Y11058000D01*
%TO.N,CP_21*%
X47371000Y21209000D02*
X47371000Y20089500D01*
X56063108Y22027108D02*
X56661499Y22625499D01*
X56063108Y20757108D02*
X56063108Y22027108D01*
X46458500Y19177000D02*
X47951019Y17684481D01*
X47371000Y20089500D02*
X46458500Y19177000D01*
X47951019Y17684481D02*
X52990481Y17684481D01*
X52990481Y17684481D02*
X56063108Y20757108D01*
%TO.N,CP_22*%
X55243920Y9324655D02*
X55243920Y14749914D01*
X51181000Y5484500D02*
X50268500Y4572000D01*
X61836267Y16788267D02*
X62357000Y17309000D01*
X53594000Y4191000D02*
X53594001Y7674736D01*
X62357000Y17309000D02*
X62357000Y20218000D01*
X53594001Y7674736D02*
X55243920Y9324655D01*
X55243920Y14749914D02*
X56251503Y15757497D01*
X56251503Y15757497D02*
X59408497Y15757497D01*
X51411500Y3429000D02*
X52832000Y3429000D01*
X62357000Y20218000D02*
X63627000Y21488000D01*
X60439267Y16788267D02*
X61836267Y16788267D01*
X51181000Y6604000D02*
X51181000Y5484500D01*
X50268500Y4572000D02*
X51411500Y3429000D01*
X59408497Y15757497D02*
X60439267Y16788267D01*
X52832000Y3429000D02*
X53594000Y4191000D01*
%TO.N,CP_23*%
X63313034Y7497442D02*
X65850040Y10034450D01*
X53990209Y632844D02*
X56390156Y3032791D01*
X19788500Y4572000D02*
X23727656Y632844D01*
X56390156Y6516524D02*
X57371072Y7497440D01*
X65850040Y10034450D02*
X65850040Y16974960D01*
X56390156Y3032791D02*
X56390156Y6516524D01*
X57371072Y7497440D02*
X63313034Y7497442D01*
X20701000Y6604000D02*
X20701000Y5484500D01*
X23727656Y632844D02*
X53990209Y632844D01*
X20701000Y5484500D02*
X19788500Y4572000D01*
X65850040Y16974960D02*
X63627000Y19198000D01*
%TO.N,CP_24*%
X63168257Y7846961D02*
X65500520Y10179225D01*
X24511000Y6604000D02*
X24511000Y5484500D01*
X65500520Y15034480D02*
X63627000Y16908000D01*
X24511000Y5484500D02*
X23598500Y4572000D01*
X57226296Y7846960D02*
X63168257Y7846961D01*
X56040637Y6661301D02*
X57226296Y7846960D01*
X53845434Y982364D02*
X56040637Y3177568D01*
X23598500Y4572000D02*
X27188137Y982363D01*
X65500520Y10179225D02*
X65500520Y15034480D01*
X56040637Y3177568D02*
X56040637Y6661301D01*
X27188137Y982363D02*
X53845434Y982364D01*
%TO.N,CP_25*%
X57081520Y8196480D02*
X63023480Y8196480D01*
X55691117Y3322343D02*
X55691117Y6806077D01*
X28321000Y5484500D02*
X27408500Y4572000D01*
X53700657Y1331883D02*
X55691117Y3322343D01*
X27408500Y4572000D02*
X30648617Y1331883D01*
X30648617Y1331883D02*
X53700657Y1331883D01*
X28321000Y6604000D02*
X28321000Y5484500D01*
X65151000Y10324000D02*
X65151000Y13094000D01*
X63023480Y8196480D02*
X65151000Y10324000D01*
X65151000Y13094000D02*
X63627000Y14618000D01*
X55691117Y6806077D02*
X57081520Y8196480D01*
%TO.N,CNT_18*%
X46258400Y30066440D02*
X46894480Y30702520D01*
X27759450Y31082665D02*
X28775673Y30066441D01*
X46894480Y32416480D02*
X47613000Y33135000D01*
X46894480Y30702520D02*
X46894480Y32416480D01*
X27249000Y31593112D02*
X27299481Y31542631D01*
X27249000Y36471500D02*
X27249000Y31593112D01*
X47613000Y33135000D02*
X48268000Y33135000D01*
X27299481Y31542631D02*
X27759450Y31082665D01*
X28775673Y30066441D02*
X46258400Y30066440D01*
%TO.N,CNT_17*%
X28630895Y29716921D02*
X46403177Y29716921D01*
X47625000Y32385000D02*
X50235886Y32385000D01*
X50808000Y32957114D02*
X50808000Y33135000D01*
X47244000Y30557744D02*
X47244000Y32004000D01*
X26849000Y31498816D02*
X28630895Y29716921D01*
X50235886Y32385000D02*
X50808000Y32957114D01*
X47244000Y32004000D02*
X47625000Y32385000D01*
X46403177Y29716921D02*
X47244000Y30557744D01*
X26849000Y36471500D02*
X26849000Y31498816D01*
%TO.N,Net-(R1-Pad1)*%
X45466000Y56134000D02*
X53426000Y56134000D01*
X40814000Y56134000D02*
X45466000Y56134000D01*
%TD*%
%TA.AperFunction,Conductor*%
%TO.N,+1V1*%
G36*
X28421566Y42146687D02*
G01*
X28446876Y42102850D01*
X28448000Y42090000D01*
X28448000Y39497000D01*
X28454617Y39487634D01*
X28614021Y39262000D01*
X28627581Y39219737D01*
X28628940Y38988788D01*
X28637949Y38988792D01*
X29008966Y38988965D01*
X29056540Y38971674D01*
X29081870Y38927849D01*
X29083000Y38914965D01*
X29083000Y38033500D01*
X29065687Y37985934D01*
X29021850Y37960624D01*
X29009000Y37959500D01*
X28977962Y37959500D01*
X28963525Y37960922D01*
X28953149Y37962986D01*
X28946000Y37964408D01*
X28848259Y37944966D01*
X28842195Y37940914D01*
X28835466Y37938127D01*
X28834613Y37940186D01*
X28805392Y37931322D01*
X28104018Y37931322D01*
X28056452Y37948635D01*
X28031142Y37992472D01*
X28030018Y38005322D01*
X28030018Y41699182D01*
X24473303Y41699182D01*
X24473303Y39063000D01*
X24455990Y39015434D01*
X24412153Y38990124D01*
X24399303Y38989000D01*
X24077000Y38989000D01*
X24029434Y39006313D01*
X24004124Y39050150D01*
X24003000Y39063000D01*
X24003000Y42090000D01*
X24020313Y42137566D01*
X24064150Y42162876D01*
X24077000Y42164000D01*
X28374000Y42164000D01*
X28421566Y42146687D01*
G37*
%TD.AperFunction*%
%TD*%
%TA.AperFunction,Conductor*%
%TO.N,+3V3*%
G36*
X34807793Y40638449D02*
G01*
X34896029Y40624474D01*
X34933514Y40612294D01*
X35004168Y40576293D01*
X35036057Y40553124D01*
X35092124Y40497057D01*
X35115293Y40465168D01*
X35151294Y40394514D01*
X35163475Y40357025D01*
X35175878Y40278709D01*
X35175878Y40239291D01*
X35163475Y40160975D01*
X35151294Y40123486D01*
X35115293Y40052832D01*
X35092124Y40020943D01*
X35036057Y39964876D01*
X35004168Y39941707D01*
X34933514Y39905706D01*
X34896029Y39893526D01*
X34807793Y39879551D01*
X34788083Y39878000D01*
X33020000Y39878000D01*
X32946155Y39847231D01*
X32946154Y39847231D01*
X32943294Y39846040D01*
X32943293Y39846039D01*
X31572089Y39274704D01*
X31560902Y39270652D01*
X31505922Y39253625D01*
X31482658Y39248766D01*
X31425450Y39242365D01*
X31413576Y39241602D01*
X29522036Y39209518D01*
X29519899Y39209500D01*
X29274326Y39209500D01*
X29268260Y39208293D01*
X29268256Y39208293D01*
X29262444Y39207137D01*
X29240002Y39204734D01*
X29126029Y39202801D01*
X29082999Y39202071D01*
X29082999Y39809258D01*
X29270456Y39809270D01*
X29274326Y39808500D01*
X31039634Y39808500D01*
X31042307Y39808304D01*
X31047342Y39806575D01*
X31058964Y39807011D01*
X31058966Y39807011D01*
X31096255Y39808411D01*
X31100981Y39808500D01*
X31119948Y39808500D01*
X31123141Y39809094D01*
X31129611Y39809393D01*
X31267090Y39809402D01*
X31267092Y39809402D01*
X31369000Y39809409D01*
X31477267Y39868415D01*
X32796594Y40587458D01*
X32810829Y40594101D01*
X32881450Y40621838D01*
X32911834Y40629580D01*
X32987117Y40639021D01*
X33002795Y40640000D01*
X34788083Y40640000D01*
X34807793Y40638449D01*
G37*
%TD.AperFunction*%
%TD*%
%TA.AperFunction,Conductor*%
%TO.N,+3V3*%
G36*
X49845121Y45818998D02*
G01*
X49891614Y45765342D01*
X49903000Y45713000D01*
X49903000Y44157115D01*
X49907475Y44141876D01*
X49908865Y44140671D01*
X49916548Y44139000D01*
X50166511Y44139000D01*
X50178766Y44140207D01*
X50218864Y44148183D01*
X50241355Y44157499D01*
X50297192Y44194808D01*
X50299521Y44191322D01*
X50341482Y44214235D01*
X50412297Y44209170D01*
X50469133Y44166623D01*
X50486247Y44135343D01*
X50502385Y44092295D01*
X50507771Y44085109D01*
X50546000Y44034100D01*
X50546000Y43942000D01*
X50634757Y43942000D01*
X50706295Y43888385D01*
X50842684Y43837255D01*
X50904866Y43830500D01*
X52501134Y43830500D01*
X52563316Y43837255D01*
X52699705Y43888385D01*
X52771243Y43942000D01*
X52832000Y43942000D01*
X52831996Y43996734D01*
X52903615Y44092295D01*
X52954745Y44228684D01*
X52961500Y44290866D01*
X52961500Y44348630D01*
X52981502Y44416751D01*
X53035158Y44463244D01*
X53062847Y44472195D01*
X53088589Y44477331D01*
X53113158Y44479766D01*
X53128881Y44479776D01*
X53191229Y44479817D01*
X53259361Y44459861D01*
X53267512Y44454048D01*
X53271997Y44449571D01*
X53278223Y44445733D01*
X53278227Y44445730D01*
X53373283Y44387137D01*
X53420777Y44334364D01*
X53432200Y44264293D01*
X53408518Y44205018D01*
X53352082Y44128610D01*
X53343363Y44112143D01*
X53341239Y44106094D01*
X53340504Y44092010D01*
X53346278Y44089000D01*
X54324000Y44089000D01*
X54392121Y44068998D01*
X54438614Y44015342D01*
X54450000Y43963000D01*
X54450000Y42963604D01*
X54453667Y42951117D01*
X54462563Y42954768D01*
X54517783Y42995554D01*
X54523590Y43001361D01*
X54585902Y43035387D01*
X54656717Y43030322D01*
X54713553Y42987775D01*
X54738364Y42921255D01*
X54738685Y42912238D01*
X54737503Y37839000D01*
X54737189Y36493947D01*
X54736394Y36479841D01*
X54718686Y36322988D01*
X54712403Y36295486D01*
X54662595Y36153225D01*
X54650350Y36127810D01*
X54570141Y36000200D01*
X54552549Y35978147D01*
X54445957Y35871579D01*
X54423899Y35853991D01*
X54296267Y35773809D01*
X54270851Y35761571D01*
X54199715Y35736683D01*
X54128581Y35711796D01*
X54101077Y35705519D01*
X53944222Y35687848D01*
X53930117Y35687056D01*
X47315597Y35687019D01*
X44749082Y35687004D01*
X44734975Y35687796D01*
X44578093Y35705472D01*
X44550585Y35711751D01*
X44491084Y35732571D01*
X44408296Y35761540D01*
X44382881Y35773778D01*
X44255226Y35853988D01*
X44233177Y35871572D01*
X44126576Y35978173D01*
X44108985Y36000231D01*
X44028778Y36127877D01*
X44016536Y36153299D01*
X43966749Y36295584D01*
X43960470Y36323091D01*
X43942793Y36479975D01*
X43942001Y36494083D01*
X43942001Y38025489D01*
X47303000Y38025489D01*
X47304207Y38013234D01*
X47312183Y37973136D01*
X47321499Y37950645D01*
X47351915Y37905124D01*
X47369124Y37887915D01*
X47414645Y37857499D01*
X47437136Y37848183D01*
X47477234Y37840207D01*
X47489489Y37839000D01*
X48884885Y37839000D01*
X48900124Y37843475D01*
X48901329Y37844865D01*
X48903000Y37852548D01*
X48903000Y37857115D01*
X49903000Y37857115D01*
X49907475Y37841876D01*
X49908865Y37840671D01*
X49916548Y37839000D01*
X51316511Y37839000D01*
X51328766Y37840207D01*
X51368864Y37848183D01*
X51391355Y37857499D01*
X51436876Y37887915D01*
X51454085Y37905124D01*
X51484501Y37950645D01*
X51493817Y37973136D01*
X51501793Y38013234D01*
X51503000Y38025489D01*
X51503000Y38520885D01*
X51498525Y38536124D01*
X51497135Y38537329D01*
X51489452Y38539000D01*
X49921115Y38539000D01*
X49905876Y38534525D01*
X49904671Y38533135D01*
X49903000Y38525452D01*
X49903000Y37857115D01*
X48903000Y37857115D01*
X48903000Y38520885D01*
X48898525Y38536124D01*
X48897135Y38537329D01*
X48889452Y38539000D01*
X47321115Y38539000D01*
X47305876Y38534525D01*
X47304671Y38533135D01*
X47303000Y38525452D01*
X47303000Y38025489D01*
X43942001Y38025489D01*
X43942001Y39552548D01*
X43942001Y39557115D01*
X47303000Y39557115D01*
X47307475Y39541876D01*
X47308865Y39540671D01*
X47316548Y39539000D01*
X48884885Y39539000D01*
X48900124Y39543475D01*
X48901329Y39544865D01*
X48903000Y39552548D01*
X48903000Y39557115D01*
X49903000Y39557115D01*
X49907475Y39541876D01*
X49908865Y39540671D01*
X49916548Y39539000D01*
X51484885Y39539000D01*
X51500124Y39543475D01*
X51501329Y39544865D01*
X51503000Y39552548D01*
X51503000Y40052511D01*
X51501793Y40064766D01*
X51493817Y40104864D01*
X51484501Y40127355D01*
X51454085Y40172876D01*
X51436876Y40190085D01*
X51391355Y40220501D01*
X51368864Y40229817D01*
X51328766Y40237793D01*
X51316511Y40239000D01*
X49921115Y40239000D01*
X49905876Y40234525D01*
X49904671Y40233135D01*
X49903000Y40225452D01*
X49903000Y39557115D01*
X48903000Y39557115D01*
X48903000Y40220885D01*
X48898525Y40236124D01*
X48897135Y40237329D01*
X48889452Y40239000D01*
X47489489Y40239000D01*
X47477234Y40237793D01*
X47437136Y40229817D01*
X47414645Y40220501D01*
X47369124Y40190085D01*
X47351915Y40172876D01*
X47321499Y40127355D01*
X47312183Y40104864D01*
X47304207Y40064766D01*
X47303000Y40052511D01*
X47303000Y39557115D01*
X43942001Y39557115D01*
X43942000Y42613539D01*
X43962002Y42681660D01*
X44015658Y42728153D01*
X44085932Y42738257D01*
X44134117Y42720799D01*
X44276080Y42633291D01*
X44441191Y42578526D01*
X44448027Y42577826D01*
X44448030Y42577825D01*
X44499526Y42572549D01*
X44543928Y42568000D01*
X45118072Y42568000D01*
X45121318Y42568337D01*
X45121322Y42568337D01*
X45215235Y42578081D01*
X45215239Y42578082D01*
X45222093Y42578793D01*
X45228629Y42580974D01*
X45228631Y42580974D01*
X45361395Y42625268D01*
X45387107Y42633846D01*
X45535031Y42725384D01*
X45610078Y42800562D01*
X45652758Y42843316D01*
X45652762Y42843321D01*
X45657929Y42848497D01*
X45723436Y42954768D01*
X45745369Y42990350D01*
X45745370Y42990352D01*
X45749209Y42996580D01*
X45792993Y43128584D01*
X53338894Y43128584D01*
X53343363Y43115857D01*
X53352082Y43099390D01*
X53419049Y43008724D01*
X53432222Y42995550D01*
X53485428Y42956252D01*
X53497652Y42951782D01*
X53500000Y42961108D01*
X53500000Y43120885D01*
X53495525Y43136124D01*
X53494135Y43137329D01*
X53486452Y43139000D01*
X53353351Y43139000D01*
X53339820Y43135027D01*
X53338894Y43128584D01*
X45792993Y43128584D01*
X45803974Y43161691D01*
X45814500Y43264428D01*
X45814500Y43816000D01*
X45834502Y43884121D01*
X45888158Y43930614D01*
X45940500Y43942000D01*
X45992781Y43942000D01*
X46060902Y43921998D01*
X46068346Y43916826D01*
X46106295Y43888385D01*
X46242684Y43837255D01*
X46304866Y43830500D01*
X47901134Y43830500D01*
X47963316Y43837255D01*
X48099705Y43888385D01*
X48171243Y43942000D01*
X48260000Y43942000D01*
X48260000Y44034100D01*
X48298229Y44085109D01*
X48303615Y44092295D01*
X48319753Y44135343D01*
X48362394Y44192108D01*
X48428955Y44216808D01*
X48498304Y44201601D01*
X48508325Y44194086D01*
X48508808Y44194808D01*
X48564645Y44157499D01*
X48587136Y44148183D01*
X48627234Y44140207D01*
X48639489Y44139000D01*
X48884885Y44139000D01*
X48900124Y44143475D01*
X48901329Y44144865D01*
X48903000Y44152548D01*
X48903000Y45713000D01*
X48923002Y45781121D01*
X48976658Y45827614D01*
X49029000Y45839000D01*
X49777000Y45839000D01*
X49845121Y45818998D01*
G37*
%TD.AperFunction*%
%TD*%
%TA.AperFunction,Conductor*%
%TO.N,+3V3*%
G36*
X29056566Y42714119D02*
G01*
X29081876Y42670282D01*
X29083000Y42657432D01*
X29083000Y39212953D01*
X29065687Y39165387D01*
X29021850Y39140077D01*
X29008895Y39139504D01*
X29008895Y39138965D01*
X28852296Y39138892D01*
X28804722Y39156183D01*
X28779392Y39200008D01*
X28779287Y39225168D01*
X28783238Y39248658D01*
X28783713Y39251480D01*
X28783849Y39262600D01*
X28780570Y39285497D01*
X28766302Y39385128D01*
X28766301Y39385131D01*
X28765555Y39390341D01*
X28713315Y39505236D01*
X28713314Y39505240D01*
X28712144Y39507812D01*
X28712512Y39507979D01*
X28702000Y39543926D01*
X28702000Y39624000D01*
X28672000Y39624000D01*
X28624434Y39641313D01*
X28599124Y39685150D01*
X28598000Y39698000D01*
X28598000Y42090000D01*
X28597429Y42103071D01*
X28596305Y42115921D01*
X28578425Y42172633D01*
X28575000Y42194882D01*
X28575000Y42291000D01*
X28476689Y42291000D01*
X28451381Y42295462D01*
X28429156Y42303552D01*
X28428335Y42303851D01*
X28428333Y42303852D01*
X28425304Y42304954D01*
X28374000Y42314000D01*
X24077000Y42314000D01*
X24068932Y42313648D01*
X24064749Y42313465D01*
X24064741Y42313464D01*
X24063929Y42313429D01*
X24051079Y42312305D01*
X23994367Y42294425D01*
X23972118Y42291000D01*
X23876000Y42291000D01*
X23876000Y42192689D01*
X23871538Y42167381D01*
X23862046Y42141304D01*
X23853000Y42090000D01*
X23853000Y39825000D01*
X23835687Y39777434D01*
X23791850Y39752124D01*
X23779000Y39751000D01*
X23749000Y39751000D01*
X23749000Y39473103D01*
X23741985Y39441654D01*
X23730988Y39418231D01*
X23711135Y39290723D01*
X23711818Y39285500D01*
X23711818Y39285497D01*
X23721305Y39212953D01*
X23727867Y39162769D01*
X23729990Y39157944D01*
X23742733Y39128983D01*
X23749000Y39099180D01*
X23749000Y38862000D01*
X23974311Y38862000D01*
X23999619Y38857538D01*
X24016693Y38851323D01*
X24022665Y38849149D01*
X24022667Y38849148D01*
X24025696Y38848046D01*
X24062676Y38841526D01*
X24073823Y38839560D01*
X24073825Y38839560D01*
X24077000Y38839000D01*
X24078315Y38839000D01*
X24083190Y38838038D01*
X24083232Y38838300D01*
X24088436Y38837457D01*
X24093467Y38835885D01*
X24098734Y38835788D01*
X24098737Y38835788D01*
X24154167Y38834772D01*
X24222489Y38833520D01*
X24233032Y38836394D01*
X24252495Y38839000D01*
X24310000Y38839000D01*
X24357566Y38821687D01*
X24382876Y38777850D01*
X24384000Y38765000D01*
X24384000Y38100000D01*
X27775176Y38100000D01*
X27822742Y38082687D01*
X27848052Y38038850D01*
X27849176Y38026000D01*
X27849176Y37778048D01*
X29009000Y37778048D01*
X29056566Y37760735D01*
X29081876Y37716898D01*
X29083000Y37704048D01*
X29083000Y37158000D01*
X29065687Y37110434D01*
X29021850Y37085124D01*
X29009000Y37084000D01*
X23494618Y37084000D01*
X23447052Y37101313D01*
X23421742Y37145150D01*
X23420618Y37158000D01*
X23420618Y42657432D01*
X23437931Y42704998D01*
X23481768Y42730308D01*
X23494618Y42731432D01*
X29009000Y42731432D01*
X29056566Y42714119D01*
G37*
%TD.AperFunction*%
%TD*%
M02*
