%TF.GenerationSoftware,KiCad,Pcbnew,6.0.2+dfsg-1*%
%TF.CreationDate,2022-08-22T16:06:49-05:00*%
%TF.ProjectId,veritas,76657269-7461-4732-9e6b-696361645f70,rev?*%
%TF.SameCoordinates,Original*%
%TF.FileFunction,Legend,Top*%
%TF.FilePolarity,Positive*%
%FSLAX46Y46*%
G04 Gerber Fmt 4.6, Leading zero omitted, Abs format (unit mm)*
G04 Created by KiCad (PCBNEW 6.0.2+dfsg-1) date 2022-08-22 16:06:49*
%MOMM*%
%LPD*%
G01*
G04 APERTURE LIST*
G04 Aperture macros list*
%AMRoundRect*
0 Rectangle with rounded corners*
0 $1 Rounding radius*
0 $2 $3 $4 $5 $6 $7 $8 $9 X,Y pos of 4 corners*
0 Add a 4 corners polygon primitive as box body*
4,1,4,$2,$3,$4,$5,$6,$7,$8,$9,$2,$3,0*
0 Add four circle primitives for the rounded corners*
1,1,$1+$1,$2,$3*
1,1,$1+$1,$4,$5*
1,1,$1+$1,$6,$7*
1,1,$1+$1,$8,$9*
0 Add four rect primitives between the rounded corners*
20,1,$1+$1,$2,$3,$4,$5,0*
20,1,$1+$1,$4,$5,$6,$7,0*
20,1,$1+$1,$6,$7,$8,$9,0*
20,1,$1+$1,$8,$9,$2,$3,0*%
%AMFreePoly0*
4,1,22,0.550000,-0.750000,0.000000,-0.750000,0.000000,-0.745033,-0.079941,-0.743568,-0.215256,-0.701293,-0.333266,-0.622738,-0.424486,-0.514219,-0.481581,-0.384460,-0.499164,-0.250000,-0.500000,-0.250000,-0.500000,0.250000,-0.499164,0.250000,-0.499963,0.256109,-0.478152,0.396186,-0.417904,0.524511,-0.324060,0.630769,-0.204165,0.706417,-0.067858,0.745374,0.000000,0.744959,0.000000,0.750000,
0.550000,0.750000,0.550000,-0.750000,0.550000,-0.750000,$1*%
%AMFreePoly1*
4,1,20,0.000000,0.744959,0.073905,0.744508,0.209726,0.703889,0.328688,0.626782,0.421226,0.519385,0.479903,0.390333,0.500000,0.250000,0.500000,-0.250000,0.499851,-0.262216,0.476331,-0.402017,0.414519,-0.529596,0.319384,-0.634700,0.198574,-0.708877,0.061801,-0.746166,0.000000,-0.745033,0.000000,-0.750000,-0.550000,-0.750000,-0.550000,0.750000,0.000000,0.750000,0.000000,0.744959,
0.000000,0.744959,$1*%
%AMFreePoly2*
4,1,6,1.000000,0.000000,0.500000,-0.750000,-0.500000,-0.750000,-0.500000,0.750000,0.500000,0.750000,1.000000,0.000000,1.000000,0.000000,$1*%
%AMFreePoly3*
4,1,6,0.500000,-0.750000,-0.650000,-0.750000,-0.150000,0.000000,-0.650000,0.750000,0.500000,0.750000,0.500000,-0.750000,0.500000,-0.750000,$1*%
G04 Aperture macros list end*
%ADD10C,0.120000*%
%ADD11C,0.175000*%
%ADD12C,0.150000*%
%ADD13C,0.200000*%
%ADD14C,0.254000*%
%ADD15C,0.127000*%
%ADD16C,0.100000*%
%ADD17O,1.700000X1.700000*%
%ADD18R,1.700000X1.700000*%
%ADD19RoundRect,0.237500X-0.250000X-0.237500X0.250000X-0.237500X0.250000X0.237500X-0.250000X0.237500X0*%
%ADD20O,2.100000X4.200000*%
%ADD21O,3.600000X1.800000*%
%ADD22RoundRect,0.237500X0.250000X0.237500X-0.250000X0.237500X-0.250000X-0.237500X0.250000X-0.237500X0*%
%ADD23RoundRect,0.237500X0.300000X0.237500X-0.300000X0.237500X-0.300000X-0.237500X0.300000X-0.237500X0*%
%ADD24R,0.800000X1.900000*%
%ADD25C,1.650000*%
%ADD26R,1.650000X1.650000*%
%ADD27C,4.800000*%
%ADD28FreePoly0,270.000000*%
%ADD29R,1.500000X1.000000*%
%ADD30FreePoly1,270.000000*%
%ADD31RoundRect,0.100000X-0.100000X0.637500X-0.100000X-0.637500X0.100000X-0.637500X0.100000X0.637500X0*%
%ADD32RoundRect,0.237500X-0.237500X0.250000X-0.237500X-0.250000X0.237500X-0.250000X0.237500X0.250000X0*%
%ADD33C,1.300000*%
%ADD34RoundRect,0.237500X-0.300000X-0.237500X0.300000X-0.237500X0.300000X0.237500X-0.300000X0.237500X0*%
%ADD35RoundRect,0.237500X0.237500X-0.300000X0.237500X0.300000X-0.237500X0.300000X-0.237500X-0.300000X0*%
%ADD36R,1.300000X1.550000*%
%ADD37FreePoly2,0.000000*%
%ADD38FreePoly3,0.000000*%
%ADD39RoundRect,0.150000X-0.150000X0.650000X-0.150000X-0.650000X0.150000X-0.650000X0.150000X0.650000X0*%
%ADD40O,2.100000X1.050000*%
%ADD41R,1.450000X0.600000*%
%ADD42R,1.450000X0.300000*%
%ADD43C,0.700000*%
%ADD44O,1.600000X1.600000*%
%ADD45R,1.600000X1.600000*%
%ADD46RoundRect,0.237500X-0.237500X0.300000X-0.237500X-0.300000X0.237500X-0.300000X0.237500X0.300000X0*%
%ADD47RoundRect,0.150000X-0.825000X-0.150000X0.825000X-0.150000X0.825000X0.150000X-0.825000X0.150000X0*%
%ADD48R,2.000000X1.500000*%
%ADD49R,2.000000X3.800000*%
%ADD50FreePoly2,180.000000*%
%ADD51FreePoly3,180.000000*%
%ADD52RoundRect,0.875000X0.875000X0.875000X-0.875000X0.875000X-0.875000X-0.875000X0.875000X-0.875000X0*%
%ADD53RoundRect,0.750000X0.750000X1.000000X-0.750000X1.000000X-0.750000X-1.000000X0.750000X-1.000000X0*%
%ADD54R,3.500000X3.500000*%
%ADD55R,2.000000X4.500000*%
%ADD56R,1.500000X0.400000*%
%ADD57RoundRect,0.144000X-1.456000X1.456000X-1.456000X-1.456000X1.456000X-1.456000X1.456000X1.456000X0*%
%ADD58RoundRect,0.050000X-0.387500X0.050000X-0.387500X-0.050000X0.387500X-0.050000X0.387500X0.050000X0*%
%ADD59RoundRect,0.050000X-0.050000X0.387500X-0.050000X-0.387500X0.050000X-0.387500X0.050000X0.387500X0*%
%ADD60C,0.600000*%
G04 APERTURE END LIST*
D10*
X124704526Y-86029405D02*
X124704526Y-86867605D01*
X129804134Y-86867078D02*
X129804134Y-86028878D01*
X129802424Y-86029676D02*
X124704132Y-86026651D01*
D11*
X178866226Y-127706380D02*
X178866226Y-126706380D01*
X179056702Y-126706380D01*
X179170988Y-126754000D01*
X179247178Y-126849238D01*
X179285273Y-126944476D01*
X179323369Y-127134952D01*
X179323369Y-127277809D01*
X179285273Y-127468285D01*
X179247178Y-127563523D01*
X179170988Y-127658761D01*
X179056702Y-127706380D01*
X178866226Y-127706380D01*
X179666226Y-127182571D02*
X179932892Y-127182571D01*
X180047178Y-127706380D02*
X179666226Y-127706380D01*
X179666226Y-126706380D01*
X180047178Y-126706380D01*
X180656702Y-127182571D02*
X180770988Y-127230190D01*
X180809083Y-127277809D01*
X180847178Y-127373047D01*
X180847178Y-127515904D01*
X180809083Y-127611142D01*
X180770988Y-127658761D01*
X180694797Y-127706380D01*
X180390035Y-127706380D01*
X180390035Y-126706380D01*
X180656702Y-126706380D01*
X180732892Y-126754000D01*
X180770988Y-126801619D01*
X180809083Y-126896857D01*
X180809083Y-126992095D01*
X180770988Y-127087333D01*
X180732892Y-127134952D01*
X180656702Y-127182571D01*
X180390035Y-127182571D01*
X181190035Y-126706380D02*
X181190035Y-127515904D01*
X181228130Y-127611142D01*
X181266226Y-127658761D01*
X181342416Y-127706380D01*
X181494797Y-127706380D01*
X181570988Y-127658761D01*
X181609083Y-127611142D01*
X181647178Y-127515904D01*
X181647178Y-126706380D01*
X182447178Y-126754000D02*
X182370988Y-126706380D01*
X182256702Y-126706380D01*
X182142416Y-126754000D01*
X182066226Y-126849238D01*
X182028130Y-126944476D01*
X181990035Y-127134952D01*
X181990035Y-127277809D01*
X182028130Y-127468285D01*
X182066226Y-127563523D01*
X182142416Y-127658761D01*
X182256702Y-127706380D01*
X182332892Y-127706380D01*
X182447178Y-127658761D01*
X182485273Y-127611142D01*
X182485273Y-127277809D01*
X182332892Y-127277809D01*
X182637654Y-127801619D02*
X183247178Y-127801619D01*
X183894797Y-127706380D02*
X183628130Y-127230190D01*
X183437654Y-127706380D02*
X183437654Y-126706380D01*
X183742416Y-126706380D01*
X183818607Y-126754000D01*
X183856702Y-126801619D01*
X183894797Y-126896857D01*
X183894797Y-127039714D01*
X183856702Y-127134952D01*
X183818607Y-127182571D01*
X183742416Y-127230190D01*
X183437654Y-127230190D01*
X184161464Y-126706380D02*
X184694797Y-127706380D01*
X184694797Y-126706380D02*
X184161464Y-127706380D01*
X178828130Y-132738761D02*
X178942416Y-132786380D01*
X179132892Y-132786380D01*
X179209083Y-132738761D01*
X179247178Y-132691142D01*
X179285273Y-132595904D01*
X179285273Y-132500666D01*
X179247178Y-132405428D01*
X179209083Y-132357809D01*
X179132892Y-132310190D01*
X178980511Y-132262571D01*
X178904321Y-132214952D01*
X178866226Y-132167333D01*
X178828130Y-132072095D01*
X178828130Y-131976857D01*
X178866226Y-131881619D01*
X178904321Y-131834000D01*
X178980511Y-131786380D01*
X179170988Y-131786380D01*
X179285273Y-131834000D01*
X179551940Y-131786380D02*
X179742416Y-132786380D01*
X179894797Y-132072095D01*
X180047178Y-132786380D01*
X180237654Y-131786380D01*
X180542416Y-132786380D02*
X180542416Y-131786380D01*
X180732892Y-131786380D01*
X180847178Y-131834000D01*
X180923369Y-131929238D01*
X180961464Y-132024476D01*
X180999559Y-132214952D01*
X180999559Y-132357809D01*
X180961464Y-132548285D01*
X180923369Y-132643523D01*
X180847178Y-132738761D01*
X180732892Y-132786380D01*
X180542416Y-132786380D01*
X178828130Y-130198761D02*
X178942416Y-130246380D01*
X179132892Y-130246380D01*
X179209083Y-130198761D01*
X179247178Y-130151142D01*
X179285273Y-130055904D01*
X179285273Y-129960666D01*
X179247178Y-129865428D01*
X179209083Y-129817809D01*
X179132892Y-129770190D01*
X178980511Y-129722571D01*
X178904321Y-129674952D01*
X178866226Y-129627333D01*
X178828130Y-129532095D01*
X178828130Y-129436857D01*
X178866226Y-129341619D01*
X178904321Y-129294000D01*
X178980511Y-129246380D01*
X179170988Y-129246380D01*
X179285273Y-129294000D01*
X179551940Y-129246380D02*
X179742416Y-130246380D01*
X179894797Y-129532095D01*
X180047178Y-130246380D01*
X180237654Y-129246380D01*
X180999559Y-130151142D02*
X180961464Y-130198761D01*
X180847178Y-130246380D01*
X180770988Y-130246380D01*
X180656702Y-130198761D01*
X180580511Y-130103523D01*
X180542416Y-130008285D01*
X180504321Y-129817809D01*
X180504321Y-129674952D01*
X180542416Y-129484476D01*
X180580511Y-129389238D01*
X180656702Y-129294000D01*
X180770988Y-129246380D01*
X180847178Y-129246380D01*
X180961464Y-129294000D01*
X180999559Y-129341619D01*
X181723369Y-130246380D02*
X181342416Y-130246380D01*
X181342416Y-129246380D01*
X181990035Y-130246380D02*
X181990035Y-129246380D01*
X182447178Y-130246380D02*
X182104321Y-129674952D01*
X182447178Y-129246380D02*
X181990035Y-129817809D01*
X179285273Y-134374000D02*
X179209083Y-134326380D01*
X179094797Y-134326380D01*
X178980511Y-134374000D01*
X178904321Y-134469238D01*
X178866226Y-134564476D01*
X178828130Y-134754952D01*
X178828130Y-134897809D01*
X178866226Y-135088285D01*
X178904321Y-135183523D01*
X178980511Y-135278761D01*
X179094797Y-135326380D01*
X179170988Y-135326380D01*
X179285273Y-135278761D01*
X179323369Y-135231142D01*
X179323369Y-134897809D01*
X179170988Y-134897809D01*
X179666226Y-135326380D02*
X179666226Y-134326380D01*
X180123369Y-135326380D01*
X180123369Y-134326380D01*
X180504321Y-135326380D02*
X180504321Y-134326380D01*
X180694797Y-134326380D01*
X180809083Y-134374000D01*
X180885273Y-134469238D01*
X180923369Y-134564476D01*
X180961464Y-134754952D01*
X180961464Y-134897809D01*
X180923369Y-135088285D01*
X180885273Y-135183523D01*
X180809083Y-135278761D01*
X180694797Y-135326380D01*
X180504321Y-135326380D01*
X114389678Y-88019000D02*
X114313488Y-87971380D01*
X114199202Y-87971380D01*
X114084916Y-88019000D01*
X114008726Y-88114238D01*
X113970630Y-88209476D01*
X113932535Y-88399952D01*
X113932535Y-88542809D01*
X113970630Y-88733285D01*
X114008726Y-88828523D01*
X114084916Y-88923761D01*
X114199202Y-88971380D01*
X114275392Y-88971380D01*
X114389678Y-88923761D01*
X114427773Y-88876142D01*
X114427773Y-88542809D01*
X114275392Y-88542809D01*
X114770630Y-88971380D02*
X114770630Y-87971380D01*
X115227773Y-88971380D01*
X115227773Y-87971380D01*
X115608726Y-88971380D02*
X115608726Y-87971380D01*
X115799202Y-87971380D01*
X115913488Y-88019000D01*
X115989678Y-88114238D01*
X116027773Y-88209476D01*
X116065869Y-88399952D01*
X116065869Y-88542809D01*
X116027773Y-88733285D01*
X115989678Y-88828523D01*
X115913488Y-88923761D01*
X115799202Y-88971380D01*
X115608726Y-88971380D01*
X179247178Y-121626380D02*
X178866226Y-121626380D01*
X178828130Y-122102571D01*
X178866226Y-122054952D01*
X178942416Y-122007333D01*
X179132892Y-122007333D01*
X179209083Y-122054952D01*
X179247178Y-122102571D01*
X179285273Y-122197809D01*
X179285273Y-122435904D01*
X179247178Y-122531142D01*
X179209083Y-122578761D01*
X179132892Y-122626380D01*
X178942416Y-122626380D01*
X178866226Y-122578761D01*
X178828130Y-122531142D01*
X179513845Y-121626380D02*
X179780511Y-122626380D01*
X180047178Y-121626380D01*
D12*
X144259761Y-133927904D02*
X144259761Y-134499333D01*
X144221666Y-134613619D01*
X144145476Y-134689809D01*
X144031190Y-134727904D01*
X143955000Y-134727904D01*
X145021666Y-134727904D02*
X144640714Y-134727904D01*
X144640714Y-133927904D01*
X145745476Y-134651714D02*
X145707380Y-134689809D01*
X145593095Y-134727904D01*
X145516904Y-134727904D01*
X145402619Y-134689809D01*
X145326428Y-134613619D01*
X145288333Y-134537428D01*
X145250238Y-134385047D01*
X145250238Y-134270761D01*
X145288333Y-134118380D01*
X145326428Y-134042190D01*
X145402619Y-133966000D01*
X145516904Y-133927904D01*
X145593095Y-133927904D01*
X145707380Y-133966000D01*
X145745476Y-134004095D01*
X146316904Y-133927904D02*
X146316904Y-134499333D01*
X146278809Y-134613619D01*
X146202619Y-134689809D01*
X146088333Y-134727904D01*
X146012142Y-134727904D01*
X147078809Y-134727904D02*
X146697857Y-134727904D01*
X146697857Y-133927904D01*
X147802619Y-134651714D02*
X147764523Y-134689809D01*
X147650238Y-134727904D01*
X147574047Y-134727904D01*
X147459761Y-134689809D01*
X147383571Y-134613619D01*
X147345476Y-134537428D01*
X147307380Y-134385047D01*
X147307380Y-134270761D01*
X147345476Y-134118380D01*
X147383571Y-134042190D01*
X147459761Y-133966000D01*
X147574047Y-133927904D01*
X147650238Y-133927904D01*
X147764523Y-133966000D01*
X147802619Y-134004095D01*
X148374047Y-133927904D02*
X148374047Y-134499333D01*
X148335952Y-134613619D01*
X148259761Y-134689809D01*
X148145476Y-134727904D01*
X148069285Y-134727904D01*
X149135952Y-134727904D02*
X148755000Y-134727904D01*
X148755000Y-133927904D01*
X149859761Y-134651714D02*
X149821666Y-134689809D01*
X149707380Y-134727904D01*
X149631190Y-134727904D01*
X149516904Y-134689809D01*
X149440714Y-134613619D01*
X149402619Y-134537428D01*
X149364523Y-134385047D01*
X149364523Y-134270761D01*
X149402619Y-134118380D01*
X149440714Y-134042190D01*
X149516904Y-133966000D01*
X149631190Y-133927904D01*
X149707380Y-133927904D01*
X149821666Y-133966000D01*
X149859761Y-134004095D01*
X150431190Y-133927904D02*
X150431190Y-134499333D01*
X150393095Y-134613619D01*
X150316904Y-134689809D01*
X150202619Y-134727904D01*
X150126428Y-134727904D01*
X151193095Y-134727904D02*
X150812142Y-134727904D01*
X150812142Y-133927904D01*
X151916904Y-134651714D02*
X151878809Y-134689809D01*
X151764523Y-134727904D01*
X151688333Y-134727904D01*
X151574047Y-134689809D01*
X151497857Y-134613619D01*
X151459761Y-134537428D01*
X151421666Y-134385047D01*
X151421666Y-134270761D01*
X151459761Y-134118380D01*
X151497857Y-134042190D01*
X151574047Y-133966000D01*
X151688333Y-133927904D01*
X151764523Y-133927904D01*
X151878809Y-133966000D01*
X151916904Y-134004095D01*
D11*
X111151583Y-86431380D02*
X110884916Y-85955190D01*
X110694440Y-86431380D02*
X110694440Y-85431380D01*
X110999202Y-85431380D01*
X111075392Y-85479000D01*
X111113488Y-85526619D01*
X111151583Y-85621857D01*
X111151583Y-85764714D01*
X111113488Y-85859952D01*
X111075392Y-85907571D01*
X110999202Y-85955190D01*
X110694440Y-85955190D01*
X111494440Y-85907571D02*
X111761107Y-85907571D01*
X111875392Y-86431380D02*
X111494440Y-86431380D01*
X111494440Y-85431380D01*
X111875392Y-85431380D01*
X112180154Y-86383761D02*
X112294440Y-86431380D01*
X112484916Y-86431380D01*
X112561107Y-86383761D01*
X112599202Y-86336142D01*
X112637297Y-86240904D01*
X112637297Y-86145666D01*
X112599202Y-86050428D01*
X112561107Y-86002809D01*
X112484916Y-85955190D01*
X112332535Y-85907571D01*
X112256345Y-85859952D01*
X112218250Y-85812333D01*
X112180154Y-85717095D01*
X112180154Y-85621857D01*
X112218250Y-85526619D01*
X112256345Y-85479000D01*
X112332535Y-85431380D01*
X112523011Y-85431380D01*
X112637297Y-85479000D01*
X112980154Y-85907571D02*
X113246821Y-85907571D01*
X113361107Y-86431380D02*
X112980154Y-86431380D01*
X112980154Y-85431380D01*
X113361107Y-85431380D01*
X113589678Y-85431380D02*
X114046821Y-85431380D01*
X113818250Y-86431380D02*
X113818250Y-85431380D01*
X114123011Y-86526619D02*
X114732535Y-86526619D01*
X115303964Y-86431380D02*
X114923011Y-86431380D01*
X114923011Y-85431380D01*
X115723011Y-85431380D02*
X115875392Y-85431380D01*
X115951583Y-85479000D01*
X116027773Y-85574238D01*
X116065869Y-85764714D01*
X116065869Y-86098047D01*
X116027773Y-86288523D01*
X115951583Y-86383761D01*
X115875392Y-86431380D01*
X115723011Y-86431380D01*
X115646821Y-86383761D01*
X115570630Y-86288523D01*
X115532535Y-86098047D01*
X115532535Y-85764714D01*
X115570630Y-85574238D01*
X115646821Y-85479000D01*
X115723011Y-85431380D01*
X111418250Y-83891380D02*
X111151583Y-83415190D01*
X110961107Y-83891380D02*
X110961107Y-82891380D01*
X111265869Y-82891380D01*
X111342059Y-82939000D01*
X111380154Y-82986619D01*
X111418250Y-83081857D01*
X111418250Y-83224714D01*
X111380154Y-83319952D01*
X111342059Y-83367571D01*
X111265869Y-83415190D01*
X110961107Y-83415190D01*
X111761107Y-83367571D02*
X112027773Y-83367571D01*
X112142059Y-83891380D02*
X111761107Y-83891380D01*
X111761107Y-82891380D01*
X112142059Y-82891380D01*
X112446821Y-83843761D02*
X112561107Y-83891380D01*
X112751583Y-83891380D01*
X112827773Y-83843761D01*
X112865869Y-83796142D01*
X112903964Y-83700904D01*
X112903964Y-83605666D01*
X112865869Y-83510428D01*
X112827773Y-83462809D01*
X112751583Y-83415190D01*
X112599202Y-83367571D01*
X112523011Y-83319952D01*
X112484916Y-83272333D01*
X112446821Y-83177095D01*
X112446821Y-83081857D01*
X112484916Y-82986619D01*
X112523011Y-82939000D01*
X112599202Y-82891380D01*
X112789678Y-82891380D01*
X112903964Y-82939000D01*
X113246821Y-83367571D02*
X113513488Y-83367571D01*
X113627773Y-83891380D02*
X113246821Y-83891380D01*
X113246821Y-82891380D01*
X113627773Y-82891380D01*
X113856345Y-82891380D02*
X114313488Y-82891380D01*
X114084916Y-83891380D02*
X114084916Y-82891380D01*
X114389678Y-83986619D02*
X114999202Y-83986619D01*
X115189678Y-83891380D02*
X115189678Y-82891380D01*
X115189678Y-83367571D02*
X115646821Y-83367571D01*
X115646821Y-83891380D02*
X115646821Y-82891380D01*
X116027773Y-83891380D02*
X116027773Y-82891380D01*
X111697630Y-120943666D02*
X112078583Y-120943666D01*
X111621440Y-121229380D02*
X111888107Y-120229380D01*
X112154773Y-121229380D01*
X112802392Y-121229380D02*
X112421440Y-121229380D01*
X112421440Y-120229380D01*
X112954773Y-120229380D02*
X113411916Y-120229380D01*
X113183345Y-121229380D02*
X113183345Y-120229380D01*
X113488107Y-121324619D02*
X114097630Y-121324619D01*
X114745250Y-121134142D02*
X114707154Y-121181761D01*
X114592869Y-121229380D01*
X114516678Y-121229380D01*
X114402392Y-121181761D01*
X114326202Y-121086523D01*
X114288107Y-120991285D01*
X114250011Y-120800809D01*
X114250011Y-120657952D01*
X114288107Y-120467476D01*
X114326202Y-120372238D01*
X114402392Y-120277000D01*
X114516678Y-120229380D01*
X114592869Y-120229380D01*
X114707154Y-120277000D01*
X114745250Y-120324619D01*
X115469059Y-121229380D02*
X115088107Y-121229380D01*
X115088107Y-120229380D01*
X115735726Y-121229380D02*
X115735726Y-120229380D01*
X116192869Y-121229380D02*
X115850011Y-120657952D01*
X116192869Y-120229380D02*
X115735726Y-120800809D01*
X178866226Y-125166380D02*
X178866226Y-124166380D01*
X179056702Y-124166380D01*
X179170988Y-124214000D01*
X179247178Y-124309238D01*
X179285273Y-124404476D01*
X179323369Y-124594952D01*
X179323369Y-124737809D01*
X179285273Y-124928285D01*
X179247178Y-125023523D01*
X179170988Y-125118761D01*
X179056702Y-125166380D01*
X178866226Y-125166380D01*
X179666226Y-124642571D02*
X179932892Y-124642571D01*
X180047178Y-125166380D02*
X179666226Y-125166380D01*
X179666226Y-124166380D01*
X180047178Y-124166380D01*
X180656702Y-124642571D02*
X180770988Y-124690190D01*
X180809083Y-124737809D01*
X180847178Y-124833047D01*
X180847178Y-124975904D01*
X180809083Y-125071142D01*
X180770988Y-125118761D01*
X180694797Y-125166380D01*
X180390035Y-125166380D01*
X180390035Y-124166380D01*
X180656702Y-124166380D01*
X180732892Y-124214000D01*
X180770988Y-124261619D01*
X180809083Y-124356857D01*
X180809083Y-124452095D01*
X180770988Y-124547333D01*
X180732892Y-124594952D01*
X180656702Y-124642571D01*
X180390035Y-124642571D01*
X181190035Y-124166380D02*
X181190035Y-124975904D01*
X181228130Y-125071142D01*
X181266226Y-125118761D01*
X181342416Y-125166380D01*
X181494797Y-125166380D01*
X181570988Y-125118761D01*
X181609083Y-125071142D01*
X181647178Y-124975904D01*
X181647178Y-124166380D01*
X182447178Y-124214000D02*
X182370988Y-124166380D01*
X182256702Y-124166380D01*
X182142416Y-124214000D01*
X182066226Y-124309238D01*
X182028130Y-124404476D01*
X181990035Y-124594952D01*
X181990035Y-124737809D01*
X182028130Y-124928285D01*
X182066226Y-125023523D01*
X182142416Y-125118761D01*
X182256702Y-125166380D01*
X182332892Y-125166380D01*
X182447178Y-125118761D01*
X182485273Y-125071142D01*
X182485273Y-124737809D01*
X182332892Y-124737809D01*
X182637654Y-125261619D02*
X183247178Y-125261619D01*
X183323369Y-124166380D02*
X183780511Y-124166380D01*
X183551940Y-125166380D02*
X183551940Y-124166380D01*
X183970988Y-124166380D02*
X184504321Y-125166380D01*
X184504321Y-124166380D02*
X183970988Y-125166380D01*
X112840488Y-122769380D02*
X112992869Y-122769380D01*
X113069059Y-122817000D01*
X113145250Y-122912238D01*
X113183345Y-123102714D01*
X113183345Y-123436047D01*
X113145250Y-123626523D01*
X113069059Y-123721761D01*
X112992869Y-123769380D01*
X112840488Y-123769380D01*
X112764297Y-123721761D01*
X112688107Y-123626523D01*
X112650011Y-123436047D01*
X112650011Y-123102714D01*
X112688107Y-122912238D01*
X112764297Y-122817000D01*
X112840488Y-122769380D01*
X113526202Y-123245571D02*
X113792869Y-123245571D01*
X113907154Y-123769380D02*
X113526202Y-123769380D01*
X113526202Y-122769380D01*
X113907154Y-122769380D01*
X114402392Y-122769380D02*
X114554773Y-122769380D01*
X114630964Y-122817000D01*
X114707154Y-122912238D01*
X114745250Y-123102714D01*
X114745250Y-123436047D01*
X114707154Y-123626523D01*
X114630964Y-123721761D01*
X114554773Y-123769380D01*
X114402392Y-123769380D01*
X114326202Y-123721761D01*
X114250011Y-123626523D01*
X114211916Y-123436047D01*
X114211916Y-123102714D01*
X114250011Y-122912238D01*
X114326202Y-122817000D01*
X114402392Y-122769380D01*
X115088107Y-122769380D02*
X115088107Y-123578904D01*
X115126202Y-123674142D01*
X115164297Y-123721761D01*
X115240488Y-123769380D01*
X115392869Y-123769380D01*
X115469059Y-123721761D01*
X115507154Y-123674142D01*
X115545250Y-123578904D01*
X115545250Y-122769380D01*
X115811916Y-122769380D02*
X116269059Y-122769380D01*
X116040488Y-123769380D02*
X116040488Y-122769380D01*
X114288107Y-118594142D02*
X114250011Y-118641761D01*
X114135726Y-118689380D01*
X114059535Y-118689380D01*
X113945250Y-118641761D01*
X113869059Y-118546523D01*
X113830964Y-118451285D01*
X113792869Y-118260809D01*
X113792869Y-118117952D01*
X113830964Y-117927476D01*
X113869059Y-117832238D01*
X113945250Y-117737000D01*
X114059535Y-117689380D01*
X114135726Y-117689380D01*
X114250011Y-117737000D01*
X114288107Y-117784619D01*
X114516678Y-117689380D02*
X114783345Y-118689380D01*
X115050011Y-117689380D01*
X115316678Y-118689380D02*
X115316678Y-117689380D01*
X115697630Y-118689380D02*
X115697630Y-117689380D01*
X116154773Y-118689380D01*
X116154773Y-117689380D01*
D13*
X140329714Y-103290619D02*
X140729714Y-104390619D01*
X141129714Y-103290619D01*
X141986857Y-104338238D02*
X141872571Y-104390619D01*
X141644000Y-104390619D01*
X141529714Y-104338238D01*
X141472571Y-104233476D01*
X141472571Y-103814428D01*
X141529714Y-103709666D01*
X141644000Y-103657285D01*
X141872571Y-103657285D01*
X141986857Y-103709666D01*
X142044000Y-103814428D01*
X142044000Y-103919190D01*
X141472571Y-104023952D01*
X142558285Y-104390619D02*
X142558285Y-103657285D01*
X142558285Y-103866809D02*
X142615428Y-103762047D01*
X142672571Y-103709666D01*
X142786857Y-103657285D01*
X142901142Y-103657285D01*
X143301142Y-104390619D02*
X143301142Y-103657285D01*
X143301142Y-103290619D02*
X143244000Y-103343000D01*
X143301142Y-103395380D01*
X143358285Y-103343000D01*
X143301142Y-103290619D01*
X143301142Y-103395380D01*
X143701142Y-103290619D02*
X144386857Y-103290619D01*
X144044000Y-104390619D02*
X144044000Y-103290619D01*
X144729714Y-104076333D02*
X145301142Y-104076333D01*
X144615428Y-104390619D02*
X145015428Y-103290619D01*
X145415428Y-104390619D01*
X145758285Y-104338238D02*
X145929714Y-104390619D01*
X146215428Y-104390619D01*
X146329714Y-104338238D01*
X146386857Y-104285857D01*
X146444000Y-104181095D01*
X146444000Y-104076333D01*
X146386857Y-103971571D01*
X146329714Y-103919190D01*
X146215428Y-103866809D01*
X145986857Y-103814428D01*
X145872571Y-103762047D01*
X145815428Y-103709666D01*
X145758285Y-103604904D01*
X145758285Y-103500142D01*
X145815428Y-103395380D01*
X145872571Y-103343000D01*
X145986857Y-103290619D01*
X146272571Y-103290619D01*
X146444000Y-103343000D01*
X147872571Y-104390619D02*
X147872571Y-103290619D01*
X147872571Y-103709666D02*
X147986857Y-103657285D01*
X148215428Y-103657285D01*
X148329714Y-103709666D01*
X148386857Y-103762047D01*
X148444000Y-103866809D01*
X148444000Y-104181095D01*
X148386857Y-104285857D01*
X148329714Y-104338238D01*
X148215428Y-104390619D01*
X147986857Y-104390619D01*
X147872571Y-104338238D01*
X148844000Y-103657285D02*
X149129714Y-104390619D01*
X149415428Y-103657285D02*
X149129714Y-104390619D01*
X149015428Y-104652523D01*
X148958285Y-104704904D01*
X148844000Y-104757285D01*
X151186857Y-103814428D02*
X151358285Y-103866809D01*
X151415428Y-103919190D01*
X151472571Y-104023952D01*
X151472571Y-104181095D01*
X151415428Y-104285857D01*
X151358285Y-104338238D01*
X151244000Y-104390619D01*
X150786857Y-104390619D01*
X150786857Y-103290619D01*
X151186857Y-103290619D01*
X151301142Y-103343000D01*
X151358285Y-103395380D01*
X151415428Y-103500142D01*
X151415428Y-103604904D01*
X151358285Y-103709666D01*
X151301142Y-103762047D01*
X151186857Y-103814428D01*
X150786857Y-103814428D01*
X151986857Y-104390619D02*
X151986857Y-103657285D01*
X151986857Y-103290619D02*
X151929714Y-103343000D01*
X151986857Y-103395380D01*
X152044000Y-103343000D01*
X151986857Y-103290619D01*
X151986857Y-103395380D01*
X153072571Y-103657285D02*
X153072571Y-104547761D01*
X153015428Y-104652523D01*
X152958285Y-104704904D01*
X152844000Y-104757285D01*
X152672571Y-104757285D01*
X152558285Y-104704904D01*
X153072571Y-104338238D02*
X152958285Y-104390619D01*
X152729714Y-104390619D01*
X152615428Y-104338238D01*
X152558285Y-104285857D01*
X152501142Y-104181095D01*
X152501142Y-103866809D01*
X152558285Y-103762047D01*
X152615428Y-103709666D01*
X152729714Y-103657285D01*
X152958285Y-103657285D01*
X153072571Y-103709666D01*
X153644000Y-104390619D02*
X153644000Y-103290619D01*
X153644000Y-103709666D02*
X153758285Y-103657285D01*
X153986857Y-103657285D01*
X154101142Y-103709666D01*
X154158285Y-103762047D01*
X154215428Y-103866809D01*
X154215428Y-104181095D01*
X154158285Y-104285857D01*
X154101142Y-104338238D01*
X153986857Y-104390619D01*
X153758285Y-104390619D01*
X153644000Y-104338238D01*
X155244000Y-104390619D02*
X155244000Y-103814428D01*
X155186857Y-103709666D01*
X155072571Y-103657285D01*
X154844000Y-103657285D01*
X154729714Y-103709666D01*
X155244000Y-104338238D02*
X155129714Y-104390619D01*
X154844000Y-104390619D01*
X154729714Y-104338238D01*
X154672571Y-104233476D01*
X154672571Y-104128714D01*
X154729714Y-104023952D01*
X154844000Y-103971571D01*
X155129714Y-103971571D01*
X155244000Y-103919190D01*
X155758285Y-104338238D02*
X155872571Y-104390619D01*
X156101142Y-104390619D01*
X156215428Y-104338238D01*
X156272571Y-104233476D01*
X156272571Y-104181095D01*
X156215428Y-104076333D01*
X156101142Y-104023952D01*
X155929714Y-104023952D01*
X155815428Y-103971571D01*
X155758285Y-103866809D01*
X155758285Y-103814428D01*
X155815428Y-103709666D01*
X155929714Y-103657285D01*
X156101142Y-103657285D01*
X156215428Y-103709666D01*
X156729714Y-104338238D02*
X156844000Y-104390619D01*
X157072571Y-104390619D01*
X157186857Y-104338238D01*
X157244000Y-104233476D01*
X157244000Y-104181095D01*
X157186857Y-104076333D01*
X157072571Y-104023952D01*
X156901142Y-104023952D01*
X156786857Y-103971571D01*
X156729714Y-103866809D01*
X156729714Y-103814428D01*
X156786857Y-103709666D01*
X156901142Y-103657285D01*
X157072571Y-103657285D01*
X157186857Y-103709666D01*
X133929714Y-106161619D02*
X133358285Y-106161619D01*
X133358285Y-105061619D01*
X134329714Y-106161619D02*
X134329714Y-105428285D01*
X134329714Y-105061619D02*
X134272571Y-105114000D01*
X134329714Y-105166380D01*
X134386857Y-105114000D01*
X134329714Y-105061619D01*
X134329714Y-105166380D01*
X135415428Y-106109238D02*
X135301142Y-106161619D01*
X135072571Y-106161619D01*
X134958285Y-106109238D01*
X134901142Y-106056857D01*
X134844000Y-105952095D01*
X134844000Y-105637809D01*
X134901142Y-105533047D01*
X134958285Y-105480666D01*
X135072571Y-105428285D01*
X135301142Y-105428285D01*
X135415428Y-105480666D01*
X136386857Y-106109238D02*
X136272571Y-106161619D01*
X136044000Y-106161619D01*
X135929714Y-106109238D01*
X135872571Y-106004476D01*
X135872571Y-105585428D01*
X135929714Y-105480666D01*
X136044000Y-105428285D01*
X136272571Y-105428285D01*
X136386857Y-105480666D01*
X136444000Y-105585428D01*
X136444000Y-105690190D01*
X135872571Y-105794952D01*
X136958285Y-105428285D02*
X136958285Y-106161619D01*
X136958285Y-105533047D02*
X137015428Y-105480666D01*
X137129714Y-105428285D01*
X137301142Y-105428285D01*
X137415428Y-105480666D01*
X137472571Y-105585428D01*
X137472571Y-106161619D01*
X137986857Y-106109238D02*
X138101142Y-106161619D01*
X138329714Y-106161619D01*
X138444000Y-106109238D01*
X138501142Y-106004476D01*
X138501142Y-105952095D01*
X138444000Y-105847333D01*
X138329714Y-105794952D01*
X138158285Y-105794952D01*
X138044000Y-105742571D01*
X137986857Y-105637809D01*
X137986857Y-105585428D01*
X138044000Y-105480666D01*
X138158285Y-105428285D01*
X138329714Y-105428285D01*
X138444000Y-105480666D01*
X139472571Y-106109238D02*
X139358285Y-106161619D01*
X139129714Y-106161619D01*
X139015428Y-106109238D01*
X138958285Y-106004476D01*
X138958285Y-105585428D01*
X139015428Y-105480666D01*
X139129714Y-105428285D01*
X139358285Y-105428285D01*
X139472571Y-105480666D01*
X139529714Y-105585428D01*
X139529714Y-105690190D01*
X138958285Y-105794952D01*
X140558285Y-106161619D02*
X140558285Y-105061619D01*
X140558285Y-106109238D02*
X140444000Y-106161619D01*
X140215428Y-106161619D01*
X140101142Y-106109238D01*
X140044000Y-106056857D01*
X139986857Y-105952095D01*
X139986857Y-105637809D01*
X140044000Y-105533047D01*
X140101142Y-105480666D01*
X140215428Y-105428285D01*
X140444000Y-105428285D01*
X140558285Y-105480666D01*
X142558285Y-105428285D02*
X142558285Y-106161619D01*
X142044000Y-105428285D02*
X142044000Y-106004476D01*
X142101142Y-106109238D01*
X142215428Y-106161619D01*
X142386857Y-106161619D01*
X142501142Y-106109238D01*
X142558285Y-106056857D01*
X143129714Y-105428285D02*
X143129714Y-106161619D01*
X143129714Y-105533047D02*
X143186857Y-105480666D01*
X143301142Y-105428285D01*
X143472571Y-105428285D01*
X143586857Y-105480666D01*
X143644000Y-105585428D01*
X143644000Y-106161619D01*
X144729714Y-106161619D02*
X144729714Y-105061619D01*
X144729714Y-106109238D02*
X144615428Y-106161619D01*
X144386857Y-106161619D01*
X144272571Y-106109238D01*
X144215428Y-106056857D01*
X144158285Y-105952095D01*
X144158285Y-105637809D01*
X144215428Y-105533047D01*
X144272571Y-105480666D01*
X144386857Y-105428285D01*
X144615428Y-105428285D01*
X144729714Y-105480666D01*
X145758285Y-106109238D02*
X145644000Y-106161619D01*
X145415428Y-106161619D01*
X145301142Y-106109238D01*
X145244000Y-106004476D01*
X145244000Y-105585428D01*
X145301142Y-105480666D01*
X145415428Y-105428285D01*
X145644000Y-105428285D01*
X145758285Y-105480666D01*
X145815428Y-105585428D01*
X145815428Y-105690190D01*
X145244000Y-105794952D01*
X146329714Y-106161619D02*
X146329714Y-105428285D01*
X146329714Y-105637809D02*
X146386857Y-105533047D01*
X146444000Y-105480666D01*
X146558285Y-105428285D01*
X146672571Y-105428285D01*
X148672571Y-106056857D02*
X148615428Y-106109238D01*
X148444000Y-106161619D01*
X148329714Y-106161619D01*
X148158285Y-106109238D01*
X148044000Y-106004476D01*
X147986857Y-105899714D01*
X147929714Y-105690190D01*
X147929714Y-105533047D01*
X147986857Y-105323523D01*
X148044000Y-105218761D01*
X148158285Y-105114000D01*
X148329714Y-105061619D01*
X148444000Y-105061619D01*
X148615428Y-105114000D01*
X148672571Y-105166380D01*
X149186857Y-105585428D02*
X149586857Y-105585428D01*
X149758285Y-106161619D02*
X149186857Y-106161619D01*
X149186857Y-105061619D01*
X149758285Y-105061619D01*
X150958285Y-106161619D02*
X150558285Y-105637809D01*
X150272571Y-106161619D02*
X150272571Y-105061619D01*
X150729714Y-105061619D01*
X150844000Y-105114000D01*
X150901142Y-105166380D01*
X150958285Y-105271142D01*
X150958285Y-105428285D01*
X150901142Y-105533047D01*
X150844000Y-105585428D01*
X150729714Y-105637809D01*
X150272571Y-105637809D01*
X151472571Y-106161619D02*
X151472571Y-105061619D01*
X152158285Y-106161619D01*
X152158285Y-105061619D01*
X152729714Y-105742571D02*
X153644000Y-105742571D01*
X154444000Y-105061619D02*
X154672571Y-105061619D01*
X154786857Y-105114000D01*
X154901142Y-105218761D01*
X154958285Y-105428285D01*
X154958285Y-105794952D01*
X154901142Y-106004476D01*
X154786857Y-106109238D01*
X154672571Y-106161619D01*
X154444000Y-106161619D01*
X154329714Y-106109238D01*
X154215428Y-106004476D01*
X154158285Y-105794952D01*
X154158285Y-105428285D01*
X154215428Y-105218761D01*
X154329714Y-105114000D01*
X154444000Y-105061619D01*
X155472571Y-106161619D02*
X155472571Y-105061619D01*
X155472571Y-105585428D02*
X156158285Y-105585428D01*
X156158285Y-106161619D02*
X156158285Y-105061619D01*
X157301142Y-106161619D02*
X156729714Y-106161619D01*
X156729714Y-105061619D01*
X157701142Y-105742571D02*
X158615428Y-105742571D01*
X159072571Y-105061619D02*
X159358285Y-106161619D01*
X159586857Y-105375904D01*
X159815428Y-106161619D01*
X160101142Y-105061619D01*
X160558285Y-105742571D02*
X161472571Y-105742571D01*
X161986857Y-105166380D02*
X162044000Y-105114000D01*
X162158285Y-105061619D01*
X162444000Y-105061619D01*
X162558285Y-105114000D01*
X162615428Y-105166380D01*
X162672571Y-105271142D01*
X162672571Y-105375904D01*
X162615428Y-105533047D01*
X161929714Y-106161619D01*
X162672571Y-106161619D01*
X163186857Y-106056857D02*
X163244000Y-106109238D01*
X163186857Y-106161619D01*
X163129714Y-106109238D01*
X163186857Y-106056857D01*
X163186857Y-106161619D01*
X163986857Y-105061619D02*
X164101142Y-105061619D01*
X164215428Y-105114000D01*
X164272571Y-105166380D01*
X164329714Y-105271142D01*
X164386857Y-105480666D01*
X164386857Y-105742571D01*
X164329714Y-105952095D01*
X164272571Y-106056857D01*
X164215428Y-106109238D01*
X164101142Y-106161619D01*
X163986857Y-106161619D01*
X163872571Y-106109238D01*
X163815428Y-106056857D01*
X163758285Y-105952095D01*
X163701142Y-105742571D01*
X163701142Y-105480666D01*
X163758285Y-105271142D01*
X163815428Y-105166380D01*
X163872571Y-105114000D01*
X163986857Y-105061619D01*
X143015428Y-106937380D02*
X143072571Y-106885000D01*
X143186857Y-106832619D01*
X143472571Y-106832619D01*
X143586857Y-106885000D01*
X143644000Y-106937380D01*
X143701142Y-107042142D01*
X143701142Y-107146904D01*
X143644000Y-107304047D01*
X142958285Y-107932619D01*
X143701142Y-107932619D01*
X144444000Y-106832619D02*
X144558285Y-106832619D01*
X144672571Y-106885000D01*
X144729714Y-106937380D01*
X144786857Y-107042142D01*
X144844000Y-107251666D01*
X144844000Y-107513571D01*
X144786857Y-107723095D01*
X144729714Y-107827857D01*
X144672571Y-107880238D01*
X144558285Y-107932619D01*
X144444000Y-107932619D01*
X144329714Y-107880238D01*
X144272571Y-107827857D01*
X144215428Y-107723095D01*
X144158285Y-107513571D01*
X144158285Y-107251666D01*
X144215428Y-107042142D01*
X144272571Y-106937380D01*
X144329714Y-106885000D01*
X144444000Y-106832619D01*
X145301142Y-106937380D02*
X145358285Y-106885000D01*
X145472571Y-106832619D01*
X145758285Y-106832619D01*
X145872571Y-106885000D01*
X145929714Y-106937380D01*
X145986857Y-107042142D01*
X145986857Y-107146904D01*
X145929714Y-107304047D01*
X145244000Y-107932619D01*
X145986857Y-107932619D01*
X146444000Y-106937380D02*
X146501142Y-106885000D01*
X146615428Y-106832619D01*
X146901142Y-106832619D01*
X147015428Y-106885000D01*
X147072571Y-106937380D01*
X147129714Y-107042142D01*
X147129714Y-107146904D01*
X147072571Y-107304047D01*
X146386857Y-107932619D01*
X147129714Y-107932619D01*
X147644000Y-107513571D02*
X148558285Y-107513571D01*
X149358285Y-106832619D02*
X149472571Y-106832619D01*
X149586857Y-106885000D01*
X149644000Y-106937380D01*
X149701142Y-107042142D01*
X149758285Y-107251666D01*
X149758285Y-107513571D01*
X149701142Y-107723095D01*
X149644000Y-107827857D01*
X149586857Y-107880238D01*
X149472571Y-107932619D01*
X149358285Y-107932619D01*
X149244000Y-107880238D01*
X149186857Y-107827857D01*
X149129714Y-107723095D01*
X149072571Y-107513571D01*
X149072571Y-107251666D01*
X149129714Y-107042142D01*
X149186857Y-106937380D01*
X149244000Y-106885000D01*
X149358285Y-106832619D01*
X150444000Y-107304047D02*
X150329714Y-107251666D01*
X150272571Y-107199285D01*
X150215428Y-107094523D01*
X150215428Y-107042142D01*
X150272571Y-106937380D01*
X150329714Y-106885000D01*
X150444000Y-106832619D01*
X150672571Y-106832619D01*
X150786857Y-106885000D01*
X150844000Y-106937380D01*
X150901142Y-107042142D01*
X150901142Y-107094523D01*
X150844000Y-107199285D01*
X150786857Y-107251666D01*
X150672571Y-107304047D01*
X150444000Y-107304047D01*
X150329714Y-107356428D01*
X150272571Y-107408809D01*
X150215428Y-107513571D01*
X150215428Y-107723095D01*
X150272571Y-107827857D01*
X150329714Y-107880238D01*
X150444000Y-107932619D01*
X150672571Y-107932619D01*
X150786857Y-107880238D01*
X150844000Y-107827857D01*
X150901142Y-107723095D01*
X150901142Y-107513571D01*
X150844000Y-107408809D01*
X150786857Y-107356428D01*
X150672571Y-107304047D01*
X151415428Y-107513571D02*
X152329714Y-107513571D01*
X153529714Y-107932619D02*
X152844000Y-107932619D01*
X153186857Y-107932619D02*
X153186857Y-106832619D01*
X153072571Y-106989761D01*
X152958285Y-107094523D01*
X152844000Y-107146904D01*
X154615428Y-106832619D02*
X154044000Y-106832619D01*
X153986857Y-107356428D01*
X154044000Y-107304047D01*
X154158285Y-107251666D01*
X154444000Y-107251666D01*
X154558285Y-107304047D01*
X154615428Y-107356428D01*
X154672571Y-107461190D01*
X154672571Y-107723095D01*
X154615428Y-107827857D01*
X154558285Y-107880238D01*
X154444000Y-107932619D01*
X154158285Y-107932619D01*
X154044000Y-107880238D01*
X153986857Y-107827857D01*
D12*
%TO.C,J5*%
X112569666Y-71588380D02*
X112569666Y-72302666D01*
X112522047Y-72445523D01*
X112426809Y-72540761D01*
X112283952Y-72588380D01*
X112188714Y-72588380D01*
X113522047Y-71588380D02*
X113045857Y-71588380D01*
X112998238Y-72064571D01*
X113045857Y-72016952D01*
X113141095Y-71969333D01*
X113379190Y-71969333D01*
X113474428Y-72016952D01*
X113522047Y-72064571D01*
X113569666Y-72159809D01*
X113569666Y-72397904D01*
X113522047Y-72493142D01*
X113474428Y-72540761D01*
X113379190Y-72588380D01*
X113141095Y-72588380D01*
X113045857Y-72540761D01*
X112998238Y-72493142D01*
X125629142Y-67281857D02*
X124729142Y-67281857D01*
X124729142Y-67067571D01*
X124772000Y-66939000D01*
X124857714Y-66853285D01*
X124943428Y-66810428D01*
X125114857Y-66767571D01*
X125243428Y-66767571D01*
X125414857Y-66810428D01*
X125500571Y-66853285D01*
X125586285Y-66939000D01*
X125629142Y-67067571D01*
X125629142Y-67281857D01*
X125629142Y-66381857D02*
X124729142Y-66381857D01*
X125586285Y-65996142D02*
X125629142Y-65867571D01*
X125629142Y-65653285D01*
X125586285Y-65567571D01*
X125543428Y-65524714D01*
X125457714Y-65481857D01*
X125372000Y-65481857D01*
X125286285Y-65524714D01*
X125243428Y-65567571D01*
X125200571Y-65653285D01*
X125157714Y-65824714D01*
X125114857Y-65910428D01*
X125072000Y-65953285D01*
X124986285Y-65996142D01*
X124900571Y-65996142D01*
X124814857Y-65953285D01*
X124772000Y-65910428D01*
X124729142Y-65824714D01*
X124729142Y-65610428D01*
X124772000Y-65481857D01*
X125629142Y-65096142D02*
X124729142Y-65096142D01*
X124729142Y-64753285D01*
X124772000Y-64667571D01*
X124814857Y-64624714D01*
X124900571Y-64581857D01*
X125029142Y-64581857D01*
X125114857Y-64624714D01*
X125157714Y-64667571D01*
X125200571Y-64753285D01*
X125200571Y-65096142D01*
X125629142Y-63767571D02*
X125629142Y-64196142D01*
X124729142Y-64196142D01*
X125372000Y-63510428D02*
X125372000Y-63081857D01*
X125629142Y-63596142D02*
X124729142Y-63296142D01*
X125629142Y-62996142D01*
X125200571Y-62524714D02*
X125629142Y-62524714D01*
X124729142Y-62824714D02*
X125200571Y-62524714D01*
X124729142Y-62224714D01*
X124729142Y-62010428D02*
X124729142Y-61453285D01*
X125072000Y-61753285D01*
X125072000Y-61624714D01*
X125114857Y-61539000D01*
X125157714Y-61496142D01*
X125243428Y-61453285D01*
X125457714Y-61453285D01*
X125543428Y-61496142D01*
X125586285Y-61539000D01*
X125629142Y-61624714D01*
X125629142Y-61881857D01*
X125586285Y-61967571D01*
X125543428Y-62010428D01*
%TO.C,R9*%
X180056032Y-93716379D02*
X179722699Y-93240189D01*
X179484603Y-93716379D02*
X179484603Y-92716379D01*
X179865556Y-92716379D01*
X179960794Y-92763999D01*
X180008413Y-92811618D01*
X180056032Y-92906856D01*
X180056032Y-93049713D01*
X180008413Y-93144951D01*
X179960794Y-93192570D01*
X179865556Y-93240189D01*
X179484603Y-93240189D01*
X180532222Y-93716379D02*
X180722699Y-93716379D01*
X180817937Y-93668760D01*
X180865556Y-93621141D01*
X180960794Y-93478284D01*
X181008413Y-93287808D01*
X181008413Y-92906856D01*
X180960794Y-92811618D01*
X180913175Y-92763999D01*
X180817937Y-92716379D01*
X180627460Y-92716379D01*
X180532222Y-92763999D01*
X180484603Y-92811618D01*
X180436984Y-92906856D01*
X180436984Y-93144951D01*
X180484603Y-93240189D01*
X180532222Y-93287808D01*
X180627460Y-93335427D01*
X180817937Y-93335427D01*
X180913175Y-93287808D01*
X180960794Y-93240189D01*
X181008413Y-93144951D01*
%TO.C,J10*%
X117046476Y-113879380D02*
X117046476Y-114593666D01*
X116998857Y-114736523D01*
X116903619Y-114831761D01*
X116760761Y-114879380D01*
X116665523Y-114879380D01*
X118046476Y-114879380D02*
X117475047Y-114879380D01*
X117760761Y-114879380D02*
X117760761Y-113879380D01*
X117665523Y-114022238D01*
X117570285Y-114117476D01*
X117475047Y-114165095D01*
X118665523Y-113879380D02*
X118760761Y-113879380D01*
X118856000Y-113927000D01*
X118903619Y-113974619D01*
X118951238Y-114069857D01*
X118998857Y-114260333D01*
X118998857Y-114498428D01*
X118951238Y-114688904D01*
X118903619Y-114784142D01*
X118856000Y-114831761D01*
X118760761Y-114879380D01*
X118665523Y-114879380D01*
X118570285Y-114831761D01*
X118522666Y-114784142D01*
X118475047Y-114688904D01*
X118427428Y-114498428D01*
X118427428Y-114260333D01*
X118475047Y-114069857D01*
X118522666Y-113974619D01*
X118570285Y-113927000D01*
X118665523Y-113879380D01*
%TO.C,J9*%
X119848380Y-108664333D02*
X120562666Y-108664333D01*
X120705523Y-108711952D01*
X120800761Y-108807190D01*
X120848380Y-108950047D01*
X120848380Y-109045285D01*
X120848380Y-108140523D02*
X120848380Y-107950047D01*
X120800761Y-107854809D01*
X120753142Y-107807190D01*
X120610285Y-107711952D01*
X120419809Y-107664333D01*
X120038857Y-107664333D01*
X119943619Y-107711952D01*
X119896000Y-107759571D01*
X119848380Y-107854809D01*
X119848380Y-108045285D01*
X119896000Y-108140523D01*
X119943619Y-108188142D01*
X120038857Y-108235761D01*
X120276952Y-108235761D01*
X120372190Y-108188142D01*
X120419809Y-108140523D01*
X120467428Y-108045285D01*
X120467428Y-107854809D01*
X120419809Y-107759571D01*
X120372190Y-107711952D01*
X120276952Y-107664333D01*
X109942380Y-110378619D02*
X110942380Y-110045285D01*
X109942380Y-109711952D01*
X110942380Y-109378619D02*
X109942380Y-109378619D01*
X110942380Y-108902428D02*
X109942380Y-108902428D01*
X109942380Y-108664333D01*
X109990000Y-108521476D01*
X110085238Y-108426238D01*
X110180476Y-108378619D01*
X110370952Y-108331000D01*
X110513809Y-108331000D01*
X110704285Y-108378619D01*
X110799523Y-108426238D01*
X110894761Y-108521476D01*
X110942380Y-108664333D01*
X110942380Y-108902428D01*
X110418571Y-107902428D02*
X110418571Y-107569095D01*
X110942380Y-107426238D02*
X110942380Y-107902428D01*
X109942380Y-107902428D01*
X109942380Y-107426238D01*
X109942380Y-106807190D02*
X109942380Y-106616714D01*
X109990000Y-106521476D01*
X110085238Y-106426238D01*
X110275714Y-106378619D01*
X110609047Y-106378619D01*
X110799523Y-106426238D01*
X110894761Y-106521476D01*
X110942380Y-106616714D01*
X110942380Y-106807190D01*
X110894761Y-106902428D01*
X110799523Y-106997666D01*
X110609047Y-107045285D01*
X110275714Y-107045285D01*
X110085238Y-106997666D01*
X109990000Y-106902428D01*
X109942380Y-106807190D01*
%TO.C,R4*%
X127722333Y-78176380D02*
X127389000Y-77700190D01*
X127150904Y-78176380D02*
X127150904Y-77176380D01*
X127531857Y-77176380D01*
X127627095Y-77224000D01*
X127674714Y-77271619D01*
X127722333Y-77366857D01*
X127722333Y-77509714D01*
X127674714Y-77604952D01*
X127627095Y-77652571D01*
X127531857Y-77700190D01*
X127150904Y-77700190D01*
X128579476Y-77509714D02*
X128579476Y-78176380D01*
X128341380Y-77128761D02*
X128103285Y-77843047D01*
X128722333Y-77843047D01*
%TO.C,C2*%
X134072333Y-96877142D02*
X134024714Y-96924761D01*
X133881857Y-96972380D01*
X133786619Y-96972380D01*
X133643761Y-96924761D01*
X133548523Y-96829523D01*
X133500904Y-96734285D01*
X133453285Y-96543809D01*
X133453285Y-96400952D01*
X133500904Y-96210476D01*
X133548523Y-96115238D01*
X133643761Y-96020000D01*
X133786619Y-95972380D01*
X133881857Y-95972380D01*
X134024714Y-96020000D01*
X134072333Y-96067619D01*
X134453285Y-96067619D02*
X134500904Y-96020000D01*
X134596142Y-95972380D01*
X134834238Y-95972380D01*
X134929476Y-96020000D01*
X134977095Y-96067619D01*
X135024714Y-96162857D01*
X135024714Y-96258095D01*
X134977095Y-96400952D01*
X134405666Y-96972380D01*
X135024714Y-96972380D01*
%TO.C,Q2*%
X126851619Y-123539238D02*
X126804000Y-123634476D01*
X126708761Y-123729714D01*
X126565904Y-123872571D01*
X126518285Y-123967809D01*
X126518285Y-124063047D01*
X126756380Y-124015428D02*
X126708761Y-124110666D01*
X126613523Y-124205904D01*
X126423047Y-124253523D01*
X126089714Y-124253523D01*
X125899238Y-124205904D01*
X125804000Y-124110666D01*
X125756380Y-124015428D01*
X125756380Y-123824952D01*
X125804000Y-123729714D01*
X125899238Y-123634476D01*
X126089714Y-123586857D01*
X126423047Y-123586857D01*
X126613523Y-123634476D01*
X126708761Y-123729714D01*
X126756380Y-123824952D01*
X126756380Y-124015428D01*
X125851619Y-123205904D02*
X125804000Y-123158285D01*
X125756380Y-123063047D01*
X125756380Y-122824952D01*
X125804000Y-122729714D01*
X125851619Y-122682095D01*
X125946857Y-122634476D01*
X126042095Y-122634476D01*
X126184952Y-122682095D01*
X126756380Y-123253523D01*
X126756380Y-122634476D01*
%TO.C,C21*%
X123436142Y-131095714D02*
X123388523Y-131133809D01*
X123245666Y-131171904D01*
X123150428Y-131171904D01*
X123007571Y-131133809D01*
X122912333Y-131057619D01*
X122864714Y-130981428D01*
X122817095Y-130829047D01*
X122817095Y-130714761D01*
X122864714Y-130562380D01*
X122912333Y-130486190D01*
X123007571Y-130410000D01*
X123150428Y-130371904D01*
X123245666Y-130371904D01*
X123388523Y-130410000D01*
X123436142Y-130448095D01*
X123817095Y-130448095D02*
X123864714Y-130410000D01*
X123959952Y-130371904D01*
X124198047Y-130371904D01*
X124293285Y-130410000D01*
X124340904Y-130448095D01*
X124388523Y-130524285D01*
X124388523Y-130600476D01*
X124340904Y-130714761D01*
X123769476Y-131171904D01*
X124388523Y-131171904D01*
X125340904Y-131171904D02*
X124769476Y-131171904D01*
X125055190Y-131171904D02*
X125055190Y-130371904D01*
X124959952Y-130486190D01*
X124864714Y-130562380D01*
X124769476Y-130600476D01*
%TO.C,J2*%
X156003666Y-71588380D02*
X156003666Y-72302666D01*
X155956047Y-72445523D01*
X155860809Y-72540761D01*
X155717952Y-72588380D01*
X155622714Y-72588380D01*
X156432238Y-71683619D02*
X156479857Y-71636000D01*
X156575095Y-71588380D01*
X156813190Y-71588380D01*
X156908428Y-71636000D01*
X156956047Y-71683619D01*
X157003666Y-71778857D01*
X157003666Y-71874095D01*
X156956047Y-72016952D01*
X156384619Y-72588380D01*
X157003666Y-72588380D01*
X169063142Y-67154857D02*
X168163142Y-67154857D01*
X168163142Y-66940571D01*
X168206000Y-66812000D01*
X168291714Y-66726285D01*
X168377428Y-66683428D01*
X168548857Y-66640571D01*
X168677428Y-66640571D01*
X168848857Y-66683428D01*
X168934571Y-66726285D01*
X169020285Y-66812000D01*
X169063142Y-66940571D01*
X169063142Y-67154857D01*
X169063142Y-66254857D02*
X168163142Y-66254857D01*
X169020285Y-65869142D02*
X169063142Y-65740571D01*
X169063142Y-65526285D01*
X169020285Y-65440571D01*
X168977428Y-65397714D01*
X168891714Y-65354857D01*
X168806000Y-65354857D01*
X168720285Y-65397714D01*
X168677428Y-65440571D01*
X168634571Y-65526285D01*
X168591714Y-65697714D01*
X168548857Y-65783428D01*
X168506000Y-65826285D01*
X168420285Y-65869142D01*
X168334571Y-65869142D01*
X168248857Y-65826285D01*
X168206000Y-65783428D01*
X168163142Y-65697714D01*
X168163142Y-65483428D01*
X168206000Y-65354857D01*
X169063142Y-64969142D02*
X168163142Y-64969142D01*
X168163142Y-64626285D01*
X168206000Y-64540571D01*
X168248857Y-64497714D01*
X168334571Y-64454857D01*
X168463142Y-64454857D01*
X168548857Y-64497714D01*
X168591714Y-64540571D01*
X168634571Y-64626285D01*
X168634571Y-64969142D01*
X169063142Y-63640571D02*
X169063142Y-64069142D01*
X168163142Y-64069142D01*
X168806000Y-63383428D02*
X168806000Y-62954857D01*
X169063142Y-63469142D02*
X168163142Y-63169142D01*
X169063142Y-62869142D01*
X168634571Y-62397714D02*
X169063142Y-62397714D01*
X168163142Y-62697714D02*
X168634571Y-62397714D01*
X168163142Y-62097714D01*
X168163142Y-61626285D02*
X168163142Y-61540571D01*
X168206000Y-61454857D01*
X168248857Y-61412000D01*
X168334571Y-61369142D01*
X168506000Y-61326285D01*
X168720285Y-61326285D01*
X168891714Y-61369142D01*
X168977428Y-61412000D01*
X169020285Y-61454857D01*
X169063142Y-61540571D01*
X169063142Y-61626285D01*
X169020285Y-61712000D01*
X168977428Y-61754857D01*
X168891714Y-61797714D01*
X168720285Y-61840571D01*
X168506000Y-61840571D01*
X168334571Y-61797714D01*
X168248857Y-61754857D01*
X168206000Y-61712000D01*
X168163142Y-61626285D01*
%TO.C,C22*%
X169563642Y-121929142D02*
X169516023Y-121976761D01*
X169373166Y-122024380D01*
X169277928Y-122024380D01*
X169135071Y-121976761D01*
X169039833Y-121881523D01*
X168992214Y-121786285D01*
X168944595Y-121595809D01*
X168944595Y-121452952D01*
X168992214Y-121262476D01*
X169039833Y-121167238D01*
X169135071Y-121072000D01*
X169277928Y-121024380D01*
X169373166Y-121024380D01*
X169516023Y-121072000D01*
X169563642Y-121119619D01*
X169944595Y-121119619D02*
X169992214Y-121072000D01*
X170087452Y-121024380D01*
X170325547Y-121024380D01*
X170420785Y-121072000D01*
X170468404Y-121119619D01*
X170516023Y-121214857D01*
X170516023Y-121310095D01*
X170468404Y-121452952D01*
X169896976Y-122024380D01*
X170516023Y-122024380D01*
X170896976Y-121119619D02*
X170944595Y-121072000D01*
X171039833Y-121024380D01*
X171277928Y-121024380D01*
X171373166Y-121072000D01*
X171420785Y-121119619D01*
X171468404Y-121214857D01*
X171468404Y-121310095D01*
X171420785Y-121452952D01*
X170849357Y-122024380D01*
X171468404Y-122024380D01*
%TO.C,R10*%
X127095642Y-118329679D02*
X126762309Y-117853489D01*
X126524214Y-118329679D02*
X126524214Y-117329679D01*
X126905166Y-117329679D01*
X127000404Y-117377299D01*
X127048023Y-117424918D01*
X127095642Y-117520156D01*
X127095642Y-117663013D01*
X127048023Y-117758251D01*
X127000404Y-117805870D01*
X126905166Y-117853489D01*
X126524214Y-117853489D01*
X128048023Y-118329679D02*
X127476595Y-118329679D01*
X127762309Y-118329679D02*
X127762309Y-117329679D01*
X127667071Y-117472537D01*
X127571833Y-117567775D01*
X127476595Y-117615394D01*
X128667071Y-117329679D02*
X128762309Y-117329679D01*
X128857547Y-117377299D01*
X128905166Y-117424918D01*
X128952785Y-117520156D01*
X129000404Y-117710632D01*
X129000404Y-117948727D01*
X128952785Y-118139203D01*
X128905166Y-118234441D01*
X128857547Y-118282060D01*
X128762309Y-118329679D01*
X128667071Y-118329679D01*
X128571833Y-118282060D01*
X128524214Y-118234441D01*
X128476595Y-118139203D01*
X128428976Y-117948727D01*
X128428976Y-117710632D01*
X128476595Y-117520156D01*
X128524214Y-117424918D01*
X128571833Y-117377299D01*
X128667071Y-117329679D01*
D14*
%TO.C,J12*%
X146666904Y-130916523D02*
X146666904Y-131823666D01*
X146606428Y-132005095D01*
X146485476Y-132126047D01*
X146304047Y-132186523D01*
X146183095Y-132186523D01*
X147936904Y-132186523D02*
X147211190Y-132186523D01*
X147574047Y-132186523D02*
X147574047Y-130916523D01*
X147453095Y-131097952D01*
X147332142Y-131218904D01*
X147211190Y-131279380D01*
X148420714Y-131037476D02*
X148481190Y-130977000D01*
X148602142Y-130916523D01*
X148904523Y-130916523D01*
X149025476Y-130977000D01*
X149085952Y-131037476D01*
X149146428Y-131158428D01*
X149146428Y-131279380D01*
X149085952Y-131460809D01*
X148360238Y-132186523D01*
X149146428Y-132186523D01*
D12*
%TO.C,R11*%
X122039142Y-133548380D02*
X121705809Y-133072190D01*
X121467714Y-133548380D02*
X121467714Y-132548380D01*
X121848666Y-132548380D01*
X121943904Y-132596000D01*
X121991523Y-132643619D01*
X122039142Y-132738857D01*
X122039142Y-132881714D01*
X121991523Y-132976952D01*
X121943904Y-133024571D01*
X121848666Y-133072190D01*
X121467714Y-133072190D01*
X122991523Y-133548380D02*
X122420095Y-133548380D01*
X122705809Y-133548380D02*
X122705809Y-132548380D01*
X122610571Y-132691238D01*
X122515333Y-132786476D01*
X122420095Y-132834095D01*
X123943904Y-133548380D02*
X123372476Y-133548380D01*
X123658190Y-133548380D02*
X123658190Y-132548380D01*
X123562952Y-132691238D01*
X123467714Y-132786476D01*
X123372476Y-132834095D01*
%TO.C,JP4*%
X175115380Y-99237332D02*
X175829666Y-99237332D01*
X175972523Y-99284951D01*
X176067761Y-99380189D01*
X176115380Y-99523046D01*
X176115380Y-99618284D01*
X176115380Y-98761141D02*
X175115380Y-98761141D01*
X175115380Y-98380189D01*
X175163000Y-98284951D01*
X175210619Y-98237332D01*
X175305857Y-98189713D01*
X175448714Y-98189713D01*
X175543952Y-98237332D01*
X175591571Y-98284951D01*
X175639190Y-98380189D01*
X175639190Y-98761141D01*
X175448714Y-97332570D02*
X176115380Y-97332570D01*
X175067761Y-97570665D02*
X175782047Y-97808760D01*
X175782047Y-97189713D01*
%TO.C,U7*%
X151238380Y-114114404D02*
X152047904Y-114114404D01*
X152143142Y-114066785D01*
X152190761Y-114019166D01*
X152238380Y-113923928D01*
X152238380Y-113733452D01*
X152190761Y-113638214D01*
X152143142Y-113590595D01*
X152047904Y-113542976D01*
X151238380Y-113542976D01*
X151238380Y-113162023D02*
X151238380Y-112495357D01*
X152238380Y-112923928D01*
%TO.C,R2*%
X151852333Y-82494380D02*
X151519000Y-82018190D01*
X151280904Y-82494380D02*
X151280904Y-81494380D01*
X151661857Y-81494380D01*
X151757095Y-81542000D01*
X151804714Y-81589619D01*
X151852333Y-81684857D01*
X151852333Y-81827714D01*
X151804714Y-81922952D01*
X151757095Y-81970571D01*
X151661857Y-82018190D01*
X151280904Y-82018190D01*
X152233285Y-81589619D02*
X152280904Y-81542000D01*
X152376142Y-81494380D01*
X152614238Y-81494380D01*
X152709476Y-81542000D01*
X152757095Y-81589619D01*
X152804714Y-81684857D01*
X152804714Y-81780095D01*
X152757095Y-81922952D01*
X152185666Y-82494380D01*
X152804714Y-82494380D01*
%TO.C,C10*%
X177030142Y-109069142D02*
X176982523Y-109116761D01*
X176839666Y-109164380D01*
X176744428Y-109164380D01*
X176601571Y-109116761D01*
X176506333Y-109021523D01*
X176458714Y-108926285D01*
X176411095Y-108735809D01*
X176411095Y-108592952D01*
X176458714Y-108402476D01*
X176506333Y-108307238D01*
X176601571Y-108212000D01*
X176744428Y-108164380D01*
X176839666Y-108164380D01*
X176982523Y-108212000D01*
X177030142Y-108259619D01*
X177982523Y-109164380D02*
X177411095Y-109164380D01*
X177696809Y-109164380D02*
X177696809Y-108164380D01*
X177601571Y-108307238D01*
X177506333Y-108402476D01*
X177411095Y-108450095D01*
X178601571Y-108164380D02*
X178696809Y-108164380D01*
X178792047Y-108212000D01*
X178839666Y-108259619D01*
X178887285Y-108354857D01*
X178934904Y-108545333D01*
X178934904Y-108783428D01*
X178887285Y-108973904D01*
X178839666Y-109069142D01*
X178792047Y-109116761D01*
X178696809Y-109164380D01*
X178601571Y-109164380D01*
X178506333Y-109116761D01*
X178458714Y-109069142D01*
X178411095Y-108973904D01*
X178363476Y-108783428D01*
X178363476Y-108545333D01*
X178411095Y-108354857D01*
X178458714Y-108259619D01*
X178506333Y-108212000D01*
X178601571Y-108164380D01*
%TO.C,C13*%
X123801142Y-86875857D02*
X123848761Y-86923476D01*
X123896380Y-87066333D01*
X123896380Y-87161571D01*
X123848761Y-87304428D01*
X123753523Y-87399666D01*
X123658285Y-87447285D01*
X123467809Y-87494904D01*
X123324952Y-87494904D01*
X123134476Y-87447285D01*
X123039238Y-87399666D01*
X122944000Y-87304428D01*
X122896380Y-87161571D01*
X122896380Y-87066333D01*
X122944000Y-86923476D01*
X122991619Y-86875857D01*
X123896380Y-85923476D02*
X123896380Y-86494904D01*
X123896380Y-86209190D02*
X122896380Y-86209190D01*
X123039238Y-86304428D01*
X123134476Y-86399666D01*
X123182095Y-86494904D01*
X122896380Y-85590142D02*
X122896380Y-84971095D01*
X123277333Y-85304428D01*
X123277333Y-85161571D01*
X123324952Y-85066333D01*
X123372571Y-85018714D01*
X123467809Y-84971095D01*
X123705904Y-84971095D01*
X123801142Y-85018714D01*
X123848761Y-85066333D01*
X123896380Y-85161571D01*
X123896380Y-85447285D01*
X123848761Y-85542523D01*
X123801142Y-85590142D01*
%TO.C,C4*%
X149846833Y-97893142D02*
X149799214Y-97940761D01*
X149656357Y-97988380D01*
X149561119Y-97988380D01*
X149418261Y-97940761D01*
X149323023Y-97845523D01*
X149275404Y-97750285D01*
X149227785Y-97559809D01*
X149227785Y-97416952D01*
X149275404Y-97226476D01*
X149323023Y-97131238D01*
X149418261Y-97036000D01*
X149561119Y-96988380D01*
X149656357Y-96988380D01*
X149799214Y-97036000D01*
X149846833Y-97083619D01*
X150703976Y-97321714D02*
X150703976Y-97988380D01*
X150465880Y-96940761D02*
X150227785Y-97655047D01*
X150846833Y-97655047D01*
%TO.C,SW1*%
X183447000Y-89705857D02*
X183447000Y-88705857D01*
X184205571Y-89134428D02*
X184253190Y-88991571D01*
X184300809Y-88943952D01*
X184396047Y-88896333D01*
X184538904Y-88896333D01*
X184634142Y-88943952D01*
X184681761Y-88991571D01*
X184729380Y-89086809D01*
X184729380Y-89467761D01*
X183729380Y-89467761D01*
X183729380Y-89134428D01*
X183777000Y-89039190D01*
X183824619Y-88991571D01*
X183919857Y-88943952D01*
X184015095Y-88943952D01*
X184110333Y-88991571D01*
X184157952Y-89039190D01*
X184205571Y-89134428D01*
X184205571Y-89467761D01*
X183447000Y-88705857D02*
X183447000Y-87658238D01*
X183729380Y-88277285D02*
X183729380Y-88086809D01*
X183777000Y-87991571D01*
X183872238Y-87896333D01*
X184062714Y-87848714D01*
X184396047Y-87848714D01*
X184586523Y-87896333D01*
X184681761Y-87991571D01*
X184729380Y-88086809D01*
X184729380Y-88277285D01*
X184681761Y-88372523D01*
X184586523Y-88467761D01*
X184396047Y-88515380D01*
X184062714Y-88515380D01*
X183872238Y-88467761D01*
X183777000Y-88372523D01*
X183729380Y-88277285D01*
X183447000Y-87658238D02*
X183447000Y-86610619D01*
X183729380Y-87229666D02*
X183729380Y-87039190D01*
X183777000Y-86943952D01*
X183872238Y-86848714D01*
X184062714Y-86801095D01*
X184396047Y-86801095D01*
X184586523Y-86848714D01*
X184681761Y-86943952D01*
X184729380Y-87039190D01*
X184729380Y-87229666D01*
X184681761Y-87324904D01*
X184586523Y-87420142D01*
X184396047Y-87467761D01*
X184062714Y-87467761D01*
X183872238Y-87420142D01*
X183777000Y-87324904D01*
X183729380Y-87229666D01*
X183447000Y-86610619D02*
X183447000Y-85848714D01*
X183729380Y-86515380D02*
X183729380Y-85943952D01*
X184729380Y-86229666D02*
X183729380Y-86229666D01*
X183447000Y-85848714D02*
X183447000Y-85086809D01*
X184824619Y-85848714D02*
X184824619Y-85086809D01*
X183447000Y-85086809D02*
X183447000Y-84134428D01*
X184681761Y-84896333D02*
X184729380Y-84753476D01*
X184729380Y-84515380D01*
X184681761Y-84420142D01*
X184634142Y-84372523D01*
X184538904Y-84324904D01*
X184443666Y-84324904D01*
X184348428Y-84372523D01*
X184300809Y-84420142D01*
X184253190Y-84515380D01*
X184205571Y-84705857D01*
X184157952Y-84801095D01*
X184110333Y-84848714D01*
X184015095Y-84896333D01*
X183919857Y-84896333D01*
X183824619Y-84848714D01*
X183777000Y-84801095D01*
X183729380Y-84705857D01*
X183729380Y-84467761D01*
X183777000Y-84324904D01*
X183447000Y-84134428D02*
X183447000Y-83229666D01*
X184205571Y-83896333D02*
X184205571Y-83563000D01*
X184729380Y-83420142D02*
X184729380Y-83896333D01*
X183729380Y-83896333D01*
X183729380Y-83420142D01*
X183447000Y-83229666D02*
X183447000Y-82420142D01*
X184729380Y-82515380D02*
X184729380Y-82991571D01*
X183729380Y-82991571D01*
%TO.C,U6*%
X162638380Y-114114404D02*
X163447904Y-114114404D01*
X163543142Y-114066785D01*
X163590761Y-114019166D01*
X163638380Y-113923928D01*
X163638380Y-113733452D01*
X163590761Y-113638214D01*
X163543142Y-113590595D01*
X163447904Y-113542976D01*
X162638380Y-113542976D01*
X162638380Y-112638214D02*
X162638380Y-112828690D01*
X162686000Y-112923928D01*
X162733619Y-112971547D01*
X162876476Y-113066785D01*
X163066952Y-113114404D01*
X163447904Y-113114404D01*
X163543142Y-113066785D01*
X163590761Y-113019166D01*
X163638380Y-112923928D01*
X163638380Y-112733452D01*
X163590761Y-112638214D01*
X163543142Y-112590595D01*
X163447904Y-112542976D01*
X163209809Y-112542976D01*
X163114571Y-112590595D01*
X163066952Y-112638214D01*
X163019333Y-112733452D01*
X163019333Y-112923928D01*
X163066952Y-113019166D01*
X163114571Y-113066785D01*
X163209809Y-113114404D01*
%TO.C,R3*%
X132317833Y-92367380D02*
X131984500Y-91891190D01*
X131746404Y-92367380D02*
X131746404Y-91367380D01*
X132127357Y-91367380D01*
X132222595Y-91415000D01*
X132270214Y-91462619D01*
X132317833Y-91557857D01*
X132317833Y-91700714D01*
X132270214Y-91795952D01*
X132222595Y-91843571D01*
X132127357Y-91891190D01*
X131746404Y-91891190D01*
X132651166Y-91367380D02*
X133270214Y-91367380D01*
X132936880Y-91748333D01*
X133079738Y-91748333D01*
X133174976Y-91795952D01*
X133222595Y-91843571D01*
X133270214Y-91938809D01*
X133270214Y-92176904D01*
X133222595Y-92272142D01*
X133174976Y-92319761D01*
X133079738Y-92367380D01*
X132794023Y-92367380D01*
X132698785Y-92319761D01*
X132651166Y-92272142D01*
%TO.C,U1*%
X143724380Y-83311904D02*
X144533904Y-83311904D01*
X144629142Y-83264285D01*
X144676761Y-83216666D01*
X144724380Y-83121428D01*
X144724380Y-82930952D01*
X144676761Y-82835714D01*
X144629142Y-82788095D01*
X144533904Y-82740476D01*
X143724380Y-82740476D01*
X144724380Y-81740476D02*
X144724380Y-82311904D01*
X144724380Y-82026190D02*
X143724380Y-82026190D01*
X143867238Y-82121428D01*
X143962476Y-82216666D01*
X144010095Y-82311904D01*
%TO.C,C15*%
X151958142Y-91670142D02*
X151910523Y-91717761D01*
X151767666Y-91765380D01*
X151672428Y-91765380D01*
X151529571Y-91717761D01*
X151434333Y-91622523D01*
X151386714Y-91527285D01*
X151339095Y-91336809D01*
X151339095Y-91193952D01*
X151386714Y-91003476D01*
X151434333Y-90908238D01*
X151529571Y-90813000D01*
X151672428Y-90765380D01*
X151767666Y-90765380D01*
X151910523Y-90813000D01*
X151958142Y-90860619D01*
X152910523Y-91765380D02*
X152339095Y-91765380D01*
X152624809Y-91765380D02*
X152624809Y-90765380D01*
X152529571Y-90908238D01*
X152434333Y-91003476D01*
X152339095Y-91051095D01*
X153815285Y-90765380D02*
X153339095Y-90765380D01*
X153291476Y-91241571D01*
X153339095Y-91193952D01*
X153434333Y-91146333D01*
X153672428Y-91146333D01*
X153767666Y-91193952D01*
X153815285Y-91241571D01*
X153862904Y-91336809D01*
X153862904Y-91574904D01*
X153815285Y-91670142D01*
X153767666Y-91717761D01*
X153672428Y-91765380D01*
X153434333Y-91765380D01*
X153339095Y-91717761D01*
X153291476Y-91670142D01*
%TO.C,R12*%
X120007142Y-125547380D02*
X119673809Y-125071190D01*
X119435714Y-125547380D02*
X119435714Y-124547380D01*
X119816666Y-124547380D01*
X119911904Y-124595000D01*
X119959523Y-124642619D01*
X120007142Y-124737857D01*
X120007142Y-124880714D01*
X119959523Y-124975952D01*
X119911904Y-125023571D01*
X119816666Y-125071190D01*
X119435714Y-125071190D01*
X120959523Y-125547380D02*
X120388095Y-125547380D01*
X120673809Y-125547380D02*
X120673809Y-124547380D01*
X120578571Y-124690238D01*
X120483333Y-124785476D01*
X120388095Y-124833095D01*
X121340476Y-124642619D02*
X121388095Y-124595000D01*
X121483333Y-124547380D01*
X121721428Y-124547380D01*
X121816666Y-124595000D01*
X121864285Y-124642619D01*
X121911904Y-124737857D01*
X121911904Y-124833095D01*
X121864285Y-124975952D01*
X121292857Y-125547380D01*
X121911904Y-125547380D01*
%TO.C,J8*%
X119848380Y-96218333D02*
X120562666Y-96218333D01*
X120705523Y-96265952D01*
X120800761Y-96361190D01*
X120848380Y-96504047D01*
X120848380Y-96599285D01*
X120276952Y-95599285D02*
X120229333Y-95694523D01*
X120181714Y-95742142D01*
X120086476Y-95789761D01*
X120038857Y-95789761D01*
X119943619Y-95742142D01*
X119896000Y-95694523D01*
X119848380Y-95599285D01*
X119848380Y-95408809D01*
X119896000Y-95313571D01*
X119943619Y-95265952D01*
X120038857Y-95218333D01*
X120086476Y-95218333D01*
X120181714Y-95265952D01*
X120229333Y-95313571D01*
X120276952Y-95408809D01*
X120276952Y-95599285D01*
X120324571Y-95694523D01*
X120372190Y-95742142D01*
X120467428Y-95789761D01*
X120657904Y-95789761D01*
X120753142Y-95742142D01*
X120800761Y-95694523D01*
X120848380Y-95599285D01*
X120848380Y-95408809D01*
X120800761Y-95313571D01*
X120753142Y-95265952D01*
X120657904Y-95218333D01*
X120467428Y-95218333D01*
X120372190Y-95265952D01*
X120324571Y-95313571D01*
X120276952Y-95408809D01*
X109942380Y-97932619D02*
X110942380Y-97599285D01*
X109942380Y-97265952D01*
X110942380Y-96932619D02*
X109942380Y-96932619D01*
X110942380Y-96456428D02*
X109942380Y-96456428D01*
X109942380Y-96218333D01*
X109990000Y-96075476D01*
X110085238Y-95980238D01*
X110180476Y-95932619D01*
X110370952Y-95885000D01*
X110513809Y-95885000D01*
X110704285Y-95932619D01*
X110799523Y-95980238D01*
X110894761Y-96075476D01*
X110942380Y-96218333D01*
X110942380Y-96456428D01*
X110418571Y-95456428D02*
X110418571Y-95123095D01*
X110942380Y-94980238D02*
X110942380Y-95456428D01*
X109942380Y-95456428D01*
X109942380Y-94980238D01*
X109942380Y-94361190D02*
X109942380Y-94170714D01*
X109990000Y-94075476D01*
X110085238Y-93980238D01*
X110275714Y-93932619D01*
X110609047Y-93932619D01*
X110799523Y-93980238D01*
X110894761Y-94075476D01*
X110942380Y-94170714D01*
X110942380Y-94361190D01*
X110894761Y-94456428D01*
X110799523Y-94551666D01*
X110609047Y-94599285D01*
X110275714Y-94599285D01*
X110085238Y-94551666D01*
X109990000Y-94456428D01*
X109942380Y-94361190D01*
%TO.C,R5*%
X124293333Y-78176380D02*
X123960000Y-77700190D01*
X123721904Y-78176380D02*
X123721904Y-77176380D01*
X124102857Y-77176380D01*
X124198095Y-77224000D01*
X124245714Y-77271619D01*
X124293333Y-77366857D01*
X124293333Y-77509714D01*
X124245714Y-77604952D01*
X124198095Y-77652571D01*
X124102857Y-77700190D01*
X123721904Y-77700190D01*
X125198095Y-77176380D02*
X124721904Y-77176380D01*
X124674285Y-77652571D01*
X124721904Y-77604952D01*
X124817142Y-77557333D01*
X125055238Y-77557333D01*
X125150476Y-77604952D01*
X125198095Y-77652571D01*
X125245714Y-77747809D01*
X125245714Y-77985904D01*
X125198095Y-78081142D01*
X125150476Y-78128761D01*
X125055238Y-78176380D01*
X124817142Y-78176380D01*
X124721904Y-78128761D01*
X124674285Y-78081142D01*
%TO.C,C11*%
X152376142Y-88907857D02*
X152423761Y-88955476D01*
X152471380Y-89098333D01*
X152471380Y-89193571D01*
X152423761Y-89336428D01*
X152328523Y-89431666D01*
X152233285Y-89479285D01*
X152042809Y-89526904D01*
X151899952Y-89526904D01*
X151709476Y-89479285D01*
X151614238Y-89431666D01*
X151519000Y-89336428D01*
X151471380Y-89193571D01*
X151471380Y-89098333D01*
X151519000Y-88955476D01*
X151566619Y-88907857D01*
X152471380Y-87955476D02*
X152471380Y-88526904D01*
X152471380Y-88241190D02*
X151471380Y-88241190D01*
X151614238Y-88336428D01*
X151709476Y-88431666D01*
X151757095Y-88526904D01*
X152471380Y-87003095D02*
X152471380Y-87574523D01*
X152471380Y-87288809D02*
X151471380Y-87288809D01*
X151614238Y-87384047D01*
X151709476Y-87479285D01*
X151757095Y-87574523D01*
%TO.C,J7*%
X175336380Y-101146332D02*
X176050666Y-101146332D01*
X176193523Y-101193951D01*
X176288761Y-101289189D01*
X176336380Y-101432046D01*
X176336380Y-101527284D01*
X175336380Y-100765379D02*
X175336380Y-100098713D01*
X176336380Y-100527284D01*
%TO.C,U4*%
X160147095Y-77640380D02*
X160147095Y-78449904D01*
X160194714Y-78545142D01*
X160242333Y-78592761D01*
X160337571Y-78640380D01*
X160528047Y-78640380D01*
X160623285Y-78592761D01*
X160670904Y-78545142D01*
X160718523Y-78449904D01*
X160718523Y-77640380D01*
X161623285Y-77973714D02*
X161623285Y-78640380D01*
X161385190Y-77592761D02*
X161147095Y-78307047D01*
X161766142Y-78307047D01*
%TO.C,C18*%
X111990142Y-128023857D02*
X112037761Y-128071476D01*
X112085380Y-128214333D01*
X112085380Y-128309571D01*
X112037761Y-128452428D01*
X111942523Y-128547666D01*
X111847285Y-128595285D01*
X111656809Y-128642904D01*
X111513952Y-128642904D01*
X111323476Y-128595285D01*
X111228238Y-128547666D01*
X111133000Y-128452428D01*
X111085380Y-128309571D01*
X111085380Y-128214333D01*
X111133000Y-128071476D01*
X111180619Y-128023857D01*
X112085380Y-127071476D02*
X112085380Y-127642904D01*
X112085380Y-127357190D02*
X111085380Y-127357190D01*
X111228238Y-127452428D01*
X111323476Y-127547666D01*
X111371095Y-127642904D01*
X111513952Y-126500047D02*
X111466333Y-126595285D01*
X111418714Y-126642904D01*
X111323476Y-126690523D01*
X111275857Y-126690523D01*
X111180619Y-126642904D01*
X111133000Y-126595285D01*
X111085380Y-126500047D01*
X111085380Y-126309571D01*
X111133000Y-126214333D01*
X111180619Y-126166714D01*
X111275857Y-126119095D01*
X111323476Y-126119095D01*
X111418714Y-126166714D01*
X111466333Y-126214333D01*
X111513952Y-126309571D01*
X111513952Y-126500047D01*
X111561571Y-126595285D01*
X111609190Y-126642904D01*
X111704428Y-126690523D01*
X111894904Y-126690523D01*
X111990142Y-126642904D01*
X112037761Y-126595285D01*
X112085380Y-126500047D01*
X112085380Y-126309571D01*
X112037761Y-126214333D01*
X111990142Y-126166714D01*
X111894904Y-126119095D01*
X111704428Y-126119095D01*
X111609190Y-126166714D01*
X111561571Y-126214333D01*
X111513952Y-126309571D01*
%TO.C,C16*%
X152011142Y-93194142D02*
X151963523Y-93241761D01*
X151820666Y-93289380D01*
X151725428Y-93289380D01*
X151582571Y-93241761D01*
X151487333Y-93146523D01*
X151439714Y-93051285D01*
X151392095Y-92860809D01*
X151392095Y-92717952D01*
X151439714Y-92527476D01*
X151487333Y-92432238D01*
X151582571Y-92337000D01*
X151725428Y-92289380D01*
X151820666Y-92289380D01*
X151963523Y-92337000D01*
X152011142Y-92384619D01*
X152963523Y-93289380D02*
X152392095Y-93289380D01*
X152677809Y-93289380D02*
X152677809Y-92289380D01*
X152582571Y-92432238D01*
X152487333Y-92527476D01*
X152392095Y-92575095D01*
X153820666Y-92289380D02*
X153630190Y-92289380D01*
X153534952Y-92337000D01*
X153487333Y-92384619D01*
X153392095Y-92527476D01*
X153344476Y-92717952D01*
X153344476Y-93098904D01*
X153392095Y-93194142D01*
X153439714Y-93241761D01*
X153534952Y-93289380D01*
X153725428Y-93289380D01*
X153820666Y-93241761D01*
X153868285Y-93194142D01*
X153915904Y-93098904D01*
X153915904Y-92860809D01*
X153868285Y-92765571D01*
X153820666Y-92717952D01*
X153725428Y-92670333D01*
X153534952Y-92670333D01*
X153439714Y-92717952D01*
X153392095Y-92765571D01*
X153344476Y-92860809D01*
%TO.C,C3*%
X144408142Y-99200166D02*
X144455761Y-99247785D01*
X144503380Y-99390642D01*
X144503380Y-99485880D01*
X144455761Y-99628738D01*
X144360523Y-99723976D01*
X144265285Y-99771595D01*
X144074809Y-99819214D01*
X143931952Y-99819214D01*
X143741476Y-99771595D01*
X143646238Y-99723976D01*
X143551000Y-99628738D01*
X143503380Y-99485880D01*
X143503380Y-99390642D01*
X143551000Y-99247785D01*
X143598619Y-99200166D01*
X143503380Y-98866833D02*
X143503380Y-98247785D01*
X143884333Y-98581119D01*
X143884333Y-98438261D01*
X143931952Y-98343023D01*
X143979571Y-98295404D01*
X144074809Y-98247785D01*
X144312904Y-98247785D01*
X144408142Y-98295404D01*
X144455761Y-98343023D01*
X144503380Y-98438261D01*
X144503380Y-98723976D01*
X144455761Y-98819214D01*
X144408142Y-98866833D01*
%TO.C,R1*%
X150074333Y-77414380D02*
X149741000Y-76938190D01*
X149502904Y-77414380D02*
X149502904Y-76414380D01*
X149883857Y-76414380D01*
X149979095Y-76462000D01*
X150026714Y-76509619D01*
X150074333Y-76604857D01*
X150074333Y-76747714D01*
X150026714Y-76842952D01*
X149979095Y-76890571D01*
X149883857Y-76938190D01*
X149502904Y-76938190D01*
X151026714Y-77414380D02*
X150455285Y-77414380D01*
X150741000Y-77414380D02*
X150741000Y-76414380D01*
X150645761Y-76557238D01*
X150550523Y-76652476D01*
X150455285Y-76700095D01*
%TO.C,R7*%
X148931333Y-94916380D02*
X148598000Y-94440190D01*
X148359904Y-94916380D02*
X148359904Y-93916380D01*
X148740857Y-93916380D01*
X148836095Y-93964000D01*
X148883714Y-94011619D01*
X148931333Y-94106857D01*
X148931333Y-94249714D01*
X148883714Y-94344952D01*
X148836095Y-94392571D01*
X148740857Y-94440190D01*
X148359904Y-94440190D01*
X149264666Y-93916380D02*
X149931333Y-93916380D01*
X149502761Y-94916380D01*
%TO.C,J4*%
X127047666Y-71588380D02*
X127047666Y-72302666D01*
X127000047Y-72445523D01*
X126904809Y-72540761D01*
X126761952Y-72588380D01*
X126666714Y-72588380D01*
X127952428Y-71921714D02*
X127952428Y-72588380D01*
X127714333Y-71540761D02*
X127476238Y-72255047D01*
X128095285Y-72255047D01*
X140107142Y-67281857D02*
X139207142Y-67281857D01*
X139207142Y-67067571D01*
X139250000Y-66939000D01*
X139335714Y-66853285D01*
X139421428Y-66810428D01*
X139592857Y-66767571D01*
X139721428Y-66767571D01*
X139892857Y-66810428D01*
X139978571Y-66853285D01*
X140064285Y-66939000D01*
X140107142Y-67067571D01*
X140107142Y-67281857D01*
X140107142Y-66381857D02*
X139207142Y-66381857D01*
X140064285Y-65996142D02*
X140107142Y-65867571D01*
X140107142Y-65653285D01*
X140064285Y-65567571D01*
X140021428Y-65524714D01*
X139935714Y-65481857D01*
X139850000Y-65481857D01*
X139764285Y-65524714D01*
X139721428Y-65567571D01*
X139678571Y-65653285D01*
X139635714Y-65824714D01*
X139592857Y-65910428D01*
X139550000Y-65953285D01*
X139464285Y-65996142D01*
X139378571Y-65996142D01*
X139292857Y-65953285D01*
X139250000Y-65910428D01*
X139207142Y-65824714D01*
X139207142Y-65610428D01*
X139250000Y-65481857D01*
X140107142Y-65096142D02*
X139207142Y-65096142D01*
X139207142Y-64753285D01*
X139250000Y-64667571D01*
X139292857Y-64624714D01*
X139378571Y-64581857D01*
X139507142Y-64581857D01*
X139592857Y-64624714D01*
X139635714Y-64667571D01*
X139678571Y-64753285D01*
X139678571Y-65096142D01*
X140107142Y-63767571D02*
X140107142Y-64196142D01*
X139207142Y-64196142D01*
X139850000Y-63510428D02*
X139850000Y-63081857D01*
X140107142Y-63596142D02*
X139207142Y-63296142D01*
X140107142Y-62996142D01*
X139678571Y-62524714D02*
X140107142Y-62524714D01*
X139207142Y-62824714D02*
X139678571Y-62524714D01*
X139207142Y-62224714D01*
X139292857Y-61967571D02*
X139250000Y-61924714D01*
X139207142Y-61839000D01*
X139207142Y-61624714D01*
X139250000Y-61539000D01*
X139292857Y-61496142D01*
X139378571Y-61453285D01*
X139464285Y-61453285D01*
X139592857Y-61496142D01*
X140107142Y-62010428D01*
X140107142Y-61453285D01*
%TO.C,C8*%
X149820333Y-100941142D02*
X149772714Y-100988761D01*
X149629857Y-101036380D01*
X149534619Y-101036380D01*
X149391761Y-100988761D01*
X149296523Y-100893523D01*
X149248904Y-100798285D01*
X149201285Y-100607809D01*
X149201285Y-100464952D01*
X149248904Y-100274476D01*
X149296523Y-100179238D01*
X149391761Y-100084000D01*
X149534619Y-100036380D01*
X149629857Y-100036380D01*
X149772714Y-100084000D01*
X149820333Y-100131619D01*
X150391761Y-100464952D02*
X150296523Y-100417333D01*
X150248904Y-100369714D01*
X150201285Y-100274476D01*
X150201285Y-100226857D01*
X150248904Y-100131619D01*
X150296523Y-100084000D01*
X150391761Y-100036380D01*
X150582238Y-100036380D01*
X150677476Y-100084000D01*
X150725095Y-100131619D01*
X150772714Y-100226857D01*
X150772714Y-100274476D01*
X150725095Y-100369714D01*
X150677476Y-100417333D01*
X150582238Y-100464952D01*
X150391761Y-100464952D01*
X150296523Y-100512571D01*
X150248904Y-100560190D01*
X150201285Y-100655428D01*
X150201285Y-100845904D01*
X150248904Y-100941142D01*
X150296523Y-100988761D01*
X150391761Y-101036380D01*
X150582238Y-101036380D01*
X150677476Y-100988761D01*
X150725095Y-100941142D01*
X150772714Y-100845904D01*
X150772714Y-100655428D01*
X150725095Y-100560190D01*
X150677476Y-100512571D01*
X150582238Y-100464952D01*
%TO.C,J6*%
X117522666Y-88971380D02*
X117522666Y-89685666D01*
X117475047Y-89828523D01*
X117379809Y-89923761D01*
X117236952Y-89971380D01*
X117141714Y-89971380D01*
X118427428Y-88971380D02*
X118236952Y-88971380D01*
X118141714Y-89019000D01*
X118094095Y-89066619D01*
X117998857Y-89209476D01*
X117951238Y-89399952D01*
X117951238Y-89780904D01*
X117998857Y-89876142D01*
X118046476Y-89923761D01*
X118141714Y-89971380D01*
X118332190Y-89971380D01*
X118427428Y-89923761D01*
X118475047Y-89876142D01*
X118522666Y-89780904D01*
X118522666Y-89542809D01*
X118475047Y-89447571D01*
X118427428Y-89399952D01*
X118332190Y-89352333D01*
X118141714Y-89352333D01*
X118046476Y-89399952D01*
X117998857Y-89447571D01*
X117951238Y-89542809D01*
%TO.C,R8*%
X182713333Y-107513380D02*
X182380000Y-107037190D01*
X182141904Y-107513380D02*
X182141904Y-106513380D01*
X182522857Y-106513380D01*
X182618095Y-106561000D01*
X182665714Y-106608619D01*
X182713333Y-106703857D01*
X182713333Y-106846714D01*
X182665714Y-106941952D01*
X182618095Y-106989571D01*
X182522857Y-107037190D01*
X182141904Y-107037190D01*
X183284761Y-106941952D02*
X183189523Y-106894333D01*
X183141904Y-106846714D01*
X183094285Y-106751476D01*
X183094285Y-106703857D01*
X183141904Y-106608619D01*
X183189523Y-106561000D01*
X183284761Y-106513380D01*
X183475238Y-106513380D01*
X183570476Y-106561000D01*
X183618095Y-106608619D01*
X183665714Y-106703857D01*
X183665714Y-106751476D01*
X183618095Y-106846714D01*
X183570476Y-106894333D01*
X183475238Y-106941952D01*
X183284761Y-106941952D01*
X183189523Y-106989571D01*
X183141904Y-107037190D01*
X183094285Y-107132428D01*
X183094285Y-107322904D01*
X183141904Y-107418142D01*
X183189523Y-107465761D01*
X183284761Y-107513380D01*
X183475238Y-107513380D01*
X183570476Y-107465761D01*
X183618095Y-107418142D01*
X183665714Y-107322904D01*
X183665714Y-107132428D01*
X183618095Y-107037190D01*
X183570476Y-106989571D01*
X183475238Y-106941952D01*
%TO.C,C6*%
X149820333Y-99417142D02*
X149772714Y-99464761D01*
X149629857Y-99512380D01*
X149534619Y-99512380D01*
X149391761Y-99464761D01*
X149296523Y-99369523D01*
X149248904Y-99274285D01*
X149201285Y-99083809D01*
X149201285Y-98940952D01*
X149248904Y-98750476D01*
X149296523Y-98655238D01*
X149391761Y-98560000D01*
X149534619Y-98512380D01*
X149629857Y-98512380D01*
X149772714Y-98560000D01*
X149820333Y-98607619D01*
X150677476Y-98512380D02*
X150487000Y-98512380D01*
X150391761Y-98560000D01*
X150344142Y-98607619D01*
X150248904Y-98750476D01*
X150201285Y-98940952D01*
X150201285Y-99321904D01*
X150248904Y-99417142D01*
X150296523Y-99464761D01*
X150391761Y-99512380D01*
X150582238Y-99512380D01*
X150677476Y-99464761D01*
X150725095Y-99417142D01*
X150772714Y-99321904D01*
X150772714Y-99083809D01*
X150725095Y-98988571D01*
X150677476Y-98940952D01*
X150582238Y-98893333D01*
X150391761Y-98893333D01*
X150296523Y-98940952D01*
X150248904Y-98988571D01*
X150201285Y-99083809D01*
%TO.C,C1*%
X134072333Y-95353142D02*
X134024714Y-95400761D01*
X133881857Y-95448380D01*
X133786619Y-95448380D01*
X133643761Y-95400761D01*
X133548523Y-95305523D01*
X133500904Y-95210285D01*
X133453285Y-95019809D01*
X133453285Y-94876952D01*
X133500904Y-94686476D01*
X133548523Y-94591238D01*
X133643761Y-94496000D01*
X133786619Y-94448380D01*
X133881857Y-94448380D01*
X134024714Y-94496000D01*
X134072333Y-94543619D01*
X135024714Y-95448380D02*
X134453285Y-95448380D01*
X134739000Y-95448380D02*
X134739000Y-94448380D01*
X134643761Y-94591238D01*
X134548523Y-94686476D01*
X134453285Y-94734095D01*
%TO.C,U5*%
X114935095Y-124928380D02*
X114935095Y-125737904D01*
X114982714Y-125833142D01*
X115030333Y-125880761D01*
X115125571Y-125928380D01*
X115316047Y-125928380D01*
X115411285Y-125880761D01*
X115458904Y-125833142D01*
X115506523Y-125737904D01*
X115506523Y-124928380D01*
X116458904Y-124928380D02*
X115982714Y-124928380D01*
X115935095Y-125404571D01*
X115982714Y-125356952D01*
X116077952Y-125309333D01*
X116316047Y-125309333D01*
X116411285Y-125356952D01*
X116458904Y-125404571D01*
X116506523Y-125499809D01*
X116506523Y-125737904D01*
X116458904Y-125833142D01*
X116411285Y-125880761D01*
X116316047Y-125928380D01*
X116077952Y-125928380D01*
X115982714Y-125880761D01*
X115935095Y-125833142D01*
%TO.C,C19*%
X143646142Y-112429357D02*
X143693761Y-112476976D01*
X143741380Y-112619833D01*
X143741380Y-112715071D01*
X143693761Y-112857928D01*
X143598523Y-112953166D01*
X143503285Y-113000785D01*
X143312809Y-113048404D01*
X143169952Y-113048404D01*
X142979476Y-113000785D01*
X142884238Y-112953166D01*
X142789000Y-112857928D01*
X142741380Y-112715071D01*
X142741380Y-112619833D01*
X142789000Y-112476976D01*
X142836619Y-112429357D01*
X143741380Y-111476976D02*
X143741380Y-112048404D01*
X143741380Y-111762690D02*
X142741380Y-111762690D01*
X142884238Y-111857928D01*
X142979476Y-111953166D01*
X143027095Y-112048404D01*
X143741380Y-111000785D02*
X143741380Y-110810309D01*
X143693761Y-110715071D01*
X143646142Y-110667452D01*
X143503285Y-110572214D01*
X143312809Y-110524595D01*
X142931857Y-110524595D01*
X142836619Y-110572214D01*
X142789000Y-110619833D01*
X142741380Y-110715071D01*
X142741380Y-110905547D01*
X142789000Y-111000785D01*
X142836619Y-111048404D01*
X142931857Y-111096023D01*
X143169952Y-111096023D01*
X143265190Y-111048404D01*
X143312809Y-111000785D01*
X143360428Y-110905547D01*
X143360428Y-110715071D01*
X143312809Y-110619833D01*
X143265190Y-110572214D01*
X143169952Y-110524595D01*
%TO.C,C7*%
X169886333Y-118213142D02*
X169838714Y-118260761D01*
X169695857Y-118308380D01*
X169600619Y-118308380D01*
X169457761Y-118260761D01*
X169362523Y-118165523D01*
X169314904Y-118070285D01*
X169267285Y-117879809D01*
X169267285Y-117736952D01*
X169314904Y-117546476D01*
X169362523Y-117451238D01*
X169457761Y-117356000D01*
X169600619Y-117308380D01*
X169695857Y-117308380D01*
X169838714Y-117356000D01*
X169886333Y-117403619D01*
X170219666Y-117308380D02*
X170886333Y-117308380D01*
X170457761Y-118308380D01*
%TO.C,C17*%
X155043142Y-83573857D02*
X155090761Y-83621476D01*
X155138380Y-83764333D01*
X155138380Y-83859571D01*
X155090761Y-84002428D01*
X154995523Y-84097666D01*
X154900285Y-84145285D01*
X154709809Y-84192904D01*
X154566952Y-84192904D01*
X154376476Y-84145285D01*
X154281238Y-84097666D01*
X154186000Y-84002428D01*
X154138380Y-83859571D01*
X154138380Y-83764333D01*
X154186000Y-83621476D01*
X154233619Y-83573857D01*
X155138380Y-82621476D02*
X155138380Y-83192904D01*
X155138380Y-82907190D02*
X154138380Y-82907190D01*
X154281238Y-83002428D01*
X154376476Y-83097666D01*
X154424095Y-83192904D01*
X154138380Y-82288142D02*
X154138380Y-81621476D01*
X155138380Y-82050047D01*
%TO.C,U8*%
X139800380Y-114114404D02*
X140609904Y-114114404D01*
X140705142Y-114066785D01*
X140752761Y-114019166D01*
X140800380Y-113923928D01*
X140800380Y-113733452D01*
X140752761Y-113638214D01*
X140705142Y-113590595D01*
X140609904Y-113542976D01*
X139800380Y-113542976D01*
X140228952Y-112923928D02*
X140181333Y-113019166D01*
X140133714Y-113066785D01*
X140038476Y-113114404D01*
X139990857Y-113114404D01*
X139895619Y-113066785D01*
X139848000Y-113019166D01*
X139800380Y-112923928D01*
X139800380Y-112733452D01*
X139848000Y-112638214D01*
X139895619Y-112590595D01*
X139990857Y-112542976D01*
X140038476Y-112542976D01*
X140133714Y-112590595D01*
X140181333Y-112638214D01*
X140228952Y-112733452D01*
X140228952Y-112923928D01*
X140276571Y-113019166D01*
X140324190Y-113066785D01*
X140419428Y-113114404D01*
X140609904Y-113114404D01*
X140705142Y-113066785D01*
X140752761Y-113019166D01*
X140800380Y-112923928D01*
X140800380Y-112733452D01*
X140752761Y-112638214D01*
X140705142Y-112590595D01*
X140609904Y-112542976D01*
X140419428Y-112542976D01*
X140324190Y-112590595D01*
X140276571Y-112638214D01*
X140228952Y-112733452D01*
%TO.C,U2*%
X169672095Y-108418380D02*
X169672095Y-109227904D01*
X169719714Y-109323142D01*
X169767333Y-109370761D01*
X169862571Y-109418380D01*
X170053047Y-109418380D01*
X170148285Y-109370761D01*
X170195904Y-109323142D01*
X170243523Y-109227904D01*
X170243523Y-108418380D01*
X170672095Y-108513619D02*
X170719714Y-108466000D01*
X170814952Y-108418380D01*
X171053047Y-108418380D01*
X171148285Y-108466000D01*
X171195904Y-108513619D01*
X171243523Y-108608857D01*
X171243523Y-108704095D01*
X171195904Y-108846952D01*
X170624476Y-109418380D01*
X171243523Y-109418380D01*
%TO.C,J3*%
X141525666Y-71588380D02*
X141525666Y-72302666D01*
X141478047Y-72445523D01*
X141382809Y-72540761D01*
X141239952Y-72588380D01*
X141144714Y-72588380D01*
X141906619Y-71588380D02*
X142525666Y-71588380D01*
X142192333Y-71969333D01*
X142335190Y-71969333D01*
X142430428Y-72016952D01*
X142478047Y-72064571D01*
X142525666Y-72159809D01*
X142525666Y-72397904D01*
X142478047Y-72493142D01*
X142430428Y-72540761D01*
X142335190Y-72588380D01*
X142049476Y-72588380D01*
X141954238Y-72540761D01*
X141906619Y-72493142D01*
X154585142Y-67281857D02*
X153685142Y-67281857D01*
X153685142Y-67067571D01*
X153728000Y-66939000D01*
X153813714Y-66853285D01*
X153899428Y-66810428D01*
X154070857Y-66767571D01*
X154199428Y-66767571D01*
X154370857Y-66810428D01*
X154456571Y-66853285D01*
X154542285Y-66939000D01*
X154585142Y-67067571D01*
X154585142Y-67281857D01*
X154585142Y-66381857D02*
X153685142Y-66381857D01*
X154542285Y-65996142D02*
X154585142Y-65867571D01*
X154585142Y-65653285D01*
X154542285Y-65567571D01*
X154499428Y-65524714D01*
X154413714Y-65481857D01*
X154328000Y-65481857D01*
X154242285Y-65524714D01*
X154199428Y-65567571D01*
X154156571Y-65653285D01*
X154113714Y-65824714D01*
X154070857Y-65910428D01*
X154028000Y-65953285D01*
X153942285Y-65996142D01*
X153856571Y-65996142D01*
X153770857Y-65953285D01*
X153728000Y-65910428D01*
X153685142Y-65824714D01*
X153685142Y-65610428D01*
X153728000Y-65481857D01*
X154585142Y-65096142D02*
X153685142Y-65096142D01*
X153685142Y-64753285D01*
X153728000Y-64667571D01*
X153770857Y-64624714D01*
X153856571Y-64581857D01*
X153985142Y-64581857D01*
X154070857Y-64624714D01*
X154113714Y-64667571D01*
X154156571Y-64753285D01*
X154156571Y-65096142D01*
X154585142Y-63767571D02*
X154585142Y-64196142D01*
X153685142Y-64196142D01*
X154328000Y-63510428D02*
X154328000Y-63081857D01*
X154585142Y-63596142D02*
X153685142Y-63296142D01*
X154585142Y-62996142D01*
X154156571Y-62524714D02*
X154585142Y-62524714D01*
X153685142Y-62824714D02*
X154156571Y-62524714D01*
X153685142Y-62224714D01*
X154585142Y-61453285D02*
X154585142Y-61967571D01*
X154585142Y-61710428D02*
X153685142Y-61710428D01*
X153813714Y-61796142D01*
X153899428Y-61881857D01*
X153942285Y-61967571D01*
%TO.C,J1*%
X178355666Y-61301380D02*
X178355666Y-62015666D01*
X178308047Y-62158523D01*
X178212809Y-62253761D01*
X178069952Y-62301380D01*
X177974714Y-62301380D01*
X179355666Y-62301380D02*
X178784238Y-62301380D01*
X179069952Y-62301380D02*
X179069952Y-61301380D01*
X178974714Y-61444238D01*
X178879476Y-61539476D01*
X178784238Y-61587095D01*
X173109523Y-73604380D02*
X173109523Y-72604380D01*
X173347619Y-72604380D01*
X173490476Y-72652000D01*
X173585714Y-72747238D01*
X173633333Y-72842476D01*
X173680952Y-73032952D01*
X173680952Y-73175809D01*
X173633333Y-73366285D01*
X173585714Y-73461523D01*
X173490476Y-73556761D01*
X173347619Y-73604380D01*
X173109523Y-73604380D01*
X174109523Y-73604380D02*
X174109523Y-72604380D01*
X174538095Y-73556761D02*
X174680952Y-73604380D01*
X174919047Y-73604380D01*
X175014285Y-73556761D01*
X175061904Y-73509142D01*
X175109523Y-73413904D01*
X175109523Y-73318666D01*
X175061904Y-73223428D01*
X175014285Y-73175809D01*
X174919047Y-73128190D01*
X174728571Y-73080571D01*
X174633333Y-73032952D01*
X174585714Y-72985333D01*
X174538095Y-72890095D01*
X174538095Y-72794857D01*
X174585714Y-72699619D01*
X174633333Y-72652000D01*
X174728571Y-72604380D01*
X174966666Y-72604380D01*
X175109523Y-72652000D01*
X175538095Y-73604380D02*
X175538095Y-72604380D01*
X175919047Y-72604380D01*
X176014285Y-72652000D01*
X176061904Y-72699619D01*
X176109523Y-72794857D01*
X176109523Y-72937714D01*
X176061904Y-73032952D01*
X176014285Y-73080571D01*
X175919047Y-73128190D01*
X175538095Y-73128190D01*
X177014285Y-73604380D02*
X176538095Y-73604380D01*
X176538095Y-72604380D01*
X177300000Y-73318666D02*
X177776190Y-73318666D01*
X177204761Y-73604380D02*
X177538095Y-72604380D01*
X177871428Y-73604380D01*
X178395238Y-73128190D02*
X178395238Y-73604380D01*
X178061904Y-72604380D02*
X178395238Y-73128190D01*
X178728571Y-72604380D01*
X178823809Y-73699619D02*
X179585714Y-73699619D01*
X179823809Y-73604380D02*
X179823809Y-72604380D01*
X180204761Y-72604380D01*
X180300000Y-72652000D01*
X180347619Y-72699619D01*
X180395238Y-72794857D01*
X180395238Y-72937714D01*
X180347619Y-73032952D01*
X180300000Y-73080571D01*
X180204761Y-73128190D01*
X179823809Y-73128190D01*
X180728571Y-72604380D02*
X180966666Y-73604380D01*
X181157142Y-72890095D01*
X181347619Y-73604380D01*
X181585714Y-72604380D01*
X182538095Y-73604380D02*
X182204761Y-73128190D01*
X181966666Y-73604380D02*
X181966666Y-72604380D01*
X182347619Y-72604380D01*
X182442857Y-72652000D01*
X182490476Y-72699619D01*
X182538095Y-72794857D01*
X182538095Y-72937714D01*
X182490476Y-73032952D01*
X182442857Y-73080571D01*
X182347619Y-73128190D01*
X181966666Y-73128190D01*
%TO.C,C14*%
X123801142Y-99956857D02*
X123848761Y-100004476D01*
X123896380Y-100147333D01*
X123896380Y-100242571D01*
X123848761Y-100385428D01*
X123753523Y-100480666D01*
X123658285Y-100528285D01*
X123467809Y-100575904D01*
X123324952Y-100575904D01*
X123134476Y-100528285D01*
X123039238Y-100480666D01*
X122944000Y-100385428D01*
X122896380Y-100242571D01*
X122896380Y-100147333D01*
X122944000Y-100004476D01*
X122991619Y-99956857D01*
X123896380Y-99004476D02*
X123896380Y-99575904D01*
X123896380Y-99290190D02*
X122896380Y-99290190D01*
X123039238Y-99385428D01*
X123134476Y-99480666D01*
X123182095Y-99575904D01*
X123229714Y-98147333D02*
X123896380Y-98147333D01*
X122848761Y-98385428D02*
X123563047Y-98623523D01*
X123563047Y-98004476D01*
%TO.C,R6*%
X148931333Y-96464380D02*
X148598000Y-95988190D01*
X148359904Y-96464380D02*
X148359904Y-95464380D01*
X148740857Y-95464380D01*
X148836095Y-95512000D01*
X148883714Y-95559619D01*
X148931333Y-95654857D01*
X148931333Y-95797714D01*
X148883714Y-95892952D01*
X148836095Y-95940571D01*
X148740857Y-95988190D01*
X148359904Y-95988190D01*
X149788476Y-95464380D02*
X149598000Y-95464380D01*
X149502761Y-95512000D01*
X149455142Y-95559619D01*
X149359904Y-95702476D01*
X149312285Y-95892952D01*
X149312285Y-96273904D01*
X149359904Y-96369142D01*
X149407523Y-96416761D01*
X149502761Y-96464380D01*
X149693238Y-96464380D01*
X149788476Y-96416761D01*
X149836095Y-96369142D01*
X149883714Y-96273904D01*
X149883714Y-96035809D01*
X149836095Y-95940571D01*
X149788476Y-95892952D01*
X149693238Y-95845333D01*
X149502761Y-95845333D01*
X149407523Y-95892952D01*
X149359904Y-95940571D01*
X149312285Y-96035809D01*
%TO.C,C9*%
X141929142Y-85918166D02*
X141976761Y-85965785D01*
X142024380Y-86108642D01*
X142024380Y-86203880D01*
X141976761Y-86346738D01*
X141881523Y-86441976D01*
X141786285Y-86489595D01*
X141595809Y-86537214D01*
X141452952Y-86537214D01*
X141262476Y-86489595D01*
X141167238Y-86441976D01*
X141072000Y-86346738D01*
X141024380Y-86203880D01*
X141024380Y-86108642D01*
X141072000Y-85965785D01*
X141119619Y-85918166D01*
X142024380Y-85441976D02*
X142024380Y-85251500D01*
X141976761Y-85156261D01*
X141929142Y-85108642D01*
X141786285Y-85013404D01*
X141595809Y-84965785D01*
X141214857Y-84965785D01*
X141119619Y-85013404D01*
X141072000Y-85061023D01*
X141024380Y-85156261D01*
X141024380Y-85346738D01*
X141072000Y-85441976D01*
X141119619Y-85489595D01*
X141214857Y-85537214D01*
X141452952Y-85537214D01*
X141548190Y-85489595D01*
X141595809Y-85441976D01*
X141643428Y-85346738D01*
X141643428Y-85156261D01*
X141595809Y-85061023D01*
X141548190Y-85013404D01*
X141452952Y-84965785D01*
%TO.C,Y1*%
X123680190Y-93245190D02*
X124156380Y-93245190D01*
X123156380Y-93578523D02*
X123680190Y-93245190D01*
X123156380Y-92911857D01*
X124156380Y-92054714D02*
X124156380Y-92626142D01*
X124156380Y-92340428D02*
X123156380Y-92340428D01*
X123299238Y-92435666D01*
X123394476Y-92530904D01*
X123442095Y-92626142D01*
%TO.C,C12*%
X137230142Y-87029357D02*
X137277761Y-87076976D01*
X137325380Y-87219833D01*
X137325380Y-87315071D01*
X137277761Y-87457928D01*
X137182523Y-87553166D01*
X137087285Y-87600785D01*
X136896809Y-87648404D01*
X136753952Y-87648404D01*
X136563476Y-87600785D01*
X136468238Y-87553166D01*
X136373000Y-87457928D01*
X136325380Y-87315071D01*
X136325380Y-87219833D01*
X136373000Y-87076976D01*
X136420619Y-87029357D01*
X137325380Y-86076976D02*
X137325380Y-86648404D01*
X137325380Y-86362690D02*
X136325380Y-86362690D01*
X136468238Y-86457928D01*
X136563476Y-86553166D01*
X136611095Y-86648404D01*
X136420619Y-85696023D02*
X136373000Y-85648404D01*
X136325380Y-85553166D01*
X136325380Y-85315071D01*
X136373000Y-85219833D01*
X136420619Y-85172214D01*
X136515857Y-85124595D01*
X136611095Y-85124595D01*
X136753952Y-85172214D01*
X137325380Y-85743642D01*
X137325380Y-85124595D01*
%TO.C,Q1*%
X124753619Y-83407238D02*
X124706000Y-83502476D01*
X124610761Y-83597714D01*
X124467904Y-83740571D01*
X124420285Y-83835809D01*
X124420285Y-83931047D01*
X124658380Y-83883428D02*
X124610761Y-83978666D01*
X124515523Y-84073904D01*
X124325047Y-84121523D01*
X123991714Y-84121523D01*
X123801238Y-84073904D01*
X123706000Y-83978666D01*
X123658380Y-83883428D01*
X123658380Y-83692952D01*
X123706000Y-83597714D01*
X123801238Y-83502476D01*
X123991714Y-83454857D01*
X124325047Y-83454857D01*
X124515523Y-83502476D01*
X124610761Y-83597714D01*
X124658380Y-83692952D01*
X124658380Y-83883428D01*
X124658380Y-82502476D02*
X124658380Y-83073904D01*
X124658380Y-82788190D02*
X123658380Y-82788190D01*
X123801238Y-82883428D01*
X123896476Y-82978666D01*
X123944095Y-83073904D01*
%TO.C,JP3*%
X175115380Y-104063332D02*
X175829666Y-104063332D01*
X175972523Y-104110951D01*
X176067761Y-104206189D01*
X176115380Y-104349046D01*
X176115380Y-104444284D01*
X176115380Y-103587141D02*
X175115380Y-103587141D01*
X175115380Y-103206189D01*
X175163000Y-103110951D01*
X175210619Y-103063332D01*
X175305857Y-103015713D01*
X175448714Y-103015713D01*
X175543952Y-103063332D01*
X175591571Y-103110951D01*
X175639190Y-103206189D01*
X175639190Y-103587141D01*
X175115380Y-102682379D02*
X175115380Y-102063332D01*
X175496333Y-102396665D01*
X175496333Y-102253808D01*
X175543952Y-102158570D01*
X175591571Y-102110951D01*
X175686809Y-102063332D01*
X175924904Y-102063332D01*
X176020142Y-102110951D01*
X176067761Y-102158570D01*
X176115380Y-102253808D01*
X176115380Y-102539522D01*
X176067761Y-102634760D01*
X176020142Y-102682379D01*
%TO.C,C5*%
X139582142Y-100904166D02*
X139629761Y-100951785D01*
X139677380Y-101094642D01*
X139677380Y-101189880D01*
X139629761Y-101332738D01*
X139534523Y-101427976D01*
X139439285Y-101475595D01*
X139248809Y-101523214D01*
X139105952Y-101523214D01*
X138915476Y-101475595D01*
X138820238Y-101427976D01*
X138725000Y-101332738D01*
X138677380Y-101189880D01*
X138677380Y-101094642D01*
X138725000Y-100951785D01*
X138772619Y-100904166D01*
X138677380Y-99999404D02*
X138677380Y-100475595D01*
X139153571Y-100523214D01*
X139105952Y-100475595D01*
X139058333Y-100380357D01*
X139058333Y-100142261D01*
X139105952Y-100047023D01*
X139153571Y-99999404D01*
X139248809Y-99951785D01*
X139486904Y-99951785D01*
X139582142Y-99999404D01*
X139629761Y-100047023D01*
X139677380Y-100142261D01*
X139677380Y-100380357D01*
X139629761Y-100475595D01*
X139582142Y-100523214D01*
%TO.C,J11*%
X172537380Y-129492095D02*
X171537380Y-129492095D01*
X171537380Y-129254000D01*
X171585000Y-129111142D01*
X171680238Y-129015904D01*
X171775476Y-128968285D01*
X171965952Y-128920666D01*
X172108809Y-128920666D01*
X172299285Y-128968285D01*
X172394523Y-129015904D01*
X172489761Y-129111142D01*
X172537380Y-129254000D01*
X172537380Y-129492095D01*
X172013571Y-128492095D02*
X172013571Y-128158761D01*
X172537380Y-128015904D02*
X172537380Y-128492095D01*
X171537380Y-128492095D01*
X171537380Y-128015904D01*
X172013571Y-127254000D02*
X172061190Y-127111142D01*
X172108809Y-127063523D01*
X172204047Y-127015904D01*
X172346904Y-127015904D01*
X172442142Y-127063523D01*
X172489761Y-127111142D01*
X172537380Y-127206380D01*
X172537380Y-127587333D01*
X171537380Y-127587333D01*
X171537380Y-127254000D01*
X171585000Y-127158761D01*
X171632619Y-127111142D01*
X171727857Y-127063523D01*
X171823095Y-127063523D01*
X171918333Y-127111142D01*
X171965952Y-127158761D01*
X172013571Y-127254000D01*
X172013571Y-127587333D01*
X171537380Y-126587333D02*
X172346904Y-126587333D01*
X172442142Y-126539714D01*
X172489761Y-126492095D01*
X172537380Y-126396857D01*
X172537380Y-126206380D01*
X172489761Y-126111142D01*
X172442142Y-126063523D01*
X172346904Y-126015904D01*
X171537380Y-126015904D01*
X171585000Y-125015904D02*
X171537380Y-125111142D01*
X171537380Y-125254000D01*
X171585000Y-125396857D01*
X171680238Y-125492095D01*
X171775476Y-125539714D01*
X171965952Y-125587333D01*
X172108809Y-125587333D01*
X172299285Y-125539714D01*
X172394523Y-125492095D01*
X172489761Y-125396857D01*
X172537380Y-125254000D01*
X172537380Y-125158761D01*
X172489761Y-125015904D01*
X172442142Y-124968285D01*
X172108809Y-124968285D01*
X172108809Y-125158761D01*
%TO.C,C20*%
X123436142Y-128555714D02*
X123388523Y-128593809D01*
X123245666Y-128631904D01*
X123150428Y-128631904D01*
X123007571Y-128593809D01*
X122912333Y-128517619D01*
X122864714Y-128441428D01*
X122817095Y-128289047D01*
X122817095Y-128174761D01*
X122864714Y-128022380D01*
X122912333Y-127946190D01*
X123007571Y-127870000D01*
X123150428Y-127831904D01*
X123245666Y-127831904D01*
X123388523Y-127870000D01*
X123436142Y-127908095D01*
X123817095Y-127908095D02*
X123864714Y-127870000D01*
X123959952Y-127831904D01*
X124198047Y-127831904D01*
X124293285Y-127870000D01*
X124340904Y-127908095D01*
X124388523Y-127984285D01*
X124388523Y-128060476D01*
X124340904Y-128174761D01*
X123769476Y-128631904D01*
X124388523Y-128631904D01*
X125007571Y-127831904D02*
X125102809Y-127831904D01*
X125198047Y-127870000D01*
X125245666Y-127908095D01*
X125293285Y-127984285D01*
X125340904Y-128136666D01*
X125340904Y-128327142D01*
X125293285Y-128479523D01*
X125245666Y-128555714D01*
X125198047Y-128593809D01*
X125102809Y-128631904D01*
X125007571Y-128631904D01*
X124912333Y-128593809D01*
X124864714Y-128555714D01*
X124817095Y-128479523D01*
X124769476Y-128327142D01*
X124769476Y-128136666D01*
X124817095Y-127984285D01*
X124864714Y-127908095D01*
X124912333Y-127870000D01*
X125007571Y-127831904D01*
%TO.C,C23*%
X153773142Y-118879857D02*
X153820761Y-118927476D01*
X153868380Y-119070333D01*
X153868380Y-119165571D01*
X153820761Y-119308428D01*
X153725523Y-119403666D01*
X153630285Y-119451285D01*
X153439809Y-119498904D01*
X153296952Y-119498904D01*
X153106476Y-119451285D01*
X153011238Y-119403666D01*
X152916000Y-119308428D01*
X152868380Y-119165571D01*
X152868380Y-119070333D01*
X152916000Y-118927476D01*
X152963619Y-118879857D01*
X152963619Y-118498904D02*
X152916000Y-118451285D01*
X152868380Y-118356047D01*
X152868380Y-118117952D01*
X152916000Y-118022714D01*
X152963619Y-117975095D01*
X153058857Y-117927476D01*
X153154095Y-117927476D01*
X153296952Y-117975095D01*
X153868380Y-118546523D01*
X153868380Y-117927476D01*
X152868380Y-117594142D02*
X152868380Y-116975095D01*
X153249333Y-117308428D01*
X153249333Y-117165571D01*
X153296952Y-117070333D01*
X153344571Y-117022714D01*
X153439809Y-116975095D01*
X153677904Y-116975095D01*
X153773142Y-117022714D01*
X153820761Y-117070333D01*
X153868380Y-117165571D01*
X153868380Y-117451285D01*
X153820761Y-117546523D01*
X153773142Y-117594142D01*
%TO.C,U3*%
X135509095Y-97623380D02*
X135509095Y-98432904D01*
X135556714Y-98528142D01*
X135604333Y-98575761D01*
X135699571Y-98623380D01*
X135890047Y-98623380D01*
X135985285Y-98575761D01*
X136032904Y-98528142D01*
X136080523Y-98432904D01*
X136080523Y-97623380D01*
X136461476Y-97623380D02*
X137080523Y-97623380D01*
X136747190Y-98004333D01*
X136890047Y-98004333D01*
X136985285Y-98051952D01*
X137032904Y-98099571D01*
X137080523Y-98194809D01*
X137080523Y-98432904D01*
X137032904Y-98528142D01*
X136985285Y-98575761D01*
X136890047Y-98623380D01*
X136604333Y-98623380D01*
X136509095Y-98575761D01*
X136461476Y-98528142D01*
D10*
%TO.C,J5*%
X112523000Y-66004000D02*
X112523000Y-60004000D01*
X115063000Y-60004000D02*
X115823000Y-60004000D01*
X122683000Y-66004000D02*
X122683000Y-60004000D01*
X121793000Y-68664000D02*
X121793000Y-66004000D01*
X123443000Y-69061071D02*
X123443000Y-68664000D01*
X116713000Y-68664000D02*
X116713000Y-66004000D01*
X111633000Y-71374000D02*
X111633000Y-70104000D01*
X120143000Y-69061071D02*
X120143000Y-68664000D01*
X113283000Y-68994000D02*
X113283000Y-68664000D01*
X114173000Y-68664000D02*
X114173000Y-66004000D01*
X112823000Y-66004000D02*
X112823000Y-60004000D01*
X115063000Y-66004000D02*
X115063000Y-60004000D01*
X124393000Y-68664000D02*
X124393000Y-66004000D01*
X118363000Y-60004000D02*
X118363000Y-66004000D01*
X113283000Y-60004000D02*
X113283000Y-66004000D01*
X115823000Y-60004000D02*
X115823000Y-66004000D01*
X120143000Y-66004000D02*
X120143000Y-60004000D01*
X115063000Y-69061071D02*
X115063000Y-68664000D01*
X124393000Y-66004000D02*
X111573000Y-66004000D01*
X117603000Y-66004000D02*
X117603000Y-60004000D01*
X123443000Y-60004000D02*
X123443000Y-66004000D01*
X112523000Y-60004000D02*
X113283000Y-60004000D01*
X117603000Y-69061071D02*
X117603000Y-68664000D01*
X120903000Y-69061071D02*
X120903000Y-68664000D01*
X122683000Y-69061071D02*
X122683000Y-68664000D01*
X111573000Y-68664000D02*
X124393000Y-68664000D01*
X120143000Y-60004000D02*
X120903000Y-60004000D01*
X117603000Y-60004000D02*
X118363000Y-60004000D01*
X112703000Y-66004000D02*
X112703000Y-60004000D01*
X118363000Y-69061071D02*
X118363000Y-68664000D01*
X112583000Y-66004000D02*
X112583000Y-60004000D01*
X112523000Y-68994000D02*
X112523000Y-68664000D01*
X111573000Y-66004000D02*
X111573000Y-68664000D01*
X122683000Y-60004000D02*
X123443000Y-60004000D01*
X112943000Y-66004000D02*
X112943000Y-60004000D01*
X115823000Y-69061071D02*
X115823000Y-68664000D01*
X119253000Y-68664000D02*
X119253000Y-66004000D01*
X112903000Y-71374000D02*
X111633000Y-71374000D01*
X113063000Y-66004000D02*
X113063000Y-60004000D01*
X113183000Y-66004000D02*
X113183000Y-60004000D01*
X120903000Y-60004000D02*
X120903000Y-66004000D01*
%TO.C,R9*%
X179967975Y-95216499D02*
X180477423Y-95216499D01*
X179967975Y-94171499D02*
X180477423Y-94171499D01*
%TO.C,J10*%
X119210000Y-120777000D02*
X116550000Y-120777000D01*
X116550000Y-119887000D02*
X110550000Y-119887000D01*
X116550000Y-122427000D02*
X110550000Y-122427000D01*
X119540000Y-122427000D02*
X119210000Y-122427000D01*
X116550000Y-122127000D02*
X110550000Y-122127000D01*
X110550000Y-117347000D02*
X110550000Y-116587000D01*
X116550000Y-121887000D02*
X110550000Y-121887000D01*
X116550000Y-121767000D02*
X110550000Y-121767000D01*
X119210000Y-118237000D02*
X116550000Y-118237000D01*
X119607071Y-119887000D02*
X119210000Y-119887000D01*
X119210000Y-115637000D02*
X116550000Y-115637000D01*
X110550000Y-122427000D02*
X110550000Y-121667000D01*
X119607071Y-116587000D02*
X119210000Y-116587000D01*
X119210000Y-123377000D02*
X119210000Y-115637000D01*
X119540000Y-121667000D02*
X119210000Y-121667000D01*
X121920000Y-122047000D02*
X121920000Y-123317000D01*
X119607071Y-119127000D02*
X119210000Y-119127000D01*
X121920000Y-123317000D02*
X120650000Y-123317000D01*
X116550000Y-122367000D02*
X110550000Y-122367000D01*
X116550000Y-122007000D02*
X110550000Y-122007000D01*
X110550000Y-119887000D02*
X110550000Y-119127000D01*
X116550000Y-122247000D02*
X110550000Y-122247000D01*
X110550000Y-119127000D02*
X116550000Y-119127000D01*
X110550000Y-116587000D02*
X116550000Y-116587000D01*
X110550000Y-121667000D02*
X116550000Y-121667000D01*
X116550000Y-117347000D02*
X110550000Y-117347000D01*
X116550000Y-123377000D02*
X119210000Y-123377000D01*
X116550000Y-115637000D02*
X116550000Y-123377000D01*
X119607071Y-117347000D02*
X119210000Y-117347000D01*
D15*
%TO.C,J9*%
X119648000Y-113271000D02*
X119648000Y-103271000D01*
X119648000Y-103271000D02*
X109648000Y-103271000D01*
X109648000Y-113271000D02*
X119648000Y-113271000D01*
X109648000Y-103271000D02*
X109648000Y-113271000D01*
D10*
%TO.C,R4*%
X128180724Y-78630500D02*
X127671276Y-78630500D01*
X128180724Y-79675500D02*
X127671276Y-79675500D01*
%TO.C,C2*%
X131845267Y-97030000D02*
X131552733Y-97030000D01*
X131845267Y-96010000D02*
X131552733Y-96010000D01*
%TO.C,Q2*%
X123134000Y-122275000D02*
X123134000Y-120815000D01*
X126294000Y-122275000D02*
X126294000Y-119115000D01*
X123134000Y-122275000D02*
X124064000Y-122275000D01*
X126294000Y-122275000D02*
X125364000Y-122275000D01*
%TO.C,C21*%
X124198767Y-129030000D02*
X123906233Y-129030000D01*
X124198767Y-130050000D02*
X123906233Y-130050000D01*
%TO.C,J2*%
X156137000Y-66004000D02*
X156137000Y-60004000D01*
X159257000Y-69061071D02*
X159257000Y-68664000D01*
X155007000Y-66004000D02*
X155007000Y-68664000D01*
X161797000Y-60004000D02*
X161797000Y-66004000D01*
X156717000Y-68994000D02*
X156717000Y-68664000D01*
X155957000Y-66004000D02*
X155957000Y-60004000D01*
X166877000Y-69061071D02*
X166877000Y-68664000D01*
X159257000Y-60004000D02*
X159257000Y-66004000D01*
X158497000Y-69061071D02*
X158497000Y-68664000D01*
X161797000Y-69061071D02*
X161797000Y-68664000D01*
X155957000Y-60004000D02*
X156717000Y-60004000D01*
X166117000Y-60004000D02*
X166877000Y-60004000D01*
X156017000Y-66004000D02*
X156017000Y-60004000D01*
X161037000Y-60004000D02*
X161797000Y-60004000D01*
X155007000Y-68664000D02*
X167827000Y-68664000D01*
X156717000Y-60004000D02*
X156717000Y-66004000D01*
X167827000Y-68664000D02*
X167827000Y-66004000D01*
X163577000Y-69061071D02*
X163577000Y-68664000D01*
X158497000Y-60004000D02*
X159257000Y-60004000D01*
X166117000Y-66004000D02*
X166117000Y-60004000D01*
X166877000Y-60004000D02*
X166877000Y-66004000D01*
X167827000Y-66004000D02*
X155007000Y-66004000D01*
X155957000Y-68994000D02*
X155957000Y-68664000D01*
X157607000Y-68664000D02*
X157607000Y-66004000D01*
X164337000Y-69061071D02*
X164337000Y-68664000D01*
X156337000Y-71374000D02*
X155067000Y-71374000D01*
X161037000Y-69061071D02*
X161037000Y-68664000D01*
X156497000Y-66004000D02*
X156497000Y-60004000D01*
X156257000Y-66004000D02*
X156257000Y-60004000D01*
X156377000Y-66004000D02*
X156377000Y-60004000D01*
X166117000Y-69061071D02*
X166117000Y-68664000D01*
X160147000Y-68664000D02*
X160147000Y-66004000D01*
X155067000Y-71374000D02*
X155067000Y-70104000D01*
X165227000Y-68664000D02*
X165227000Y-66004000D01*
X156617000Y-66004000D02*
X156617000Y-60004000D01*
X161037000Y-66004000D02*
X161037000Y-60004000D01*
X162687000Y-68664000D02*
X162687000Y-66004000D01*
X164337000Y-60004000D02*
X164337000Y-66004000D01*
X163577000Y-66004000D02*
X163577000Y-60004000D01*
X158497000Y-66004000D02*
X158497000Y-60004000D01*
X163577000Y-60004000D02*
X164337000Y-60004000D01*
%TO.C,C22*%
X170352767Y-120652000D02*
X170060233Y-120652000D01*
X170352767Y-119632000D02*
X170060233Y-119632000D01*
%TO.C,R10*%
X124459276Y-117354799D02*
X124968724Y-117354799D01*
X124459276Y-118399799D02*
X124968724Y-118399799D01*
D16*
%TO.C,J12*%
X128100000Y-136662000D02*
X128100000Y-120562000D01*
X128100000Y-120562000D02*
X167290000Y-120562000D01*
X160025000Y-142662000D02*
X135365000Y-142662000D01*
X167290000Y-136662000D02*
X128100000Y-136662000D01*
X160025000Y-136662000D02*
X160025000Y-142662000D01*
X135365000Y-136662000D02*
X160025000Y-136662000D01*
X135365000Y-142662000D02*
X135365000Y-136662000D01*
X167290000Y-120562000D02*
X167290000Y-136662000D01*
D10*
%TO.C,R11*%
X119992224Y-132573500D02*
X119482776Y-132573500D01*
X119992224Y-133618500D02*
X119482776Y-133618500D01*
%TO.C,JP4*%
X174863000Y-97003999D02*
X174863000Y-99803999D01*
X174163000Y-100453999D02*
X173563000Y-100453999D01*
X172863000Y-99803999D02*
X172863000Y-97003999D01*
X173563000Y-96353999D02*
X174163000Y-96353999D01*
X172863000Y-99753999D02*
G75*
G03*
X173563000Y-100453999I699999J-1D01*
G01*
X174863000Y-97053999D02*
G75*
G03*
X174163000Y-96353999I-699999J1D01*
G01*
X174163000Y-100453999D02*
G75*
G03*
X174863000Y-99753999I1J699999D01*
G01*
X173563000Y-96353999D02*
G75*
G03*
X172863000Y-97053999I-1J-699999D01*
G01*
%TO.C,U7*%
X144201000Y-113352500D02*
X144201000Y-111152500D01*
X144201000Y-113352500D02*
X144201000Y-115552500D01*
X150971000Y-113352500D02*
X150971000Y-115552500D01*
X150971000Y-113352500D02*
X150971000Y-109752500D01*
%TO.C,R2*%
X152541500Y-79604776D02*
X152541500Y-80114224D01*
X151496500Y-79604776D02*
X151496500Y-80114224D01*
%TO.C,C10*%
X174325233Y-108202000D02*
X174617767Y-108202000D01*
X174325233Y-109222000D02*
X174617767Y-109222000D01*
%TO.C,C13*%
X122934000Y-89527767D02*
X122934000Y-89235233D01*
X123954000Y-89527767D02*
X123954000Y-89235233D01*
%TO.C,C4*%
X146284733Y-98046000D02*
X146577267Y-98046000D01*
X146284733Y-97026000D02*
X146577267Y-97026000D01*
%TO.C,SW1*%
X180914000Y-89293000D02*
X178314000Y-89293000D01*
X176384000Y-82833000D02*
X176414000Y-82833000D01*
X176384000Y-82833000D02*
X176384000Y-89293000D01*
X182844000Y-82833000D02*
X182844000Y-89293000D01*
X180914000Y-82833000D02*
X178314000Y-82833000D01*
X182844000Y-89293000D02*
X182814000Y-89293000D01*
X182814000Y-82833000D02*
X182844000Y-82833000D01*
X176384000Y-89293000D02*
X176414000Y-89293000D01*
%TO.C,JP1*%
X126526000Y-80153000D02*
X129326000Y-80153000D01*
X126526000Y-82153000D02*
X126526000Y-80153000D01*
X129326000Y-82153000D02*
X126526000Y-82153000D01*
X129326000Y-80153000D02*
X129326000Y-82153000D01*
%TO.C,U6*%
X162371000Y-113352500D02*
X162371000Y-115552500D01*
X155601000Y-113352500D02*
X155601000Y-111152500D01*
X162371000Y-113352500D02*
X162371000Y-109752500D01*
X155601000Y-113352500D02*
X155601000Y-115552500D01*
%TO.C,R3*%
X132229776Y-92822500D02*
X132739224Y-92822500D01*
X132229776Y-93867500D02*
X132739224Y-93867500D01*
%TO.C,U1*%
X150420000Y-79781000D02*
X150420000Y-78106000D01*
X145230000Y-85231000D02*
X145490000Y-85231000D01*
X150680000Y-82506000D02*
X150680000Y-79781000D01*
X150680000Y-79781000D02*
X150420000Y-79781000D01*
X145230000Y-79781000D02*
X145490000Y-79781000D01*
X145230000Y-82506000D02*
X145230000Y-85231000D01*
X150680000Y-82506000D02*
X150680000Y-85231000D01*
X145230000Y-82506000D02*
X145230000Y-79781000D01*
X150680000Y-85231000D02*
X150420000Y-85231000D01*
%TO.C,C15*%
X148709767Y-91823000D02*
X148417233Y-91823000D01*
X148709767Y-90803000D02*
X148417233Y-90803000D01*
%TO.C,R12*%
X124056224Y-124572500D02*
X123546776Y-124572500D01*
X124056224Y-125617500D02*
X123546776Y-125617500D01*
D15*
%TO.C,J8*%
X109648000Y-100945000D02*
X119648000Y-100945000D01*
X109648000Y-90945000D02*
X109648000Y-100945000D01*
X119648000Y-90945000D02*
X109648000Y-90945000D01*
X119648000Y-100945000D02*
X119648000Y-90945000D01*
D10*
%TO.C,R5*%
X124218776Y-78630500D02*
X124728224Y-78630500D01*
X124218776Y-79675500D02*
X124728224Y-79675500D01*
%TO.C,C11*%
X152529000Y-85389767D02*
X152529000Y-85097233D01*
X151509000Y-85389767D02*
X151509000Y-85097233D01*
D15*
%TO.C,J7*%
X185596000Y-96342999D02*
X185596000Y-105282999D01*
X184366000Y-96342999D02*
X185596000Y-96342999D01*
X180186000Y-105282999D02*
X181626000Y-105282999D01*
X180186000Y-96342999D02*
X181626000Y-96342999D01*
X185596000Y-105282999D02*
X184366000Y-105282999D01*
D10*
%TO.C,U4*%
X159909000Y-79188000D02*
G75*
G03*
X161909000Y-79188000I1000000J0D01*
G01*
X159909000Y-79188000D02*
X158259000Y-79188000D01*
X163559000Y-79188000D02*
X161909000Y-79188000D01*
X158259000Y-97088000D02*
X163559000Y-97088000D01*
X158259000Y-79188000D02*
X158259000Y-97088000D01*
X163559000Y-97088000D02*
X163559000Y-79188000D01*
%TO.C,C18*%
X112520000Y-127553767D02*
X112520000Y-127261233D01*
X113540000Y-127553767D02*
X113540000Y-127261233D01*
%TO.C,C16*%
X148709767Y-93347000D02*
X148417233Y-93347000D01*
X148709767Y-92327000D02*
X148417233Y-92327000D01*
%TO.C,C3*%
X142111000Y-98887233D02*
X142111000Y-99179767D01*
X143131000Y-98887233D02*
X143131000Y-99179767D01*
%TO.C,R1*%
X153186224Y-77484500D02*
X152676776Y-77484500D01*
X153186224Y-76439500D02*
X152676776Y-76439500D01*
%TO.C,R7*%
X146199776Y-93965500D02*
X146709224Y-93965500D01*
X146199776Y-95010500D02*
X146709224Y-95010500D01*
%TO.C,J4*%
X138871000Y-68664000D02*
X138871000Y-66004000D01*
X127661000Y-66004000D02*
X127661000Y-60004000D01*
X132841000Y-60004000D02*
X132841000Y-66004000D01*
X129541000Y-66004000D02*
X129541000Y-60004000D01*
X126051000Y-68664000D02*
X138871000Y-68664000D01*
X127001000Y-60004000D02*
X127761000Y-60004000D01*
X137161000Y-69061071D02*
X137161000Y-68664000D01*
X132841000Y-69061071D02*
X132841000Y-68664000D01*
X127061000Y-66004000D02*
X127061000Y-60004000D01*
X130301000Y-60004000D02*
X130301000Y-66004000D01*
X135381000Y-60004000D02*
X135381000Y-66004000D01*
X137921000Y-60004000D02*
X137921000Y-66004000D01*
X127181000Y-66004000D02*
X127181000Y-60004000D01*
X128651000Y-68664000D02*
X128651000Y-66004000D01*
X137161000Y-66004000D02*
X137161000Y-60004000D01*
X127761000Y-68994000D02*
X127761000Y-68664000D01*
X137921000Y-69061071D02*
X137921000Y-68664000D01*
X132081000Y-60004000D02*
X132841000Y-60004000D01*
X137161000Y-60004000D02*
X137921000Y-60004000D01*
X129541000Y-60004000D02*
X130301000Y-60004000D01*
X132081000Y-66004000D02*
X132081000Y-60004000D01*
X136271000Y-68664000D02*
X136271000Y-66004000D01*
X134621000Y-69061071D02*
X134621000Y-68664000D01*
X132081000Y-69061071D02*
X132081000Y-68664000D01*
X126051000Y-66004000D02*
X126051000Y-68664000D01*
X130301000Y-69061071D02*
X130301000Y-68664000D01*
X134621000Y-66004000D02*
X134621000Y-60004000D01*
X127001000Y-66004000D02*
X127001000Y-60004000D01*
X127301000Y-66004000D02*
X127301000Y-60004000D01*
X127761000Y-60004000D02*
X127761000Y-66004000D01*
X127541000Y-66004000D02*
X127541000Y-60004000D01*
X127001000Y-68994000D02*
X127001000Y-68664000D01*
X133731000Y-68664000D02*
X133731000Y-66004000D01*
X131191000Y-68664000D02*
X131191000Y-66004000D01*
X134621000Y-60004000D02*
X135381000Y-60004000D01*
X129541000Y-69061071D02*
X129541000Y-68664000D01*
X138871000Y-66004000D02*
X126051000Y-66004000D01*
X127421000Y-66004000D02*
X127421000Y-60004000D01*
X126111000Y-71374000D02*
X126111000Y-70104000D01*
X127381000Y-71374000D02*
X126111000Y-71374000D01*
X135381000Y-69061071D02*
X135381000Y-68664000D01*
%TO.C,C8*%
X146284733Y-101094000D02*
X146577267Y-101094000D01*
X146284733Y-100074000D02*
X146577267Y-100074000D01*
%TO.C,J6*%
X119083000Y-80839000D02*
X116423000Y-80839000D01*
X119413000Y-87629000D02*
X119083000Y-87629000D01*
X116423000Y-85089000D02*
X110423000Y-85089000D01*
X116423000Y-87569000D02*
X110423000Y-87569000D01*
X110423000Y-84329000D02*
X116423000Y-84329000D01*
X119480071Y-81789000D02*
X119083000Y-81789000D01*
X116423000Y-87209000D02*
X110423000Y-87209000D01*
X116423000Y-86969000D02*
X110423000Y-86969000D01*
X110423000Y-82549000D02*
X110423000Y-81789000D01*
X110423000Y-86869000D02*
X116423000Y-86869000D01*
X119083000Y-88579000D02*
X119083000Y-80839000D01*
X119480071Y-82549000D02*
X119083000Y-82549000D01*
X116423000Y-87449000D02*
X110423000Y-87449000D01*
X116423000Y-87629000D02*
X110423000Y-87629000D01*
X116423000Y-82549000D02*
X110423000Y-82549000D01*
X119413000Y-86869000D02*
X119083000Y-86869000D01*
X110423000Y-85089000D02*
X110423000Y-84329000D01*
X119083000Y-85979000D02*
X116423000Y-85979000D01*
X119083000Y-83439000D02*
X116423000Y-83439000D01*
X116423000Y-80839000D02*
X116423000Y-88579000D01*
X119480071Y-85089000D02*
X119083000Y-85089000D01*
X121793000Y-88519000D02*
X120523000Y-88519000D01*
X121793000Y-87249000D02*
X121793000Y-88519000D01*
X119480071Y-84329000D02*
X119083000Y-84329000D01*
X116423000Y-87089000D02*
X110423000Y-87089000D01*
X110423000Y-87629000D02*
X110423000Y-86869000D01*
X110423000Y-81789000D02*
X116423000Y-81789000D01*
X116423000Y-87329000D02*
X110423000Y-87329000D01*
X116423000Y-88579000D02*
X119083000Y-88579000D01*
%TO.C,R8*%
X179967975Y-107535499D02*
X180477423Y-107535499D01*
X179967975Y-106490499D02*
X180477423Y-106490499D01*
%TO.C,C6*%
X146284733Y-99570000D02*
X146577267Y-99570000D01*
X146284733Y-98550000D02*
X146577267Y-98550000D01*
%TO.C,C1*%
X131845267Y-94486000D02*
X131552733Y-94486000D01*
X131845267Y-95506000D02*
X131552733Y-95506000D01*
%TO.C,U5*%
X118175000Y-126345000D02*
X114725000Y-126345000D01*
X118175000Y-131465000D02*
X116225000Y-131465000D01*
X118175000Y-131465000D02*
X120125000Y-131465000D01*
X118175000Y-126345000D02*
X120125000Y-126345000D01*
%TO.C,C19*%
X142369000Y-111640233D02*
X142369000Y-111932767D01*
X141349000Y-111640233D02*
X141349000Y-111932767D01*
%TO.C,C7*%
X172600233Y-118366000D02*
X172892767Y-118366000D01*
X172600233Y-117346000D02*
X172892767Y-117346000D01*
%TO.C,C17*%
X154176000Y-79763233D02*
X154176000Y-80055767D01*
X155196000Y-79763233D02*
X155196000Y-80055767D01*
%TO.C,U8*%
X132763000Y-113352500D02*
X132763000Y-115552500D01*
X139533000Y-113352500D02*
X139533000Y-115552500D01*
X139533000Y-113352500D02*
X139533000Y-109752500D01*
X132763000Y-113352500D02*
X132763000Y-111152500D01*
%TO.C,U2*%
X172309000Y-109874000D02*
X168549000Y-109874000D01*
X174559000Y-116694000D02*
X168549000Y-116694000D01*
X168549000Y-116694000D02*
X168549000Y-115434000D01*
X168549000Y-109874000D02*
X168549000Y-111134000D01*
%TO.C,JP2*%
X125873500Y-82153000D02*
X123073500Y-82153000D01*
X123073500Y-80153000D02*
X125873500Y-80153000D01*
X123073500Y-82153000D02*
X123073500Y-80153000D01*
X125873500Y-80153000D02*
X125873500Y-82153000D01*
%TO.C,J3*%
X141659000Y-66004000D02*
X141659000Y-60004000D01*
X147319000Y-60004000D02*
X147319000Y-66004000D01*
X141899000Y-66004000D02*
X141899000Y-60004000D01*
X148209000Y-68664000D02*
X148209000Y-66004000D01*
X146559000Y-66004000D02*
X146559000Y-60004000D01*
X150749000Y-68664000D02*
X150749000Y-66004000D01*
X146559000Y-60004000D02*
X147319000Y-60004000D01*
X141479000Y-66004000D02*
X141479000Y-60004000D01*
X151639000Y-60004000D02*
X152399000Y-60004000D01*
X149099000Y-69061071D02*
X149099000Y-68664000D01*
X153349000Y-66004000D02*
X140529000Y-66004000D01*
X141479000Y-68994000D02*
X141479000Y-68664000D01*
X144779000Y-60004000D02*
X144779000Y-66004000D01*
X140589000Y-71374000D02*
X140589000Y-70104000D01*
X145669000Y-68664000D02*
X145669000Y-66004000D01*
X144019000Y-60004000D02*
X144779000Y-60004000D01*
X149859000Y-69061071D02*
X149859000Y-68664000D01*
X141859000Y-71374000D02*
X140589000Y-71374000D01*
X141479000Y-60004000D02*
X142239000Y-60004000D01*
X140529000Y-66004000D02*
X140529000Y-68664000D01*
X141539000Y-66004000D02*
X141539000Y-60004000D01*
X151639000Y-69061071D02*
X151639000Y-68664000D01*
X142239000Y-60004000D02*
X142239000Y-66004000D01*
X149099000Y-66004000D02*
X149099000Y-60004000D01*
X140529000Y-68664000D02*
X153349000Y-68664000D01*
X152399000Y-69061071D02*
X152399000Y-68664000D01*
X147319000Y-69061071D02*
X147319000Y-68664000D01*
X144779000Y-69061071D02*
X144779000Y-68664000D01*
X149859000Y-60004000D02*
X149859000Y-66004000D01*
X152399000Y-60004000D02*
X152399000Y-66004000D01*
X142239000Y-68994000D02*
X142239000Y-68664000D01*
X144019000Y-69061071D02*
X144019000Y-68664000D01*
X146559000Y-69061071D02*
X146559000Y-68664000D01*
X142019000Y-66004000D02*
X142019000Y-60004000D01*
X153349000Y-68664000D02*
X153349000Y-66004000D01*
X144019000Y-66004000D02*
X144019000Y-60004000D01*
X143129000Y-68664000D02*
X143129000Y-66004000D01*
X149099000Y-60004000D02*
X149859000Y-60004000D01*
X151639000Y-66004000D02*
X151639000Y-60004000D01*
X141779000Y-66004000D02*
X141779000Y-60004000D01*
X142139000Y-66004000D02*
X142139000Y-60004000D01*
%TO.C,J1*%
X170731000Y-71187000D02*
X170731000Y-72237000D01*
X170931000Y-62837000D02*
X172831000Y-62837000D01*
X171781000Y-72237000D02*
X170731000Y-72237000D01*
X170931000Y-65537000D02*
X170931000Y-62837000D01*
X170931000Y-72037000D02*
X170931000Y-69437000D01*
X185631000Y-62837000D02*
X185631000Y-72037000D01*
X176831000Y-62837000D02*
X185631000Y-62837000D01*
X185631000Y-72037000D02*
X170931000Y-72037000D01*
%TO.C,C14*%
X123954000Y-96019233D02*
X123954000Y-96311767D01*
X122934000Y-96019233D02*
X122934000Y-96311767D01*
%TO.C,R6*%
X146199776Y-96534500D02*
X146709224Y-96534500D01*
X146199776Y-95489500D02*
X146709224Y-95489500D01*
%TO.C,C9*%
X143512000Y-85897767D02*
X143512000Y-85605233D01*
X142492000Y-85897767D02*
X142492000Y-85605233D01*
%TO.C,Y1*%
X124704000Y-86869000D02*
X124704000Y-99469000D01*
X129804000Y-99469000D02*
X129804000Y-86869000D01*
X124704000Y-99469000D02*
X129804000Y-99469000D01*
%TO.C,C12*%
X137793000Y-86532767D02*
X137793000Y-86240233D01*
X138813000Y-86532767D02*
X138813000Y-86240233D01*
%TO.C,Q1*%
X128021000Y-82802000D02*
X126621000Y-82802000D01*
X126621000Y-85122000D02*
X128521000Y-85122000D01*
%TO.C,JP3*%
X174863000Y-101829999D02*
X174863000Y-104629999D01*
X172863000Y-104629999D02*
X172863000Y-101829999D01*
X173563000Y-101179999D02*
X174163000Y-101179999D01*
X174163000Y-105279999D02*
X173563000Y-105279999D01*
X173563000Y-101179999D02*
G75*
G03*
X172863000Y-101879999I-1J-699999D01*
G01*
X174163000Y-105279999D02*
G75*
G03*
X174863000Y-104579999I1J699999D01*
G01*
X174863000Y-101879999D02*
G75*
G03*
X174163000Y-101179999I-699999J1D01*
G01*
X172863000Y-104579999D02*
G75*
G03*
X173563000Y-105279999I699999J-1D01*
G01*
%TO.C,C5*%
X138305000Y-100591233D02*
X138305000Y-100883767D01*
X137285000Y-100591233D02*
X137285000Y-100883767D01*
%TO.C,J11*%
X175811000Y-132334000D02*
X178471000Y-132334000D01*
X175413929Y-130684000D02*
X175811000Y-130684000D01*
X184471000Y-126364000D02*
X178471000Y-126364000D01*
X175413929Y-128144000D02*
X175811000Y-128144000D01*
X173101000Y-120904000D02*
X173101000Y-119634000D01*
X178471000Y-120944000D02*
X184471000Y-120944000D01*
X178471000Y-121184000D02*
X184471000Y-121184000D01*
X184471000Y-123064000D02*
X184471000Y-123824000D01*
X175413929Y-126364000D02*
X175811000Y-126364000D01*
X184471000Y-128904000D02*
X178471000Y-128904000D01*
X184471000Y-125604000D02*
X184471000Y-126364000D01*
X178471000Y-125604000D02*
X184471000Y-125604000D01*
X175413929Y-123064000D02*
X175811000Y-123064000D01*
X175811000Y-129794000D02*
X178471000Y-129794000D01*
X175413929Y-131444000D02*
X175811000Y-131444000D01*
X175481000Y-120524000D02*
X175811000Y-120524000D01*
X184471000Y-130684000D02*
X184471000Y-131444000D01*
X175811000Y-122174000D02*
X178471000Y-122174000D01*
X178471000Y-133224000D02*
X184471000Y-133224000D01*
X178471000Y-123064000D02*
X184471000Y-123064000D01*
X184471000Y-131444000D02*
X178471000Y-131444000D01*
X184471000Y-133984000D02*
X178471000Y-133984000D01*
X178471000Y-120584000D02*
X184471000Y-120584000D01*
X178471000Y-119574000D02*
X175811000Y-119574000D01*
X175413929Y-133224000D02*
X175811000Y-133224000D01*
X175413929Y-123824000D02*
X175811000Y-123824000D01*
X178471000Y-120524000D02*
X184471000Y-120524000D01*
X175413929Y-128904000D02*
X175811000Y-128904000D01*
X175481000Y-121284000D02*
X175811000Y-121284000D01*
X175811000Y-124714000D02*
X178471000Y-124714000D01*
X178471000Y-121064000D02*
X184471000Y-121064000D01*
X173101000Y-119634000D02*
X174371000Y-119634000D01*
X178471000Y-120704000D02*
X184471000Y-120704000D01*
X184471000Y-123824000D02*
X178471000Y-123824000D01*
X184471000Y-128144000D02*
X184471000Y-128904000D01*
X184471000Y-133224000D02*
X184471000Y-133984000D01*
X178471000Y-128144000D02*
X184471000Y-128144000D01*
X184471000Y-121284000D02*
X178471000Y-121284000D01*
X178471000Y-120824000D02*
X184471000Y-120824000D01*
X175413929Y-133984000D02*
X175811000Y-133984000D01*
X184471000Y-120524000D02*
X184471000Y-121284000D01*
X175811000Y-119574000D02*
X175811000Y-134934000D01*
X178471000Y-130684000D02*
X184471000Y-130684000D01*
X175413929Y-125604000D02*
X175811000Y-125604000D01*
X175811000Y-127254000D02*
X178471000Y-127254000D01*
X175811000Y-134934000D02*
X178471000Y-134934000D01*
X178471000Y-134934000D02*
X178471000Y-119574000D01*
%TO.C,C20*%
X124198767Y-126490000D02*
X123906233Y-126490000D01*
X124198767Y-127510000D02*
X123906233Y-127510000D01*
%TO.C,C23*%
X153926000Y-115016233D02*
X153926000Y-115308767D01*
X152906000Y-115016233D02*
X152906000Y-115308767D01*
%TO.C,U3*%
X142200000Y-89885000D02*
X142581000Y-89885000D01*
X142581000Y-89885000D02*
X142581000Y-90266000D01*
X142581000Y-90266000D02*
X142200000Y-89885000D01*
G36*
X142581000Y-90266000D02*
G01*
X142200000Y-89885000D01*
X142581000Y-89885000D01*
X142581000Y-90266000D01*
G37*
X142581000Y-90266000D02*
X142200000Y-89885000D01*
X142581000Y-89885000D01*
X142581000Y-90266000D01*
X142889000Y-96147000D02*
X142889000Y-96797000D01*
X135669000Y-96797000D02*
X136319000Y-96797000D01*
X135669000Y-96147000D02*
X135669000Y-96797000D01*
X142889000Y-96797000D02*
X142239000Y-96797000D01*
X142889000Y-90227000D02*
X142889000Y-89577000D01*
X135669000Y-90227000D02*
X135669000Y-89577000D01*
X135669000Y-89577000D02*
X136319000Y-89577000D01*
%TD*%
%LPC*%
D17*
%TO.C,J5*%
X123063000Y-70104000D03*
X120523000Y-70104000D03*
X117983000Y-70104000D03*
X115443000Y-70104000D03*
D18*
X112903000Y-70104000D03*
%TD*%
D19*
%TO.C,R9*%
X179310199Y-94693999D03*
X181135199Y-94693999D03*
%TD*%
D17*
%TO.C,J10*%
X120650000Y-116967000D03*
X120650000Y-119507000D03*
D18*
X120650000Y-122047000D03*
%TD*%
D20*
%TO.C,J9*%
X113648000Y-108271000D03*
D21*
X117348000Y-112021000D03*
X117348000Y-104521000D03*
%TD*%
D22*
%TO.C,R4*%
X128838500Y-79153000D03*
X127013500Y-79153000D03*
%TD*%
D23*
%TO.C,C2*%
X132561500Y-96520000D03*
X130836500Y-96520000D03*
%TD*%
D24*
%TO.C,Q2*%
X124714000Y-123015000D03*
X123764000Y-120015000D03*
X125664000Y-120015000D03*
%TD*%
D23*
%TO.C,C21*%
X124915000Y-129540000D03*
X123190000Y-129540000D03*
%TD*%
D17*
%TO.C,J2*%
X166497000Y-70104000D03*
X163957000Y-70104000D03*
X161417000Y-70104000D03*
X158877000Y-70104000D03*
D18*
X156337000Y-70104000D03*
%TD*%
D23*
%TO.C,C22*%
X171069000Y-120142000D03*
X169344000Y-120142000D03*
%TD*%
D19*
%TO.C,R10*%
X123801500Y-117877299D03*
X125626500Y-117877299D03*
%TD*%
D25*
%TO.C,J12*%
X140315000Y-127772000D03*
X142605000Y-127772000D03*
X144895000Y-127772000D03*
X147185000Y-127772000D03*
X149475000Y-127772000D03*
X151765000Y-127772000D03*
X154055000Y-127772000D03*
X156345000Y-127772000D03*
X139045000Y-125232000D03*
X141335000Y-125232000D03*
X143625000Y-125232000D03*
X145915000Y-125232000D03*
X148205000Y-125232000D03*
X150495000Y-125232000D03*
X152785000Y-125232000D03*
X155075000Y-125232000D03*
X157365000Y-125232000D03*
X138025000Y-122692000D03*
X140315000Y-122692000D03*
X142605000Y-122692000D03*
X144895000Y-122692000D03*
X147185000Y-122692000D03*
X149475000Y-122692000D03*
X151765000Y-122692000D03*
X154055000Y-122692000D03*
D26*
X156345000Y-122692000D03*
D27*
X164355000Y-125232000D03*
X131035000Y-125232000D03*
%TD*%
D22*
%TO.C,R11*%
X120650000Y-133096000D03*
X118825000Y-133096000D03*
%TD*%
D28*
%TO.C,JP4*%
X173863000Y-97103999D03*
D29*
X173863000Y-98403999D03*
D30*
X173863000Y-99703999D03*
%TD*%
D31*
%TO.C,U7*%
X150511000Y-116215000D03*
X149861000Y-116215000D03*
X149211000Y-116215000D03*
X148561000Y-116215000D03*
X147911000Y-116215000D03*
X147261000Y-116215000D03*
X146611000Y-116215000D03*
X145961000Y-116215000D03*
X145311000Y-116215000D03*
X144661000Y-116215000D03*
X144661000Y-110490000D03*
X145311000Y-110490000D03*
X145961000Y-110490000D03*
X146611000Y-110490000D03*
X147261000Y-110490000D03*
X147911000Y-110490000D03*
X148561000Y-110490000D03*
X149211000Y-110490000D03*
X149861000Y-110490000D03*
X150511000Y-110490000D03*
%TD*%
D32*
%TO.C,R2*%
X152019000Y-78947000D03*
X152019000Y-80772000D03*
%TD*%
D33*
%TO.C,REF\u002A\u002A*%
X183134000Y-61341000D03*
%TD*%
D34*
%TO.C,C10*%
X173609000Y-108712000D03*
X175334000Y-108712000D03*
%TD*%
D35*
%TO.C,C13*%
X123444000Y-88519000D03*
X123444000Y-90244000D03*
%TD*%
D34*
%TO.C,C4*%
X145568500Y-97536000D03*
X147293500Y-97536000D03*
%TD*%
D33*
%TO.C,REF\u002A\u002A*%
X111125000Y-63246000D03*
%TD*%
D36*
%TO.C,SW1*%
X177364000Y-82083000D03*
X177364000Y-90043000D03*
X181864000Y-82083000D03*
X181864000Y-90043000D03*
%TD*%
D37*
%TO.C,JP1*%
X127201000Y-81153000D03*
D38*
X128651000Y-81153000D03*
%TD*%
D31*
%TO.C,U6*%
X161911000Y-116215000D03*
X161261000Y-116215000D03*
X160611000Y-116215000D03*
X159961000Y-116215000D03*
X159311000Y-116215000D03*
X158661000Y-116215000D03*
X158011000Y-116215000D03*
X157361000Y-116215000D03*
X156711000Y-116215000D03*
X156061000Y-116215000D03*
X156061000Y-110490000D03*
X156711000Y-110490000D03*
X157361000Y-110490000D03*
X158011000Y-110490000D03*
X158661000Y-110490000D03*
X159311000Y-110490000D03*
X159961000Y-110490000D03*
X160611000Y-110490000D03*
X161261000Y-110490000D03*
X161911000Y-110490000D03*
%TD*%
D19*
%TO.C,R3*%
X131572000Y-93345000D03*
X133397000Y-93345000D03*
%TD*%
D39*
%TO.C,U1*%
X149860000Y-78906000D03*
X148590000Y-78906000D03*
X147320000Y-78906000D03*
X146050000Y-78906000D03*
X146050000Y-86106000D03*
X147320000Y-86106000D03*
X148590000Y-86106000D03*
X149860000Y-86106000D03*
%TD*%
D23*
%TO.C,C15*%
X147701000Y-91313000D03*
X149426000Y-91313000D03*
%TD*%
D22*
%TO.C,R12*%
X124714000Y-125095000D03*
X122889000Y-125095000D03*
%TD*%
D33*
%TO.C,REF\u002A\u002A*%
X113030000Y-133096000D03*
%TD*%
D20*
%TO.C,J8*%
X113648000Y-95945000D03*
D21*
X117348000Y-92195000D03*
X117348000Y-99695000D03*
%TD*%
D19*
%TO.C,R5*%
X123561000Y-79153000D03*
X125386000Y-79153000D03*
%TD*%
D35*
%TO.C,C11*%
X152019000Y-86106000D03*
X152019000Y-84381000D03*
%TD*%
D40*
%TO.C,J7*%
X178816000Y-105132999D03*
X182996000Y-96492999D03*
X178816000Y-96492999D03*
X182996000Y-105132999D03*
D41*
X177901000Y-104062999D03*
X177901000Y-103262999D03*
D42*
X177901000Y-102562999D03*
X177901000Y-101562999D03*
X177901000Y-100062999D03*
X177901000Y-99062999D03*
D41*
X177901000Y-98362999D03*
X177901000Y-97562999D03*
X177901000Y-97562999D03*
X177901000Y-98362999D03*
D42*
X177901000Y-99562999D03*
X177901000Y-100562999D03*
X177901000Y-101062999D03*
X177901000Y-102062999D03*
D41*
X177901000Y-103262999D03*
X177901000Y-104062999D03*
D43*
X179346000Y-103702999D03*
X179346000Y-97922999D03*
%TD*%
D44*
%TO.C,U4*%
X164719000Y-80518000D03*
X164719000Y-83058000D03*
X164719000Y-85598000D03*
X164719000Y-88138000D03*
X164719000Y-90678000D03*
X164719000Y-93218000D03*
X164719000Y-95758000D03*
X157099000Y-95758000D03*
X157099000Y-93218000D03*
X157099000Y-90678000D03*
X157099000Y-88138000D03*
X157099000Y-85598000D03*
X157099000Y-83058000D03*
D45*
X157099000Y-80518000D03*
%TD*%
D35*
%TO.C,C18*%
X113030000Y-128270000D03*
X113030000Y-126545000D03*
%TD*%
D23*
%TO.C,C16*%
X147701000Y-92837000D03*
X149426000Y-92837000D03*
%TD*%
D46*
%TO.C,C3*%
X142621000Y-98171000D03*
X142621000Y-99896000D03*
%TD*%
D22*
%TO.C,R1*%
X153844000Y-76962000D03*
X152019000Y-76962000D03*
%TD*%
D19*
%TO.C,R7*%
X145542000Y-94488000D03*
X147367000Y-94488000D03*
%TD*%
D17*
%TO.C,J4*%
X137541000Y-70104000D03*
X135001000Y-70104000D03*
X132461000Y-70104000D03*
X129921000Y-70104000D03*
D18*
X127381000Y-70104000D03*
%TD*%
D34*
%TO.C,C8*%
X145568500Y-100584000D03*
X147293500Y-100584000D03*
%TD*%
D17*
%TO.C,J6*%
X120523000Y-82169000D03*
X120523000Y-84709000D03*
D18*
X120523000Y-87249000D03*
%TD*%
D19*
%TO.C,R8*%
X179310199Y-107012999D03*
X181135199Y-107012999D03*
%TD*%
D34*
%TO.C,C6*%
X145568500Y-99060000D03*
X147293500Y-99060000D03*
%TD*%
D23*
%TO.C,C1*%
X132561500Y-94996000D03*
X130836500Y-94996000D03*
%TD*%
D47*
%TO.C,U5*%
X120650000Y-127000000D03*
X120650000Y-128270000D03*
X120650000Y-129540000D03*
X120650000Y-130810000D03*
X115700000Y-130810000D03*
X115700000Y-129540000D03*
X115700000Y-128270000D03*
X115700000Y-127000000D03*
%TD*%
D46*
%TO.C,C19*%
X141859000Y-110924000D03*
X141859000Y-112649000D03*
%TD*%
D34*
%TO.C,C7*%
X171884000Y-117856000D03*
X173609000Y-117856000D03*
%TD*%
D46*
%TO.C,C17*%
X154686000Y-79047000D03*
X154686000Y-80772000D03*
%TD*%
D31*
%TO.C,U8*%
X139073000Y-116215000D03*
X138423000Y-116215000D03*
X137773000Y-116215000D03*
X137123000Y-116215000D03*
X136473000Y-116215000D03*
X135823000Y-116215000D03*
X135173000Y-116215000D03*
X134523000Y-116215000D03*
X133873000Y-116215000D03*
X133223000Y-116215000D03*
X133223000Y-110490000D03*
X133873000Y-110490000D03*
X134523000Y-110490000D03*
X135173000Y-110490000D03*
X135823000Y-110490000D03*
X136473000Y-110490000D03*
X137123000Y-110490000D03*
X137773000Y-110490000D03*
X138423000Y-110490000D03*
X139073000Y-110490000D03*
%TD*%
D48*
%TO.C,U2*%
X173609000Y-110984000D03*
D49*
X167309000Y-113284000D03*
D48*
X173609000Y-113284000D03*
X173609000Y-115584000D03*
%TD*%
D50*
%TO.C,JP2*%
X125198500Y-81153000D03*
D51*
X123748500Y-81153000D03*
%TD*%
D17*
%TO.C,J3*%
X152019000Y-70104000D03*
X149479000Y-70104000D03*
X146939000Y-70104000D03*
X144399000Y-70104000D03*
D18*
X141859000Y-70104000D03*
%TD*%
D52*
%TO.C,J1*%
X174831000Y-62737000D03*
D53*
X177831000Y-67437000D03*
D54*
X171831000Y-67437000D03*
%TD*%
D46*
%TO.C,C14*%
X123444000Y-97028000D03*
X123444000Y-95303000D03*
%TD*%
D19*
%TO.C,R6*%
X145542000Y-96012000D03*
X147367000Y-96012000D03*
%TD*%
D35*
%TO.C,C9*%
X143002000Y-86614000D03*
X143002000Y-84889000D03*
%TD*%
D55*
%TO.C,Y1*%
X127254000Y-88519000D03*
X127254000Y-97019000D03*
%TD*%
D35*
%TO.C,C12*%
X138303000Y-87249000D03*
X138303000Y-85524000D03*
%TD*%
D56*
%TO.C,Q1*%
X125991000Y-84612000D03*
X125991000Y-83962000D03*
X125991000Y-83312000D03*
X128651000Y-83312000D03*
X128651000Y-83962000D03*
X128651000Y-84612000D03*
%TD*%
D28*
%TO.C,JP3*%
X173863000Y-101929999D03*
D29*
X173863000Y-103229999D03*
D30*
X173863000Y-104529999D03*
%TD*%
D46*
%TO.C,C5*%
X137795000Y-99875000D03*
X137795000Y-101600000D03*
%TD*%
D17*
%TO.C,J11*%
X174371000Y-133604000D03*
X174371000Y-131064000D03*
X174371000Y-128524000D03*
X174371000Y-125984000D03*
X174371000Y-123444000D03*
D18*
X174371000Y-120904000D03*
%TD*%
D23*
%TO.C,C20*%
X124915000Y-127000000D03*
X123190000Y-127000000D03*
%TD*%
D46*
%TO.C,C23*%
X153416000Y-114300000D03*
X153416000Y-116025000D03*
%TD*%
D57*
%TO.C,U3*%
X139279000Y-93187000D03*
D58*
X142716500Y-90587000D03*
X142716500Y-90987000D03*
X142716500Y-91387000D03*
X142716500Y-91787000D03*
X142716500Y-92187000D03*
X142716500Y-92587000D03*
X142716500Y-92987000D03*
X142716500Y-93387000D03*
X142716500Y-93787000D03*
X142716500Y-94187000D03*
X142716500Y-94587000D03*
X142716500Y-94987000D03*
X142716500Y-95387000D03*
X142716500Y-95787000D03*
D59*
X141879000Y-96624500D03*
X141479000Y-96624500D03*
X141079000Y-96624500D03*
X140679000Y-96624500D03*
X140279000Y-96624500D03*
X139879000Y-96624500D03*
X139479000Y-96624500D03*
X139079000Y-96624500D03*
X138679000Y-96624500D03*
X138279000Y-96624500D03*
X137879000Y-96624500D03*
X137479000Y-96624500D03*
X137079000Y-96624500D03*
X136679000Y-96624500D03*
D58*
X135841500Y-95787000D03*
X135841500Y-95387000D03*
X135841500Y-94987000D03*
X135841500Y-94587000D03*
X135841500Y-94187000D03*
X135841500Y-93787000D03*
X135841500Y-93387000D03*
X135841500Y-92987000D03*
X135841500Y-92587000D03*
X135841500Y-92187000D03*
X135841500Y-91787000D03*
X135841500Y-91387000D03*
X135841500Y-90987000D03*
X135841500Y-90587000D03*
D59*
X136679000Y-89749500D03*
X137079000Y-89749500D03*
X137479000Y-89749500D03*
X137879000Y-89749500D03*
X138279000Y-89749500D03*
X138679000Y-89749500D03*
X139079000Y-89749500D03*
X139479000Y-89749500D03*
X139879000Y-89749500D03*
X140279000Y-89749500D03*
X140679000Y-89749500D03*
X141079000Y-89749500D03*
X141479000Y-89749500D03*
X141879000Y-89749500D03*
%TD*%
D60*
X175641000Y-113284000D03*
X125626500Y-115062000D03*
X125626500Y-113514500D03*
X177673000Y-113284000D03*
X148590000Y-97536000D03*
X175373000Y-115584000D03*
X146050000Y-80645000D03*
X181864000Y-86106000D03*
X142621000Y-101219000D03*
X143645000Y-116215000D03*
X130302000Y-91313000D03*
X153490000Y-79047000D03*
X138303000Y-84201000D03*
X123444000Y-93980000D03*
X132215000Y-116215000D03*
X168047500Y-120142000D03*
X137795000Y-102923000D03*
X126111000Y-127000000D03*
X148590000Y-99060000D03*
X148590000Y-100584000D03*
X140663000Y-110924000D03*
X152019000Y-82931000D03*
X175334000Y-107495000D03*
X150749000Y-92837000D03*
X155075000Y-116215000D03*
X126111000Y-129540000D03*
X130402500Y-97917000D03*
X150749000Y-91313000D03*
X130175000Y-83312000D03*
X143002000Y-83566000D03*
X116268500Y-132524500D03*
X123444000Y-91567000D03*
X137196234Y-93810837D03*
X133731000Y-95758000D03*
X146431000Y-91313000D03*
X141358716Y-93833400D03*
X176657000Y-117475000D03*
X176391001Y-103262999D03*
X176391000Y-98364383D03*
X160606531Y-117943659D03*
X127351000Y-84612000D03*
X128651555Y-82491253D03*
X130302000Y-84836000D03*
X132969000Y-104140000D03*
X132715000Y-88913704D03*
X133350000Y-103251000D03*
X133096000Y-89789000D03*
X133858000Y-102362000D03*
X132207000Y-91059000D03*
X133350000Y-91059000D03*
X134239000Y-101346000D03*
X123825000Y-112903000D03*
X123801500Y-115062000D03*
X123317000Y-102489000D03*
X116205000Y-102489000D03*
X115443000Y-101727000D03*
X124333000Y-101727000D03*
X159639000Y-111887000D03*
X158369000Y-111887000D03*
X111760000Y-74930000D03*
X149995000Y-120025000D03*
X171958000Y-98552000D03*
X171958000Y-101346000D03*
X162740000Y-108024000D03*
X141859000Y-87503000D03*
X155194000Y-101346000D03*
X142240000Y-88392000D03*
X154305000Y-100584000D03*
X160464500Y-108267500D03*
X149098000Y-88773000D03*
X137033000Y-86741000D03*
X148463000Y-89535000D03*
X136271000Y-86995000D03*
M02*
