%TF.GenerationSoftware,KiCad,Pcbnew,6.0.2+dfsg-1*%
%TF.CreationDate,2022-09-06T16:13:56-05:00*%
%TF.ProjectId,veritas,76657269-7461-4732-9e6b-696361645f70,rev?*%
%TF.SameCoordinates,Original*%
%TF.FileFunction,Soldermask,Top*%
%TF.FilePolarity,Negative*%
%FSLAX46Y46*%
G04 Gerber Fmt 4.6, Leading zero omitted, Abs format (unit mm)*
G04 Created by KiCad (PCBNEW 6.0.2+dfsg-1) date 2022-09-06 16:13:56*
%MOMM*%
%LPD*%
G01*
G04 APERTURE LIST*
G04 Aperture macros list*
%AMRoundRect*
0 Rectangle with rounded corners*
0 $1 Rounding radius*
0 $2 $3 $4 $5 $6 $7 $8 $9 X,Y pos of 4 corners*
0 Add a 4 corners polygon primitive as box body*
4,1,4,$2,$3,$4,$5,$6,$7,$8,$9,$2,$3,0*
0 Add four circle primitives for the rounded corners*
1,1,$1+$1,$2,$3*
1,1,$1+$1,$4,$5*
1,1,$1+$1,$6,$7*
1,1,$1+$1,$8,$9*
0 Add four rect primitives between the rounded corners*
20,1,$1+$1,$2,$3,$4,$5,0*
20,1,$1+$1,$4,$5,$6,$7,0*
20,1,$1+$1,$6,$7,$8,$9,0*
20,1,$1+$1,$8,$9,$2,$3,0*%
G04 Aperture macros list end*
%ADD10R,1.700000X1.700000*%
%ADD11O,1.700000X1.700000*%
%ADD12R,0.340000X0.700000*%
%ADD13RoundRect,0.237500X-0.250000X-0.237500X0.250000X-0.237500X0.250000X0.237500X-0.250000X0.237500X0*%
%ADD14RoundRect,0.237500X0.250000X0.237500X-0.250000X0.237500X-0.250000X-0.237500X0.250000X-0.237500X0*%
%ADD15R,0.800000X1.900000*%
%ADD16R,1.900000X0.800000*%
%ADD17O,3.600000X1.800000*%
%ADD18O,2.100000X4.200000*%
%ADD19RoundRect,0.237500X0.300000X0.237500X-0.300000X0.237500X-0.300000X-0.237500X0.300000X-0.237500X0*%
%ADD20RoundRect,0.237500X0.237500X-0.300000X0.237500X0.300000X-0.237500X0.300000X-0.237500X-0.300000X0*%
%ADD21C,1.650000*%
%ADD22R,1.650000X1.650000*%
%ADD23C,4.800000*%
%ADD24RoundRect,0.237500X-0.237500X0.250000X-0.237500X-0.250000X0.237500X-0.250000X0.237500X0.250000X0*%
%ADD25C,1.300000*%
%ADD26RoundRect,0.237500X-0.237500X0.300000X-0.237500X-0.300000X0.237500X-0.300000X0.237500X0.300000X0*%
%ADD27RoundRect,0.237500X-0.300000X-0.237500X0.300000X-0.237500X0.300000X0.237500X-0.300000X0.237500X0*%
%ADD28R,1.550000X1.300000*%
%ADD29RoundRect,0.150000X-0.150000X0.650000X-0.150000X-0.650000X0.150000X-0.650000X0.150000X0.650000X0*%
%ADD30O,2.100000X1.050000*%
%ADD31R,1.450000X0.600000*%
%ADD32R,1.450000X0.300000*%
%ADD33C,0.700000*%
%ADD34RoundRect,0.150000X-0.825000X-0.150000X0.825000X-0.150000X0.825000X0.150000X-0.825000X0.150000X0*%
%ADD35R,1.500000X2.000000*%
%ADD36R,3.800000X2.000000*%
%ADD37R,3.500000X3.500000*%
%ADD38RoundRect,0.750000X0.750000X1.000000X-0.750000X1.000000X-0.750000X-1.000000X0.750000X-1.000000X0*%
%ADD39RoundRect,0.875000X0.875000X0.875000X-0.875000X0.875000X-0.875000X-0.875000X0.875000X-0.875000X0*%
%ADD40R,2.000000X4.500000*%
%ADD41R,1.500000X0.400000*%
%ADD42RoundRect,0.050000X-0.050000X0.387500X-0.050000X-0.387500X0.050000X-0.387500X0.050000X0.387500X0*%
%ADD43RoundRect,0.050000X-0.387500X0.050000X-0.387500X-0.050000X0.387500X-0.050000X0.387500X0.050000X0*%
%ADD44RoundRect,0.144000X-1.456000X1.456000X-1.456000X-1.456000X1.456000X-1.456000X1.456000X1.456000X0*%
%ADD45C,0.600000*%
G04 APERTURE END LIST*
D10*
%TO.C,J12*%
X13462000Y7493000D03*
D11*
X10922000Y7493000D03*
X8382000Y7493000D03*
X5842000Y7493000D03*
%TD*%
D12*
%TO.C,U6*%
X49268000Y33135000D03*
X48768000Y33135000D03*
X48268000Y33135000D03*
X48268000Y31635000D03*
X48768000Y31635000D03*
X49268000Y31635000D03*
%TD*%
%TO.C,U5*%
X51808000Y33135000D03*
X51308000Y33135000D03*
X50808000Y33135000D03*
X50808000Y31635000D03*
X51308000Y31635000D03*
X51808000Y31635000D03*
%TD*%
D13*
%TO.C,R46*%
X11557000Y26035000D03*
X9732000Y26035000D03*
%TD*%
%TO.C,R44*%
X27408500Y4572000D03*
X29233500Y4572000D03*
%TD*%
%TO.C,R43*%
X29233500Y19177000D03*
X27408500Y19177000D03*
%TD*%
%TO.C,R42*%
X27408500Y11684000D03*
X29233500Y11684000D03*
%TD*%
%TO.C,R41*%
X27408500Y26289000D03*
X29233500Y26289000D03*
%TD*%
%TO.C,R40*%
X31218500Y4572000D03*
X33043500Y4572000D03*
%TD*%
%TO.C,R39*%
X33043500Y19177000D03*
X31218500Y19177000D03*
%TD*%
%TO.C,R38*%
X31218500Y11684000D03*
X33043500Y11684000D03*
%TD*%
%TO.C,R37*%
X31218500Y26289000D03*
X33043500Y26289000D03*
%TD*%
%TO.C,R36*%
X35028500Y4572000D03*
X36853500Y4572000D03*
%TD*%
%TO.C,R35*%
X36853500Y19177000D03*
X35028500Y19177000D03*
%TD*%
%TO.C,R34*%
X35028500Y11684000D03*
X36853500Y11684000D03*
%TD*%
%TO.C,R33*%
X35028500Y26289000D03*
X36853500Y26289000D03*
%TD*%
%TO.C,R32*%
X38838500Y4572000D03*
X40663500Y4572000D03*
%TD*%
%TO.C,R31*%
X40663500Y19177000D03*
X38838500Y19177000D03*
%TD*%
%TO.C,R30*%
X38838500Y11684000D03*
X40663500Y11684000D03*
%TD*%
%TO.C,R29*%
X38838500Y26289000D03*
X40663500Y26289000D03*
%TD*%
%TO.C,R28*%
X42648500Y4572000D03*
X44473500Y4572000D03*
%TD*%
%TO.C,R27*%
X44473500Y19177000D03*
X42648500Y19177000D03*
%TD*%
%TO.C,R26*%
X42648500Y11684000D03*
X44473500Y11684000D03*
%TD*%
%TO.C,R25*%
X42648500Y26289000D03*
X44473500Y26289000D03*
%TD*%
%TO.C,R24*%
X46458500Y4572000D03*
X48283500Y4572000D03*
%TD*%
%TO.C,R23*%
X48283500Y19177000D03*
X46458500Y19177000D03*
%TD*%
%TO.C,R21*%
X46458500Y11684000D03*
X48283500Y11684000D03*
%TD*%
%TO.C,R20*%
X46458500Y26289000D03*
X48283500Y26289000D03*
%TD*%
%TO.C,R19*%
X19788500Y4572000D03*
X21613500Y4572000D03*
%TD*%
%TO.C,R18*%
X50268500Y4572000D03*
X52093500Y4572000D03*
%TD*%
%TO.C,R17*%
X50268500Y19177000D03*
X52093500Y19177000D03*
%TD*%
%TO.C,R16*%
X19788500Y11684000D03*
X21613500Y11684000D03*
%TD*%
%TO.C,R15*%
X50268500Y11684000D03*
X52093500Y11684000D03*
%TD*%
%TO.C,R14*%
X52093500Y26289000D03*
X50268500Y26289000D03*
%TD*%
%TO.C,R13*%
X23598500Y4572000D03*
X25423500Y4572000D03*
%TD*%
%TO.C,R12*%
X25423500Y19177000D03*
X23598500Y19177000D03*
%TD*%
%TO.C,R11*%
X44704000Y31496000D03*
X42879000Y31496000D03*
%TD*%
%TO.C,R10*%
X23598500Y11684000D03*
X25423500Y11684000D03*
%TD*%
%TO.C,R9*%
X23598500Y26289000D03*
X25423500Y26289000D03*
%TD*%
D14*
%TO.C,R8*%
X42879000Y34544000D03*
X44704000Y34544000D03*
%TD*%
D15*
%TO.C,Q19*%
X28321000Y6604000D03*
X27371000Y9604000D03*
X29271000Y9604000D03*
%TD*%
%TO.C,Q18*%
X29271000Y24209000D03*
X27371000Y24209000D03*
X28321000Y21209000D03*
%TD*%
%TO.C,Q17*%
X32131000Y6604000D03*
X31181000Y9604000D03*
X33081000Y9604000D03*
%TD*%
%TO.C,Q16*%
X33081000Y24209000D03*
X31181000Y24209000D03*
X32131000Y21209000D03*
%TD*%
%TO.C,Q15*%
X35941000Y6604000D03*
X34991000Y9604000D03*
X36891000Y9604000D03*
%TD*%
%TO.C,Q14*%
X36891000Y24209000D03*
X34991000Y24209000D03*
X35941000Y21209000D03*
%TD*%
%TO.C,Q13*%
X40701000Y9604000D03*
X38801000Y9604000D03*
X39751000Y6604000D03*
%TD*%
%TO.C,Q12*%
X40701000Y24209000D03*
X38801000Y24209000D03*
X39751000Y21209000D03*
%TD*%
%TO.C,Q11*%
X44511000Y9604000D03*
X42611000Y9604000D03*
X43561000Y6604000D03*
%TD*%
%TO.C,Q10*%
X43561000Y21209000D03*
X42611000Y24209000D03*
X44511000Y24209000D03*
%TD*%
%TO.C,Q9*%
X48321000Y9604000D03*
X46421000Y9604000D03*
X47371000Y6604000D03*
%TD*%
%TO.C,Q8*%
X47371000Y21209000D03*
X46421000Y24209000D03*
X48321000Y24209000D03*
%TD*%
%TO.C,Q7*%
X20701000Y6604000D03*
X19751000Y9604000D03*
X21651000Y9604000D03*
%TD*%
%TO.C,Q6*%
X51181000Y6604000D03*
X50231000Y9604000D03*
X52131000Y9604000D03*
%TD*%
%TO.C,Q5*%
X52131000Y24209000D03*
X50231000Y24209000D03*
X51181000Y21209000D03*
%TD*%
%TO.C,Q4*%
X24511000Y6604000D03*
X23561000Y9604000D03*
X25461000Y9604000D03*
%TD*%
%TO.C,Q3*%
X24511000Y21209000D03*
X23561000Y24209000D03*
X25461000Y24209000D03*
%TD*%
D16*
%TO.C,Q2*%
X42521000Y33020000D03*
X39521000Y32070000D03*
X39521000Y33970000D03*
%TD*%
D10*
%TO.C,J5*%
X-127000Y62992000D03*
D11*
X2413000Y62992000D03*
X4953000Y62992000D03*
X7493000Y62992000D03*
X10033000Y62992000D03*
%TD*%
D13*
%TO.C,R7*%
X68083000Y56364999D03*
X66258000Y56364999D03*
%TD*%
D10*
%TO.C,J10*%
X7620000Y11049000D03*
D11*
X7620000Y13589000D03*
X7620000Y16129000D03*
%TD*%
D17*
%TO.C,J9*%
X4318000Y28575000D03*
X4318000Y21075000D03*
D18*
X618000Y24825000D03*
%TD*%
D19*
%TO.C,C2*%
X19531500Y36576000D03*
X17806500Y36576000D03*
%TD*%
D15*
%TO.C,Q20*%
X10094000Y31067000D03*
X8194000Y31067000D03*
X9144000Y28067000D03*
%TD*%
D20*
%TO.C,C19*%
X14478000Y16917500D03*
X14478000Y18642500D03*
%TD*%
D10*
%TO.C,J2*%
X43307000Y62992000D03*
D11*
X45847000Y62992000D03*
X48387000Y62992000D03*
X50927000Y62992000D03*
X53467000Y62992000D03*
%TD*%
D19*
%TO.C,C20*%
X63373000Y41275000D03*
X61648000Y41275000D03*
%TD*%
D13*
%TO.C,R45*%
X8231500Y33147000D03*
X10056500Y33147000D03*
%TD*%
D21*
%TO.C,J11*%
X63627000Y12328000D03*
X63627000Y14618000D03*
X63627000Y16908000D03*
X63627000Y19198000D03*
X63627000Y21488000D03*
X63627000Y23778000D03*
X63627000Y26068000D03*
X63627000Y28358000D03*
X61087000Y11058000D03*
X61087000Y13348000D03*
X61087000Y15638000D03*
X61087000Y17928000D03*
X61087000Y20218000D03*
X61087000Y22508000D03*
X61087000Y24798000D03*
X61087000Y27088000D03*
X61087000Y29378000D03*
X58547000Y10038000D03*
X58547000Y12328000D03*
X58547000Y14618000D03*
X58547000Y16908000D03*
X58547000Y19198000D03*
X58547000Y21488000D03*
X58547000Y23778000D03*
X58547000Y26068000D03*
D22*
X58547000Y28358000D03*
D23*
X61087000Y36368000D03*
X61087000Y3048000D03*
%TD*%
D24*
%TO.C,R22*%
X12827000Y18669000D03*
X12827000Y16844000D03*
%TD*%
%TO.C,R2*%
X38989000Y54149000D03*
X38989000Y52324000D03*
%TD*%
D25*
%TO.C,REF\u002A\u002A*%
X70104000Y71755000D03*
%TD*%
D26*
%TO.C,C10*%
X44831000Y43614000D03*
X44831000Y45339000D03*
%TD*%
D20*
%TO.C,C13*%
X10414000Y42852000D03*
X10414000Y44577000D03*
%TD*%
D27*
%TO.C,C4*%
X32538500Y35560000D03*
X34263500Y35560000D03*
%TD*%
D25*
%TO.C,REF\u002A\u002A*%
X-1905000Y69850000D03*
%TD*%
D28*
%TO.C,SW1*%
X53426000Y56134000D03*
X45466000Y56134000D03*
X53426000Y51634000D03*
X45466000Y51634000D03*
%TD*%
D13*
%TO.C,R3*%
X18542000Y39751000D03*
X20367000Y39751000D03*
%TD*%
D29*
%TO.C,U1*%
X36830000Y54190000D03*
X35560000Y54190000D03*
X34290000Y54190000D03*
X33020000Y54190000D03*
X33020000Y46990000D03*
X34290000Y46990000D03*
X35560000Y46990000D03*
X36830000Y46990000D03*
%TD*%
D19*
%TO.C,C15*%
X36396000Y41783000D03*
X34671000Y41783000D03*
%TD*%
D25*
%TO.C,REF\u002A\u002A*%
X0Y0D03*
%TD*%
D17*
%TO.C,J8*%
X4318000Y33401000D03*
X4318000Y40901000D03*
D18*
X618000Y37151000D03*
%TD*%
D20*
%TO.C,C11*%
X38989000Y46990000D03*
X38989000Y48715000D03*
%TD*%
D30*
%TO.C,J7*%
X65797000Y45974000D03*
X69977000Y54614000D03*
X65797000Y54614000D03*
X69977000Y45974000D03*
D31*
X64882000Y47044000D03*
X64882000Y47844000D03*
D32*
X64882000Y48544000D03*
X64882000Y49544000D03*
X64882000Y51044000D03*
X64882000Y52044000D03*
D31*
X64882000Y52744000D03*
X64882000Y53544000D03*
X64882000Y53544000D03*
X64882000Y52744000D03*
D32*
X64882000Y51544000D03*
X64882000Y50544000D03*
X64882000Y50044000D03*
X64882000Y49044000D03*
D31*
X64882000Y47844000D03*
X64882000Y47044000D03*
D33*
X66327000Y47404000D03*
X66327000Y53184000D03*
%TD*%
D27*
%TO.C,C17*%
X7673000Y18796000D03*
X9398000Y18796000D03*
%TD*%
D19*
%TO.C,C16*%
X36396000Y40259000D03*
X34671000Y40259000D03*
%TD*%
D26*
%TO.C,C3*%
X29591000Y34925000D03*
X29591000Y33200000D03*
%TD*%
D14*
%TO.C,R1*%
X40814000Y56134000D03*
X38989000Y56134000D03*
%TD*%
D13*
%TO.C,R5*%
X32512000Y38608000D03*
X34337000Y38608000D03*
%TD*%
D10*
%TO.C,J4*%
X14351000Y62992000D03*
D11*
X16891000Y62992000D03*
X19431000Y62992000D03*
X21971000Y62992000D03*
X24511000Y62992000D03*
%TD*%
D27*
%TO.C,C8*%
X32538500Y32512000D03*
X34263500Y32512000D03*
%TD*%
D10*
%TO.C,J6*%
X7493000Y45847000D03*
D11*
X7493000Y48387000D03*
X7493000Y50927000D03*
%TD*%
D13*
%TO.C,R6*%
X68083000Y44172999D03*
X66258000Y44172999D03*
%TD*%
D27*
%TO.C,C6*%
X32538500Y34036000D03*
X34263500Y34036000D03*
%TD*%
D19*
%TO.C,C1*%
X19531500Y38100000D03*
X17806500Y38100000D03*
%TD*%
D34*
%TO.C,U4*%
X8636000Y24257000D03*
X8636000Y22987000D03*
X8636000Y21717000D03*
X8636000Y20447000D03*
X13586000Y20447000D03*
X13586000Y21717000D03*
X13586000Y22987000D03*
X13586000Y24257000D03*
%TD*%
D20*
%TO.C,C7*%
X53975000Y43614000D03*
X53975000Y45339000D03*
%TD*%
D35*
%TO.C,U2*%
X51703000Y45339000D03*
X49403000Y45339000D03*
D36*
X49403000Y39039000D03*
D35*
X47103000Y45339000D03*
%TD*%
D10*
%TO.C,J3*%
X28829000Y62992000D03*
D11*
X31369000Y62992000D03*
X33909000Y62992000D03*
X36449000Y62992000D03*
X38989000Y62992000D03*
%TD*%
D37*
%TO.C,J1*%
X58801000Y65659000D03*
D38*
X64801000Y65659000D03*
D39*
X61801000Y70359000D03*
%TD*%
D26*
%TO.C,C14*%
X10414000Y37793000D03*
X10414000Y36068000D03*
%TD*%
D13*
%TO.C,R4*%
X32512000Y37084000D03*
X34337000Y37084000D03*
%TD*%
D20*
%TO.C,C9*%
X29972000Y46482000D03*
X29972000Y48207000D03*
%TD*%
D40*
%TO.C,Y1*%
X14224000Y36077000D03*
X14224000Y44577000D03*
%TD*%
D20*
%TO.C,C12*%
X24638000Y46101000D03*
X24638000Y47826000D03*
%TD*%
D41*
%TO.C,Q1*%
X15621000Y48484000D03*
X15621000Y49134000D03*
X15621000Y49784000D03*
X12961000Y49784000D03*
X12961000Y49134000D03*
X12961000Y48484000D03*
%TD*%
D26*
%TO.C,C5*%
X24765000Y33221000D03*
X24765000Y31496000D03*
%TD*%
%TO.C,C18*%
X13589000Y26035000D03*
X13589000Y27760000D03*
%TD*%
D20*
%TO.C,C21*%
X54610000Y31623000D03*
X54610000Y33348000D03*
%TD*%
D42*
%TO.C,U3*%
X28849000Y43346500D03*
X28449000Y43346500D03*
X28049000Y43346500D03*
X27649000Y43346500D03*
X27249000Y43346500D03*
X26849000Y43346500D03*
X26449000Y43346500D03*
X26049000Y43346500D03*
X25649000Y43346500D03*
X25249000Y43346500D03*
X24849000Y43346500D03*
X24449000Y43346500D03*
X24049000Y43346500D03*
X23649000Y43346500D03*
D43*
X22811500Y42509000D03*
X22811500Y42109000D03*
X22811500Y41709000D03*
X22811500Y41309000D03*
X22811500Y40909000D03*
X22811500Y40509000D03*
X22811500Y40109000D03*
X22811500Y39709000D03*
X22811500Y39309000D03*
X22811500Y38909000D03*
X22811500Y38509000D03*
X22811500Y38109000D03*
X22811500Y37709000D03*
X22811500Y37309000D03*
D42*
X23649000Y36471500D03*
X24049000Y36471500D03*
X24449000Y36471500D03*
X24849000Y36471500D03*
X25249000Y36471500D03*
X25649000Y36471500D03*
X26049000Y36471500D03*
X26449000Y36471500D03*
X26849000Y36471500D03*
X27249000Y36471500D03*
X27649000Y36471500D03*
X28049000Y36471500D03*
X28449000Y36471500D03*
X28849000Y36471500D03*
D43*
X29686500Y37309000D03*
X29686500Y37709000D03*
X29686500Y38109000D03*
X29686500Y38509000D03*
X29686500Y38909000D03*
X29686500Y39309000D03*
X29686500Y39709000D03*
X29686500Y40109000D03*
X29686500Y40509000D03*
X29686500Y40909000D03*
X29686500Y41309000D03*
X29686500Y41709000D03*
X29686500Y42109000D03*
X29686500Y42509000D03*
D44*
X26249000Y39909000D03*
%TD*%
D45*
X16637000Y27051000D03*
X10160000Y34798000D03*
X8231500Y34774500D03*
X17526000Y23368000D03*
X57658000Y6604000D03*
X17272000Y4826000D03*
X17780000Y29083000D03*
X18161000Y29845000D03*
X18542000Y30607000D03*
X18923000Y31369000D03*
X19304000Y32131000D03*
X19685000Y32893000D03*
X20066000Y33655000D03*
X20447000Y34417000D03*
X16383000Y15875000D03*
X15748000Y16510000D03*
X21717000Y15875000D03*
X22606000Y15621000D03*
X56896000Y24892000D03*
X13589000Y29083000D03*
X12827000Y15621000D03*
X14478000Y15621000D03*
X10160000Y20447000D03*
X20574000Y35560000D03*
X22098000Y5842000D03*
X21651000Y8189000D03*
X25461000Y8189000D03*
X25908000Y5842000D03*
X29271000Y8189000D03*
X29718000Y5842000D03*
X33528000Y5842000D03*
X33081000Y8189000D03*
X37338000Y5842000D03*
X36891000Y8189000D03*
X40701000Y8189000D03*
X41148000Y5842000D03*
X44511000Y8189000D03*
X44958000Y5842000D03*
X48768000Y5842000D03*
X48321000Y8189000D03*
X52131000Y8189000D03*
X52578000Y5842000D03*
X56661499Y22625499D03*
X25908000Y20447000D03*
X25461000Y22794000D03*
X29718000Y20447000D03*
X29271000Y22794000D03*
X33528000Y20447000D03*
X33081000Y22794000D03*
X37338000Y20447000D03*
X36891000Y22794000D03*
X40701000Y22794000D03*
X41148000Y20447000D03*
X44958000Y20447000D03*
X44511000Y22794000D03*
X48321000Y22794000D03*
X48768000Y20447000D03*
X52578000Y20447000D03*
X52131000Y22794000D03*
X21971000Y45974000D03*
X22225000Y45085000D03*
X21971000Y44323000D03*
X19652981Y42004981D03*
X20574000Y42037000D03*
X20158738Y44923738D03*
X17399000Y45847000D03*
X45847000Y30734000D03*
X52578000Y30734000D03*
X41275000Y30988000D03*
X50038000Y30480000D03*
X45212000Y33020000D03*
X48768000Y34417000D03*
X51308000Y34417000D03*
X53266000Y33348000D03*
X53225000Y31635000D03*
X50026000Y31635000D03*
X39545000Y32972000D03*
X44450000Y33401000D03*
X44831000Y38989000D03*
X37719000Y38989000D03*
X55118000Y45339000D03*
X43589000Y43614000D03*
X35560000Y35560000D03*
X33020000Y52451000D03*
X49403000Y51634000D03*
X29591000Y31877000D03*
X24638000Y49149000D03*
X10414000Y39116000D03*
X60351500Y41275000D03*
X24765000Y30173000D03*
X35560000Y34036000D03*
X35560000Y32512000D03*
X38989000Y50165000D03*
X37719000Y40259000D03*
X37719000Y41783000D03*
X17145000Y49784000D03*
X29972000Y49530000D03*
X10414000Y41529000D03*
X24166234Y39285163D03*
X20701000Y37338000D03*
X33401000Y41783000D03*
X28328716Y39262600D03*
X63372001Y47844000D03*
X63372000Y52742616D03*
X14321000Y48484000D03*
X19685000Y44182296D03*
X20066000Y43307000D03*
X-1270000Y58166000D03*
M02*
