M48
; DRILL file {KiCad 6.0.2+dfsg-1} date Wed Sep  7 02:14:39 2022
; FORMAT={-:-/ absolute / inch / decimal}
; #@! TF.CreationDate,2022-09-07T02:14:39-05:00
; #@! TF.GenerationSoftware,Kicad,Pcbnew,6.0.2+dfsg-1
; #@! TF.FileFunction,Plated,1,2,PTH
FMAT,2
INCH
; #@! TA.AperFunction,Plated,PTH,ViaDrill
T1C0.0118
; #@! TA.AperFunction,Plated,PTH,ComponentDrill
T2C0.0138
; #@! TA.AperFunction,Plated,PTH,ComponentDrill
T3C0.0256
; #@! TA.AperFunction,Plated,PTH,ComponentDrill
T4C0.0394
; #@! TA.AperFunction,Plated,PTH,ComponentDrill
T5C0.0433
; #@! TA.AperFunction,Plated,PTH,ComponentDrill
T6C0.0512
; #@! TA.AperFunction,Plated,PTH,ComponentDrill
T7C0.1260
%
G90
G05
T1
X4.4Y-2.95
X4.7741Y-3.8709
X4.85Y-3.87
X4.85Y-4.435
X4.86Y-3.605
X4.86Y-3.7
X4.955Y-4.625
X4.985Y-4.095
X5.0138Y-3.3312
X5.02Y-4.625
X5.07Y-4.59
X5.095Y-4.615
X5.105Y-4.175
X5.125Y-3.28
X5.13Y-5.05
X5.135Y-3.435
X5.14Y-4.32
X5.15Y-4.095
X5.165Y-4.065
X5.18Y-4.035
X5.195Y-4.005
X5.21Y-3.975
X5.2237Y-3.5863
X5.225Y-3.5005
X5.225Y-3.945
X5.24Y-3.535
X5.24Y-3.915
X5.2437Y-3.4713
X5.255Y-3.885
X5.26Y-3.585
X5.26Y-3.84
X5.265Y-3.77
X5.3024Y-4.9176
X5.305Y-4.615
X5.315Y-3.43
X5.315Y-3.495
X5.32Y-5.01
X5.325Y-3.465
X5.34Y-4.625
X5.4014Y-3.6933
X5.42Y-3.305
X5.425Y-4.0521
X5.4524Y-4.3426
X5.4524Y-4.9176
X5.47Y-4.435
X5.47Y-5.01
X5.5653Y-3.6942
X5.6024Y-4.3426
X5.6024Y-4.9176
X5.615Y-3.985
X5.62Y-4.435
X5.62Y-5.01
X5.63Y-3.29
X5.75Y-3.175
X5.7524Y-4.3426
X5.7524Y-4.9176
X5.765Y-3.595
X5.77Y-4.435
X5.77Y-5.01
X5.85Y-3.84
X5.85Y-3.9
X5.85Y-3.96
X5.9024Y-4.3426
X5.9024Y-4.9176
X5.92Y-4.435
X5.92Y-5.01
X5.935Y-3.595
X5.935Y-3.655
X5.935Y-3.705
X5.985Y-3.265
X6.0069Y-3.9419
X6.0524Y-4.3426
X6.0524Y-4.9176
X6.07Y-4.435
X6.07Y-5.01
X6.075Y-4.02
X6.1661Y-3.5229
X6.2Y-3.925
X6.2024Y-4.3426
X6.2024Y-4.9176
X6.215Y-3.705
X6.22Y-4.435
X6.22Y-5.01
X6.23Y-3.94
X6.255Y-4.03
X6.3524Y-4.3426
X6.3524Y-4.9176
X6.37Y-3.885
X6.37Y-4.435
X6.37Y-5.01
X6.395Y-3.2072
X6.4195Y-3.9945
X6.42Y-4.04
X6.47Y-3.885
X6.5024Y-4.3426
X6.5024Y-4.9176
X6.52Y-4.03
X6.52Y-4.435
X6.52Y-5.01
X6.5455Y-3.9945
X6.5471Y-3.9271
X6.62Y-3.455
X6.6808Y-4.3492
X6.69Y-4.26
X6.72Y-4.98
X6.826Y-3.615
X6.945Y-3.1635
X6.945Y-3.3564
T2
X5.4332Y-3.6186
X5.4332Y-3.6688
X5.4332Y-3.719
X5.4834Y-3.6186
X5.4834Y-3.6688
X5.4834Y-3.719
X5.5336Y-3.6186
X5.5336Y-3.6688
X5.5336Y-3.719
T4
X4.445Y-2.76
X4.545Y-2.76
X4.645Y-2.76
X4.68Y-4.945
X4.745Y-2.76
X4.745Y-3.235
X4.745Y-3.335
X4.745Y-3.435
X4.75Y-4.605
X4.75Y-4.705
X4.75Y-4.805
X4.78Y-4.945
X4.845Y-2.76
X4.88Y-4.945
X4.98Y-4.945
X5.015Y-2.76
X5.115Y-2.76
X5.215Y-2.76
X5.315Y-2.76
X5.415Y-2.76
X5.585Y-2.76
X5.685Y-2.76
X5.785Y-2.76
X5.885Y-2.76
X5.985Y-2.76
X6.155Y-2.76
X6.255Y-2.76
X6.355Y-2.76
X6.455Y-2.76
X6.555Y-2.76
T5
X6.755Y-4.1235
X6.755Y-4.2137
X6.755Y-4.3039
X6.755Y-4.394
X6.755Y-4.4842
X6.755Y-4.5743
X6.755Y-4.6645
X6.755Y-4.7546
X6.755Y-4.8448
X6.855Y-4.0834
X6.855Y-4.1735
X6.855Y-4.2637
X6.855Y-4.3539
X6.855Y-4.444
X6.855Y-4.5342
X6.855Y-4.6243
X6.855Y-4.7145
X6.855Y-4.8046
X6.955Y-4.1235
X6.955Y-4.2137
X6.955Y-4.3039
X6.955Y-4.394
X6.955Y-4.4842
X6.955Y-4.5743
X6.955Y-4.6645
X6.955Y-4.7546
T7
X6.855Y-3.8082
X6.855Y-5.12
T3
G00X7.0188Y-3.0898
M15
G01X7.0621Y-3.0898
M16
G05
G00X7.0188Y-3.43
M15
G01X7.0621Y-3.43
M16
G05
G00X7.1932Y-3.0898
M15
G01X7.2168Y-3.0898
M16
G05
G00X7.1932Y-3.43
M15
G01X7.2168Y-3.43
M16
G05
T4
G00X4.6495Y-3.6297
M15
G01X4.5905Y-3.6297
M16
G05
G00X4.6495Y-3.925
M15
G01X4.5905Y-3.925
M16
G05
G00X4.6495Y-4.115
M15
G01X4.5905Y-4.115
M16
G05
G00X4.6495Y-4.4103
M15
G01X4.5905Y-4.4103
M16
G05
G00X6.765Y-2.6944
M15
G01X6.765Y-2.6156
M16
G05
G00X6.9225Y-2.47
M15
G01X6.8437Y-2.47
M16
G05
G00X7.0012Y-2.6944
M15
G01X7.0012Y-2.6156
M16
G05
T6
G00X4.4743Y-3.7587
M15
G01X4.4743Y-3.7961
M16
G05
G00X4.4743Y-4.2439
M15
G01X4.4743Y-4.2813
M16
G05
T0
M30
